<svg width="24" height="24" viewBox="0 0 24 24" fill="none" xmlns="http://www.w3.org/2000/svg">
<g clip-path="url(#clip0_84_2957)">
<mask id="mask0_84_2957" style="mask-type:luminance" maskUnits="userSpaceOnUse" x="0" y="0" width="24" height="24">
<path d="M24 0H0V24H24V0Z" fill="white"/>
</mask>
<g mask="url(#mask0_84_2957)">
<path d="M20.9602 17.8405L19.3302 18.3905C18.8802 18.5405 18.5202 18.8905 18.3702 19.3505L17.8202 20.9805C17.3502 22.3905 15.3702 22.3605 14.9302 20.9505L13.0802 15.0005C12.7202 13.8205 13.8103 12.7205 14.9803 13.0905L20.9402 14.9405C22.3402 15.3805 22.3602 17.3705 20.9602 17.8405Z" stroke="#174686" stroke-width="1.5" stroke-linecap="round" stroke-linejoin="round"/>
<path d="M22 12C22 6.48 17.52 2 12 2C6.48 2 2 6.48 2 12C2 17.52 6.48 22 12 22" stroke="#174686" stroke-width="1.5" stroke-linecap="round" stroke-linejoin="round"/>
</g>
</g>
<defs>
<clipPath id="clip0_84_2957">
<rect width="24" height="24" fill="white"/>
</clipPath>
</defs>
</svg>
