<svg xmlns="http://www.w3.org/2000/svg" width="24" height="24" viewBox="0 0 24 24" fill="#174686">
<g clip-path="url(#clip0_655_7117)">
<path d="M19.0697 16.89C18.6997 16.89 18.3797 16.62 18.3297 16.25L17.3697 9.47998C17.2997 8.98998 16.8697 8.60998 16.3697 8.60998H7.62974C7.12974 8.60998 6.69974 8.97998 6.62974 9.47998L5.66974 16.25C5.60974 16.66 5.23974 16.95 4.81974 16.89C4.40974 16.83 4.11974 16.45 4.17974 16.04L5.13974 9.26999C5.30974 8.03999 6.37974 7.10999 7.61974 7.10999H16.3597C17.5997 7.10999 18.6697 8.03999 18.8397 9.26999L19.7997 16.04C19.8597 16.45 19.5697 16.83 19.1597 16.89C19.1197 16.89 19.0897 16.89 19.0497 16.89H19.0697Z" fill="#174686"/>
<path d="M12.0001 8.60999C10.9401 8.60999 10.0801 7.74999 10.0801 6.68999C10.0801 5.62999 10.9401 4.76999 12.0001 4.76999C13.0601 4.76999 13.9201 5.62999 13.9201 6.68999C13.9201 7.74999 13.0601 8.60999 12.0001 8.60999ZM12.0001 6.26999C11.7701 6.26999 11.5801 6.45999 11.5801 6.68999C11.5801 6.91999 11.7701 7.10999 12.0001 7.10999C12.2301 7.10999 12.4201 6.91999 12.4201 6.68999C12.4201 6.45999 12.2301 6.26999 12.0001 6.26999Z" fill="#174686"/>
</g>
<defs>
<clipPath id="clip0_655_7117">
<rect width="24" height="24" fill="white"/>
</clipPath>
</defs>
</svg>
