<svg xmlns="http://www.w3.org/2000/svg" width="24" height="24" viewBox="0 0 24 24" fill="#174686">
<g clip-path="url(#clip0_4418_4872)">
<path opacity="0.4" d="M16.19 2H7.81C4.17 2 2 4.17 2 7.81V16.18C2 19.83 4.17 22 7.81 22H16.18C19.82 22 21.99 19.83 21.99 16.19V7.81C22 4.17 19.83 2 16.19 2Z" fill="#174686"/>
<path d="M6.88991 15.7505C6.60991 15.7505 6.34991 15.6005 6.21991 15.3405C6.02991 14.9705 6.17991 14.5205 6.55991 14.3305C7.42991 13.9005 8.16991 13.2405 8.69991 12.4405C8.87991 12.1705 8.87991 11.8305 8.69991 11.5605C8.15991 10.7605 7.41991 10.1005 6.55991 9.67051C6.17991 9.49051 6.02991 9.04051 6.21991 8.66051C6.39991 8.29051 6.84991 8.14051 7.21991 8.33051C8.31991 8.88051 9.25991 9.71051 9.93991 10.7305C10.4499 11.5005 10.4499 12.5005 9.93991 13.2705C9.25991 14.2905 8.31991 15.1205 7.21991 15.6705C7.11991 15.7205 6.99991 15.7505 6.88991 15.7505Z" fill="#174686"/>
<path d="M17 15.75H13C12.59 15.75 12.25 15.41 12.25 15C12.25 14.59 12.59 14.25 13 14.25H17C17.41 14.25 17.75 14.59 17.75 15C17.75 15.41 17.41 15.75 17 15.75Z" fill="#174686"/>
<path d="M19.0698 19.23H4.92977C3.86977 19.23 3.00977 18.37 3.00977 17.31V16.14C3.00977 15.73 3.34977 15.39 3.75977 15.39C4.16977 15.39 4.50977 15.73 4.50977 16.14V17.31C4.50977 17.54 4.69977 17.73 4.92977 17.73H19.0698C19.2998 17.73 19.4898 17.54 19.4898 17.31V16.14C19.4898 15.73 19.8298 15.39 20.2398 15.39C20.6498 15.39 20.9898 15.73 20.9898 16.14V17.31C20.9898 18.37 20.1298 19.23 19.0698 19.23Z" fill="#174686"/>
<path d="M22 16.89H2C1.59 16.89 1.25 16.55 1.25 16.14C1.25 15.73 1.59 15.39 2 15.39H22C22.41 15.39 22.75 15.73 22.75 16.14C22.75 16.55 22.41 16.89 22 16.89Z" fill="#174686"/>
<path d="M13.1699 15.05C12.7599 15.05 12.4199 14.71 12.4199 14.3V11.37C12.4199 10.31 13.2799 9.45001 14.3399 9.45001C15.3999 9.45001 16.2599 10.31 16.2599 11.37V13.13C16.2599 13.54 15.9199 13.88 15.5099 13.88C15.0999 13.88 14.7599 13.54 14.7599 13.13V11.37C14.7599 11.14 14.5699 10.95 14.3399 10.95C14.1099 10.95 13.9199 11.14 13.9199 11.37V14.3C13.9199 14.71 13.5799 15.05 13.1699 15.05Z" fill="#174686"/>
<path d="M15.5195 12.12C15.1095 12.12 14.7695 11.78 14.7695 11.37C14.7695 10.31 15.6295 9.45001 16.6895 9.45001C17.0995 9.45001 17.4395 9.79001 17.4395 10.2C17.4395 10.61 17.0995 10.95 16.6895 10.95C16.4595 10.95 16.2695 11.14 16.2695 11.37C16.2695 11.78 15.9295 12.12 15.5195 12.12Z" fill="#174686"/>
<path d="M13.17 12.12C12.76 12.12 12.42 11.78 12.42 11.37C12.42 11.14 12.23 10.95 12 10.95C11.59 10.95 11.25 10.61 11.25 10.2C11.25 9.79001 11.59 9.45001 12 9.45001C13.06 9.45001 13.92 10.31 13.92 11.37C13.92 11.78 13.58 12.12 13.17 12.12Z" fill="#174686"/>
<path d="M18.2295 10.95H5.76953C5.35953 10.95 5.01953 10.61 5.01953 10.2C5.01953 9.79001 5.35953 9.45001 5.76953 9.45001H18.2295C18.6395 9.45001 18.9795 9.79001 18.9795 10.2C18.9795 10.61 18.6395 10.95 18.2295 10.95Z" fill="#174686"/>
</g>
<defs>
<clipPath id="clip0_4418_4872">
<rect width="24" height="24" fill="white"/>
</clipPath>
</defs>
</svg>
