<svg width="356" height="312" viewBox="0 0 356 312" fill="none" xmlns="http://www.w3.org/2000/svg">
<rect width="355.606" height="311.533" rx="28.1111" fill="white"/>
<path d="M26.2372 51V30.6364H38.8651V33.2812H29.3097V39.4858H37.9602V42.1207H29.3097V51H26.2372ZM45.3778 30.6364V51H42.4048V30.6364H45.3778ZM55.9599 51.3082C54.4551 51.3082 53.1592 50.9867 52.0721 50.3438C50.9916 49.6941 50.1564 48.7827 49.5664 47.6094C48.9831 46.4295 48.6914 45.0473 48.6914 43.4631C48.6914 41.8987 48.9831 40.5199 49.5664 39.3267C50.1564 38.1335 50.9783 37.2022 52.0323 36.5327C53.0929 35.8632 54.3325 35.5284 55.7511 35.5284C56.6128 35.5284 57.448 35.6709 58.2567 35.956C59.0655 36.241 59.7913 36.6884 60.4343 37.2983C61.0773 37.9081 61.5844 38.7003 61.9556 39.6747C62.3268 40.6425 62.5124 41.8191 62.5124 43.2045V44.2585H50.3718V42.0312H59.5991C59.5991 41.2491 59.44 40.5563 59.1218 39.9531C58.8036 39.3433 58.3562 38.8627 57.7795 38.5114C57.2094 38.16 56.5399 37.9844 55.771 37.9844C54.9357 37.9844 54.2066 38.1899 53.5835 38.6009C52.967 39.0052 52.4897 39.5355 52.1516 40.1918C51.8202 40.8414 51.6545 41.5473 51.6545 42.3097V44.0497C51.6545 45.0705 51.8335 45.9389 52.1914 46.6548C52.556 47.3707 53.0631 47.9176 53.7127 48.2955C54.3623 48.6667 55.1213 48.8523 55.9897 48.8523C56.5531 48.8523 57.0669 48.7727 57.5309 48.6136C57.9949 48.4479 58.396 48.2027 58.734 47.8778C59.0721 47.553 59.3306 47.152 59.5096 46.6747L62.3235 47.1818C62.0981 48.0104 61.6938 48.7363 61.1104 49.3594C60.5337 49.9759 59.8079 50.4564 58.9329 50.8011C58.0645 51.1392 57.0735 51.3082 55.9599 51.3082ZM67.8022 35.7273L71.1729 41.6733L74.5735 35.7273H77.8249L73.0621 43.3636L77.8647 51H74.6133L71.1729 45.2926L67.7425 51H64.4812L69.234 43.3636L64.5408 35.7273H67.8022ZM80.8775 51V35.7273H83.8505V51H80.8775ZM82.3789 33.3707C81.8619 33.3707 81.4177 33.1984 81.0465 32.8537C80.6819 32.5024 80.4996 32.0848 80.4996 31.6009C80.4996 31.1103 80.6819 30.6927 81.0465 30.348C81.4177 29.9967 81.8619 29.821 82.3789 29.821C82.896 29.821 83.3368 29.9967 83.7013 30.348C84.0726 30.6927 84.2582 31.1103 84.2582 31.6009C84.2582 32.0848 84.0726 32.5024 83.7013 32.8537C83.3368 33.1984 82.896 33.3707 82.3789 33.3707ZM88.0888 51V30.6364H91.0618V38.2031H91.2408C91.4131 37.8849 91.6617 37.517 91.9865 37.0994C92.3113 36.6818 92.7621 36.3172 93.3388 36.0057C93.9155 35.6875 94.6778 35.5284 95.6257 35.5284C96.8587 35.5284 97.959 35.84 98.9268 36.4631C99.8947 37.0862 100.654 37.9844 101.204 39.1577C101.761 40.331 102.039 41.7429 102.039 43.3935C102.039 45.044 101.764 46.4593 101.214 47.6392C100.664 48.8125 99.9079 49.7173 98.9467 50.3537C97.9856 50.9834 96.8885 51.2983 95.6555 51.2983C94.7275 51.2983 93.9685 51.1425 93.3786 50.831C92.7952 50.5194 92.3378 50.1548 92.0064 49.7372C91.675 49.3196 91.4197 48.9484 91.2408 48.6236H90.9922V51H88.0888ZM91.0021 43.3636C91.0021 44.4375 91.1579 45.3788 91.4695 46.1875C91.781 46.9962 92.2318 47.6293 92.8217 48.0866C93.4117 48.5374 94.1342 48.7628 94.9893 48.7628C95.8776 48.7628 96.62 48.5275 97.2166 48.0568C97.8132 47.5795 98.264 46.9332 98.5689 46.1179C98.8804 45.3026 99.0362 44.3845 99.0362 43.3636C99.0362 42.3561 98.8838 41.4512 98.5788 40.6491C98.2805 39.8471 97.8298 39.214 97.2266 38.75C96.63 38.286 95.8842 38.054 94.9893 38.054C94.1276 38.054 93.3984 38.276 92.8018 38.7202C92.2119 39.1643 91.7644 39.7841 91.4595 40.5795C91.1546 41.375 91.0021 42.303 91.0021 43.3636ZM108.35 30.6364V51H105.377V30.6364H108.35ZM118.933 51.3082C117.428 51.3082 116.132 50.9867 115.045 50.3438C113.964 49.6941 113.129 48.7827 112.539 47.6094C111.956 46.4295 111.664 45.0473 111.664 43.4631C111.664 41.8987 111.956 40.5199 112.539 39.3267C113.129 38.1335 113.951 37.2022 115.005 36.5327C116.066 35.8632 117.305 35.5284 118.724 35.5284C119.585 35.5284 120.421 35.6709 121.229 35.956C122.038 36.241 122.764 36.6884 123.407 37.2983C124.05 37.9081 124.557 38.7003 124.928 39.6747C125.299 40.6425 125.485 41.8191 125.485 43.2045V44.2585H113.344V42.0312H122.572C122.572 41.2491 122.413 40.5563 122.094 39.9531C121.776 39.3433 121.329 38.8627 120.752 38.5114C120.182 38.16 119.513 37.9844 118.744 37.9844C117.908 37.9844 117.179 38.1899 116.556 38.6009C115.94 39.0052 115.462 39.5355 115.124 40.1918C114.793 40.8414 114.627 41.5473 114.627 42.3097V44.0497C114.627 45.0705 114.806 45.9389 115.164 46.6548C115.529 47.3707 116.036 47.9176 116.685 48.2955C117.335 48.6667 118.094 48.8523 118.962 48.8523C119.526 48.8523 120.04 48.7727 120.504 48.6136C120.968 48.4479 121.369 48.2027 121.707 47.8778C122.045 47.553 122.303 47.152 122.482 46.6747L125.296 47.1818C125.071 48.0104 124.666 48.7363 124.083 49.3594C123.506 49.9759 122.781 50.4564 121.906 50.8011C121.037 51.1392 120.046 51.3082 118.933 51.3082ZM138.212 30.6364L143.88 47.2216H144.109L149.776 30.6364H153.097L145.769 51H142.219L134.891 30.6364H138.212ZM160.85 51.3082C159.346 51.3082 158.05 50.9867 156.963 50.3438C155.882 49.6941 155.047 48.7827 154.457 47.6094C153.874 46.4295 153.582 45.0473 153.582 43.4631C153.582 41.8987 153.874 40.5199 154.457 39.3267C155.047 38.1335 155.869 37.2022 156.923 36.5327C157.984 35.8632 159.223 35.5284 160.642 35.5284C161.503 35.5284 162.339 35.6709 163.147 35.956C163.956 36.241 164.682 36.6884 165.325 37.2983C165.968 37.9081 166.475 38.7003 166.846 39.6747C167.217 40.6425 167.403 41.8191 167.403 43.2045V44.2585H155.262V42.0312H164.49C164.49 41.2491 164.331 40.5563 164.012 39.9531C163.694 39.3433 163.247 38.8627 162.67 38.5114C162.1 38.16 161.431 37.9844 160.662 37.9844C159.826 37.9844 159.097 38.1899 158.474 38.6009C157.858 39.0052 157.38 39.5355 157.042 40.1918C156.711 40.8414 156.545 41.5473 156.545 42.3097V44.0497C156.545 45.0705 156.724 45.9389 157.082 46.6548C157.447 47.3707 157.954 47.9176 158.603 48.2955C159.253 48.6667 160.012 48.8523 160.88 48.8523C161.444 48.8523 161.958 48.7727 162.422 48.6136C162.886 48.4479 163.287 48.2027 163.625 47.8778C163.963 47.553 164.221 47.152 164.4 46.6747L167.214 47.1818C166.989 48.0104 166.584 48.7363 166.001 49.3594C165.424 49.9759 164.699 50.4564 163.824 50.8011C162.955 51.1392 161.964 51.3082 160.85 51.3082ZM170.702 51V35.7273H173.575V38.1534H173.734C174.013 37.3314 174.503 36.6851 175.206 36.2145C175.915 35.7372 176.717 35.4986 177.612 35.4986C177.798 35.4986 178.017 35.5052 178.268 35.5185C178.527 35.5317 178.729 35.5483 178.875 35.5682V38.4119C178.756 38.3788 178.544 38.3423 178.239 38.3026C177.934 38.2562 177.629 38.233 177.324 38.233C176.621 38.233 175.995 38.3821 175.445 38.6804C174.901 38.9721 174.47 39.3797 174.152 39.9034C173.834 40.4205 173.675 41.0104 173.675 41.6733V51H170.702ZM181.448 51V35.7273H184.421V51H181.448ZM182.949 33.3707C182.432 33.3707 181.988 33.1984 181.617 32.8537C181.252 32.5024 181.07 32.0848 181.07 31.6009C181.07 31.1103 181.252 30.6927 181.617 30.348C181.988 29.9967 182.432 29.821 182.949 29.821C183.466 29.821 183.907 29.9967 184.272 30.348C184.643 30.6927 184.828 31.1103 184.828 31.6009C184.828 32.0848 184.643 32.5024 184.272 32.8537C183.907 33.1984 183.466 33.3707 182.949 33.3707ZM195.689 35.7273V38.1136H187.058V35.7273H195.689ZM189.425 51V33.9574C189.425 33.0028 189.634 32.2107 190.051 31.581C190.469 30.9446 191.022 30.4706 191.712 30.1591C192.401 29.8409 193.15 29.6818 193.959 29.6818C194.555 29.6818 195.066 29.7315 195.49 29.831C195.914 29.9238 196.229 30.0099 196.435 30.0895L195.739 32.4957C195.599 32.456 195.42 32.4096 195.202 32.3565C194.983 32.2969 194.718 32.267 194.406 32.267C193.684 32.267 193.167 32.446 192.855 32.804C192.55 33.1619 192.398 33.679 192.398 34.3551V51H189.425ZM198.756 51V35.7273H201.729V51H198.756ZM200.258 33.3707C199.741 33.3707 199.297 33.1984 198.925 32.8537C198.561 32.5024 198.379 32.0848 198.379 31.6009C198.379 31.1103 198.561 30.6927 198.925 30.348C199.297 29.9967 199.741 29.821 200.258 29.821C200.775 29.821 201.216 29.9967 201.58 30.348C201.951 30.6927 202.137 31.1103 202.137 31.6009C202.137 32.0848 201.951 32.5024 201.58 32.8537C201.216 33.1984 200.775 33.3707 200.258 33.3707ZM212.162 51.3082C210.684 51.3082 209.411 50.9735 208.344 50.304C207.283 49.6278 206.468 48.6965 205.898 47.5099C205.328 46.3234 205.043 44.9645 205.043 43.4332C205.043 41.8821 205.335 40.5133 205.918 39.3267C206.501 38.1335 207.323 37.2022 208.384 36.5327C209.444 35.8632 210.694 35.5284 212.132 35.5284C213.292 35.5284 214.327 35.7438 215.235 36.1747C216.143 36.599 216.875 37.1955 217.432 37.9645C217.996 38.7334 218.33 39.6316 218.436 40.6591H215.543C215.384 39.9432 215.019 39.3267 214.449 38.8097C213.886 38.2926 213.13 38.0341 212.182 38.0341C211.354 38.0341 210.628 38.2528 210.005 38.6903C209.388 39.1212 208.908 39.7377 208.563 40.5398C208.218 41.3352 208.046 42.2765 208.046 43.3636C208.046 44.4773 208.215 45.4384 208.553 46.2472C208.891 47.0559 209.368 47.6823 209.985 48.1264C210.608 48.5705 211.34 48.7926 212.182 48.7926C212.746 48.7926 213.256 48.6899 213.713 48.4844C214.177 48.2723 214.565 47.9706 214.877 47.5795C215.195 47.1884 215.417 46.7178 215.543 46.1676H218.436C218.33 47.1553 218.009 48.0369 217.472 48.8125C216.935 49.5881 216.216 50.1979 215.314 50.642C214.419 51.0862 213.369 51.3082 212.162 51.3082ZM226.06 51.3381C225.093 51.3381 224.218 51.1591 223.435 50.8011C222.653 50.4366 222.033 49.9096 221.576 49.2202C221.125 48.5308 220.9 47.6856 220.9 46.6847C220.9 45.8229 221.066 45.1136 221.397 44.5568C221.728 44 222.176 43.5592 222.739 43.2344C223.303 42.9096 223.933 42.6643 224.629 42.4986C225.325 42.3329 226.034 42.2069 226.756 42.1207C227.671 42.0147 228.414 41.9285 228.984 41.8622C229.554 41.7893 229.968 41.6733 230.227 41.5142C230.485 41.3551 230.614 41.0966 230.614 40.7386V40.669C230.614 39.8007 230.369 39.1278 229.879 38.6506C229.395 38.1733 228.672 37.9347 227.711 37.9347C226.71 37.9347 225.921 38.1567 225.344 38.6009C224.774 39.0384 224.38 39.5256 224.161 40.0625L221.367 39.4261C221.699 38.4981 222.183 37.7491 222.819 37.179C223.462 36.6023 224.201 36.1847 225.036 35.9261C225.871 35.661 226.75 35.5284 227.671 35.5284C228.281 35.5284 228.927 35.6013 229.61 35.7472C230.299 35.8864 230.942 36.1449 231.539 36.5227C232.142 36.9006 232.636 37.4408 233.021 38.1435C233.405 38.8395 233.597 39.7443 233.597 40.858V51H230.694V48.9119H230.575C230.382 49.2964 230.094 49.6742 229.71 50.0455C229.325 50.4167 228.831 50.7249 228.228 50.9702C227.625 51.2154 226.902 51.3381 226.06 51.3381ZM226.707 48.9517C227.529 48.9517 228.231 48.7893 228.815 48.4645C229.405 48.1397 229.852 47.7154 230.157 47.1918C230.469 46.6615 230.624 46.0947 230.624 45.4915V43.5227C230.518 43.6288 230.313 43.7282 230.008 43.821C229.71 43.9072 229.368 43.9834 228.984 44.0497C228.599 44.1094 228.225 44.1657 227.86 44.2188C227.496 44.2652 227.191 44.3049 226.945 44.3381C226.369 44.411 225.842 44.5336 225.364 44.706C224.894 44.8783 224.516 45.1269 224.231 45.4517C223.952 45.7699 223.813 46.1941 223.813 46.7244C223.813 47.4602 224.085 48.017 224.629 48.3949C225.172 48.7661 225.865 48.9517 226.707 48.9517ZM244.686 35.7273V38.1136H236.344V35.7273H244.686ZM238.581 32.0682H241.554V46.5156C241.554 47.0923 241.641 47.5265 241.813 47.8182C241.985 48.1032 242.207 48.2988 242.479 48.4048C242.757 48.5043 243.059 48.554 243.384 48.554C243.623 48.554 243.831 48.5374 244.01 48.5043C244.189 48.4711 244.328 48.4446 244.428 48.4247L244.965 50.8807C244.792 50.947 244.547 51.0133 244.229 51.0795C243.911 51.1525 243.513 51.1922 243.036 51.1989C242.254 51.2121 241.525 51.0729 240.848 50.7812C240.172 50.4896 239.625 50.0388 239.208 49.429C238.79 48.8191 238.581 48.0535 238.581 47.1321V32.0682ZM247.975 51V35.7273H250.948V51H247.975ZM249.477 33.3707C248.96 33.3707 248.515 33.1984 248.144 32.8537C247.78 32.5024 247.597 32.0848 247.597 31.6009C247.597 31.1103 247.78 30.6927 248.144 30.348C248.515 29.9967 248.96 29.821 249.477 29.821C249.994 29.821 250.434 29.9967 250.799 30.348C251.17 30.6927 251.356 31.1103 251.356 31.6009C251.356 32.0848 251.17 32.5024 250.799 32.8537C250.434 33.1984 249.994 33.3707 249.477 33.3707ZM261.381 51.3082C259.949 51.3082 258.7 50.9801 257.632 50.3239C256.565 49.6676 255.737 48.7495 255.147 47.5696C254.557 46.3897 254.262 45.0109 254.262 43.4332C254.262 41.849 254.557 40.4635 255.147 39.277C255.737 38.0904 256.565 37.169 257.632 36.5128C258.7 35.8565 259.949 35.5284 261.381 35.5284C262.813 35.5284 264.062 35.8565 265.13 36.5128C266.197 37.169 267.025 38.0904 267.615 39.277C268.205 40.4635 268.5 41.849 268.5 43.4332C268.5 45.0109 268.205 46.3897 267.615 47.5696C267.025 48.7495 266.197 49.6676 265.13 50.3239C264.062 50.9801 262.813 51.3082 261.381 51.3082ZM261.391 48.8125C262.319 48.8125 263.088 48.5672 263.698 48.0767C264.308 47.5862 264.758 46.9332 265.05 46.1179C265.348 45.3026 265.498 44.4044 265.498 43.4233C265.498 42.4489 265.348 41.554 265.05 40.7386C264.758 39.9167 264.308 39.2571 263.698 38.7599C263.088 38.2628 262.319 38.0142 261.391 38.0142C260.456 38.0142 259.681 38.2628 259.064 38.7599C258.454 39.2571 258 39.9167 257.702 40.7386C257.41 41.554 257.265 42.4489 257.265 43.4233C257.265 44.4044 257.41 45.3026 257.702 46.1179C258 46.9332 258.454 47.5862 259.064 48.0767C259.681 48.5672 260.456 48.8125 261.391 48.8125ZM274.792 41.9318V51H271.819V35.7273H274.673V38.2131H274.862C275.213 37.4044 275.763 36.7547 276.512 36.2642C277.268 35.7737 278.219 35.5284 279.366 35.5284C280.406 35.5284 281.318 35.7472 282.1 36.1847C282.882 36.6155 283.489 37.2585 283.92 38.1136C284.351 38.9687 284.566 40.026 284.566 41.2855V51H281.593V41.6435C281.593 40.5365 281.305 39.6714 280.728 39.0483C280.151 38.4186 279.359 38.1037 278.352 38.1037C277.662 38.1037 277.049 38.2528 276.512 38.5511C275.982 38.8494 275.561 39.2869 275.249 39.8636C274.944 40.4337 274.792 41.1231 274.792 41.9318ZM43.9261 74.8182C43.9261 76.9924 43.5284 78.8617 42.733 80.4261C41.9375 81.9839 40.8471 83.1837 39.4616 84.0256C38.0829 84.8608 36.5152 85.2784 34.7585 85.2784C32.9953 85.2784 31.4209 84.8608 30.0355 84.0256C28.6567 83.1837 27.5696 81.9806 26.7741 80.4162C25.9787 78.8518 25.581 76.9858 25.581 74.8182C25.581 72.6439 25.9787 70.7779 26.7741 69.2202C27.5696 67.6558 28.6567 66.456 30.0355 65.6207C31.4209 64.7789 32.9953 64.358 34.7585 64.358C36.5152 64.358 38.0829 64.7789 39.4616 65.6207C40.8471 66.456 41.9375 67.6558 42.733 69.2202C43.5284 70.7779 43.9261 72.6439 43.9261 74.8182ZM40.8835 74.8182C40.8835 73.161 40.6151 71.7656 40.0781 70.6321C39.5478 69.492 38.8187 68.6302 37.8906 68.0469C36.9692 67.4569 35.9252 67.1619 34.7585 67.1619C33.5852 67.1619 32.5379 67.4569 31.6165 68.0469C30.6951 68.6302 29.9659 69.492 29.429 70.6321C28.8987 71.7656 28.6335 73.161 28.6335 74.8182C28.6335 76.4754 28.8987 77.8741 29.429 79.0142C29.9659 80.1477 30.6951 81.0095 31.6165 81.5994C32.5379 82.1828 33.5852 82.4744 34.7585 82.4744C35.9252 82.4744 36.9692 82.1828 37.8906 81.5994C38.8187 81.0095 39.5478 80.1477 40.0781 79.0142C40.6151 77.8741 40.8835 76.4754 40.8835 74.8182ZM47.5181 90.7273V69.7273H50.4215V72.2031H50.6701C50.8424 71.8849 51.091 71.517 51.4158 71.0994C51.7406 70.6818 52.1914 70.3172 52.7681 70.0057C53.3448 69.6875 54.1071 69.5284 55.055 69.5284C56.288 69.5284 57.3884 69.84 58.3562 70.4631C59.324 71.0862 60.083 71.9844 60.6332 73.1577C61.19 74.331 61.4684 75.7429 61.4684 77.3935C61.4684 79.044 61.1933 80.4593 60.6431 81.6392C60.0929 82.8125 59.3372 83.7173 58.3761 84.3537C57.4149 84.9834 56.3178 85.2983 55.0849 85.2983C54.1568 85.2983 53.3978 85.1425 52.8079 84.831C52.2246 84.5194 51.7672 84.1548 51.4357 83.7372C51.1043 83.3196 50.8491 82.9484 50.6701 82.6236H50.4911V90.7273H47.5181ZM50.4315 77.3636C50.4315 78.4375 50.5872 79.3788 50.8988 80.1875C51.2103 80.9962 51.6611 81.6293 52.2511 82.0866C52.841 82.5374 53.5636 82.7628 54.4187 82.7628C55.3069 82.7628 56.0494 82.5275 56.646 82.0568C57.2425 81.5795 57.6933 80.9332 57.9982 80.1179C58.3098 79.3026 58.4656 78.3845 58.4656 77.3636C58.4656 76.3561 58.3131 75.4512 58.0082 74.6491C57.7099 73.8471 57.2591 73.214 56.6559 72.75C56.0593 72.286 55.3136 72.054 54.4187 72.054C53.5569 72.054 52.8278 72.276 52.2312 72.7202C51.6412 73.1643 51.1938 73.7841 50.8888 74.5795C50.5839 75.375 50.4315 76.303 50.4315 77.3636ZM71.9286 69.7273V72.1136H63.5863V69.7273H71.9286ZM65.8235 66.0682H68.7965V80.5156C68.7965 81.0923 68.8827 81.5265 69.055 81.8182C69.2274 82.1032 69.4495 82.2988 69.7212 82.4048C69.9996 82.5043 70.3013 82.554 70.6261 82.554C70.8647 82.554 71.0735 82.5374 71.2525 82.5043C71.4315 82.4711 71.5707 82.4446 71.6701 82.4247L72.207 84.8807C72.0347 84.947 71.7894 85.0133 71.4712 85.0795C71.1531 85.1525 70.7553 85.1922 70.2781 85.1989C69.4959 85.2121 68.7667 85.0729 68.0906 84.7812C67.4144 84.4896 66.8675 84.0388 66.4499 83.429C66.0323 82.8191 65.8235 82.0535 65.8235 81.1321V66.0682ZM75.2173 85V69.7273H78.1903V85H75.2173ZM76.7188 67.3707C76.2017 67.3707 75.7576 67.1984 75.3864 66.8537C75.0218 66.5024 74.8395 66.0848 74.8395 65.6009C74.8395 65.1103 75.0218 64.6927 75.3864 64.348C75.7576 63.9967 76.2017 63.821 76.7188 63.821C77.2358 63.821 77.6766 63.9967 78.0412 64.348C78.4124 64.6927 78.598 65.1103 78.598 65.6009C78.598 66.0848 78.4124 66.5024 78.0412 66.8537C77.6766 67.1984 77.2358 67.3707 76.7188 67.3707ZM88.6232 85.3082C87.1914 85.3082 85.9419 84.9801 84.8746 84.3239C83.8074 83.6676 82.9788 82.7495 82.3888 81.5696C81.7989 80.3897 81.5039 79.0109 81.5039 77.4332C81.5039 75.849 81.7989 74.4635 82.3888 73.277C82.9788 72.0904 83.8074 71.169 84.8746 70.5128C85.9419 69.8565 87.1914 69.5284 88.6232 69.5284C90.055 69.5284 91.3046 69.8565 92.3718 70.5128C93.439 71.169 94.2676 72.0904 94.8576 73.277C95.4476 74.4635 95.7425 75.849 95.7425 77.4332C95.7425 79.0109 95.4476 80.3897 94.8576 81.5696C94.2676 82.7495 93.439 83.6676 92.3718 84.3239C91.3046 84.9801 90.055 85.3082 88.6232 85.3082ZM88.6332 82.8125C89.5612 82.8125 90.3301 82.5672 90.94 82.0767C91.5498 81.5862 92.0006 80.9332 92.2923 80.1179C92.5906 79.3026 92.7397 78.4044 92.7397 77.4233C92.7397 76.4489 92.5906 75.554 92.2923 74.7386C92.0006 73.9167 91.5498 73.2571 90.94 72.7599C90.3301 72.2628 89.5612 72.0142 88.6332 72.0142C87.6985 72.0142 86.9229 72.2628 86.3065 72.7599C85.6966 73.2571 85.2425 73.9167 84.9442 74.7386C84.6526 75.554 84.5067 76.4489 84.5067 77.4233C84.5067 78.4044 84.6526 79.3026 84.9442 80.1179C85.2425 80.9332 85.6966 81.5862 86.3065 82.0767C86.9229 82.5672 87.6985 82.8125 88.6332 82.8125ZM102.034 75.9318V85H99.0611V69.7273H101.915V72.2131H102.104C102.455 71.4044 103.005 70.7547 103.754 70.2642C104.51 69.7737 105.461 69.5284 106.608 69.5284C107.649 69.5284 108.56 69.7472 109.342 70.1847C110.125 70.6155 110.731 71.2585 111.162 72.1136C111.593 72.9687 111.808 74.026 111.808 75.2855V85H108.835V75.6435C108.835 74.5365 108.547 73.6714 107.97 73.0483C107.393 72.4186 106.601 72.1037 105.594 72.1037C104.904 72.1037 104.291 72.2528 103.754 72.5511C103.224 72.8494 102.803 73.2869 102.491 73.8636C102.187 74.4337 102.034 75.1231 102.034 75.9318ZM127.24 73.456L124.545 73.9332C124.433 73.5885 124.254 73.2604 124.009 72.9489C123.77 72.6373 123.445 72.3821 123.034 72.1832C122.623 71.9844 122.109 71.8849 121.493 71.8849C120.651 71.8849 119.948 72.0739 119.385 72.4517C118.821 72.8229 118.54 73.3035 118.54 73.8935C118.54 74.4039 118.729 74.8149 119.107 75.1264C119.484 75.438 120.094 75.6932 120.936 75.892L123.362 76.4489C124.768 76.7737 125.815 77.2741 126.504 77.9503C127.194 78.6264 127.538 79.5047 127.538 80.5852C127.538 81.5 127.273 82.3153 126.743 83.0312C126.219 83.7405 125.487 84.2973 124.545 84.7017C123.611 85.1061 122.527 85.3082 121.294 85.3082C119.584 85.3082 118.188 84.9437 117.108 84.2145C116.027 83.4787 115.365 82.4347 115.119 81.0824L117.993 80.6449C118.172 81.3939 118.54 81.9607 119.097 82.3452C119.653 82.723 120.379 82.9119 121.274 82.9119C122.249 82.9119 123.027 82.7098 123.611 82.3054C124.194 81.8944 124.486 81.3939 124.486 80.804C124.486 80.3267 124.307 79.9257 123.949 79.6009C123.598 79.276 123.057 79.0308 122.328 78.8651L119.743 78.2983C118.318 77.9735 117.264 77.4564 116.581 76.7472C115.905 76.0379 115.567 75.1397 115.567 74.0526C115.567 73.151 115.819 72.3622 116.322 71.6861C116.826 71.0099 117.522 70.483 118.411 70.1051C119.299 69.7206 120.316 69.5284 121.463 69.5284C123.114 69.5284 124.413 69.8864 125.361 70.6023C126.309 71.3116 126.935 72.2628 127.24 73.456Z" fill="url(#paint0_linear_84_2761)"/>
<g filter="url(#filter0_d_84_2761)">
<rect x="24" y="114" width="307" height="68" rx="34" fill="#DDE4EE"/>
</g>
<rect width="268" height="55.3067" transform="translate(34.5225 120.065)" fill="#DDE4EE"/>
<rect x="34.5225" y="120.718" width="54" height="54" rx="27" fill="white"/>
<g clip-path="url(#clip0_84_2761)">
<mask id="mask0_84_2761" style="mask-type:luminance" maskUnits="userSpaceOnUse" x="40" y="127" width="42" height="42">
<path d="M81.788 127.207H40.7651V168.23H81.788V127.207Z" fill="white"/>
</mask>
<g mask="url(#mask0_84_2761)">
<path opacity="0.4" d="M45.4997 144.3C44.7648 144.3 44.1836 143.719 44.1836 142.984V139.036C44.1836 134.403 47.9611 130.626 52.5933 130.626H56.5417C57.2767 130.626 57.8579 131.207 57.8579 131.942C57.8579 132.677 57.2767 133.258 56.5417 133.258H52.5933C49.3969 133.258 46.8159 135.856 46.8159 139.036V142.984C46.8159 143.719 46.2176 144.3 45.4997 144.3Z" fill="#174686"/>
<path opacity="0.4" d="M77.053 144.3C76.3351 144.3 75.7368 143.719 75.7368 142.984V139.036C75.7368 135.839 73.1387 133.258 69.9594 133.258H66.011C65.276 133.258 64.6948 132.66 64.6948 131.942C64.6948 131.224 65.276 130.626 66.011 130.626H69.9594C74.5916 130.626 78.3691 134.403 78.3691 139.036V142.984C78.3691 143.719 77.788 144.3 77.053 144.3Z" fill="#174686"/>
<path d="M69.9596 164.811H67.5837C66.8658 164.811 66.2676 164.23 66.2676 163.495C66.2676 162.777 66.8487 162.178 67.5837 162.178H69.9596C73.156 162.178 75.737 159.58 75.737 156.401V154.042C75.737 153.324 76.3182 152.726 77.0532 152.726C77.7711 152.726 78.3693 153.307 78.3693 154.042V156.401C78.3693 161.033 74.5918 164.811 69.9596 164.811Z" fill="#174686"/>
<path d="M56.5417 164.811H52.5933C47.9611 164.811 44.1836 161.034 44.1836 156.402V152.453C44.1836 151.718 44.7648 151.137 45.4997 151.137C46.2347 151.137 46.8159 151.718 46.8159 152.453V156.402C46.8159 159.598 49.414 162.179 52.5933 162.179H56.5417C57.2596 162.179 57.8579 162.76 57.8579 163.495C57.8579 164.23 57.2767 164.811 56.5417 164.811Z" fill="#174686"/>
<path d="M72.3186 146.403H69.9939H52.5592H50.2346C49.4996 146.403 48.9185 147.002 48.9185 147.719C48.9185 148.437 49.4996 149.036 50.2346 149.036H52.5592H69.9939H72.3186C73.0535 149.036 73.6347 148.437 73.6347 147.719C73.6347 147.002 73.0535 146.403 72.3186 146.403Z" fill="#174686"/>
<path d="M52.5591 151.036V151.6C52.5591 154.437 54.8495 156.728 57.6869 156.728H64.8659C67.7034 156.728 69.9938 154.437 69.9938 151.6V151.036C69.9938 150.831 69.84 150.677 69.6349 150.677H52.918C52.7129 150.677 52.5591 150.831 52.5591 151.036Z" fill="#174686"/>
<path opacity="0.4" d="M52.5591 144.403V143.839C52.5591 141.002 54.8495 138.711 57.6869 138.711H64.8659C67.7034 138.711 69.9938 141.002 69.9938 143.839V144.403C69.9938 144.609 69.84 144.762 69.6349 144.762H52.918C52.7129 144.762 52.5591 144.609 52.5591 144.403Z" fill="#174686"/>
</g>
</g>
<path d="M106.21 144.218C106.116 143.427 105.736 142.812 105.069 142.375C104.403 141.937 103.585 141.718 102.616 141.718C101.908 141.718 101.288 141.833 100.757 142.062C100.231 142.291 99.8193 142.606 99.5225 143.007C99.2308 143.408 99.085 143.864 99.085 144.375C99.085 144.802 99.1865 145.169 99.3896 145.476C99.598 145.778 99.8636 146.031 100.187 146.234C100.509 146.432 100.848 146.596 101.202 146.726C101.556 146.851 101.882 146.953 102.179 147.031L103.804 147.468C104.22 147.578 104.684 147.729 105.194 147.921C105.71 148.114 106.202 148.377 106.671 148.71C107.145 149.039 107.535 149.46 107.843 149.976C108.15 150.492 108.304 151.125 108.304 151.875C108.304 152.739 108.077 153.52 107.624 154.218C107.176 154.916 106.52 155.471 105.655 155.882C104.796 156.294 103.752 156.5 102.522 156.5C101.377 156.5 100.384 156.315 99.5459 155.945C98.7126 155.575 98.0563 155.059 97.5771 154.398C97.1032 153.736 96.835 152.968 96.7725 152.093H98.7725C98.8245 152.697 99.0277 153.197 99.3818 153.593C99.7412 153.984 100.194 154.276 100.741 154.468C101.293 154.656 101.887 154.75 102.522 154.75C103.262 154.75 103.926 154.63 104.515 154.39C105.103 154.145 105.569 153.807 105.913 153.375C106.257 152.937 106.429 152.427 106.429 151.843C106.429 151.312 106.28 150.88 105.983 150.546C105.687 150.213 105.296 149.942 104.812 149.734C104.327 149.526 103.804 149.343 103.241 149.187L101.272 148.625C100.022 148.265 99.0329 147.752 98.3037 147.085C97.5745 146.419 97.21 145.546 97.21 144.468C97.21 143.572 97.4521 142.791 97.9365 142.125C98.4261 141.453 99.0824 140.932 99.9053 140.562C100.733 140.187 101.658 140 102.679 140C103.71 140 104.627 140.184 105.429 140.554C106.231 140.919 106.866 141.419 107.335 142.054C107.809 142.69 108.059 143.411 108.085 144.218H106.21ZM116.114 156.468C114.989 156.468 114.021 156.203 113.208 155.671C112.396 155.14 111.771 154.408 111.333 153.476C110.896 152.544 110.677 151.479 110.677 150.281C110.677 149.062 110.901 147.986 111.349 147.054C111.802 146.117 112.432 145.385 113.239 144.859C114.052 144.328 115 144.062 116.083 144.062C116.927 144.062 117.687 144.218 118.364 144.531C119.041 144.843 119.596 145.281 120.028 145.843C120.461 146.406 120.729 147.062 120.833 147.812H118.989C118.849 147.265 118.536 146.781 118.052 146.359C117.573 145.932 116.927 145.718 116.114 145.718C115.396 145.718 114.765 145.906 114.224 146.281C113.687 146.651 113.268 147.174 112.966 147.851C112.669 148.523 112.521 149.312 112.521 150.218C112.521 151.145 112.666 151.953 112.958 152.64C113.255 153.328 113.672 153.861 114.208 154.242C114.75 154.622 115.385 154.812 116.114 154.812C116.593 154.812 117.028 154.729 117.419 154.562C117.81 154.395 118.14 154.156 118.411 153.843C118.682 153.531 118.875 153.156 118.989 152.718H120.833C120.729 153.427 120.471 154.065 120.06 154.632C119.653 155.195 119.114 155.643 118.442 155.976C117.776 156.304 117 156.468 116.114 156.468ZM127.06 156.5C126.299 156.5 125.609 156.356 124.989 156.07C124.369 155.778 123.877 155.359 123.513 154.812C123.148 154.26 122.966 153.593 122.966 152.812C122.966 152.125 123.101 151.567 123.372 151.14C123.643 150.708 124.005 150.369 124.458 150.125C124.911 149.88 125.411 149.697 125.958 149.578C126.51 149.453 127.065 149.354 127.622 149.281C128.351 149.187 128.942 149.117 129.396 149.07C129.854 149.018 130.187 148.932 130.396 148.812C130.609 148.692 130.716 148.484 130.716 148.187V148.125C130.716 147.354 130.505 146.755 130.083 146.328C129.666 145.901 129.034 145.687 128.185 145.687C127.304 145.687 126.614 145.88 126.114 146.265C125.614 146.651 125.263 147.062 125.06 147.5L123.31 146.875C123.622 146.145 124.039 145.578 124.56 145.171C125.086 144.76 125.659 144.473 126.278 144.312C126.903 144.145 127.518 144.062 128.122 144.062C128.507 144.062 128.95 144.109 129.45 144.203C129.955 144.291 130.442 144.476 130.911 144.757C131.385 145.039 131.778 145.463 132.091 146.031C132.403 146.598 132.56 147.359 132.56 148.312V156.218H130.716V154.593H130.622C130.497 154.854 130.289 155.132 129.997 155.429C129.705 155.726 129.317 155.979 128.833 156.187C128.349 156.395 127.757 156.5 127.06 156.5ZM127.341 154.843C128.07 154.843 128.685 154.7 129.185 154.414C129.69 154.127 130.07 153.757 130.325 153.304C130.586 152.851 130.716 152.375 130.716 151.875V150.187C130.638 150.281 130.466 150.367 130.2 150.445C129.94 150.518 129.638 150.583 129.294 150.64C128.955 150.692 128.625 150.739 128.302 150.781C127.984 150.817 127.726 150.848 127.528 150.875C127.049 150.937 126.601 151.039 126.185 151.179C125.773 151.315 125.44 151.52 125.185 151.796C124.935 152.067 124.81 152.437 124.81 152.906C124.81 153.546 125.047 154.031 125.521 154.359C126 154.682 126.606 154.843 127.341 154.843ZM137.769 149V156.218H135.925V144.218H137.706V146.093H137.862C138.144 145.484 138.571 144.994 139.144 144.625C139.716 144.25 140.456 144.062 141.362 144.062C142.175 144.062 142.886 144.229 143.495 144.562C144.104 144.89 144.578 145.39 144.917 146.062C145.256 146.729 145.425 147.572 145.425 148.593V156.218H143.581V148.718C143.581 147.776 143.336 147.041 142.847 146.515C142.357 145.984 141.685 145.718 140.831 145.718C140.243 145.718 139.716 145.846 139.253 146.101C138.795 146.356 138.433 146.729 138.167 147.218C137.901 147.708 137.769 148.302 137.769 149ZM161.044 151.218H163.169L164.95 153.562L165.419 154.187L168.075 157.718H165.95L164.2 155.375L163.763 154.781L161.044 151.218ZM168.731 148.218C168.731 149.906 168.427 151.364 167.817 152.593C167.208 153.822 166.372 154.77 165.31 155.437C164.247 156.104 163.034 156.437 161.669 156.437C160.304 156.437 159.091 156.104 158.028 155.437C156.966 154.77 156.13 153.822 155.521 152.593C154.911 151.364 154.606 149.906 154.606 148.218C154.606 146.531 154.911 145.072 155.521 143.843C156.13 142.614 156.966 141.666 158.028 141C159.091 140.333 160.304 140 161.669 140C163.034 140 164.247 140.333 165.31 141C166.372 141.666 167.208 142.614 167.817 143.843C168.427 145.072 168.731 146.531 168.731 148.218ZM166.856 148.218C166.856 146.833 166.625 145.664 166.161 144.71C165.703 143.757 165.08 143.036 164.294 142.546C163.513 142.057 162.638 141.812 161.669 141.812C160.7 141.812 159.823 142.057 159.036 142.546C158.255 143.036 157.632 143.757 157.169 144.71C156.711 145.664 156.481 146.833 156.481 148.218C156.481 149.604 156.711 150.773 157.169 151.726C157.632 152.679 158.255 153.401 159.036 153.89C159.823 154.38 160.7 154.625 161.669 154.625C162.638 154.625 163.513 154.38 164.294 153.89C165.08 153.401 165.703 152.679 166.161 151.726C166.625 150.773 166.856 149.604 166.856 148.218ZM171.989 156.218V140.218H177.396C178.646 140.218 179.672 140.432 180.474 140.859C181.276 141.281 181.869 141.861 182.255 142.601C182.64 143.341 182.833 144.182 182.833 145.125C182.833 146.067 182.64 146.903 182.255 147.632C181.869 148.361 181.278 148.934 180.481 149.351C179.685 149.763 178.666 149.968 177.427 149.968H173.052V148.218H177.364C178.218 148.218 178.906 148.093 179.427 147.843C179.953 147.593 180.333 147.239 180.567 146.781C180.807 146.317 180.927 145.765 180.927 145.125C180.927 144.484 180.807 143.924 180.567 143.445C180.328 142.966 179.945 142.596 179.419 142.335C178.893 142.07 178.198 141.937 177.333 141.937H173.927V156.218H171.989ZM179.521 149.031L183.458 156.218H181.208L177.333 149.031H179.521ZM205.124 145.218H203.187C203.072 144.661 202.871 144.171 202.585 143.75C202.304 143.328 201.96 142.973 201.554 142.687C201.153 142.395 200.707 142.177 200.218 142.031C199.728 141.885 199.218 141.812 198.687 141.812C197.718 141.812 196.84 142.057 196.054 142.546C195.272 143.036 194.65 143.757 194.187 144.71C193.728 145.664 193.499 146.833 193.499 148.218C193.499 149.604 193.728 150.773 194.187 151.726C194.65 152.679 195.272 153.401 196.054 153.89C196.84 154.38 197.718 154.625 198.687 154.625C199.218 154.625 199.728 154.552 200.218 154.406C200.707 154.26 201.153 154.044 201.554 153.757C201.96 153.466 202.304 153.109 202.585 152.687C202.871 152.26 203.072 151.77 203.187 151.218H205.124C204.978 152.036 204.713 152.768 204.327 153.414C203.942 154.059 203.463 154.609 202.89 155.062C202.317 155.51 201.674 155.851 200.96 156.085C200.252 156.32 199.494 156.437 198.687 156.437C197.322 156.437 196.108 156.104 195.046 155.437C193.983 154.77 193.147 153.822 192.538 152.593C191.929 151.364 191.624 149.906 191.624 148.218C191.624 146.531 191.929 145.072 192.538 143.843C193.147 142.614 193.983 141.666 195.046 141C196.108 140.333 197.322 140 198.687 140C199.494 140 200.252 140.117 200.96 140.351C201.674 140.585 202.317 140.929 202.89 141.382C203.463 141.83 203.942 142.377 204.327 143.023C204.713 143.664 204.978 144.395 205.124 145.218ZM212.88 156.468C211.797 156.468 210.846 156.21 210.028 155.695C209.216 155.179 208.58 154.458 208.122 153.531C207.669 152.604 207.442 151.52 207.442 150.281C207.442 149.031 207.669 147.94 208.122 147.007C208.58 146.075 209.216 145.351 210.028 144.835C210.846 144.32 211.797 144.062 212.88 144.062C213.963 144.062 214.911 144.32 215.724 144.835C216.541 145.351 217.177 146.075 217.63 147.007C218.088 147.94 218.317 149.031 218.317 150.281C218.317 151.52 218.088 152.604 217.63 153.531C217.177 154.458 216.541 155.179 215.724 155.695C214.911 156.21 213.963 156.468 212.88 156.468ZM212.88 154.812C213.703 154.812 214.38 154.601 214.911 154.179C215.442 153.757 215.836 153.203 216.091 152.515C216.346 151.828 216.474 151.083 216.474 150.281C216.474 149.479 216.346 148.731 216.091 148.039C215.836 147.346 215.442 146.786 214.911 146.359C214.38 145.932 213.703 145.718 212.88 145.718C212.057 145.718 211.38 145.932 210.849 146.359C210.317 146.786 209.924 147.346 209.669 148.039C209.414 148.731 209.286 149.479 209.286 150.281C209.286 151.083 209.414 151.828 209.669 152.515C209.924 153.203 210.317 153.757 210.849 154.179C211.38 154.601 212.057 154.812 212.88 154.812ZM225.663 156.468C224.663 156.468 223.78 156.216 223.015 155.71C222.249 155.2 221.65 154.481 221.218 153.554C220.785 152.622 220.569 151.52 220.569 150.25C220.569 148.989 220.785 147.895 221.218 146.968C221.65 146.041 222.252 145.325 223.022 144.82C223.793 144.315 224.684 144.062 225.694 144.062C226.476 144.062 227.093 144.192 227.546 144.453C228.004 144.708 228.353 145 228.593 145.328C228.838 145.651 229.028 145.916 229.163 146.125H229.319V140.218H231.163V156.218H229.382V154.375H229.163C229.028 154.593 228.835 154.869 228.585 155.203C228.335 155.531 227.978 155.825 227.515 156.085C227.051 156.341 226.434 156.468 225.663 156.468ZM225.913 154.812C226.653 154.812 227.278 154.619 227.788 154.234C228.299 153.843 228.687 153.304 228.952 152.617C229.218 151.924 229.351 151.125 229.351 150.218C229.351 149.322 229.22 148.539 228.96 147.867C228.7 147.19 228.314 146.664 227.804 146.289C227.293 145.908 226.663 145.718 225.913 145.718C225.132 145.718 224.481 145.919 223.96 146.32C223.444 146.716 223.056 147.255 222.796 147.937C222.541 148.614 222.413 149.375 222.413 150.218C222.413 151.072 222.543 151.848 222.804 152.546C223.069 153.239 223.46 153.791 223.976 154.203C224.496 154.609 225.142 154.812 225.913 154.812ZM239.827 156.468C238.671 156.468 237.674 156.213 236.835 155.703C236.002 155.187 235.358 154.468 234.905 153.546C234.457 152.619 234.233 151.541 234.233 150.312C234.233 149.083 234.457 148 234.905 147.062C235.358 146.119 235.989 145.385 236.796 144.859C237.608 144.328 238.556 144.062 239.64 144.062C240.265 144.062 240.882 144.166 241.491 144.375C242.101 144.583 242.655 144.921 243.155 145.39C243.655 145.854 244.054 146.468 244.351 147.234C244.647 148 244.796 148.942 244.796 150.062V150.843H235.546V149.25H242.921C242.921 148.572 242.785 147.968 242.515 147.437C242.249 146.906 241.869 146.486 241.374 146.179C240.884 145.872 240.306 145.718 239.64 145.718C238.905 145.718 238.27 145.901 237.733 146.265C237.202 146.625 236.793 147.093 236.507 147.671C236.22 148.25 236.077 148.869 236.077 149.531V150.593C236.077 151.5 236.233 152.268 236.546 152.898C236.864 153.523 237.304 154 237.866 154.328C238.429 154.651 239.082 154.812 239.827 154.812C240.312 154.812 240.749 154.744 241.14 154.609C241.535 154.468 241.877 154.26 242.163 153.984C242.45 153.703 242.671 153.354 242.827 152.937L244.608 153.437C244.421 154.041 244.106 154.572 243.663 155.031C243.22 155.484 242.674 155.838 242.022 156.093C241.371 156.343 240.64 156.468 239.827 156.468Z" fill="#174686"/>
<g filter="url(#filter1_d_84_2761)">
<rect x="24" y="211" width="307" height="68" rx="34" fill="#DDE4EE"/>
</g>
<rect width="268" height="55.3067" transform="translate(34.5225 217.065)" fill="#DDE4EE"/>
<rect x="34.5225" y="217.718" width="54" height="54" rx="27" fill="white"/>
<g clip-path="url(#clip1_84_2761)">
<mask id="mask1_84_2761" style="mask-type:luminance" maskUnits="userSpaceOnUse" x="40" y="224" width="42" height="42">
<path d="M81.788 224.207H40.7651V265.23H81.788V224.207Z" fill="white"/>
</mask>
<g mask="url(#mask1_84_2761)">
<path opacity="0.4" d="M71.9938 229.933C71.1904 229.813 70.2674 229.762 68.9683 229.762H53.5847C52.3028 229.762 51.3627 229.813 50.6106 229.916C44.8845 230.548 43.7563 233.95 43.7563 239.591V249.846C43.7563 255.487 44.8845 258.888 50.5593 259.504C51.3627 259.623 52.2857 259.675 53.5847 259.675H68.9683C70.2503 259.675 71.1904 259.623 71.9425 259.521C77.6686 258.888 78.7967 255.504 78.7967 249.846V239.591C78.7967 233.95 77.6686 230.548 71.9938 229.933Z" fill="#174686"/>
<path d="M69.8231 242.582H63.8406C63.1398 242.582 62.5586 242.001 62.5586 241.3C62.5586 240.599 63.1398 240.018 63.8406 240.018H69.8231C70.5239 240.018 71.105 240.599 71.105 241.3C71.105 242.001 70.5239 242.582 69.8231 242.582Z" fill="#174686"/>
<path d="M58.0291 243.009C57.089 243.009 56.3198 242.24 56.3198 241.3C56.3198 240.36 57.0719 239.591 58.0291 239.591H58.0462C58.9863 239.591 59.7555 240.36 59.7555 241.3C59.7555 242.24 58.9863 243.009 58.0291 243.009Z" fill="#174686"/>
<path d="M52.9012 243.009C51.9611 243.009 51.1919 242.24 51.1919 241.3C51.1919 240.36 51.944 239.591 52.9012 239.591C53.8413 239.591 54.6105 240.36 54.6105 241.3C54.6105 242.24 53.8584 243.009 52.9012 243.009Z" fill="#174686"/>
<path d="M69.8226 251.983H52.7639C52.0631 251.983 51.4648 251.402 51.4648 250.701C51.4648 250 52.0289 249.419 52.7297 249.419H69.8226C70.5234 249.419 71.1046 250 71.1046 250.701C71.1046 251.402 70.5234 251.983 69.8226 251.983Z" fill="#174686"/>
</g>
</g>
<path d="M97.46 253.218V237.218H107.116V238.937H99.3975V244.343H106.616V246.062H99.3975V251.5H107.241V253.218H97.46ZM112.202 246V253.218H110.358V241.218H112.14V243.093H112.296C112.577 242.484 113.004 241.994 113.577 241.625C114.15 241.25 114.89 241.062 115.796 241.062C116.608 241.062 117.319 241.229 117.929 241.562C118.538 241.89 119.012 242.39 119.351 243.062C119.689 243.729 119.858 244.572 119.858 245.593V253.218H118.015V245.718C118.015 244.776 117.77 244.041 117.28 243.515C116.791 242.984 116.119 242.718 115.265 242.718C114.676 242.718 114.15 242.846 113.687 243.101C113.228 243.356 112.866 243.729 112.601 244.218C112.335 244.708 112.202 245.302 112.202 246ZM128.446 241.218V242.781H122.228V241.218H128.446ZM124.04 238.343H125.884V249.781C125.884 250.302 125.959 250.692 126.11 250.953C126.267 251.208 126.465 251.38 126.704 251.468C126.949 251.552 127.207 251.593 127.478 251.593C127.681 251.593 127.847 251.583 127.978 251.562C128.108 251.536 128.212 251.515 128.29 251.5L128.665 253.156C128.54 253.203 128.366 253.25 128.142 253.296C127.918 253.348 127.634 253.375 127.29 253.375C126.769 253.375 126.259 253.263 125.759 253.039C125.264 252.815 124.853 252.473 124.524 252.015C124.201 251.557 124.04 250.979 124.04 250.281V238.343ZM136.122 253.468C134.966 253.468 133.968 253.213 133.13 252.703C132.297 252.187 131.653 251.468 131.2 250.546C130.752 249.619 130.528 248.541 130.528 247.312C130.528 246.083 130.752 245 131.2 244.062C131.653 243.119 132.284 242.385 133.091 241.859C133.903 241.328 134.851 241.062 135.935 241.062C136.56 241.062 137.177 241.166 137.786 241.375C138.396 241.583 138.95 241.921 139.45 242.39C139.95 242.854 140.349 243.468 140.646 244.234C140.942 245 141.091 245.942 141.091 247.062V247.843H131.841V246.25H139.216C139.216 245.572 139.08 244.968 138.81 244.437C138.544 243.906 138.164 243.486 137.669 243.179C137.179 242.872 136.601 242.718 135.935 242.718C135.2 242.718 134.565 242.901 134.028 243.265C133.497 243.625 133.088 244.093 132.802 244.671C132.515 245.25 132.372 245.869 132.372 246.531V247.593C132.372 248.5 132.528 249.268 132.841 249.898C133.159 250.523 133.599 251 134.161 251.328C134.724 251.651 135.377 251.812 136.122 251.812C136.606 251.812 137.044 251.744 137.435 251.609C137.83 251.468 138.172 251.26 138.458 250.984C138.744 250.703 138.966 250.354 139.122 249.937L140.903 250.437C140.716 251.041 140.401 251.572 139.958 252.031C139.515 252.484 138.968 252.838 138.317 253.093C137.666 253.343 136.935 253.468 136.122 253.468ZM143.896 253.218V241.218H145.677V243.031H145.802C146.021 242.437 146.416 241.955 146.989 241.585C147.562 241.216 148.208 241.031 148.927 241.031C149.062 241.031 149.231 241.033 149.435 241.039C149.638 241.044 149.791 241.052 149.896 241.062V242.937C149.833 242.921 149.69 242.898 149.466 242.867C149.247 242.83 149.015 242.812 148.771 242.812C148.187 242.812 147.666 242.934 147.208 243.179C146.755 243.419 146.396 243.752 146.13 244.179C145.869 244.601 145.739 245.083 145.739 245.625V253.218H143.896ZM158.519 253.218V237.218H163.925C165.175 237.218 166.201 237.432 167.003 237.859C167.805 238.281 168.399 238.861 168.784 239.601C169.17 240.341 169.362 241.182 169.362 242.125C169.362 243.067 169.17 243.903 168.784 244.632C168.399 245.361 167.808 245.934 167.011 246.351C166.214 246.763 165.196 246.968 163.956 246.968H159.581V245.218H163.894C164.748 245.218 165.435 245.093 165.956 244.843C166.482 244.593 166.862 244.239 167.097 243.781C167.336 243.317 167.456 242.765 167.456 242.125C167.456 241.484 167.336 240.924 167.097 240.445C166.857 239.966 166.474 239.596 165.948 239.335C165.422 239.07 164.727 238.937 163.862 238.937H160.456V253.218H158.519ZM166.05 246.031L169.987 253.218H167.737L163.862 246.031H166.05ZM177.243 253.468C176.087 253.468 175.09 253.213 174.251 252.703C173.418 252.187 172.774 251.468 172.321 250.546C171.873 249.619 171.649 248.541 171.649 247.312C171.649 246.083 171.873 245 172.321 244.062C172.774 243.119 173.405 242.385 174.212 241.859C175.024 241.328 175.972 241.062 177.056 241.062C177.681 241.062 178.298 241.166 178.907 241.375C179.517 241.583 180.071 241.921 180.571 242.39C181.071 242.854 181.47 243.468 181.767 244.234C182.063 245 182.212 245.942 182.212 247.062V247.843H172.962V246.25H180.337C180.337 245.572 180.201 244.968 179.931 244.437C179.665 243.906 179.285 243.486 178.79 243.179C178.3 242.872 177.722 242.718 177.056 242.718C176.321 242.718 175.686 242.901 175.149 243.265C174.618 243.625 174.209 244.093 173.923 244.671C173.636 245.25 173.493 245.869 173.493 246.531V247.593C173.493 248.5 173.649 249.268 173.962 249.898C174.28 250.523 174.72 251 175.282 251.328C175.845 251.651 176.498 251.812 177.243 251.812C177.728 251.812 178.165 251.744 178.556 251.609C178.951 251.468 179.293 251.26 179.579 250.984C179.866 250.703 180.087 250.354 180.243 249.937L182.024 250.437C181.837 251.041 181.522 251.572 181.079 252.031C180.636 252.484 180.09 252.838 179.438 253.093C178.787 253.343 178.056 253.468 177.243 253.468ZM190.36 241.218V242.781H183.892V241.218H190.36ZM185.829 253.218V239.562C185.829 238.875 185.991 238.302 186.313 237.843C186.636 237.385 187.056 237.041 187.571 236.812C188.087 236.583 188.631 236.468 189.204 236.468C189.657 236.468 190.027 236.505 190.313 236.578C190.6 236.651 190.813 236.718 190.954 236.781L190.423 238.375C190.329 238.343 190.199 238.304 190.032 238.257C189.871 238.21 189.657 238.187 189.392 238.187C188.782 238.187 188.342 238.341 188.071 238.648C187.806 238.955 187.673 239.406 187.673 240V253.218H185.829ZM197.481 253.468C196.325 253.468 195.328 253.213 194.489 252.703C193.656 252.187 193.013 251.468 192.56 250.546C192.112 249.619 191.888 248.541 191.888 247.312C191.888 246.083 192.112 245 192.56 244.062C193.013 243.119 193.643 242.385 194.45 241.859C195.263 241.328 196.211 241.062 197.294 241.062C197.919 241.062 198.536 241.166 199.146 241.375C199.755 241.583 200.31 241.921 200.81 242.39C201.31 242.854 201.708 243.468 202.005 244.234C202.302 245 202.45 245.942 202.45 247.062V247.843H193.2V246.25H200.575C200.575 245.572 200.44 244.968 200.169 244.437C199.903 243.906 199.523 243.486 199.028 243.179C198.539 242.872 197.961 242.718 197.294 242.718C196.56 242.718 195.924 242.901 195.388 243.265C194.856 243.625 194.448 244.093 194.161 244.671C193.875 245.25 193.731 245.869 193.731 246.531V247.593C193.731 248.5 193.888 249.268 194.2 249.898C194.518 250.523 194.958 251 195.521 251.328C196.083 251.651 196.737 251.812 197.481 251.812C197.966 251.812 198.403 251.744 198.794 251.609C199.19 251.468 199.531 251.26 199.817 250.984C200.104 250.703 200.325 250.354 200.481 249.937L202.263 250.437C202.075 251.041 201.76 251.572 201.317 252.031C200.875 252.484 200.328 252.838 199.677 253.093C199.026 253.343 198.294 253.468 197.481 253.468ZM205.255 253.218V241.218H207.036V243.031H207.161C207.38 242.437 207.776 241.955 208.349 241.585C208.922 241.216 209.567 241.031 210.286 241.031C210.422 241.031 210.591 241.033 210.794 241.039C210.997 241.044 211.151 241.052 211.255 241.062V242.937C211.192 242.921 211.049 242.898 210.825 242.867C210.606 242.83 210.375 242.812 210.13 242.812C209.547 242.812 209.026 242.934 208.567 243.179C208.114 243.419 207.755 243.752 207.489 244.179C207.229 244.601 207.099 245.083 207.099 245.625V253.218H205.255ZM218.106 253.468C216.95 253.468 215.953 253.213 215.114 252.703C214.281 252.187 213.638 251.468 213.185 250.546C212.737 249.619 212.513 248.541 212.513 247.312C212.513 246.083 212.737 245 213.185 244.062C213.638 243.119 214.268 242.385 215.075 241.859C215.888 241.328 216.836 241.062 217.919 241.062C218.544 241.062 219.161 241.166 219.771 241.375C220.38 241.583 220.935 241.921 221.435 242.39C221.935 242.854 222.333 243.468 222.63 244.234C222.927 245 223.075 245.942 223.075 247.062V247.843H213.825V246.25H221.2C221.2 245.572 221.065 244.968 220.794 244.437C220.528 243.906 220.148 243.486 219.653 243.179C219.164 242.872 218.586 242.718 217.919 242.718C217.185 242.718 216.549 242.901 216.013 243.265C215.481 243.625 215.073 244.093 214.786 244.671C214.5 245.25 214.356 245.869 214.356 246.531V247.593C214.356 248.5 214.513 249.268 214.825 249.898C215.143 250.523 215.583 251 216.146 251.328C216.708 251.651 217.362 251.812 218.106 251.812C218.591 251.812 219.028 251.744 219.419 251.609C219.815 251.468 220.156 251.26 220.442 250.984C220.729 250.703 220.95 250.354 221.106 249.937L222.888 250.437C222.7 251.041 222.385 251.572 221.942 252.031C221.5 252.484 220.953 252.838 220.302 253.093C219.651 253.343 218.919 253.468 218.106 253.468ZM227.724 246V253.218H225.88V241.218H227.661V243.093H227.817C228.099 242.484 228.526 241.994 229.099 241.625C229.672 241.25 230.411 241.062 231.317 241.062C232.13 241.062 232.841 241.229 233.45 241.562C234.06 241.89 234.534 242.39 234.872 243.062C235.211 243.729 235.38 244.572 235.38 245.593V253.218H233.536V245.718C233.536 244.776 233.291 244.041 232.802 243.515C232.312 242.984 231.64 242.718 230.786 242.718C230.198 242.718 229.672 242.846 229.208 243.101C228.75 243.356 228.388 243.729 228.122 244.218C227.856 244.708 227.724 245.302 227.724 246ZM243.624 253.468C242.499 253.468 241.53 253.203 240.718 252.671C239.905 252.14 239.28 251.408 238.843 250.476C238.405 249.544 238.187 248.479 238.187 247.281C238.187 246.062 238.41 244.986 238.858 244.054C239.312 243.117 239.942 242.385 240.749 241.859C241.562 241.328 242.509 241.062 243.593 241.062C244.437 241.062 245.197 241.218 245.874 241.531C246.551 241.843 247.106 242.281 247.538 242.843C247.97 243.406 248.239 244.062 248.343 244.812H246.499C246.358 244.265 246.046 243.781 245.562 243.359C245.082 242.932 244.437 242.718 243.624 242.718C242.905 242.718 242.275 242.906 241.733 243.281C241.197 243.651 240.778 244.174 240.476 244.851C240.179 245.523 240.03 246.312 240.03 247.218C240.03 248.145 240.176 248.953 240.468 249.64C240.765 250.328 241.181 250.861 241.718 251.242C242.259 251.622 242.895 251.812 243.624 251.812C244.103 251.812 244.538 251.729 244.929 251.562C245.319 251.395 245.65 251.156 245.921 250.843C246.192 250.531 246.384 250.156 246.499 249.718H248.343C248.239 250.427 247.981 251.065 247.569 251.632C247.163 252.195 246.624 252.643 245.952 252.976C245.285 253.304 244.509 253.468 243.624 253.468ZM256.069 253.468C254.913 253.468 253.916 253.213 253.077 252.703C252.244 252.187 251.601 251.468 251.147 250.546C250.7 249.619 250.476 248.541 250.476 247.312C250.476 246.083 250.7 245 251.147 244.062C251.601 243.119 252.231 242.385 253.038 241.859C253.851 241.328 254.799 241.062 255.882 241.062C256.507 241.062 257.124 241.166 257.733 241.375C258.343 241.583 258.897 241.921 259.397 242.39C259.897 242.854 260.296 243.468 260.593 244.234C260.89 245 261.038 245.942 261.038 247.062V247.843H251.788V246.25H259.163C259.163 245.572 259.028 244.968 258.757 244.437C258.491 243.906 258.111 243.486 257.616 243.179C257.127 242.872 256.549 242.718 255.882 242.718C255.147 242.718 254.512 242.901 253.976 243.265C253.444 243.625 253.035 244.093 252.749 244.671C252.463 245.25 252.319 245.869 252.319 246.531V247.593C252.319 248.5 252.476 249.268 252.788 249.898C253.106 250.523 253.546 251 254.108 251.328C254.671 251.651 255.325 251.812 256.069 251.812C256.554 251.812 256.991 251.744 257.382 251.609C257.778 251.468 258.119 251.26 258.405 250.984C258.692 250.703 258.913 250.354 259.069 249.937L260.851 250.437C260.663 251.041 260.348 251.572 259.905 252.031C259.463 252.484 258.916 252.838 258.265 253.093C257.614 253.343 256.882 253.468 256.069 253.468Z" fill="#174686"/>
<defs>
<filter id="filter0_d_84_2761" x="9" y="99" width="337" height="98" filterUnits="userSpaceOnUse" color-interpolation-filters="sRGB">
<feFlood flood-opacity="0" result="BackgroundImageFix"/>
<feColorMatrix in="SourceAlpha" type="matrix" values="0 0 0 0 0 0 0 0 0 0 0 0 0 0 0 0 0 0 127 0" result="hardAlpha"/>
<feMorphology radius="11" operator="dilate" in="SourceAlpha" result="effect1_dropShadow_84_2761"/>
<feOffset/>
<feGaussianBlur stdDeviation="2"/>
<feComposite in2="hardAlpha" operator="out"/>
<feColorMatrix type="matrix" values="0 0 0 0 0.946667 0 0 0 0 0.958667 0 0 0 0 0.973333 0 0 0 1 0"/>
<feBlend mode="normal" in2="BackgroundImageFix" result="effect1_dropShadow_84_2761"/>
<feBlend mode="normal" in="SourceGraphic" in2="effect1_dropShadow_84_2761" result="shape"/>
</filter>
<filter id="filter1_d_84_2761" x="9" y="196" width="337" height="98" filterUnits="userSpaceOnUse" color-interpolation-filters="sRGB">
<feFlood flood-opacity="0" result="BackgroundImageFix"/>
<feColorMatrix in="SourceAlpha" type="matrix" values="0 0 0 0 0 0 0 0 0 0 0 0 0 0 0 0 0 0 127 0" result="hardAlpha"/>
<feMorphology radius="11" operator="dilate" in="SourceAlpha" result="effect1_dropShadow_84_2761"/>
<feOffset/>
<feGaussianBlur stdDeviation="2"/>
<feComposite in2="hardAlpha" operator="out"/>
<feColorMatrix type="matrix" values="0 0 0 0 0.945098 0 0 0 0 0.956863 0 0 0 0 0.972549 0 0 0 1 0"/>
<feBlend mode="normal" in2="BackgroundImageFix" result="effect1_dropShadow_84_2761"/>
<feBlend mode="normal" in="SourceGraphic" in2="effect1_dropShadow_84_2761" result="shape"/>
</filter>
<linearGradient id="paint0_linear_84_2761" x1="331.606" y1="54.5" x2="24" y2="54.5" gradientUnits="userSpaceOnUse">
<stop stop-color="#061A32"/>
<stop offset="1" stop-color="#0D3463"/>
</linearGradient>
<clipPath id="clip0_84_2761">
<rect width="41.0229" height="41.0229" fill="white" transform="translate(40.7651 127.207)"/>
</clipPath>
<clipPath id="clip1_84_2761">
<rect width="41.0229" height="41.0229" fill="white" transform="translate(40.7651 224.207)"/>
</clipPath>
</defs>
</svg>
