<svg width="435" height="312" viewBox="0 0 435 312" fill="none" xmlns="http://www.w3.org/2000/svg">
<rect width="435" height="311.533" rx="28.1111" fill="url(#paint0_linear_84_2733)"/>
<path d="M44.2372 51V30.6364H51.4957C53.0734 30.6364 54.3826 30.9081 55.4233 31.4517C56.4706 31.9953 57.2528 32.7476 57.7699 33.7088C58.2869 34.6634 58.5455 35.767 58.5455 37.0199C58.5455 38.2661 58.2836 39.3632 57.7599 40.3111C57.2429 41.2524 56.4607 41.9848 55.4134 42.5085C54.3726 43.0322 53.0634 43.294 51.4858 43.294H45.9872V40.6491H51.2074C52.2017 40.6491 53.0104 40.5066 53.6335 40.2216C54.2633 39.9366 54.724 39.5223 55.0156 38.9787C55.3073 38.4351 55.4531 37.7822 55.4531 37.0199C55.4531 36.2509 55.304 35.5848 55.0057 35.0213C54.714 34.4579 54.2533 34.027 53.6236 33.7287C53.0005 33.4238 52.1818 33.2713 51.1676 33.2713H47.3097V51H44.2372ZM54.2898 41.8125L59.321 51H55.821L50.8892 41.8125H54.2898ZM68.4364 51.3082C66.9317 51.3082 65.6358 50.9867 64.5487 50.3438C63.4682 49.6941 62.6329 48.7827 62.043 47.6094C61.4596 46.4295 61.168 45.0473 61.168 43.4631C61.168 41.8987 61.4596 40.5199 62.043 39.3267C62.6329 38.1335 63.4549 37.2022 64.5089 36.5327C65.5695 35.8632 66.8091 35.5284 68.2276 35.5284C69.0894 35.5284 69.9246 35.6709 70.7333 35.956C71.542 36.241 72.2679 36.6884 72.9109 37.2983C73.5539 37.9081 74.061 38.7003 74.4322 39.6747C74.8034 40.6425 74.989 41.8191 74.989 43.2045V44.2585H62.8484V42.0312H72.0756C72.0756 41.2491 71.9165 40.5563 71.5984 39.9531C71.2802 39.3433 70.8327 38.8627 70.256 38.5114C69.686 38.16 69.0165 37.9844 68.2475 37.9844C67.4123 37.9844 66.6831 38.1899 66.06 38.6009C65.4435 39.0052 64.9663 39.5355 64.6282 40.1918C64.2968 40.8414 64.131 41.5473 64.131 42.3097V44.0497C64.131 45.0705 64.31 45.9389 64.668 46.6548C65.0326 47.3707 65.5397 47.9176 66.1893 48.2955C66.8389 48.6667 67.5979 48.8523 68.4663 48.8523C69.0297 48.8523 69.5434 48.7727 70.0075 48.6136C70.4715 48.4479 70.8725 48.2027 71.2106 47.8778C71.5487 47.553 71.8072 47.152 71.9862 46.6747L74.8001 47.1818C74.5747 48.0104 74.1703 48.7363 73.587 49.3594C73.0103 49.9759 72.2844 50.4564 71.4094 50.8011C70.5411 51.1392 69.5501 51.3082 68.4364 51.3082ZM82.7322 51.3381C81.7644 51.3381 80.8894 51.1591 80.1072 50.8011C79.325 50.4366 78.7053 49.9096 78.2479 49.2202C77.7971 48.5308 77.5717 47.6856 77.5717 46.6847C77.5717 45.8229 77.7375 45.1136 78.0689 44.5568C78.4003 44 78.8478 43.5592 79.4112 43.2344C79.9747 42.9096 80.6044 42.6643 81.3004 42.4986C81.9964 42.3329 82.7057 42.2069 83.4283 42.1207C84.343 42.0147 85.0855 41.9285 85.6555 41.8622C86.2256 41.7893 86.6399 41.6733 86.8984 41.5142C87.157 41.3551 87.2862 41.0966 87.2862 40.7386V40.669C87.2862 39.8007 87.041 39.1278 86.5504 38.6506C86.0665 38.1733 85.344 37.9347 84.3828 37.9347C83.3819 37.9347 82.593 38.1567 82.0163 38.6009C81.4463 39.0384 81.0518 39.5256 80.8331 40.0625L78.0391 39.4261C78.3705 38.4981 78.8544 37.7491 79.4908 37.179C80.1338 36.6023 80.8729 36.1847 81.7081 35.9261C82.5433 35.661 83.4216 35.5284 84.343 35.5284C84.9529 35.5284 85.5992 35.6013 86.282 35.7472C86.9714 35.8864 87.6143 36.1449 88.2109 36.5227C88.8142 36.9006 89.308 37.4408 89.6925 38.1435C90.0769 38.8395 90.2692 39.7443 90.2692 40.858V51H87.3658V48.9119H87.2464C87.0542 49.2964 86.7659 49.6742 86.3814 50.0455C85.9969 50.4167 85.5031 50.7249 84.8999 50.9702C84.2966 51.2154 83.5741 51.3381 82.7322 51.3381ZM83.3786 48.9517C84.2005 48.9517 84.9032 48.7893 85.4865 48.4645C86.0765 48.1397 86.5239 47.7154 86.8288 47.1918C87.1404 46.6615 87.2962 46.0947 87.2962 45.4915V43.5227C87.1901 43.6288 86.9846 43.7282 86.6797 43.821C86.3814 43.9072 86.04 43.9834 85.6555 44.0497C85.2711 44.1094 84.8965 44.1657 84.532 44.2188C84.1674 44.2652 83.8625 44.3049 83.6172 44.3381C83.0405 44.411 82.5135 44.5336 82.0362 44.706C81.5656 44.8783 81.1877 45.1269 80.9027 45.4517C80.6243 45.7699 80.4851 46.1941 80.4851 46.7244C80.4851 47.4602 80.7569 48.017 81.3004 48.3949C81.844 48.7661 82.5367 48.9517 83.3786 48.9517ZM97.2021 30.6364V51H94.229V30.6364H97.2021ZM110.2 41.1065V43.6818H101.172V41.1065H110.2ZM111.729 33.2812V30.6364H127.489V33.2812H121.135V51H118.073V33.2812H111.729ZM130.733 51V35.7273H133.706V51H130.733ZM132.234 33.3707C131.717 33.3707 131.273 33.1984 130.902 32.8537C130.537 32.5024 130.355 32.0848 130.355 31.6009C130.355 31.1103 130.537 30.6927 130.902 30.348C131.273 29.9967 131.717 29.821 132.234 29.821C132.751 29.821 133.192 29.9967 133.557 30.348C133.928 30.6927 134.114 31.1103 134.114 31.6009C134.114 32.0848 133.928 32.5024 133.557 32.8537C133.192 33.1984 132.751 33.3707 132.234 33.3707ZM137.706 51V35.7273H140.559V38.2131H140.748C141.066 37.3712 141.587 36.715 142.309 36.2443C143.032 35.767 143.897 35.5284 144.904 35.5284C145.925 35.5284 146.78 35.767 147.47 36.2443C148.166 36.7216 148.68 37.3778 149.011 38.2131H149.17C149.535 37.3977 150.115 36.7481 150.91 36.2642C151.706 35.7737 152.654 35.5284 153.754 35.5284C155.139 35.5284 156.27 35.9626 157.145 36.831C158.026 37.6993 158.467 39.0085 158.467 40.7585V51H155.494V41.0369C155.494 40.0028 155.212 39.2538 154.649 38.7898C154.085 38.3258 153.413 38.0938 152.63 38.0938C151.663 38.0938 150.91 38.392 150.373 38.9886C149.836 39.5786 149.568 40.3376 149.568 41.2656V51H146.605V40.848C146.605 40.0194 146.346 39.3532 145.829 38.8494C145.312 38.3456 144.639 38.0938 143.811 38.0938C143.247 38.0938 142.727 38.2429 142.25 38.5412C141.779 38.8329 141.398 39.2405 141.106 39.7642C140.821 40.2879 140.679 40.8944 140.679 41.5838V51H137.706ZM169.034 51.3082C167.529 51.3082 166.233 50.9867 165.146 50.3438C164.066 49.6941 163.231 48.7827 162.641 47.6094C162.057 46.4295 161.766 45.0473 161.766 43.4631C161.766 41.8987 162.057 40.5199 162.641 39.3267C163.231 38.1335 164.053 37.2022 165.107 36.5327C166.167 35.8632 167.407 35.5284 168.825 35.5284C169.687 35.5284 170.522 35.6709 171.331 35.956C172.14 36.241 172.866 36.6884 173.509 37.2983C174.152 37.9081 174.659 38.7003 175.03 39.6747C175.401 40.6425 175.587 41.8191 175.587 43.2045V44.2585H163.446V42.0312H172.673C172.673 41.2491 172.514 40.5563 172.196 39.9531C171.878 39.3433 171.43 38.8627 170.854 38.5114C170.284 38.16 169.614 37.9844 168.845 37.9844C168.01 37.9844 167.281 38.1899 166.658 38.6009C166.041 39.0052 165.564 39.5355 165.226 40.1918C164.894 40.8414 164.729 41.5473 164.729 42.3097V44.0497C164.729 45.0705 164.908 45.9389 165.266 46.6548C165.63 47.3707 166.137 47.9176 166.787 48.2955C167.437 48.6667 168.196 48.8523 169.064 48.8523C169.627 48.8523 170.141 48.7727 170.605 48.6136C171.069 48.4479 171.47 48.2027 171.808 47.8778C172.146 47.553 172.405 47.152 172.584 46.6747L175.398 47.1818C175.172 48.0104 174.768 48.7363 174.185 49.3594C173.608 49.9759 172.882 50.4564 172.007 50.8011C171.139 51.1392 170.148 51.3082 169.034 51.3082ZM186.534 51V30.6364H193.793C195.377 30.6364 196.689 30.9247 197.73 31.5014C198.771 32.0781 199.55 32.8669 200.067 33.8679C200.584 34.8622 200.842 35.9825 200.842 37.2287C200.842 38.4815 200.58 39.6084 200.057 40.6094C199.54 41.6037 198.758 42.3925 197.71 42.9759C196.67 43.5526 195.36 43.8409 193.783 43.8409H188.791V41.2358H193.504C194.505 41.2358 195.317 41.0634 195.94 40.7188C196.563 40.3674 197.021 39.8902 197.312 39.2869C197.604 38.6837 197.75 37.9976 197.75 37.2287C197.75 36.4598 197.604 35.777 197.312 35.1804C197.021 34.5838 196.56 34.1165 195.93 33.7784C195.307 33.4403 194.485 33.2713 193.464 33.2713H189.607V51H186.534ZM208.513 51.3381C207.546 51.3381 206.671 51.1591 205.888 50.8011C205.106 50.4366 204.487 49.9096 204.029 49.2202C203.578 48.5308 203.353 47.6856 203.353 46.6847C203.353 45.8229 203.519 45.1136 203.85 44.5568C204.182 44 204.629 43.5592 205.192 43.2344C205.756 42.9096 206.386 42.6643 207.082 42.4986C207.778 42.3329 208.487 42.2069 209.21 42.1207C210.124 42.0147 210.867 41.9285 211.437 41.8622C212.007 41.7893 212.421 41.6733 212.68 41.5142C212.938 41.3551 213.067 41.0966 213.067 40.7386V40.669C213.067 39.8007 212.822 39.1278 212.332 38.6506C211.848 38.1733 211.125 37.9347 210.164 37.9347C209.163 37.9347 208.374 38.1567 207.798 38.6009C207.228 39.0384 206.833 39.5256 206.614 40.0625L203.82 39.4261C204.152 38.4981 204.636 37.7491 205.272 37.179C205.915 36.6023 206.654 36.1847 207.489 35.9261C208.325 35.661 209.203 35.5284 210.124 35.5284C210.734 35.5284 211.38 35.6013 212.063 35.7472C212.753 35.8864 213.396 36.1449 213.992 36.5227C214.595 36.9006 215.089 37.4408 215.474 38.1435C215.858 38.8395 216.05 39.7443 216.05 40.858V51H213.147V48.9119H213.028C212.835 49.2964 212.547 49.6742 212.163 50.0455C211.778 50.4167 211.284 50.7249 210.681 50.9702C210.078 51.2154 209.355 51.3381 208.513 51.3381ZM209.16 48.9517C209.982 48.9517 210.684 48.7893 211.268 48.4645C211.858 48.1397 212.305 47.7154 212.61 47.1918C212.922 46.6615 213.077 46.0947 213.077 45.4915V43.5227C212.971 43.6288 212.766 43.7282 212.461 43.821C212.163 43.9072 211.821 43.9834 211.437 44.0497C211.052 44.1094 210.678 44.1657 210.313 44.2188C209.949 44.2652 209.644 44.3049 209.398 44.3381C208.822 44.411 208.295 44.5336 207.817 44.706C207.347 44.8783 206.969 45.1269 206.684 45.4517C206.406 45.7699 206.266 46.1941 206.266 46.7244C206.266 47.4602 206.538 48.017 207.082 48.3949C207.625 48.7661 208.318 48.9517 209.16 48.9517ZM221.343 56.7273C220.899 56.7273 220.494 56.6908 220.13 56.6179C219.765 56.5516 219.493 56.4787 219.314 56.3991L220.03 53.9631C220.574 54.1089 221.058 54.1719 221.482 54.152C221.906 54.1321 222.281 53.973 222.605 53.6747C222.937 53.3764 223.229 52.8892 223.48 52.2131L223.848 51.1989L218.26 35.7273H221.442L225.31 47.5795H225.469L229.337 35.7273H232.529L226.235 53.0384C225.943 53.8338 225.572 54.5066 225.121 55.0568C224.67 55.6136 224.133 56.0313 223.51 56.3097C222.887 56.5881 222.165 56.7273 221.343 56.7273ZM235.323 51V35.7273H238.176V38.2131H238.365C238.684 37.3712 239.204 36.715 239.926 36.2443C240.649 35.767 241.514 35.5284 242.522 35.5284C243.542 35.5284 244.398 35.767 245.087 36.2443C245.783 36.7216 246.297 37.3778 246.628 38.2131H246.787C247.152 37.3977 247.732 36.7481 248.527 36.2642C249.323 35.7737 250.271 35.5284 251.371 35.5284C252.757 35.5284 253.887 35.9626 254.762 36.831C255.643 37.6993 256.084 39.0085 256.084 40.7585V51H253.111V41.0369C253.111 40.0028 252.829 39.2538 252.266 38.7898C251.703 38.3258 251.03 38.0938 250.248 38.0938C249.28 38.0938 248.527 38.392 247.99 38.9886C247.453 39.5786 247.185 40.3376 247.185 41.2656V51H244.222V40.848C244.222 40.0194 243.963 39.3532 243.446 38.8494C242.929 38.3456 242.257 38.0938 241.428 38.0938C240.864 38.0938 240.344 38.2429 239.867 38.5412C239.396 38.8329 239.015 39.2405 238.723 39.7642C238.438 40.2879 238.296 40.8944 238.296 41.5838V51H235.323ZM266.651 51.3082C265.147 51.3082 263.851 50.9867 262.763 50.3438C261.683 49.6941 260.848 48.7827 260.258 47.6094C259.674 46.4295 259.383 45.0473 259.383 43.4631C259.383 41.8987 259.674 40.5199 260.258 39.3267C260.848 38.1335 261.67 37.2022 262.724 36.5327C263.784 35.8632 265.024 35.5284 266.442 35.5284C267.304 35.5284 268.139 35.6709 268.948 35.956C269.757 36.241 270.483 36.6884 271.126 37.2983C271.769 37.9081 272.276 38.7003 272.647 39.6747C273.018 40.6425 273.204 41.8191 273.204 43.2045V44.2585H261.063V42.0312H270.29C270.29 41.2491 270.131 40.5563 269.813 39.9531C269.495 39.3433 269.048 38.8627 268.471 38.5114C267.901 38.16 267.231 37.9844 266.462 37.9844C265.627 37.9844 264.898 38.1899 264.275 38.6009C263.658 39.0052 263.181 39.5355 262.843 40.1918C262.512 40.8414 262.346 41.5473 262.346 42.3097V44.0497C262.346 45.0705 262.525 45.9389 262.883 46.6548C263.247 47.3707 263.754 47.9176 264.404 48.2955C265.054 48.6667 265.813 48.8523 266.681 48.8523C267.245 48.8523 267.758 48.7727 268.222 48.6136C268.686 48.4479 269.087 48.2027 269.425 47.8778C269.763 47.553 270.022 47.152 270.201 46.6747L273.015 47.1818C272.79 48.0104 272.385 48.7363 271.802 49.3594C271.225 49.9759 270.499 50.4564 269.624 50.8011C268.756 51.1392 267.765 51.3082 266.651 51.3082ZM279.475 41.9318V51H276.502V35.7273H279.356V38.2131H279.545C279.896 37.4044 280.447 36.7547 281.196 36.2642C281.951 35.7737 282.903 35.5284 284.049 35.5284C285.09 35.5284 286.002 35.7472 286.784 36.1847C287.566 36.6155 288.172 37.2585 288.603 38.1136C289.034 38.9687 289.25 40.026 289.25 41.2855V51H286.277V41.6435C286.277 40.5365 285.988 39.6714 285.412 39.0483C284.835 38.4186 284.043 38.1037 283.035 38.1037C282.346 38.1037 281.733 38.2528 281.196 38.5511C280.665 38.8494 280.244 39.2869 279.933 39.8636C279.628 40.4337 279.475 41.1231 279.475 41.9318ZM300.366 35.7273V38.1136H292.024V35.7273H300.366ZM294.261 32.0682H297.234V46.5156C297.234 47.0923 297.32 47.5265 297.493 47.8182C297.665 48.1032 297.887 48.2988 298.159 48.4048C298.437 48.5043 298.739 48.554 299.064 48.554C299.302 48.554 299.511 48.5374 299.69 48.5043C299.869 48.4711 300.008 48.4446 300.108 48.4247L300.645 50.8807C300.472 50.947 300.227 51.0133 299.909 51.0795C299.591 51.1525 299.193 51.1922 298.716 51.1989C297.933 51.2121 297.204 51.0729 296.528 50.7812C295.852 50.4896 295.305 50.0388 294.887 49.429C294.47 48.8191 294.261 48.0535 294.261 47.1321V32.0682ZM46.017 64.6364L51.6847 81.2216H51.9134L57.581 64.6364H60.902L53.5739 85H50.0241L42.696 64.6364H46.017ZM68.6552 85.3082C67.1504 85.3082 65.8545 84.9867 64.7674 84.3438C63.6869 83.6941 62.8517 82.7827 62.2617 81.6094C61.6784 80.4295 61.3867 79.0473 61.3867 77.4631C61.3867 75.8987 61.6784 74.5199 62.2617 73.3267C62.8517 72.1335 63.6737 71.2022 64.7276 70.5327C65.7882 69.8632 67.0278 69.5284 68.4464 69.5284C69.3081 69.5284 70.1433 69.6709 70.9521 69.956C71.7608 70.241 72.4866 70.6884 73.1296 71.2983C73.7726 71.9081 74.2797 72.7003 74.6509 73.6747C75.0221 74.6425 75.2077 75.8191 75.2077 77.2045V78.2585H63.0671V76.0312H72.2944C72.2944 75.2491 72.1353 74.5563 71.8171 73.9531C71.4989 73.3433 71.0515 72.8627 70.4748 72.5114C69.9047 72.16 69.2352 71.9844 68.4663 71.9844C67.631 71.9844 66.9019 72.1899 66.2788 72.6009C65.6623 73.0052 65.185 73.5355 64.8469 74.1918C64.5155 74.8414 64.3498 75.5473 64.3498 76.3097V78.0497C64.3498 79.0705 64.5288 79.9389 64.8867 80.6548C65.2513 81.3707 65.7584 81.9176 66.408 82.2955C67.0576 82.6667 67.8166 82.8523 68.685 82.8523C69.2485 82.8523 69.7622 82.7727 70.2262 82.6136C70.6902 82.4479 71.0913 82.2027 71.4293 81.8778C71.7674 81.553 72.0259 81.152 72.2049 80.6747L75.0188 81.1818C74.7934 82.0104 74.3891 82.7363 73.8058 83.3594C73.229 83.9759 72.5032 84.4564 71.6282 84.8011C70.7598 85.1392 69.7688 85.3082 68.6552 85.3082ZM78.5064 85V69.7273H81.38V72.1534H81.5391C81.8175 71.3314 82.308 70.6851 83.0107 70.2145C83.7199 69.7372 84.522 69.4986 85.4169 69.4986C85.6025 69.4986 85.8213 69.5052 86.0732 69.5185C86.3317 69.5317 86.5339 69.5483 86.6797 69.5682V72.4119C86.5604 72.3788 86.3482 72.3423 86.0433 72.3026C85.7384 72.2562 85.4335 72.233 85.1286 72.233C84.4259 72.233 83.7995 72.3821 83.2493 72.6804C82.7057 72.9721 82.2749 73.3797 81.9567 73.9034C81.6385 74.4205 81.4794 75.0104 81.4794 75.6733V85H78.5064ZM89.2525 85V69.7273H92.2255V85H89.2525ZM90.7539 67.3707C90.2369 67.3707 89.7927 67.1984 89.4215 66.8537C89.0569 66.5024 88.8746 66.0848 88.8746 65.6009C88.8746 65.1103 89.0569 64.6927 89.4215 64.348C89.7927 63.9967 90.2369 63.821 90.7539 63.821C91.271 63.821 91.7118 63.9967 92.0763 64.348C92.4476 64.6927 92.6332 65.1103 92.6332 65.6009C92.6332 66.0848 92.4476 66.5024 92.0763 66.8537C91.7118 67.1984 91.271 67.3707 90.7539 67.3707ZM103.494 69.7273V72.1136H94.8629V69.7273H103.494ZM97.2294 85V67.9574C97.2294 67.0028 97.4382 66.2107 97.8558 65.581C98.2734 64.9446 98.8269 64.4706 99.5163 64.1591C100.206 63.8409 100.955 63.6818 101.763 63.6818C102.36 63.6818 102.871 63.7315 103.295 63.831C103.719 63.9238 104.034 64.0099 104.239 64.0895L103.543 66.4957C103.404 66.456 103.225 66.4096 103.006 66.3565C102.788 66.2969 102.522 66.267 102.211 66.267C101.488 66.267 100.971 66.446 100.66 66.804C100.355 67.1619 100.202 67.679 100.202 68.3551V85H97.2294ZM106.561 85V69.7273H109.534V85H106.561ZM108.062 67.3707C107.545 67.3707 107.101 67.1984 106.73 66.8537C106.366 66.5024 106.183 66.0848 106.183 65.6009C106.183 65.1103 106.366 64.6927 106.73 64.348C107.101 63.9967 107.545 63.821 108.062 63.821C108.58 63.821 109.02 63.9967 109.385 64.348C109.756 64.6927 109.942 65.1103 109.942 65.6009C109.942 66.0848 109.756 66.5024 109.385 66.8537C109.02 67.1984 108.58 67.3707 108.062 67.3707ZM119.967 85.3082C118.489 85.3082 117.216 84.9735 116.149 84.304C115.088 83.6278 114.273 82.6965 113.703 81.5099C113.133 80.3234 112.848 78.9645 112.848 77.4332C112.848 75.8821 113.139 74.5133 113.723 73.3267C114.306 72.1335 115.128 71.2022 116.189 70.5327C117.249 69.8632 118.499 69.5284 119.937 69.5284C121.097 69.5284 122.131 69.7438 123.039 70.1747C123.948 70.599 124.68 71.1955 125.237 71.9645C125.8 72.7334 126.135 73.6316 126.241 74.6591H123.348C123.189 73.9432 122.824 73.3267 122.254 72.8097C121.69 72.2926 120.935 72.0341 119.987 72.0341C119.158 72.0341 118.432 72.2528 117.809 72.6903C117.193 73.1212 116.712 73.7377 116.368 74.5398C116.023 75.3352 115.85 76.2765 115.85 77.3636C115.85 78.4773 116.02 79.4384 116.358 80.2472C116.696 81.0559 117.173 81.6823 117.789 82.1264C118.413 82.5705 119.145 82.7926 119.987 82.7926C120.55 82.7926 121.061 82.6899 121.518 82.4844C121.982 82.2723 122.37 81.9706 122.681 81.5795C123 81.1884 123.222 80.7178 123.348 80.1676H126.241C126.135 81.1553 125.814 82.0369 125.277 82.8125C124.74 83.5881 124.02 84.1979 123.119 84.642C122.224 85.0862 121.173 85.3082 119.967 85.3082ZM133.865 85.3381C132.897 85.3381 132.022 85.1591 131.24 84.8011C130.458 84.4366 129.838 83.9096 129.381 83.2202C128.93 82.5308 128.705 81.6856 128.705 80.6847C128.705 79.8229 128.87 79.1136 129.202 78.5568C129.533 78 129.981 77.5592 130.544 77.2344C131.107 76.9096 131.737 76.6643 132.433 76.4986C133.129 76.3329 133.839 76.2069 134.561 76.1207C135.476 76.0147 136.218 75.9285 136.788 75.8622C137.358 75.7893 137.773 75.6733 138.031 75.5142C138.29 75.3551 138.419 75.0966 138.419 74.7386V74.669C138.419 73.8007 138.174 73.1278 137.683 72.6506C137.199 72.1733 136.477 71.9347 135.516 71.9347C134.515 71.9347 133.726 72.1567 133.149 72.6009C132.579 73.0384 132.185 73.5256 131.966 74.0625L129.172 73.4261C129.503 72.4981 129.987 71.7491 130.624 71.179C131.267 70.6023 132.006 70.1847 132.841 69.9261C133.676 69.661 134.554 69.5284 135.476 69.5284C136.086 69.5284 136.732 69.6013 137.415 69.7472C138.104 69.8864 138.747 70.1449 139.344 70.5227C139.947 70.9006 140.441 71.4408 140.825 72.1435C141.21 72.8395 141.402 73.7443 141.402 74.858V85H138.499V82.9119H138.379C138.187 83.2964 137.899 83.6742 137.514 84.0455C137.13 84.4167 136.636 84.7249 136.033 84.9702C135.429 85.2154 134.707 85.3381 133.865 85.3381ZM134.511 82.9517C135.333 82.9517 136.036 82.7893 136.619 82.4645C137.209 82.1397 137.657 81.7154 137.962 81.1918C138.273 80.6615 138.429 80.0947 138.429 79.4915V77.5227C138.323 77.6288 138.117 77.7282 137.812 77.821C137.514 77.9072 137.173 77.9834 136.788 78.0497C136.404 78.1094 136.029 78.1657 135.665 78.2188C135.3 78.2652 134.995 78.3049 134.75 78.3381C134.173 78.411 133.646 78.5336 133.169 78.706C132.698 78.8783 132.321 79.1269 132.036 79.4517C131.757 79.7699 131.618 80.1941 131.618 80.7244C131.618 81.4602 131.89 82.017 132.433 82.3949C132.977 82.7661 133.67 82.9517 134.511 82.9517ZM152.491 69.7273V72.1136H144.149V69.7273H152.491ZM146.386 66.0682H149.359V80.5156C149.359 81.0923 149.445 81.5265 149.618 81.8182C149.79 82.1032 150.012 82.2988 150.284 82.4048C150.562 82.5043 150.864 82.554 151.189 82.554C151.427 82.554 151.636 82.5374 151.815 82.5043C151.994 82.4711 152.133 82.4446 152.233 82.4247L152.77 84.8807C152.597 84.947 152.352 85.0133 152.034 85.0795C151.716 85.1525 151.318 85.1922 150.841 85.1989C150.058 85.2121 149.329 85.0729 148.653 84.7812C147.977 84.4896 147.43 84.0388 147.012 83.429C146.595 82.8191 146.386 82.0535 146.386 81.1321V66.0682ZM155.78 85V69.7273H158.753V85H155.78ZM157.281 67.3707C156.764 67.3707 156.32 67.1984 155.949 66.8537C155.584 66.5024 155.402 66.0848 155.402 65.6009C155.402 65.1103 155.584 64.6927 155.949 64.348C156.32 63.9967 156.764 63.821 157.281 63.821C157.798 63.821 158.239 63.9967 158.604 64.348C158.975 64.6927 159.161 65.1103 159.161 65.6009C159.161 66.0848 158.975 66.5024 158.604 66.8537C158.239 67.1984 157.798 67.3707 157.281 67.3707ZM169.186 85.3082C167.754 85.3082 166.504 84.9801 165.437 84.3239C164.37 83.6676 163.541 82.7495 162.951 81.5696C162.361 80.3897 162.066 79.0109 162.066 77.4332C162.066 75.849 162.361 74.4635 162.951 73.277C163.541 72.0904 164.37 71.169 165.437 70.5128C166.504 69.8565 167.754 69.5284 169.186 69.5284C170.618 69.5284 171.867 69.8565 172.934 70.5128C174.002 71.169 174.83 72.0904 175.42 73.277C176.01 74.4635 176.305 75.849 176.305 77.4332C176.305 79.0109 176.01 80.3897 175.42 81.5696C174.83 82.7495 174.002 83.6676 172.934 84.3239C171.867 84.9801 170.618 85.3082 169.186 85.3082ZM169.196 82.8125C170.124 82.8125 170.893 82.5672 171.502 82.0767C172.112 81.5862 172.563 80.9332 172.855 80.1179C173.153 79.3026 173.302 78.4044 173.302 77.4233C173.302 76.4489 173.153 75.554 172.855 74.7386C172.563 73.9167 172.112 73.2571 171.502 72.7599C170.893 72.2628 170.124 72.0142 169.196 72.0142C168.261 72.0142 167.485 72.2628 166.869 72.7599C166.259 73.2571 165.805 73.9167 165.507 74.7386C165.215 75.554 165.069 76.4489 165.069 77.4233C165.069 78.4044 165.215 79.3026 165.507 80.1179C165.805 80.9332 166.259 81.5862 166.869 82.0767C167.485 82.5672 168.261 82.8125 169.196 82.8125ZM182.597 75.9318V85H179.624V69.7273H182.477V72.2131H182.666C183.018 71.4044 183.568 70.7547 184.317 70.2642C185.072 69.7737 186.024 69.5284 187.17 69.5284C188.211 69.5284 189.123 69.7472 189.905 70.1847C190.687 70.6155 191.294 71.2585 191.724 72.1136C192.155 72.9687 192.371 74.026 192.371 75.2855V85H189.398V75.6435C189.398 74.5365 189.109 73.6714 188.533 73.0483C187.956 72.4186 187.164 72.1037 186.156 72.1037C185.467 72.1037 184.854 72.2528 184.317 72.5511C183.786 72.8494 183.366 73.2869 183.054 73.8636C182.749 74.4337 182.597 75.1231 182.597 75.9318Z" fill="white"/>
<path d="M45.1705 110.676V123.767H43.5852V110.676H45.1705ZM49.6529 117.861V123.767H48.1444V113.949H49.6017V115.483H49.7296C49.9597 114.984 50.3091 114.584 50.7779 114.281C51.2466 113.974 51.8517 113.821 52.5932 113.821C53.258 113.821 53.8397 113.957 54.3382 114.23C54.8368 114.499 55.2246 114.908 55.5016 115.457C55.7786 116.003 55.9171 116.693 55.9171 117.528V123.767H54.4086V117.631C54.4086 116.859 54.2083 116.259 53.8077 115.828C53.4071 115.394 52.8574 115.176 52.1586 115.176C51.677 115.176 51.2466 115.281 50.8674 115.489C50.4924 115.698 50.1962 116.003 49.9789 116.403C49.7615 116.804 49.6529 117.29 49.6529 117.861ZM65.6282 116.148L64.2731 116.531C64.1879 116.305 64.0621 116.086 63.896 115.873C63.734 115.656 63.5124 115.477 63.2312 115.336C62.9499 115.195 62.5898 115.125 62.1509 115.125C61.5501 115.125 61.0494 115.264 60.6488 115.541C60.2525 115.813 60.0543 116.161 60.0543 116.582C60.0543 116.957 60.1907 117.254 60.4634 117.471C60.7362 117.688 61.1623 117.869 61.7418 118.014L63.1992 118.372C64.0771 118.585 64.7312 118.911 65.1616 119.35C65.592 119.785 65.8072 120.345 65.8072 121.031C65.8072 121.594 65.6452 122.097 65.3214 122.54C65.0018 122.983 64.5543 123.332 63.979 123.588C63.4038 123.844 62.7347 123.972 61.9719 123.972C60.9705 123.972 60.1417 123.754 59.4854 123.32C58.8292 122.885 58.4137 122.25 58.239 121.415L59.6708 121.057C59.8072 121.585 60.065 121.982 60.4442 122.246C60.8278 122.51 61.3285 122.642 61.9464 122.642C62.6495 122.642 63.2077 122.493 63.6211 122.195C64.0387 121.892 64.2475 121.53 64.2475 121.108C64.2475 120.767 64.1282 120.482 63.8896 120.251C63.6509 120.017 63.2844 119.842 62.7901 119.727L61.1538 119.344C60.2546 119.131 59.5941 118.8 59.1722 118.353C58.7546 117.901 58.5458 117.337 58.5458 116.659C58.5458 116.105 58.7013 115.615 59.0124 115.189C59.3278 114.763 59.756 114.428 60.2972 114.185C60.8427 113.943 61.4606 113.821 62.1509 113.821C63.1225 113.821 63.8853 114.034 64.4393 114.46C64.9975 114.886 65.3938 115.449 65.6282 116.148ZM72.3478 113.949V115.227H67.2598V113.949H72.3478ZM68.7427 111.597H70.2512V120.955C70.2512 121.381 70.313 121.7 70.4366 121.913C70.5645 122.122 70.7264 122.263 70.9224 122.335C71.1227 122.403 71.3336 122.438 71.5552 122.438C71.7214 122.438 71.8578 122.429 71.9643 122.412C72.0708 122.391 72.1561 122.374 72.22 122.361L72.5268 123.716C72.4245 123.754 72.2818 123.793 72.0985 123.831C71.9153 123.874 71.6831 123.895 71.4018 123.895C70.9757 123.895 70.5581 123.803 70.149 123.62C69.7441 123.437 69.4075 123.158 69.139 122.783C68.8748 122.408 68.7427 121.935 68.7427 121.364V111.597ZM77.5062 123.997C76.8841 123.997 76.3194 123.88 75.8123 123.646C75.3052 123.407 74.9025 123.064 74.6042 122.617C74.3059 122.165 74.1568 121.619 74.1568 120.98C74.1568 120.418 74.2676 119.962 74.4892 119.612C74.7108 119.259 75.0069 118.982 75.3777 118.781C75.7484 118.581 76.1575 118.432 76.6049 118.334C77.0566 118.232 77.5105 118.151 77.9664 118.091C78.563 118.014 79.0467 117.957 79.4174 117.918C79.7924 117.876 80.0652 117.805 80.2356 117.707C80.4103 117.609 80.4977 117.439 80.4977 117.196V117.145C80.4977 116.514 80.3251 116.024 79.9799 115.675C79.639 115.325 79.1213 115.151 78.4267 115.151C77.7065 115.151 77.1419 115.308 76.7328 115.624C76.3237 115.939 76.036 116.276 75.8699 116.634L74.438 116.122C74.6937 115.526 75.0346 115.061 75.4608 114.729C75.8912 114.392 76.3599 114.158 76.867 114.026C77.3784 113.889 77.8812 113.821 78.3755 113.821C78.6909 113.821 79.0531 113.859 79.4622 113.936C79.8755 114.009 80.274 114.16 80.6575 114.39C81.0453 114.62 81.367 114.967 81.6227 115.432C81.8784 115.896 82.0062 116.519 82.0062 117.298V123.767H80.4977V122.438H80.421C80.3187 122.651 80.1483 122.879 79.9096 123.121C79.671 123.364 79.3535 123.571 78.9572 123.742C78.5609 123.912 78.0772 123.997 77.5062 123.997ZM77.7363 122.642C78.3329 122.642 78.8358 122.525 79.2449 122.291C79.6582 122.056 79.9693 121.754 80.1781 121.383C80.3912 121.012 80.4977 120.622 80.4977 120.213V118.832C80.4338 118.909 80.2931 118.979 80.0758 119.043C79.8627 119.103 79.6156 119.156 79.3343 119.203C79.0574 119.246 78.7868 119.284 78.5226 119.318C78.2626 119.348 78.0517 119.374 77.8897 119.395C77.4977 119.446 77.1312 119.529 76.7903 119.644C76.4537 119.755 76.1809 119.923 75.9721 120.149C75.7676 120.371 75.6653 120.673 75.6653 121.057C75.6653 121.581 75.8592 121.977 76.247 122.246C76.639 122.51 77.1355 122.642 77.7363 122.642ZM86.2681 117.861V123.767H84.7596V113.949H86.217V115.483H86.3448C86.5749 114.984 86.9244 114.584 87.3931 114.281C87.8619 113.974 88.467 113.821 89.2085 113.821C89.8732 113.821 90.4549 113.957 90.9535 114.23C91.4521 114.499 91.8398 114.908 92.1168 115.457C92.3938 116.003 92.5323 116.693 92.5323 117.528V123.767H91.0238V117.631C91.0238 116.859 90.8235 116.259 90.4229 115.828C90.0224 115.394 89.4727 115.176 88.7738 115.176C88.2923 115.176 87.8619 115.281 87.4826 115.489C87.1076 115.698 86.8114 116.003 86.5941 116.403C86.3768 116.804 86.2681 117.29 86.2681 117.861ZM99.5588 113.949V115.227H94.4707V113.949H99.5588ZM95.9537 111.597H97.4622V120.955C97.4622 121.381 97.524 121.7 97.6475 121.913C97.7754 122.122 97.9373 122.263 98.1333 122.335C98.3336 122.403 98.5446 122.438 98.7662 122.438C98.9324 122.438 99.0687 122.429 99.1752 122.412C99.2818 122.391 99.367 122.374 99.4309 122.361L99.7377 123.716C99.6355 123.754 99.4927 123.793 99.3095 123.831C99.1262 123.874 98.894 123.895 98.6127 123.895C98.1866 123.895 97.769 123.803 97.3599 123.62C96.9551 123.437 96.6184 123.158 96.35 122.783C96.0858 122.408 95.9537 121.935 95.9537 121.364V111.597ZM103.547 110.676V123.767H102.039V110.676H103.547ZM107.282 127.449C107.026 127.449 106.798 127.428 106.598 127.385C106.398 127.347 106.259 127.308 106.183 127.27L106.566 125.94C106.933 126.034 107.256 126.068 107.538 126.043C107.819 126.017 108.068 125.891 108.286 125.666C108.507 125.444 108.71 125.084 108.893 124.585L109.174 123.818L105.543 113.949H107.18L109.89 121.773H109.992L112.702 113.949H114.339L110.171 125.199C109.984 125.706 109.751 126.126 109.474 126.458C109.197 126.795 108.876 127.044 108.509 127.206C108.147 127.368 107.738 127.449 107.282 127.449ZM125.381 123.972C124.461 123.972 123.668 123.754 123.003 123.32C122.338 122.885 121.827 122.286 121.469 121.523C121.111 120.761 120.932 119.889 120.932 118.909C120.932 117.912 121.115 117.032 121.482 116.269C121.853 115.502 122.368 114.903 123.029 114.473C123.694 114.038 124.469 113.821 125.355 113.821C126.046 113.821 126.668 113.949 127.222 114.205C127.776 114.46 128.23 114.818 128.583 115.278C128.937 115.739 129.157 116.276 129.242 116.889H127.733C127.618 116.442 127.363 116.045 126.966 115.7C126.574 115.351 126.046 115.176 125.381 115.176C124.793 115.176 124.277 115.33 123.834 115.636C123.395 115.939 123.052 116.367 122.805 116.921C122.562 117.471 122.441 118.117 122.441 118.858C122.441 119.617 122.56 120.277 122.799 120.84C123.042 121.402 123.382 121.839 123.821 122.15C124.265 122.461 124.784 122.617 125.381 122.617C125.773 122.617 126.129 122.548 126.449 122.412C126.768 122.276 127.039 122.08 127.26 121.824C127.482 121.568 127.64 121.261 127.733 120.903H129.242C129.157 121.483 128.946 122.005 128.609 122.47C128.277 122.93 127.836 123.296 127.286 123.569C126.74 123.837 126.105 123.972 125.381 123.972ZM135.436 123.972C134.549 123.972 133.772 123.761 133.103 123.339C132.438 122.917 131.918 122.327 131.543 121.568C131.172 120.81 130.987 119.923 130.987 118.909C130.987 117.886 131.172 116.994 131.543 116.231C131.918 115.468 132.438 114.876 133.103 114.454C133.772 114.032 134.549 113.821 135.436 113.821C136.322 113.821 137.098 114.032 137.762 114.454C138.431 114.876 138.951 115.468 139.322 116.231C139.697 116.994 139.885 117.886 139.885 118.909C139.885 119.923 139.697 120.81 139.322 121.568C138.951 122.327 138.431 122.917 137.762 123.339C137.098 123.761 136.322 123.972 135.436 123.972ZM135.436 122.617C136.109 122.617 136.663 122.444 137.098 122.099C137.532 121.754 137.854 121.3 138.063 120.737C138.272 120.175 138.376 119.565 138.376 118.909C138.376 118.253 138.272 117.641 138.063 117.075C137.854 116.508 137.532 116.05 137.098 115.7C136.663 115.351 136.109 115.176 135.436 115.176C134.762 115.176 134.208 115.351 133.774 115.7C133.339 116.05 133.017 116.508 132.809 117.075C132.6 117.641 132.495 118.253 132.495 118.909C132.495 119.565 132.6 120.175 132.809 120.737C133.017 121.3 133.339 121.754 133.774 122.099C134.208 122.444 134.762 122.617 135.436 122.617ZM143.696 117.861V123.767H142.187V113.949H143.645V115.483H143.773C144.003 114.984 144.352 114.584 144.821 114.281C145.29 113.974 145.895 113.821 146.636 113.821C147.301 113.821 147.883 113.957 148.381 114.23C148.88 114.499 149.268 114.908 149.545 115.457C149.822 116.003 149.96 116.693 149.96 117.528V123.767H148.452V117.631C148.452 116.859 148.251 116.259 147.851 115.828C147.45 115.394 146.9 115.176 146.202 115.176C145.72 115.176 145.29 115.281 144.91 115.489C144.535 115.698 144.239 116.003 144.022 116.403C143.805 116.804 143.696 117.29 143.696 117.861ZM157.089 113.949V115.227H151.796V113.949H157.089ZM153.381 123.767V112.594C153.381 112.031 153.513 111.563 153.778 111.188C154.042 110.813 154.385 110.531 154.807 110.344C155.229 110.156 155.674 110.063 156.143 110.063C156.513 110.063 156.816 110.092 157.05 110.152C157.285 110.212 157.46 110.267 157.575 110.318L157.14 111.622C157.063 111.597 156.957 111.565 156.82 111.526C156.688 111.488 156.513 111.469 156.296 111.469C155.798 111.469 155.438 111.595 155.216 111.846C154.999 112.097 154.89 112.466 154.89 112.952V123.767H153.381ZM159.203 123.767V113.949H160.711V123.767H159.203ZM159.97 112.313C159.676 112.313 159.422 112.212 159.209 112.012C159.001 111.812 158.896 111.571 158.896 111.29C158.896 111.009 159.001 110.768 159.209 110.568C159.422 110.367 159.676 110.267 159.97 110.267C160.264 110.267 160.515 110.367 160.724 110.568C160.937 110.768 161.044 111.009 161.044 111.29C161.044 111.571 160.937 111.812 160.724 112.012C160.515 112.212 160.264 112.313 159.97 112.313ZM163.474 123.767V113.949H164.932V115.432H165.034C165.213 114.946 165.537 114.552 166.006 114.249C166.474 113.947 167.003 113.795 167.591 113.795C167.702 113.795 167.84 113.798 168.006 113.802C168.173 113.806 168.298 113.813 168.384 113.821V115.355C168.332 115.342 168.215 115.323 168.032 115.298C167.853 115.268 167.663 115.253 167.463 115.253C166.986 115.253 166.56 115.353 166.185 115.553C165.814 115.749 165.52 116.022 165.303 116.371C165.089 116.717 164.983 117.111 164.983 117.554V123.767H163.474ZM170.172 123.767V113.949H171.629V115.483H171.757C171.961 114.959 172.292 114.552 172.748 114.262C173.204 113.968 173.751 113.821 174.39 113.821C175.038 113.821 175.577 113.968 176.008 114.262C176.442 114.552 176.781 114.959 177.024 115.483H177.126C177.378 114.976 177.755 114.573 178.258 114.275C178.76 113.972 179.363 113.821 180.067 113.821C180.944 113.821 181.662 114.096 182.221 114.646C182.779 115.191 183.058 116.041 183.058 117.196V123.767H181.55V117.196C181.55 116.472 181.351 115.954 180.955 115.643C180.559 115.332 180.092 115.176 179.555 115.176C178.865 115.176 178.33 115.385 177.951 115.803C177.572 116.216 177.382 116.74 177.382 117.375V123.767H175.848V117.043C175.848 116.484 175.667 116.035 175.305 115.694C174.942 115.349 174.476 115.176 173.905 115.176C173.513 115.176 173.146 115.281 172.805 115.489C172.469 115.698 172.196 115.988 171.987 116.359C171.782 116.725 171.68 117.149 171.68 117.631V123.767H170.172ZM191.083 123.767V110.676H192.592V115.509H192.72C192.83 115.338 192.984 115.121 193.18 114.857C193.38 114.588 193.666 114.349 194.036 114.141C194.411 113.928 194.919 113.821 195.558 113.821C196.384 113.821 197.113 114.028 197.744 114.441C198.374 114.854 198.867 115.44 199.22 116.199C199.574 116.957 199.751 117.852 199.751 118.884C199.751 119.923 199.574 120.825 199.22 121.587C198.867 122.346 198.377 122.934 197.75 123.352C197.124 123.765 196.401 123.972 195.583 123.972C194.953 123.972 194.448 123.867 194.068 123.658C193.689 123.445 193.397 123.205 193.193 122.936C192.988 122.663 192.83 122.438 192.72 122.259H192.541V123.767H191.083ZM192.566 118.858C192.566 119.599 192.675 120.254 192.892 120.82C193.11 121.383 193.427 121.824 193.845 122.144C194.262 122.459 194.774 122.617 195.379 122.617C196.009 122.617 196.536 122.45 196.958 122.118C197.384 121.781 197.703 121.33 197.916 120.763C198.134 120.192 198.242 119.557 198.242 118.858C198.242 118.168 198.136 117.545 197.923 116.992C197.714 116.433 197.396 115.992 196.97 115.668C196.548 115.34 196.018 115.176 195.379 115.176C194.765 115.176 194.249 115.332 193.832 115.643C193.414 115.95 193.099 116.38 192.886 116.934C192.673 117.484 192.566 118.125 192.566 118.858ZM204.948 123.997C204.325 123.997 203.761 123.88 203.254 123.646C202.747 123.407 202.344 123.064 202.046 122.617C201.747 122.165 201.598 121.619 201.598 120.98C201.598 120.418 201.709 119.962 201.931 119.612C202.152 119.259 202.448 118.982 202.819 118.781C203.19 118.581 203.599 118.432 204.046 118.334C204.498 118.232 204.952 118.151 205.408 118.091C206.004 118.014 206.488 117.957 206.859 117.918C207.234 117.876 207.507 117.805 207.677 117.707C207.852 117.609 207.939 117.439 207.939 117.196V117.145C207.939 116.514 207.767 116.024 207.421 115.675C207.08 115.325 206.563 115.151 205.868 115.151C205.148 115.151 204.583 115.308 204.174 115.624C203.765 115.939 203.477 116.276 203.311 116.634L201.879 116.122C202.135 115.526 202.476 115.061 202.902 114.729C203.333 114.392 203.801 114.158 204.308 114.026C204.82 113.889 205.323 113.821 205.817 113.821C206.132 113.821 206.494 113.859 206.904 113.936C207.317 114.009 207.715 114.16 208.099 114.39C208.487 114.62 208.808 114.967 209.064 115.432C209.32 115.896 209.448 116.519 209.448 117.298V123.767H207.939V122.438H207.862C207.76 122.651 207.59 122.879 207.351 123.121C207.112 123.364 206.795 123.571 206.399 123.742C206.002 123.912 205.519 123.997 204.948 123.997ZM205.178 122.642C205.774 122.642 206.277 122.525 206.686 122.291C207.1 122.056 207.411 121.754 207.619 121.383C207.833 121.012 207.939 120.622 207.939 120.213V118.832C207.875 118.909 207.735 118.979 207.517 119.043C207.304 119.103 207.057 119.156 206.776 119.203C206.499 119.246 206.228 119.284 205.964 119.318C205.704 119.348 205.493 119.374 205.331 119.395C204.939 119.446 204.573 119.529 204.232 119.644C203.895 119.755 203.622 119.923 203.414 120.149C203.209 120.371 203.107 120.673 203.107 121.057C203.107 121.581 203.301 121.977 203.688 122.246C204.08 122.51 204.577 122.642 205.178 122.642ZM213.71 117.861V123.767H212.201V113.949H213.658V115.483H213.786C214.016 114.984 214.366 114.584 214.835 114.281C215.303 113.974 215.908 113.821 216.65 113.821C217.315 113.821 217.896 113.957 218.395 114.23C218.893 114.499 219.281 114.908 219.558 115.457C219.835 116.003 219.974 116.693 219.974 117.528V123.767H218.465V117.631C218.465 116.859 218.265 116.259 217.864 115.828C217.464 115.394 216.914 115.176 216.215 115.176C215.734 115.176 215.303 115.281 214.924 115.489C214.549 115.698 214.253 116.003 214.036 116.403C213.818 116.804 213.71 117.29 213.71 117.861ZM224.137 120.188L224.111 118.321H224.418L228.713 113.949H230.58L226.003 118.577H225.875L224.137 120.188ZM222.73 123.767V110.676H224.239V123.767H222.73ZM228.969 123.767L225.134 118.909L226.208 117.861L230.887 123.767H228.969ZM241.854 113.949V115.227H236.766V113.949H241.854ZM238.249 111.597H239.757V120.955C239.757 121.381 239.819 121.7 239.942 121.913C240.07 122.122 240.232 122.263 240.428 122.335C240.629 122.403 240.839 122.438 241.061 122.438C241.227 122.438 241.364 122.429 241.47 122.412C241.577 122.391 241.662 122.374 241.726 122.361L242.033 123.716C241.93 123.754 241.788 123.793 241.604 123.831C241.421 123.874 241.189 123.895 240.908 123.895C240.482 123.895 240.064 123.803 239.655 123.62C239.25 123.437 238.913 123.158 238.645 122.783C238.381 122.408 238.249 121.935 238.249 121.364V111.597ZM244.123 123.767V113.949H245.58V115.432H245.683C245.862 114.946 246.185 114.552 246.654 114.249C247.123 113.947 247.651 113.795 248.239 113.795C248.35 113.795 248.489 113.798 248.655 113.802C248.821 113.806 248.947 113.813 249.032 113.821V115.355C248.981 115.342 248.864 115.323 248.68 115.298C248.501 115.268 248.312 115.253 248.112 115.253C247.634 115.253 247.208 115.353 246.833 115.553C246.462 115.749 246.168 116.022 245.951 116.371C245.738 116.717 245.631 117.111 245.631 117.554V123.767H244.123ZM253.709 123.997C253.087 123.997 252.523 123.88 252.015 123.646C251.508 123.407 251.106 123.064 250.807 122.617C250.509 122.165 250.36 121.619 250.36 120.98C250.36 120.418 250.471 119.962 250.692 119.612C250.914 119.259 251.21 118.982 251.581 118.781C251.952 118.581 252.361 118.432 252.808 118.334C253.26 118.232 253.714 118.151 254.17 118.091C254.766 118.014 255.25 117.957 255.621 117.918C255.996 117.876 256.268 117.805 256.439 117.707C256.613 117.609 256.701 117.439 256.701 117.196V117.145C256.701 116.514 256.528 116.024 256.183 115.675C255.842 115.325 255.324 115.151 254.63 115.151C253.91 115.151 253.345 115.308 252.936 115.624C252.527 115.939 252.239 116.276 252.073 116.634L250.641 116.122C250.897 115.526 251.238 115.061 251.664 114.729C252.094 114.392 252.563 114.158 253.07 114.026C253.581 113.889 254.084 113.821 254.579 113.821C254.894 113.821 255.256 113.859 255.665 113.936C256.079 114.009 256.477 114.16 256.861 114.39C257.248 114.62 257.57 114.967 257.826 115.432C258.081 115.896 258.209 116.519 258.209 117.298V123.767H256.701V122.438H256.624C256.522 122.651 256.351 122.879 256.113 123.121C255.874 123.364 255.557 123.571 255.16 123.742C254.764 123.912 254.28 123.997 253.709 123.997ZM253.939 122.642C254.536 122.642 255.039 122.525 255.448 122.291C255.861 122.056 256.172 121.754 256.381 121.383C256.594 121.012 256.701 120.622 256.701 120.213V118.832C256.637 118.909 256.496 118.979 256.279 119.043C256.066 119.103 255.819 119.156 255.537 119.203C255.26 119.246 254.99 119.284 254.726 119.318C254.466 119.348 254.255 119.374 254.093 119.395C253.701 119.446 253.334 119.529 252.993 119.644C252.657 119.755 252.384 119.923 252.175 120.149C251.971 120.371 251.868 120.673 251.868 121.057C251.868 121.581 252.062 121.977 252.45 122.246C252.842 122.51 253.339 122.642 253.939 122.642ZM262.471 117.861V123.767H260.963V113.949H262.42V115.483H262.548C262.778 114.984 263.127 114.584 263.596 114.281C264.065 113.974 264.67 113.821 265.412 113.821C266.076 113.821 266.658 113.957 267.157 114.23C267.655 114.499 268.043 114.908 268.32 115.457C268.597 116.003 268.735 116.693 268.735 117.528V123.767H267.227V117.631C267.227 116.859 267.027 116.259 266.626 115.828C266.225 115.394 265.676 115.176 264.977 115.176C264.495 115.176 264.065 115.281 263.686 115.489C263.311 115.698 263.015 116.003 262.797 116.403C262.58 116.804 262.471 117.29 262.471 117.861ZM278.447 116.148L277.091 116.531C277.006 116.305 276.881 116.086 276.714 115.873C276.552 115.656 276.331 115.477 276.05 115.336C275.768 115.195 275.408 115.125 274.969 115.125C274.368 115.125 273.868 115.264 273.467 115.541C273.071 115.813 272.873 116.161 272.873 116.582C272.873 116.957 273.009 117.254 273.282 117.471C273.555 117.688 273.981 117.869 274.56 118.014L276.018 118.372C276.895 118.585 277.55 118.911 277.98 119.35C278.41 119.785 278.626 120.345 278.626 121.031C278.626 121.594 278.464 122.097 278.14 122.54C277.82 122.983 277.373 123.332 276.797 123.588C276.222 123.844 275.553 123.972 274.79 123.972C273.789 123.972 272.96 123.754 272.304 123.32C271.648 122.885 271.232 122.25 271.057 121.415L272.489 121.057C272.626 121.585 272.883 121.982 273.263 122.246C273.646 122.51 274.147 122.642 274.765 122.642C275.468 122.642 276.026 122.493 276.439 122.195C276.857 121.892 277.066 121.53 277.066 121.108C277.066 120.767 276.947 120.482 276.708 120.251C276.469 120.017 276.103 119.842 275.608 119.727L273.972 119.344C273.073 119.131 272.412 118.8 271.991 118.353C271.573 117.901 271.364 117.337 271.364 116.659C271.364 116.105 271.52 115.615 271.831 115.189C272.146 114.763 272.574 114.428 273.116 114.185C273.661 113.943 274.279 113.821 274.969 113.821C275.941 113.821 276.704 114.034 277.258 114.46C277.816 114.886 278.212 115.449 278.447 116.148ZM285.268 113.949V115.227H279.976V113.949H285.268ZM281.561 123.767V112.594C281.561 112.031 281.693 111.563 281.957 111.188C282.222 110.813 282.565 110.531 282.987 110.344C283.408 110.156 283.854 110.063 284.322 110.063C284.693 110.063 284.996 110.092 285.23 110.152C285.464 110.212 285.639 110.267 285.754 110.318L285.32 111.622C285.243 111.597 285.136 111.565 285 111.526C284.868 111.488 284.693 111.469 284.476 111.469C283.977 111.469 283.617 111.595 283.396 111.846C283.178 112.097 283.07 112.466 283.07 112.952V123.767H281.561ZM291.095 123.972C290.149 123.972 289.333 123.763 288.647 123.345C287.965 122.923 287.439 122.335 287.068 121.581C286.701 120.822 286.518 119.94 286.518 118.935C286.518 117.929 286.701 117.043 287.068 116.276C287.439 115.504 287.954 114.903 288.615 114.473C289.279 114.038 290.055 113.821 290.941 113.821C291.453 113.821 291.958 113.906 292.456 114.077C292.955 114.247 293.409 114.524 293.818 114.908C294.227 115.287 294.553 115.79 294.796 116.416C295.039 117.043 295.16 117.814 295.16 118.73V119.369H287.592V118.065H293.626C293.626 117.511 293.515 117.017 293.294 116.582C293.076 116.148 292.765 115.805 292.36 115.553C291.96 115.302 291.487 115.176 290.941 115.176C290.341 115.176 289.821 115.325 289.382 115.624C288.947 115.918 288.613 116.301 288.378 116.774C288.144 117.247 288.027 117.754 288.027 118.295V119.165C288.027 119.906 288.154 120.535 288.41 121.05C288.67 121.562 289.03 121.952 289.49 122.22C289.951 122.484 290.485 122.617 291.095 122.617C291.491 122.617 291.849 122.561 292.169 122.45C292.493 122.335 292.772 122.165 293.006 121.939C293.24 121.709 293.422 121.423 293.549 121.082L295.007 121.492C294.853 121.986 294.596 122.42 294.233 122.795C293.871 123.166 293.424 123.456 292.891 123.665C292.358 123.869 291.76 123.972 291.095 123.972ZM297.455 123.767V113.949H298.912V115.432H299.015C299.194 114.946 299.517 114.552 299.986 114.249C300.455 113.947 300.983 113.795 301.571 113.795C301.682 113.795 301.821 113.798 301.987 113.802C302.153 113.806 302.279 113.813 302.364 113.821V115.355C302.313 115.342 302.196 115.323 302.012 115.298C301.833 115.268 301.644 115.253 301.444 115.253C300.966 115.253 300.54 115.353 300.165 115.553C299.794 115.749 299.5 116.022 299.283 116.371C299.07 116.717 298.963 117.111 298.963 117.554V123.767H297.455ZM311.107 116.148L309.752 116.531C309.666 116.305 309.541 116.086 309.374 115.873C309.213 115.656 308.991 115.477 308.71 115.336C308.428 115.195 308.068 115.125 307.629 115.125C307.029 115.125 306.528 115.264 306.127 115.541C305.731 115.813 305.533 116.161 305.533 116.582C305.533 116.957 305.669 117.254 305.942 117.471C306.215 117.688 306.641 117.869 307.22 118.014L308.678 118.372C309.556 118.585 310.21 118.911 310.64 119.35C311.07 119.785 311.286 120.345 311.286 121.031C311.286 121.594 311.124 122.097 310.8 122.54C310.48 122.983 310.033 123.332 309.458 123.588C308.882 123.844 308.213 123.972 307.45 123.972C306.449 123.972 305.62 123.754 304.964 123.32C304.308 122.885 303.892 122.25 303.718 121.415L305.149 121.057C305.286 121.585 305.544 121.982 305.923 122.246C306.306 122.51 306.807 122.642 307.425 122.642C308.128 122.642 308.686 122.493 309.1 122.195C309.517 121.892 309.726 121.53 309.726 121.108C309.726 120.767 309.607 120.482 309.368 120.251C309.129 120.017 308.763 119.842 308.269 119.727L306.632 119.344C305.733 119.131 305.073 118.8 304.651 118.353C304.233 117.901 304.024 117.337 304.024 116.659C304.024 116.105 304.18 115.615 304.491 115.189C304.806 114.763 305.235 114.428 305.776 114.185C306.321 113.943 306.939 113.821 307.629 113.821C308.601 113.821 309.364 114.034 309.918 114.46C310.476 114.886 310.872 115.449 311.107 116.148ZM320.843 123.767L317.852 113.949H319.437L321.559 121.466H321.662L323.758 113.949H325.369L327.44 121.44H327.542L329.664 113.949H331.25L328.258 123.767H326.775L324.627 116.224H324.474L322.326 123.767H320.843ZM333.244 123.767V113.949H334.752V123.767H333.244ZM334.011 112.313C333.717 112.313 333.463 112.212 333.25 112.012C333.042 111.812 332.937 111.571 332.937 111.29C332.937 111.009 333.042 110.768 333.25 110.568C333.463 110.367 333.717 110.267 334.011 110.267C334.305 110.267 334.556 110.367 334.765 110.568C334.978 110.768 335.085 111.009 335.085 111.29C335.085 111.571 334.978 111.812 334.765 112.012C334.556 112.212 334.305 112.313 334.011 112.313ZM341.785 113.949V115.227H336.697V113.949H341.785ZM338.18 111.597H339.689V120.955C339.689 121.381 339.751 121.7 339.874 121.913C340.002 122.122 340.164 122.263 340.36 122.335C340.56 122.403 340.771 122.438 340.993 122.438C341.159 122.438 341.295 122.429 341.402 122.412C341.508 122.391 341.594 122.374 341.657 122.361L341.964 123.716C341.862 123.754 341.719 123.793 341.536 123.831C341.353 123.874 341.121 123.895 340.839 123.895C340.413 123.895 339.996 123.803 339.586 123.62C339.182 123.437 338.845 123.158 338.577 122.783C338.312 122.408 338.18 121.935 338.18 121.364V111.597ZM345.774 117.861V123.767H344.265V110.676H345.774V115.483H345.902C346.132 114.976 346.477 114.573 346.937 114.275C347.402 113.972 348.02 113.821 348.791 113.821C349.46 113.821 350.046 113.955 350.549 114.224C351.052 114.488 351.442 114.895 351.719 115.445C352 115.99 352.14 116.685 352.14 117.528V123.767H350.632V117.631C350.632 116.851 350.43 116.248 350.025 115.822C349.624 115.391 349.068 115.176 348.356 115.176C347.862 115.176 347.419 115.281 347.027 115.489C346.639 115.698 346.332 116.003 346.106 116.403C345.885 116.804 345.774 117.29 345.774 117.861ZM46.2699 145.997C45.6477 145.997 45.0831 145.88 44.576 145.646C44.0689 145.407 43.6662 145.064 43.3679 144.617C43.0696 144.165 42.9205 143.619 42.9205 142.98C42.9205 142.418 43.0313 141.962 43.2528 141.612C43.4744 141.259 43.7706 140.982 44.1413 140.781C44.5121 140.581 44.9212 140.432 45.3686 140.334C45.8203 140.232 46.2741 140.151 46.7301 140.091C47.3267 140.014 47.8104 139.957 48.1811 139.918C48.5561 139.876 48.8288 139.805 48.9993 139.707C49.174 139.609 49.2614 139.439 49.2614 139.196V139.145C49.2614 138.514 49.0888 138.024 48.7436 137.675C48.4027 137.325 47.8849 137.151 47.1903 137.151C46.4702 137.151 45.9055 137.308 45.4964 137.624C45.0874 137.939 44.7997 138.276 44.6335 138.634L43.2017 138.122C43.4574 137.526 43.7983 137.061 44.2244 136.729C44.6548 136.392 45.1236 136.158 45.6307 136.026C46.142 135.889 46.6449 135.821 47.1392 135.821C47.4545 135.821 47.8168 135.859 48.2259 135.936C48.6392 136.009 49.0376 136.16 49.4212 136.39C49.8089 136.62 50.1307 136.967 50.3864 137.432C50.642 137.896 50.7699 138.519 50.7699 139.298V145.767H49.2614V144.438H49.1847C49.0824 144.651 48.9119 144.879 48.6733 145.121C48.4347 145.364 48.1172 145.571 47.7209 145.742C47.3246 145.912 46.8409 145.997 46.2699 145.997ZM46.5 144.642C47.0966 144.642 47.5994 144.525 48.0085 144.291C48.4219 144.056 48.733 143.754 48.9418 143.383C49.1548 143.012 49.2614 142.622 49.2614 142.213V140.832C49.1974 140.909 49.0568 140.979 48.8395 141.043C48.6264 141.103 48.3793 141.156 48.098 141.203C47.821 141.246 47.5504 141.284 47.2862 141.318C47.0263 141.348 46.8153 141.374 46.6534 141.395C46.2614 141.446 45.8949 141.529 45.554 141.644C45.2173 141.755 44.9446 141.923 44.7358 142.149C44.5313 142.371 44.429 142.673 44.429 143.057C44.429 143.581 44.6229 143.977 45.0107 144.246C45.4027 144.51 45.8991 144.642 46.5 144.642ZM57.5119 145.972C56.5914 145.972 55.7988 145.754 55.1341 145.32C54.4693 144.885 53.9579 144.286 53.6 143.523C53.242 142.761 53.063 141.889 53.063 140.909C53.063 139.912 53.2463 139.032 53.6127 138.269C53.9835 137.502 54.4991 136.903 55.1596 136.473C55.8244 136.038 56.6 135.821 57.4863 135.821C58.1767 135.821 58.7988 135.949 59.3528 136.205C59.9068 136.46 60.3606 136.818 60.7143 137.278C61.068 137.739 61.2875 138.276 61.3727 138.889H59.8642C59.7491 138.442 59.4934 138.045 59.0971 137.7C58.7051 137.351 58.1767 137.176 57.5119 137.176C56.9238 137.176 56.4082 137.33 55.965 137.636C55.5261 137.939 55.1831 138.367 54.9359 138.921C54.693 139.471 54.5716 140.117 54.5716 140.858C54.5716 141.617 54.6909 142.277 54.9295 142.84C55.1724 143.402 55.5133 143.839 55.9522 144.15C56.3954 144.461 56.9153 144.617 57.5119 144.617C57.9039 144.617 58.2598 144.548 58.5794 144.412C58.899 144.276 59.1696 144.08 59.3912 143.824C59.6127 143.568 59.7704 143.261 59.8642 142.903H61.3727C61.2875 143.483 61.0765 144.005 60.7399 144.47C60.4075 144.93 59.9664 145.296 59.4167 145.569C58.8713 145.837 58.2363 145.972 57.5119 145.972ZM67.5666 145.972C66.6461 145.972 65.8535 145.754 65.1887 145.32C64.524 144.885 64.0126 144.286 63.6547 143.523C63.2967 142.761 63.1177 141.889 63.1177 140.909C63.1177 139.912 63.301 139.032 63.6674 138.269C64.0382 137.502 64.5538 136.903 65.2143 136.473C65.8791 136.038 66.6547 135.821 67.541 135.821C68.2314 135.821 68.8535 135.949 69.4075 136.205C69.9615 136.46 70.4153 136.818 70.769 137.278C71.1227 137.739 71.3422 138.276 71.4274 138.889H69.9189C69.8038 138.442 69.5481 138.045 69.1518 137.7C68.7598 137.351 68.2314 137.176 67.5666 137.176C66.9785 137.176 66.4629 137.33 66.0197 137.636C65.5808 137.939 65.2377 138.367 64.9906 138.921C64.7477 139.471 64.6262 140.117 64.6262 140.858C64.6262 141.617 64.7456 142.277 64.9842 142.84C65.2271 143.402 65.568 143.839 66.0069 144.15C66.4501 144.461 66.97 144.617 67.5666 144.617C67.9586 144.617 68.3145 144.548 68.6341 144.412C68.9537 144.276 69.2243 144.08 69.4458 143.824C69.6674 143.568 69.8251 143.261 69.9189 142.903H71.4274C71.3422 143.483 71.1312 144.005 70.7946 144.47C70.4622 144.93 70.0211 145.296 69.4714 145.569C68.926 145.837 68.291 145.972 67.5666 145.972ZM79.8201 141.753V135.949H81.3287V145.767H79.8201V144.105H79.7179C79.4877 144.604 79.1298 145.028 78.644 145.377C78.1582 145.722 77.5446 145.895 76.8031 145.895C76.1895 145.895 75.644 145.761 75.1667 145.492C74.6895 145.22 74.3145 144.81 74.0417 144.265C73.769 143.715 73.6326 143.023 73.6326 142.188V135.949H75.1412V142.085C75.1412 142.801 75.3414 143.372 75.742 143.798C76.1468 144.224 76.6625 144.438 77.2889 144.438C77.6639 144.438 78.0453 144.342 78.4331 144.15C78.8251 143.958 79.1532 143.664 79.4174 143.268C79.6859 142.871 79.8201 142.367 79.8201 141.753ZM84.0916 145.767V135.949H85.549V137.432H85.6513C85.8303 136.946 86.1541 136.552 86.6229 136.249C87.0916 135.947 87.62 135.795 88.2081 135.795C88.3189 135.795 88.4574 135.798 88.6236 135.802C88.7898 135.806 88.9155 135.813 89.0007 135.821V137.355C88.9496 137.342 88.8324 137.323 88.6491 137.298C88.4702 137.268 88.2805 137.253 88.0803 137.253C87.603 137.253 87.1768 137.353 86.8018 137.553C86.4311 137.749 86.1371 138.022 85.9197 138.371C85.7067 138.717 85.6001 139.111 85.6001 139.554V145.767H84.0916ZM93.6781 145.997C93.0559 145.997 92.4913 145.88 91.9842 145.646C91.4771 145.407 91.0744 145.064 90.7761 144.617C90.4778 144.165 90.3287 143.619 90.3287 142.98C90.3287 142.418 90.4395 141.962 90.661 141.612C90.8826 141.259 91.1788 140.982 91.5495 140.781C91.9203 140.581 92.3294 140.432 92.7768 140.334C93.2285 140.232 93.6824 140.151 94.1383 140.091C94.7349 140.014 95.2186 139.957 95.5893 139.918C95.9643 139.876 96.237 139.805 96.4075 139.707C96.5822 139.609 96.6696 139.439 96.6696 139.196V139.145C96.6696 138.514 96.497 138.024 96.1518 137.675C95.8109 137.325 95.2931 137.151 94.5985 137.151C93.8784 137.151 93.3137 137.308 92.9047 137.624C92.4956 137.939 92.2079 138.276 92.0417 138.634L90.6099 138.122C90.8656 137.526 91.2065 137.061 91.6326 136.729C92.063 136.392 92.5318 136.158 93.0389 136.026C93.5502 135.889 94.0531 135.821 94.5474 135.821C94.8627 135.821 95.225 135.859 95.6341 135.936C96.0474 136.009 96.4458 136.16 96.8294 136.39C97.2172 136.62 97.5389 136.967 97.7946 137.432C98.0502 137.896 98.1781 138.519 98.1781 139.298V145.767H96.6696V144.438H96.5929C96.4906 144.651 96.3201 144.879 96.0815 145.121C95.8429 145.364 95.5254 145.571 95.1291 145.742C94.7328 145.912 94.2491 145.997 93.6781 145.997ZM93.9082 144.642C94.5048 144.642 95.0076 144.525 95.4167 144.291C95.8301 144.056 96.1412 143.754 96.35 143.383C96.563 143.012 96.6696 142.622 96.6696 142.213V140.832C96.6056 140.909 96.465 140.979 96.2477 141.043C96.0346 141.103 95.7875 141.156 95.5062 141.203C95.2292 141.246 94.9586 141.284 94.6944 141.318C94.4345 141.348 94.2235 141.374 94.0616 141.395C93.6696 141.446 93.3031 141.529 92.9622 141.644C92.6255 141.755 92.3528 141.923 92.144 142.149C91.9395 142.371 91.8372 142.673 91.8372 143.057C91.8372 143.581 92.0311 143.977 92.4189 144.246C92.8109 144.51 93.3074 144.642 93.9082 144.642ZM105.201 135.949V137.227H100.113V135.949H105.201ZM101.596 133.597H103.105V142.955C103.105 143.381 103.167 143.7 103.29 143.913C103.418 144.122 103.58 144.263 103.776 144.335C103.976 144.403 104.187 144.438 104.409 144.438C104.575 144.438 104.711 144.429 104.818 144.412C104.924 144.391 105.01 144.374 105.074 144.361L105.38 145.716C105.278 145.754 105.135 145.793 104.952 145.831C104.769 145.874 104.537 145.895 104.255 145.895C103.829 145.895 103.412 145.803 103.002 145.62C102.598 145.437 102.261 145.158 101.993 144.783C101.728 144.408 101.596 143.935 101.596 143.364V133.597ZM111.482 145.972C110.536 145.972 109.719 145.763 109.033 145.345C108.352 144.923 107.825 144.335 107.455 143.581C107.088 142.822 106.905 141.94 106.905 140.935C106.905 139.929 107.088 139.043 107.455 138.276C107.825 137.504 108.341 136.903 109.001 136.473C109.666 136.038 110.442 135.821 111.328 135.821C111.839 135.821 112.344 135.906 112.843 136.077C113.342 136.247 113.795 136.524 114.205 136.908C114.614 137.287 114.94 137.79 115.183 138.416C115.425 139.043 115.547 139.814 115.547 140.73V141.369H107.979V140.065H114.013C114.013 139.511 113.902 139.017 113.68 138.582C113.463 138.148 113.152 137.805 112.747 137.553C112.347 137.302 111.874 137.176 111.328 137.176C110.727 137.176 110.207 137.325 109.768 137.624C109.334 137.918 108.999 138.301 108.765 138.774C108.531 139.247 108.413 139.754 108.413 140.295V141.165C108.413 141.906 108.541 142.535 108.797 143.05C109.057 143.562 109.417 143.952 109.877 144.22C110.337 144.484 110.872 144.617 111.482 144.617C111.878 144.617 112.236 144.561 112.555 144.45C112.879 144.335 113.158 144.165 113.393 143.939C113.627 143.709 113.808 143.423 113.936 143.082L115.393 143.492C115.24 143.986 114.982 144.42 114.62 144.795C114.258 145.166 113.81 145.456 113.278 145.665C112.745 145.869 112.146 145.972 111.482 145.972ZM120.092 143.977L119.989 144.668C119.917 145.153 119.806 145.673 119.657 146.227C119.512 146.781 119.361 147.303 119.203 147.793C119.045 148.283 118.915 148.673 118.813 148.963H117.663C117.718 148.69 117.79 148.33 117.88 147.883C117.969 147.435 118.059 146.935 118.148 146.381C118.242 145.831 118.319 145.269 118.379 144.693L118.455 143.977H120.092ZM127.949 145.767V135.949H129.406V137.432H129.509C129.688 136.946 130.012 136.552 130.48 136.249C130.949 135.947 131.477 135.795 132.066 135.795C132.176 135.795 132.315 135.798 132.481 135.802C132.647 135.806 132.773 135.813 132.858 135.821V137.355C132.807 137.342 132.69 137.323 132.507 137.298C132.328 137.268 132.138 137.253 131.938 137.253C131.46 137.253 131.034 137.353 130.659 137.553C130.289 137.749 129.994 138.022 129.777 138.371C129.564 138.717 129.458 139.111 129.458 139.554V145.767H127.949ZM138.464 145.972C137.518 145.972 136.702 145.763 136.016 145.345C135.334 144.923 134.808 144.335 134.437 143.581C134.07 142.822 133.887 141.94 133.887 140.935C133.887 139.929 134.07 139.043 134.437 138.276C134.808 137.504 135.323 136.903 135.984 136.473C136.649 136.038 137.424 135.821 138.311 135.821C138.822 135.821 139.327 135.906 139.825 136.077C140.324 136.247 140.778 136.524 141.187 136.908C141.596 137.287 141.922 137.79 142.165 138.416C142.408 139.043 142.529 139.814 142.529 140.73V141.369H134.961V140.065H140.995C140.995 139.511 140.884 139.017 140.663 138.582C140.445 138.148 140.134 137.805 139.73 137.553C139.329 137.302 138.856 137.176 138.311 137.176C137.71 137.176 137.19 137.325 136.751 137.624C136.316 137.918 135.982 138.301 135.747 138.774C135.513 139.247 135.396 139.754 135.396 140.295V141.165C135.396 141.906 135.524 142.535 135.779 143.05C136.039 143.562 136.399 143.952 136.86 144.22C137.32 144.484 137.855 144.617 138.464 144.617C138.86 144.617 139.218 144.561 139.538 144.45C139.862 144.335 140.141 144.165 140.375 143.939C140.61 143.709 140.791 143.423 140.919 143.082L142.376 143.492C142.222 143.986 141.965 144.42 141.602 144.795C141.24 145.166 140.793 145.456 140.26 145.665C139.727 145.869 139.129 145.972 138.464 145.972ZM146.333 132.676V145.767H144.824V132.676H146.333ZM149.096 145.767V135.949H150.604V145.767H149.096ZM149.863 134.313C149.569 134.313 149.315 134.212 149.102 134.012C148.893 133.812 148.789 133.571 148.789 133.29C148.789 133.009 148.893 132.768 149.102 132.568C149.315 132.367 149.569 132.267 149.863 132.267C150.157 132.267 150.408 132.367 150.617 132.568C150.83 132.768 150.936 133.009 150.936 133.29C150.936 133.571 150.83 133.812 150.617 134.012C150.408 134.212 150.157 134.313 149.863 134.313ZM156.256 145.997C155.634 145.997 155.069 145.88 154.562 145.646C154.055 145.407 153.653 145.064 153.354 144.617C153.056 144.165 152.907 143.619 152.907 142.98C152.907 142.418 153.018 141.962 153.239 141.612C153.461 141.259 153.757 140.982 154.128 140.781C154.498 140.581 154.907 140.432 155.355 140.334C155.807 140.232 156.26 140.151 156.716 140.091C157.313 140.014 157.797 139.957 158.167 139.918C158.542 139.876 158.815 139.805 158.986 139.707C159.16 139.609 159.248 139.439 159.248 139.196V139.145C159.248 138.514 159.075 138.024 158.73 137.675C158.389 137.325 157.871 137.151 157.177 137.151C156.456 137.151 155.892 137.308 155.483 137.624C155.074 137.939 154.786 138.276 154.62 138.634L153.188 138.122C153.444 137.526 153.785 137.061 154.211 136.729C154.641 136.392 155.11 136.158 155.617 136.026C156.128 135.889 156.631 135.821 157.126 135.821C157.441 135.821 157.803 135.859 158.212 135.936C158.626 136.009 159.024 136.16 159.407 136.39C159.795 136.62 160.117 136.967 160.373 137.432C160.628 137.896 160.756 138.519 160.756 139.298V145.767H159.248V144.438H159.171C159.069 144.651 158.898 144.879 158.66 145.121C158.421 145.364 158.104 145.571 157.707 145.742C157.311 145.912 156.827 145.997 156.256 145.997ZM156.486 144.642C157.083 144.642 157.586 144.525 157.995 144.291C158.408 144.056 158.719 143.754 158.928 143.383C159.141 143.012 159.248 142.622 159.248 142.213V140.832C159.184 140.909 159.043 140.979 158.826 141.043C158.613 141.103 158.366 141.156 158.084 141.203C157.807 141.246 157.537 141.284 157.273 141.318C157.013 141.348 156.802 141.374 156.64 141.395C156.248 141.446 155.881 141.529 155.54 141.644C155.204 141.755 154.931 141.923 154.722 142.149C154.518 142.371 154.415 142.673 154.415 143.057C154.415 143.581 154.609 143.977 154.997 144.246C155.389 144.51 155.885 144.642 156.486 144.642ZM163.714 145.767V132.676H165.223V137.509H165.35C165.461 137.338 165.615 137.121 165.811 136.857C166.011 136.588 166.297 136.349 166.667 136.141C167.042 135.928 167.549 135.821 168.189 135.821C169.015 135.821 169.744 136.028 170.375 136.441C171.005 136.854 171.498 137.44 171.851 138.199C172.205 138.957 172.382 139.852 172.382 140.884C172.382 141.923 172.205 142.825 171.851 143.587C171.498 144.346 171.007 144.934 170.381 145.352C169.755 145.765 169.032 145.972 168.214 145.972C167.583 145.972 167.078 145.867 166.699 145.658C166.32 145.445 166.028 145.205 165.824 144.936C165.619 144.663 165.461 144.438 165.35 144.259H165.172V145.767H163.714ZM165.197 140.858C165.197 141.599 165.306 142.254 165.523 142.82C165.74 143.383 166.058 143.824 166.475 144.144C166.893 144.459 167.404 144.617 168.01 144.617C168.64 144.617 169.167 144.45 169.588 144.118C170.015 143.781 170.334 143.33 170.547 142.763C170.765 142.192 170.873 141.557 170.873 140.858C170.873 140.168 170.767 139.545 170.554 138.992C170.345 138.433 170.027 137.992 169.601 137.668C169.179 137.34 168.649 137.176 168.01 137.176C167.396 137.176 166.88 137.332 166.463 137.643C166.045 137.95 165.73 138.38 165.517 138.934C165.304 139.484 165.197 140.125 165.197 140.858ZM176.198 132.676V145.767H174.689V132.676H176.198ZM183.077 145.972C182.131 145.972 181.315 145.763 180.629 145.345C179.947 144.923 179.421 144.335 179.05 143.581C178.684 142.822 178.501 141.94 178.501 140.935C178.501 139.929 178.684 139.043 179.05 138.276C179.421 137.504 179.937 136.903 180.597 136.473C181.262 136.038 182.037 135.821 182.924 135.821C183.435 135.821 183.94 135.906 184.439 136.077C184.937 136.247 185.391 136.524 185.8 136.908C186.209 137.287 186.535 137.79 186.778 138.416C187.021 139.043 187.143 139.814 187.143 140.73V141.369H179.574V140.065H185.608C185.608 139.511 185.498 139.017 185.276 138.582C185.059 138.148 184.748 137.805 184.343 137.553C183.942 137.302 183.469 137.176 182.924 137.176C182.323 137.176 181.803 137.325 181.364 137.624C180.93 137.918 180.595 138.301 180.361 138.774C180.126 139.247 180.009 139.754 180.009 140.295V141.165C180.009 141.906 180.137 142.535 180.393 143.05C180.653 143.562 181.013 143.952 181.473 144.22C181.933 144.484 182.468 144.617 183.077 144.617C183.474 144.617 183.831 144.561 184.151 144.45C184.475 144.335 184.754 144.165 184.988 143.939C185.223 143.709 185.404 143.423 185.532 143.082L186.989 143.492C186.836 143.986 186.578 144.42 186.216 144.795C185.854 145.166 185.406 145.456 184.873 145.665C184.341 145.869 183.742 145.972 183.077 145.972ZM201.454 138.148L200.099 138.531C200.014 138.305 199.888 138.086 199.722 137.873C199.56 137.656 199.339 137.477 199.057 137.336C198.776 137.195 198.416 137.125 197.977 137.125C197.376 137.125 196.876 137.264 196.475 137.541C196.079 137.813 195.881 138.161 195.881 138.582C195.881 138.957 196.017 139.254 196.29 139.471C196.562 139.688 196.988 139.869 197.568 140.014L199.025 140.372C199.903 140.585 200.557 140.911 200.988 141.35C201.418 141.785 201.633 142.345 201.633 143.031C201.633 143.594 201.471 144.097 201.148 144.54C200.828 144.983 200.381 145.332 199.805 145.588C199.23 145.844 198.561 145.972 197.798 145.972C196.797 145.972 195.968 145.754 195.312 145.32C194.655 144.885 194.24 144.25 194.065 143.415L195.497 143.057C195.633 143.585 195.891 143.982 196.27 144.246C196.654 144.51 197.155 144.642 197.773 144.642C198.476 144.642 199.034 144.493 199.447 144.195C199.865 143.892 200.074 143.53 200.074 143.108C200.074 142.767 199.954 142.482 199.716 142.251C199.477 142.017 199.111 141.842 198.616 141.727L196.98 141.344C196.081 141.131 195.42 140.8 194.998 140.353C194.581 139.901 194.372 139.337 194.372 138.659C194.372 138.105 194.528 137.615 194.839 137.189C195.154 136.763 195.582 136.428 196.123 136.185C196.669 135.943 197.287 135.821 197.977 135.821C198.949 135.821 199.711 136.034 200.265 136.46C200.824 136.886 201.22 137.449 201.454 138.148ZM208.174 135.949V137.227H203.086V135.949H208.174ZM204.569 133.597H206.077V142.955C206.077 143.381 206.139 143.7 206.263 143.913C206.391 144.122 206.553 144.263 206.749 144.335C206.949 144.403 207.16 144.438 207.381 144.438C207.548 144.438 207.684 144.429 207.79 144.412C207.897 144.391 207.982 144.374 208.046 144.361L208.353 145.716C208.251 145.754 208.108 145.793 207.925 145.831C207.741 145.874 207.509 145.895 207.228 145.895C206.802 145.895 206.384 145.803 205.975 145.62C205.57 145.437 205.234 145.158 204.965 144.783C204.701 144.408 204.569 143.935 204.569 143.364V133.597ZM213.332 145.997C212.71 145.997 212.146 145.88 211.638 145.646C211.131 145.407 210.729 145.064 210.43 144.617C210.132 144.165 209.983 143.619 209.983 142.98C209.983 142.418 210.094 141.962 210.315 141.612C210.537 141.259 210.833 140.982 211.204 140.781C211.575 140.581 211.984 140.432 212.431 140.334C212.883 140.232 213.337 140.151 213.793 140.091C214.389 140.014 214.873 139.957 215.244 139.918C215.619 139.876 215.891 139.805 216.062 139.707C216.237 139.609 216.324 139.439 216.324 139.196V139.145C216.324 138.514 216.151 138.024 215.806 137.675C215.465 137.325 214.947 137.151 214.253 137.151C213.533 137.151 212.968 137.308 212.559 137.624C212.15 137.939 211.862 138.276 211.696 138.634L210.264 138.122C210.52 137.526 210.861 137.061 211.287 136.729C211.717 136.392 212.186 136.158 212.693 136.026C213.205 135.889 213.707 135.821 214.202 135.821C214.517 135.821 214.879 135.859 215.288 135.936C215.702 136.009 216.1 136.16 216.484 136.39C216.871 136.62 217.193 136.967 217.449 137.432C217.705 137.896 217.832 138.519 217.832 139.298V145.767H216.324V144.438H216.247C216.145 144.651 215.974 144.879 215.736 145.121C215.497 145.364 215.18 145.571 214.783 145.742C214.387 145.912 213.903 145.997 213.332 145.997ZM213.562 144.642C214.159 144.642 214.662 144.525 215.071 144.291C215.484 144.056 215.795 143.754 216.004 143.383C216.217 143.012 216.324 142.622 216.324 142.213V140.832C216.26 140.909 216.119 140.979 215.902 141.043C215.689 141.103 215.442 141.156 215.161 141.203C214.884 141.246 214.613 141.284 214.349 141.318C214.089 141.348 213.878 141.374 213.716 141.395C213.324 141.446 212.957 141.529 212.616 141.644C212.28 141.755 212.007 141.923 211.798 142.149C211.594 142.371 211.491 142.673 211.491 143.057C211.491 143.581 211.685 143.977 212.073 144.246C212.465 144.51 212.962 144.642 213.562 144.642ZM224.856 135.949V137.227H219.768V135.949H224.856ZM221.251 133.597H222.759V142.955C222.759 143.381 222.821 143.7 222.944 143.913C223.072 144.122 223.234 144.263 223.43 144.335C223.631 144.403 223.841 144.438 224.063 144.438C224.229 144.438 224.366 144.429 224.472 144.412C224.579 144.391 224.664 144.374 224.728 144.361L225.035 145.716C224.932 145.754 224.79 145.793 224.606 145.831C224.423 145.874 224.191 145.895 223.91 145.895C223.483 145.895 223.066 145.803 222.657 145.62C222.252 145.437 221.915 145.158 221.647 144.783C221.383 144.408 221.251 143.935 221.251 143.364V133.597ZM233.312 141.753V135.949H234.821V145.767H233.312V144.105H233.21C232.98 144.604 232.622 145.028 232.136 145.377C231.65 145.722 231.037 145.895 230.295 145.895C229.682 145.895 229.136 145.761 228.659 145.492C228.182 145.22 227.807 144.81 227.534 144.265C227.261 143.715 227.125 143.023 227.125 142.188V135.949H228.633V142.085C228.633 142.801 228.834 143.372 229.234 143.798C229.639 144.224 230.155 144.438 230.781 144.438C231.156 144.438 231.537 144.342 231.925 144.15C232.317 143.958 232.645 143.664 232.91 143.268C233.178 142.871 233.312 142.367 233.312 141.753ZM244.538 138.148L243.183 138.531C243.098 138.305 242.972 138.086 242.806 137.873C242.644 137.656 242.423 137.477 242.141 137.336C241.86 137.195 241.5 137.125 241.061 137.125C240.46 137.125 239.96 137.264 239.559 137.541C239.163 137.813 238.964 138.161 238.964 138.582C238.964 138.957 239.101 139.254 239.374 139.471C239.646 139.688 240.072 139.869 240.652 140.014L242.109 140.372C242.987 140.585 243.641 140.911 244.072 141.35C244.502 141.785 244.717 142.345 244.717 143.031C244.717 143.594 244.555 144.097 244.232 144.54C243.912 144.983 243.464 145.332 242.889 145.588C242.314 145.844 241.645 145.972 240.882 145.972C239.881 145.972 239.052 145.754 238.396 145.32C237.739 144.885 237.324 144.25 237.149 143.415L238.581 143.057C238.717 143.585 238.975 143.982 239.354 144.246C239.738 144.51 240.239 144.642 240.857 144.642C241.56 144.642 242.118 144.493 242.531 144.195C242.949 143.892 243.158 143.53 243.158 143.108C243.158 142.767 243.038 142.482 242.8 142.251C242.561 142.017 242.195 141.842 241.7 141.727L240.064 141.344C239.165 141.131 238.504 140.8 238.082 140.353C237.665 139.901 237.456 139.337 237.456 138.659C237.456 138.105 237.612 137.615 237.923 137.189C238.238 136.763 238.666 136.428 239.207 136.185C239.753 135.943 240.371 135.821 241.061 135.821C242.033 135.821 242.795 136.034 243.349 136.46C243.908 136.886 244.304 137.449 244.538 138.148ZM256.423 135.949V137.227H251.13V135.949H256.423ZM252.715 145.767V134.594C252.715 134.031 252.847 133.563 253.112 133.188C253.376 132.813 253.719 132.531 254.141 132.344C254.563 132.156 255.008 132.063 255.477 132.063C255.847 132.063 256.15 132.092 256.384 132.152C256.619 132.212 256.794 132.267 256.909 132.318L256.474 133.622C256.397 133.597 256.291 133.565 256.154 133.526C256.022 133.488 255.847 133.469 255.63 133.469C255.132 133.469 254.771 133.595 254.55 133.846C254.333 134.097 254.224 134.466 254.224 134.952V145.767H252.715ZM262.249 145.972C261.303 145.972 260.487 145.763 259.801 145.345C259.119 144.923 258.593 144.335 258.222 143.581C257.856 142.822 257.672 141.94 257.672 140.935C257.672 139.929 257.856 139.043 258.222 138.276C258.593 137.504 259.108 136.903 259.769 136.473C260.434 136.038 261.209 135.821 262.096 135.821C262.607 135.821 263.112 135.906 263.611 136.077C264.109 136.247 264.563 136.524 264.972 136.908C265.381 137.287 265.707 137.79 265.95 138.416C266.193 139.043 266.314 139.814 266.314 140.73V141.369H258.746V140.065H264.78C264.78 139.511 264.67 139.017 264.448 138.582C264.231 138.148 263.92 137.805 263.515 137.553C263.114 137.302 262.641 137.176 262.096 137.176C261.495 137.176 260.975 137.325 260.536 137.624C260.101 137.918 259.767 138.301 259.532 138.774C259.298 139.247 259.181 139.754 259.181 140.295V141.165C259.181 141.906 259.309 142.535 259.564 143.05C259.824 143.562 260.184 143.952 260.645 144.22C261.105 144.484 261.64 144.617 262.249 144.617C262.645 144.617 263.003 144.561 263.323 144.45C263.647 144.335 263.926 144.165 264.16 143.939C264.395 143.709 264.576 143.423 264.704 143.082L266.161 143.492C266.008 143.986 265.75 144.42 265.388 144.795C265.025 145.166 264.578 145.456 264.045 145.665C263.513 145.869 262.914 145.972 262.249 145.972ZM272.726 145.972C271.78 145.972 270.964 145.763 270.278 145.345C269.596 144.923 269.069 144.335 268.699 143.581C268.332 142.822 268.149 141.94 268.149 140.935C268.149 139.929 268.332 139.043 268.699 138.276C269.069 137.504 269.585 136.903 270.246 136.473C270.91 136.038 271.686 135.821 272.572 135.821C273.084 135.821 273.589 135.906 274.087 136.077C274.586 136.247 275.04 136.524 275.449 136.908C275.858 137.287 276.184 137.79 276.427 138.416C276.67 139.043 276.791 139.814 276.791 140.73V141.369H269.223V140.065H275.257C275.257 139.511 275.146 139.017 274.925 138.582C274.707 138.148 274.396 137.805 273.991 137.553C273.591 137.302 273.118 137.176 272.572 137.176C271.971 137.176 271.452 137.325 271.013 137.624C270.578 137.918 270.243 138.301 270.009 138.774C269.775 139.247 269.657 139.754 269.657 140.295V141.165C269.657 141.906 269.785 142.535 270.041 143.05C270.301 143.562 270.661 143.952 271.121 144.22C271.581 144.484 272.116 144.617 272.726 144.617C273.122 144.617 273.48 144.561 273.8 144.45C274.123 144.335 274.403 144.165 274.637 143.939C274.871 143.709 275.052 143.423 275.18 143.082L276.638 143.492C276.484 143.986 276.226 144.42 275.864 144.795C275.502 145.166 275.055 145.456 274.522 145.665C273.989 145.869 273.39 145.972 272.726 145.972ZM282.793 145.972C281.975 145.972 281.253 145.765 280.626 145.352C280 144.934 279.51 144.346 279.156 143.587C278.802 142.825 278.626 141.923 278.626 140.884C278.626 139.852 278.802 138.957 279.156 138.199C279.51 137.44 280.002 136.854 280.633 136.441C281.263 136.028 281.992 135.821 282.819 135.821C283.458 135.821 283.963 135.928 284.334 136.141C284.709 136.349 284.994 136.588 285.19 136.857C285.39 137.121 285.546 137.338 285.657 137.509H285.785V132.676H287.293V145.767H285.836V144.259H285.657C285.546 144.438 285.388 144.663 285.184 144.936C284.979 145.205 284.687 145.445 284.308 145.658C283.929 145.867 283.424 145.972 282.793 145.972ZM282.998 144.617C283.603 144.617 284.114 144.459 284.532 144.144C284.949 143.824 285.267 143.383 285.484 142.82C285.702 142.254 285.81 141.599 285.81 140.858C285.81 140.125 285.704 139.484 285.491 138.934C285.278 138.38 284.962 137.95 284.545 137.643C284.127 137.332 283.611 137.176 282.998 137.176C282.358 137.176 281.826 137.34 281.4 137.668C280.978 137.992 280.66 138.433 280.447 138.992C280.238 139.545 280.134 140.168 280.134 140.858C280.134 141.557 280.241 142.192 280.454 142.763C280.671 143.33 280.991 143.781 281.412 144.118C281.839 144.45 282.367 144.617 282.998 144.617ZM290.47 145.767V132.676H291.979V137.509H292.106C292.217 137.338 292.371 137.121 292.567 136.857C292.767 136.588 293.052 136.349 293.423 136.141C293.798 135.928 294.305 135.821 294.944 135.821C295.771 135.821 296.5 136.028 297.131 136.441C297.761 136.854 298.253 137.44 298.607 138.199C298.961 138.957 299.138 139.852 299.138 140.884C299.138 141.923 298.961 142.825 298.607 143.587C298.253 144.346 297.763 144.934 297.137 145.352C296.51 145.765 295.788 145.972 294.97 145.972C294.339 145.972 293.834 145.867 293.455 145.658C293.076 145.445 292.784 145.205 292.579 144.936C292.375 144.663 292.217 144.438 292.106 144.259H291.927V145.767H290.47ZM291.953 140.858C291.953 141.599 292.062 142.254 292.279 142.82C292.496 143.383 292.814 143.824 293.231 144.144C293.649 144.459 294.16 144.617 294.765 144.617C295.396 144.617 295.922 144.45 296.344 144.118C296.77 143.781 297.09 143.33 297.303 142.763C297.52 142.192 297.629 141.557 297.629 140.858C297.629 140.168 297.523 139.545 297.309 138.992C297.101 138.433 296.783 137.992 296.357 137.668C295.935 137.34 295.405 137.176 294.765 137.176C294.152 137.176 293.636 137.332 293.219 137.643C292.801 137.95 292.486 138.38 292.273 138.934C292.059 139.484 291.953 140.125 291.953 140.858ZM304.334 145.997C303.712 145.997 303.148 145.88 302.64 145.646C302.133 145.407 301.731 145.064 301.432 144.617C301.134 144.165 300.985 143.619 300.985 142.98C300.985 142.418 301.096 141.962 301.317 141.612C301.539 141.259 301.835 140.982 302.206 140.781C302.577 140.581 302.986 140.432 303.433 140.334C303.885 140.232 304.339 140.151 304.795 140.091C305.391 140.014 305.875 139.957 306.246 139.918C306.621 139.876 306.893 139.805 307.064 139.707C307.238 139.609 307.326 139.439 307.326 139.196V139.145C307.326 138.514 307.153 138.024 306.808 137.675C306.467 137.325 305.949 137.151 305.255 137.151C304.535 137.151 303.97 137.308 303.561 137.624C303.152 137.939 302.864 138.276 302.698 138.634L301.266 138.122C301.522 137.526 301.863 137.061 302.289 136.729C302.719 136.392 303.188 136.158 303.695 136.026C304.206 135.889 304.709 135.821 305.204 135.821C305.519 135.821 305.881 135.859 306.29 135.936C306.704 136.009 307.102 136.16 307.486 136.39C307.873 136.62 308.195 136.967 308.451 137.432C308.706 137.896 308.834 138.519 308.834 139.298V145.767H307.326V144.438H307.249C307.147 144.651 306.976 144.879 306.738 145.121C306.499 145.364 306.182 145.571 305.785 145.742C305.389 145.912 304.905 145.997 304.334 145.997ZM304.564 144.642C305.161 144.642 305.664 144.525 306.073 144.291C306.486 144.056 306.797 143.754 307.006 143.383C307.219 143.012 307.326 142.622 307.326 142.213V140.832C307.262 140.909 307.121 140.979 306.904 141.043C306.691 141.103 306.444 141.156 306.162 141.203C305.885 141.246 305.615 141.284 305.351 141.318C305.091 141.348 304.88 141.374 304.718 141.395C304.326 141.446 303.959 141.529 303.618 141.644C303.282 141.755 303.009 141.923 302.8 142.149C302.596 142.371 302.493 142.673 302.493 143.057C302.493 143.581 302.687 143.977 303.075 144.246C303.467 144.51 303.964 144.642 304.564 144.642ZM315.576 145.972C314.656 145.972 313.863 145.754 313.199 145.32C312.534 144.885 312.022 144.286 311.664 143.523C311.306 142.761 311.127 141.889 311.127 140.909C311.127 139.912 311.311 139.032 311.677 138.269C312.048 137.502 312.564 136.903 313.224 136.473C313.889 136.038 314.664 135.821 315.551 135.821C316.241 135.821 316.863 135.949 317.417 136.205C317.971 136.46 318.425 136.818 318.779 137.278C319.132 137.739 319.352 138.276 319.437 138.889H317.929C317.814 138.442 317.558 138.045 317.162 137.7C316.77 137.351 316.241 137.176 315.576 137.176C314.988 137.176 314.473 137.33 314.029 137.636C313.591 137.939 313.248 138.367 313 138.921C312.757 139.471 312.636 140.117 312.636 140.858C312.636 141.617 312.755 142.277 312.994 142.84C313.237 143.402 313.578 143.839 314.017 144.15C314.46 144.461 314.98 144.617 315.576 144.617C315.968 144.617 316.324 144.548 316.644 144.412C316.963 144.276 317.234 144.08 317.456 143.824C317.677 143.568 317.835 143.261 317.929 142.903H319.437C319.352 143.483 319.141 144.005 318.804 144.47C318.472 144.93 318.031 145.296 317.481 145.569C316.936 145.837 316.301 145.972 315.576 145.972ZM323.049 142.188L323.023 140.321H323.33L327.625 135.949H329.492L324.915 140.577H324.787L323.049 142.188ZM321.642 145.767V132.676H323.151V145.767H321.642ZM327.881 145.767L324.046 140.909L325.12 139.861L329.799 145.767H327.881ZM332.533 145.869C332.218 145.869 331.947 145.756 331.721 145.531C331.495 145.305 331.382 145.034 331.382 144.719C331.382 144.403 331.495 144.133 331.721 143.907C331.947 143.681 332.218 143.568 332.533 143.568C332.848 143.568 333.119 143.681 333.345 143.907C333.57 144.133 333.683 144.403 333.683 144.719C333.683 144.928 333.63 145.119 333.524 145.294C333.421 145.469 333.283 145.609 333.108 145.716C332.938 145.818 332.746 145.869 332.533 145.869Z" fill="white"/>
<g filter="url(#filter0_d_84_2733)">
<rect x="32" y="203.767" width="371" height="70" rx="35" fill="#DDE4EE" fill-opacity="0.52" shape-rendering="crispEdges"/>
<rect x="39.5" y="208.267" width="61" height="61" rx="30.5" fill="white"/>
<g clip-path="url(#clip0_84_2733)">
<mask id="mask0_84_2733" style="mask-type:luminance" maskUnits="userSpaceOnUse" x="46" y="215" width="47" height="47">
<path d="M92.5 215.767H46.5V261.767H92.5V215.767Z" fill="white"/>
</mask>
<g mask="url(#mask0_84_2733)">
<path opacity="0.4" d="M67.5062 219.717L56.9645 223.665C54.952 224.432 53.3037 226.808 53.3037 228.974V244.499C53.3037 246.052 54.3195 248.102 55.5654 249.022L66.107 256.9C67.9662 258.299 71.0137 258.299 72.8729 256.9L83.4145 249.022C84.6604 248.083 85.6762 246.052 85.6762 244.499V228.974C85.6762 226.827 84.0279 224.432 82.0154 223.684L71.4737 219.736C70.4004 219.314 68.5987 219.314 67.5062 219.717Z" fill="#174686"/>
<path d="M66.9321 243.04C66.5679 243.04 66.2037 242.905 65.9162 242.618L62.8304 239.532C62.2746 238.976 62.2746 238.056 62.8304 237.5C63.3863 236.945 64.3063 236.945 64.8621 237.5L66.9321 239.57L74.1579 232.345C74.7137 231.789 75.6337 231.789 76.1896 232.345C76.7454 232.9 76.7454 233.82 76.1896 234.376L67.9479 242.618C67.6604 242.905 67.2962 243.04 66.9321 243.04Z" fill="#174686"/>
</g>
</g>
<rect x="187" y="208.267" width="61" height="61" rx="30.5" fill="white"/>
<g clip-path="url(#clip1_84_2733)">
<mask id="mask1_84_2733" style="mask-type:luminance" maskUnits="userSpaceOnUse" x="194" y="215" width="46" height="47">
<path d="M240 215.767H194V261.767H240V215.767Z" fill="white"/>
</mask>
<g mask="url(#mask1_84_2733)">
<path opacity="0.4" d="M225.031 219.601H208.969C201.993 219.601 197.833 223.76 197.833 230.736V246.779C197.833 253.775 201.993 257.934 208.969 257.934H225.012C231.988 257.934 236.148 253.775 236.148 246.798V230.736C236.167 223.76 232.008 219.601 225.031 219.601Z" fill="#174686"/>
<path d="M208.05 244.977C207.743 244.977 207.436 244.881 207.168 244.67C206.535 244.191 206.42 243.29 206.9 242.658L211.461 236.735C212.017 236.026 212.803 235.566 213.704 235.451C214.585 235.336 215.486 235.585 216.195 236.141L219.703 238.901C219.837 239.016 219.971 239.016 220.067 238.997C220.144 238.997 220.278 238.959 220.393 238.805L224.82 233.094C225.3 232.461 226.22 232.346 226.833 232.845C227.465 233.324 227.58 234.225 227.082 234.857L222.655 240.569C222.099 241.278 221.313 241.738 220.412 241.834C219.511 241.949 218.63 241.7 217.92 241.144L214.413 238.384C214.279 238.269 214.125 238.269 214.049 238.288C213.972 238.288 213.838 238.326 213.723 238.48L209.161 244.402C208.912 244.785 208.49 244.977 208.05 244.977Z" fill="#174686"/>
</g>
</g>
<rect x="334.5" y="208.267" width="61" height="61" rx="30.5" fill="white"/>
<path opacity="0.4" d="M363.542 256.017C373.598 256.017 381.75 247.865 381.75 237.809C381.75 227.753 373.598 219.601 363.542 219.601C353.486 219.601 345.333 227.753 345.333 237.809C345.333 247.865 353.486 256.017 363.542 256.017Z" fill="#174686"/>
<path d="M382.325 257.934C381.98 257.934 381.635 257.8 381.386 257.551L377.821 253.986C377.304 253.468 377.304 252.625 377.821 252.088C378.339 251.571 379.182 251.571 379.719 252.088L383.284 255.653C383.801 256.171 383.801 257.014 383.284 257.551C383.015 257.8 382.67 257.934 382.325 257.934Z" fill="#174686"/>
</g>
<defs>
<filter id="filter0_d_84_2733" x="23" y="195.767" width="389" height="88" filterUnits="userSpaceOnUse" color-interpolation-filters="sRGB">
<feFlood flood-opacity="0" result="BackgroundImageFix"/>
<feColorMatrix in="SourceAlpha" type="matrix" values="0 0 0 0 0 0 0 0 0 0 0 0 0 0 0 0 0 0 127 0" result="hardAlpha"/>
<feMorphology radius="5" operator="dilate" in="SourceAlpha" result="effect1_dropShadow_84_2733"/>
<feOffset dy="1"/>
<feGaussianBlur stdDeviation="2"/>
<feComposite in2="hardAlpha" operator="out"/>
<feColorMatrix type="matrix" values="0 0 0 0 1 0 0 0 0 1 0 0 0 0 1 0 0 0 0.36 0"/>
<feBlend mode="normal" in2="BackgroundImageFix" result="effect1_dropShadow_84_2733"/>
<feBlend mode="normal" in="SourceGraphic" in2="effect1_dropShadow_84_2733" result="shape"/>
</filter>
<linearGradient id="paint0_linear_84_2733" x1="435.285" y1="156.26" x2="-0.464107" y2="156.26" gradientUnits="userSpaceOnUse">
<stop stop-color="#DCE3FE"/>
<stop offset="1" stop-color="#1F60B7"/>
</linearGradient>
<clipPath id="clip0_84_2733">
<rect width="46" height="46" fill="white" transform="translate(46.5 215.767)"/>
</clipPath>
<clipPath id="clip1_84_2733">
<rect width="46" height="46" fill="white" transform="translate(194 215.767)"/>
</clipPath>
</defs>
</svg>
