<svg width="333" height="380" viewBox="0 0 333 380" fill="none" xmlns="http://www.w3.org/2000/svg">
<rect width="333" height="380" rx="28.1111" fill="white"/>
<path d="M38.8438 35.9858C38.7377 35.0445 38.3002 34.3153 37.5312 33.7983C36.7623 33.2746 35.7945 33.0128 34.6278 33.0128C33.7926 33.0128 33.0701 33.1454 32.4602 33.4105C31.8504 33.669 31.3764 34.027 31.0384 34.4844C30.7069 34.9351 30.5412 35.4489 30.5412 36.0256C30.5412 36.5095 30.6539 36.9271 30.8793 37.2784C31.1113 37.6297 31.4129 37.9247 31.7841 38.1634C32.1619 38.3954 32.5663 38.5909 32.9972 38.75C33.428 38.9025 33.8423 39.0284 34.2401 39.1278L36.2287 39.6449C36.8783 39.804 37.5445 40.0194 38.2273 40.2912C38.91 40.563 39.5431 40.9209 40.1264 41.3651C40.7098 41.8092 41.1804 42.3594 41.5384 43.0156C41.9029 43.6719 42.0852 44.4574 42.0852 45.3722C42.0852 46.5256 41.7869 47.5497 41.1903 48.4446C40.6004 49.3395 39.742 50.0455 38.6151 50.5625C37.4948 51.0795 36.1392 51.3381 34.5483 51.3381C33.0237 51.3381 31.7045 51.0961 30.5909 50.6122C29.4773 50.1283 28.6056 49.4422 27.9759 48.554C27.3461 47.6591 26.9981 46.5985 26.9318 45.3722H30.0142C30.0739 46.108 30.3125 46.7211 30.7301 47.2116C31.1544 47.6955 31.6946 48.0568 32.3509 48.2955C33.0137 48.5275 33.7396 48.6435 34.5284 48.6435C35.3968 48.6435 36.169 48.5076 36.8452 48.2358C37.5279 47.9574 38.0649 47.5729 38.456 47.0824C38.8471 46.5852 39.0426 46.0052 39.0426 45.3423C39.0426 44.7391 38.8703 44.2453 38.5256 43.8608C38.1875 43.4763 37.7268 43.1581 37.1435 42.9062C36.5668 42.6544 35.9138 42.4323 35.1847 42.2401L32.7784 41.5838C31.1477 41.1397 29.8551 40.4867 28.9006 39.625C27.9527 38.7633 27.4787 37.6231 27.4787 36.2045C27.4787 35.0312 27.7969 34.0071 28.4332 33.1321C29.0696 32.2571 29.9313 31.5777 31.0185 31.0938C32.1056 30.6032 33.3319 30.358 34.6974 30.358C36.0762 30.358 37.2926 30.5999 38.3466 31.0838C39.4072 31.5677 40.2424 32.2339 40.8523 33.0824C41.4621 33.9242 41.7803 34.892 41.8068 35.9858H38.8438ZM49.9627 51.3381C48.9949 51.3381 48.1199 51.1591 47.3377 50.8011C46.5555 50.4366 45.9357 49.9096 45.4783 49.2202C45.0276 48.5308 44.8022 47.6856 44.8022 46.6847C44.8022 45.8229 44.9679 45.1136 45.2994 44.5568C45.6308 44 46.0782 43.5592 46.6417 43.2344C47.2051 42.9096 47.8349 42.6643 48.5309 42.4986C49.2269 42.3329 49.9362 42.2069 50.6587 42.1207C51.5735 42.0147 52.3159 41.9285 52.886 41.8622C53.4561 41.7893 53.8704 41.6733 54.1289 41.5142C54.3874 41.3551 54.5167 41.0966 54.5167 40.7386V40.669C54.5167 39.8007 54.2714 39.1278 53.7809 38.6506C53.297 38.1733 52.5745 37.9347 51.6133 37.9347C50.6123 37.9347 49.8235 38.1567 49.2468 38.6009C48.6767 39.0384 48.2823 39.5256 48.0636 40.0625L45.2695 39.4261C45.601 38.4981 46.0849 37.7491 46.7212 37.179C47.3642 36.6023 48.1033 36.1847 48.9386 35.9261C49.7738 35.661 50.6521 35.5284 51.5735 35.5284C52.1834 35.5284 52.8297 35.6013 53.5124 35.7472C54.2018 35.8864 54.8448 36.1449 55.4414 36.5227C56.0446 36.9006 56.5385 37.4408 56.9229 38.1435C57.3074 38.8395 57.4996 39.7443 57.4996 40.858V51H54.5962V48.9119H54.4769C54.2847 49.2964 53.9963 49.6742 53.6119 50.0455C53.2274 50.4167 52.7335 50.7249 52.1303 50.9702C51.5271 51.2154 50.8046 51.3381 49.9627 51.3381ZM50.609 48.9517C51.431 48.9517 52.1336 48.7893 52.717 48.4645C53.3069 48.1397 53.7544 47.7154 54.0593 47.1918C54.3709 46.6615 54.5266 46.0947 54.5266 45.4915V43.5227C54.4206 43.6288 54.2151 43.7282 53.9102 43.821C53.6119 43.9072 53.2705 43.9834 52.886 44.0497C52.5015 44.1094 52.127 44.1657 51.7624 44.2188C51.3978 44.2652 51.0929 44.3049 50.8477 44.3381C50.271 44.411 49.744 44.5336 49.2667 44.706C48.796 44.8783 48.4182 45.1269 48.1332 45.4517C47.8548 45.7699 47.7156 46.1941 47.7156 46.7244C47.7156 47.4602 47.9873 48.017 48.5309 48.3949C49.0745 48.7661 49.7672 48.9517 50.609 48.9517ZM64.4325 30.6364V51H61.4595V30.6364H64.4325ZM75.0146 51.3082C73.5098 51.3082 72.2139 50.9867 71.1268 50.3438C70.0463 49.6941 69.2111 48.7827 68.6211 47.6094C68.0378 46.4295 67.7461 45.0473 67.7461 43.4631C67.7461 41.8987 68.0378 40.5199 68.6211 39.3267C69.2111 38.1335 70.033 37.2022 71.087 36.5327C72.1476 35.8632 73.3872 35.5284 74.8058 35.5284C75.6675 35.5284 76.5027 35.6709 77.3114 35.956C78.1201 36.241 78.846 36.6884 79.489 37.2983C80.132 37.9081 80.6391 38.7003 81.0103 39.6747C81.3815 40.6425 81.5671 41.8191 81.5671 43.2045V44.2585H69.4265V42.0312H78.6538C78.6538 41.2491 78.4947 40.5563 78.1765 39.9531C77.8583 39.3433 77.4109 38.8627 76.8342 38.5114C76.2641 38.16 75.5946 37.9844 74.8256 37.9844C73.9904 37.9844 73.2612 38.1899 72.6381 38.6009C72.0217 39.0052 71.5444 39.5355 71.2063 40.1918C70.8749 40.8414 70.7092 41.5473 70.7092 42.3097V44.0497C70.7092 45.0705 70.8881 45.9389 71.2461 46.6548C71.6107 47.3707 72.1178 47.9176 72.7674 48.2955C73.417 48.6667 74.176 48.8523 75.0444 48.8523C75.6078 48.8523 76.1216 48.7727 76.5856 48.6136C77.0496 48.4479 77.4506 48.2027 77.7887 47.8778C78.1268 47.553 78.3853 47.152 78.5643 46.6747L81.3782 47.1818C81.1528 48.0104 80.7485 48.7363 80.1651 49.3594C79.5884 49.9759 78.8626 50.4564 77.9876 50.8011C77.1192 51.1392 76.1282 51.3082 75.0146 51.3082ZM96.3104 39.456L93.6158 39.9332C93.5031 39.5885 93.3241 39.2604 93.0788 38.9489C92.8402 38.6373 92.5154 38.3821 92.1044 38.1832C91.6934 37.9844 91.1797 37.8849 90.5632 37.8849C89.7214 37.8849 89.0187 38.0739 88.4553 38.4517C87.8918 38.8229 87.6101 39.3035 87.6101 39.8935C87.6101 40.4039 87.799 40.8149 88.1768 41.1264C88.5547 41.438 89.1645 41.6932 90.0064 41.892L92.4325 42.4489C93.8378 42.7737 94.8852 43.2741 95.5746 43.9503C96.264 44.6264 96.6087 45.5047 96.6087 46.5852C96.6087 47.5 96.3435 48.3153 95.8132 49.0312C95.2895 49.7405 94.5571 50.2973 93.6158 50.7017C92.6811 51.1061 91.5973 51.3082 90.3643 51.3082C88.6541 51.3082 87.2588 50.9437 86.1783 50.2145C85.0978 49.4787 84.4349 48.4347 84.1896 47.0824L87.0632 46.6449C87.2422 47.3939 87.6101 47.9607 88.1669 48.3452C88.7237 48.723 89.4496 48.9119 90.3445 48.9119C91.3189 48.9119 92.0978 48.7098 92.6811 48.3054C93.2644 47.8944 93.5561 47.3939 93.5561 46.804C93.5561 46.3267 93.3771 45.9257 93.0192 45.6009C92.6679 45.276 92.1276 45.0308 91.3984 44.8651L88.8132 44.2983C87.388 43.9735 86.334 43.4564 85.6513 42.7472C84.9751 42.0379 84.6371 41.1397 84.6371 40.0526C84.6371 39.151 84.889 38.3622 85.3928 37.6861C85.8965 37.0099 86.5926 36.483 87.4808 36.1051C88.3691 35.7206 89.3866 35.5284 90.5334 35.5284C92.1839 35.5284 93.4832 35.8864 94.4311 36.6023C95.379 37.3116 96.0054 38.2628 96.3104 39.456ZM107.526 51V30.6364H114.785C116.362 30.6364 117.672 30.9081 118.712 31.4517C119.76 31.9953 120.542 32.7476 121.059 33.7088C121.576 34.6634 121.835 35.767 121.835 37.0199C121.835 38.2661 121.573 39.3632 121.049 40.3111C120.532 41.2524 119.75 41.9848 118.702 42.5085C117.662 43.0322 116.353 43.294 114.775 43.294H109.276V40.6491H114.496C115.491 40.6491 116.299 40.5066 116.923 40.2216C117.552 39.9366 118.013 39.5223 118.305 38.9787C118.596 38.4351 118.742 37.7822 118.742 37.0199C118.742 36.2509 118.593 35.5848 118.295 35.0213C118.003 34.4579 117.542 34.027 116.913 33.7287C116.29 33.4238 115.471 33.2713 114.457 33.2713H110.599V51H107.526ZM117.579 41.8125L122.61 51H119.11L114.178 41.8125H117.579ZM131.725 51.3082C130.221 51.3082 128.925 50.9867 127.838 50.3438C126.757 49.6941 125.922 48.7827 125.332 47.6094C124.749 46.4295 124.457 45.0473 124.457 43.4631C124.457 41.8987 124.749 40.5199 125.332 39.3267C125.922 38.1335 126.744 37.2022 127.798 36.5327C128.859 35.8632 130.098 35.5284 131.517 35.5284C132.378 35.5284 133.214 35.6709 134.022 35.956C134.831 36.241 135.557 36.6884 136.2 37.2983C136.843 37.9081 137.35 38.7003 137.721 39.6747C138.092 40.6425 138.278 41.8191 138.278 43.2045V44.2585H126.137V42.0312H135.365C135.365 41.2491 135.206 40.5563 134.887 39.9531C134.569 39.3433 134.122 38.8627 133.545 38.5114C132.975 38.16 132.306 37.9844 131.537 37.9844C130.701 37.9844 129.972 38.1899 129.349 38.6009C128.733 39.0052 128.255 39.5355 127.917 40.1918C127.586 40.8414 127.42 41.5473 127.42 42.3097V44.0497C127.42 45.0705 127.599 45.9389 127.957 46.6548C128.322 47.3707 128.829 47.9176 129.478 48.2955C130.128 48.6667 130.887 48.8523 131.755 48.8523C132.319 48.8523 132.833 48.7727 133.297 48.6136C133.761 48.4479 134.162 48.2027 134.5 47.8778C134.838 47.553 135.096 47.152 135.275 46.6747L138.089 47.1818C137.864 48.0104 137.459 48.7363 136.876 49.3594C136.299 49.9759 135.574 50.4564 134.699 50.8011C133.83 51.1392 132.839 51.3082 131.725 51.3082ZM141.577 56.7273V35.7273H144.48V38.2031H144.729C144.901 37.8849 145.15 37.517 145.474 37.0994C145.799 36.6818 146.25 36.3172 146.827 36.0057C147.403 35.6875 148.166 35.5284 149.114 35.5284C150.347 35.5284 151.447 35.84 152.415 36.4631C153.383 37.0862 154.142 37.9844 154.692 39.1577C155.249 40.331 155.527 41.7429 155.527 43.3935C155.527 45.044 155.252 46.4593 154.702 47.6392C154.152 48.8125 153.396 49.7173 152.435 50.3537C151.473 50.9834 150.376 51.2983 149.143 51.2983C148.215 51.2983 147.456 51.1425 146.866 50.831C146.283 50.5194 145.826 50.1548 145.494 49.7372C145.163 49.3196 144.908 48.9484 144.729 48.6236H144.55V56.7273H141.577ZM144.49 43.3636C144.49 44.4375 144.646 45.3788 144.957 46.1875C145.269 46.9962 145.72 47.6293 146.31 48.0866C146.9 48.5374 147.622 48.7628 148.477 48.7628C149.366 48.7628 150.108 48.5275 150.705 48.0568C151.301 47.5795 151.752 46.9332 152.057 46.1179C152.368 45.3026 152.524 44.3845 152.524 43.3636C152.524 42.3561 152.372 41.4512 152.067 40.6491C151.768 39.8471 151.318 39.214 150.714 38.75C150.118 38.286 149.372 38.054 148.477 38.054C147.616 38.054 146.886 38.276 146.29 38.7202C145.7 39.1643 145.252 39.7841 144.947 40.5795C144.643 41.375 144.49 42.303 144.49 43.3636ZM165.291 51.3082C163.859 51.3082 162.61 50.9801 161.543 50.3239C160.475 49.6676 159.647 48.7495 159.057 47.5696C158.467 46.3897 158.172 45.0109 158.172 43.4332C158.172 41.849 158.467 40.4635 159.057 39.277C159.647 38.0904 160.475 37.169 161.543 36.5128C162.61 35.8565 163.859 35.5284 165.291 35.5284C166.723 35.5284 167.973 35.8565 169.04 36.5128C170.107 37.169 170.936 38.0904 171.526 39.277C172.116 40.4635 172.411 41.849 172.411 43.4332C172.411 45.0109 172.116 46.3897 171.526 47.5696C170.936 48.7495 170.107 49.6676 169.04 50.3239C167.973 50.9801 166.723 51.3082 165.291 51.3082ZM165.301 48.8125C166.229 48.8125 166.998 48.5672 167.608 48.0767C168.218 47.5862 168.669 46.9332 168.96 46.1179C169.259 45.3026 169.408 44.4044 169.408 43.4233C169.408 42.4489 169.259 41.554 168.96 40.7386C168.669 39.9167 168.218 39.2571 167.608 38.7599C166.998 38.2628 166.229 38.0142 165.301 38.0142C164.366 38.0142 163.591 38.2628 162.974 38.7599C162.365 39.2571 161.911 39.9167 161.612 40.7386C161.321 41.554 161.175 42.4489 161.175 43.4233C161.175 44.4044 161.321 45.3026 161.612 46.1179C161.911 46.9332 162.365 47.5862 162.974 48.0767C163.591 48.5672 164.366 48.8125 165.301 48.8125ZM175.729 51V35.7273H178.603V38.1534H178.762C179.04 37.3314 179.531 36.6851 180.233 36.2145C180.943 35.7372 181.745 35.4986 182.64 35.4986C182.825 35.4986 183.044 35.5052 183.296 35.5185C183.554 35.5317 183.757 35.5483 183.902 35.5682V38.4119C183.783 38.3788 183.571 38.3423 183.266 38.3026C182.961 38.2562 182.656 38.233 182.351 38.233C181.649 38.233 181.022 38.3821 180.472 38.6804C179.928 38.9721 179.498 39.3797 179.179 39.9034C178.861 40.4205 178.702 41.0104 178.702 41.6733V51H175.729ZM194.507 35.7273V38.1136H186.164V35.7273H194.507ZM188.402 32.0682H191.375V46.5156C191.375 47.0923 191.461 47.5265 191.633 47.8182C191.806 48.1032 192.028 48.2988 192.299 48.4048C192.578 48.5043 192.879 48.554 193.204 48.554C193.443 48.554 193.652 48.5374 193.831 48.5043C194.01 48.4711 194.149 48.4446 194.248 48.4247L194.785 50.8807C194.613 50.947 194.368 51.0133 194.049 51.0795C193.731 51.1525 193.333 51.1922 192.856 51.1989C192.074 51.2121 191.345 51.0729 190.669 50.7812C189.993 50.4896 189.446 50.0388 189.028 49.429C188.61 48.8191 188.402 48.0535 188.402 47.1321V32.0682ZM208.994 39.456L206.299 39.9332C206.187 39.5885 206.008 39.2604 205.762 38.9489C205.524 38.6373 205.199 38.3821 204.788 38.1832C204.377 37.9844 203.863 37.8849 203.247 37.8849C202.405 37.8849 201.702 38.0739 201.139 38.4517C200.575 38.8229 200.294 39.3035 200.294 39.8935C200.294 40.4039 200.483 40.8149 200.86 41.1264C201.238 41.438 201.848 41.6932 202.69 41.892L205.116 42.4489C206.521 42.7737 207.569 43.2741 208.258 43.9503C208.948 44.6264 209.292 45.5047 209.292 46.5852C209.292 47.5 209.027 48.3153 208.497 49.0312C207.973 49.7405 207.241 50.2973 206.299 50.7017C205.365 51.1061 204.281 51.3082 203.048 51.3082C201.338 51.3082 199.942 50.9437 198.862 50.2145C197.781 49.4787 197.118 48.4347 196.873 47.0824L199.747 46.6449C199.926 47.3939 200.294 47.9607 200.85 48.3452C201.407 48.723 202.133 48.9119 203.028 48.9119C204.002 48.9119 204.781 48.7098 205.365 48.3054C205.948 47.8944 206.24 47.3939 206.24 46.804C206.24 46.3267 206.061 45.9257 205.703 45.6009C205.351 45.276 204.811 45.0308 204.082 44.8651L201.497 44.2983C200.072 43.9735 199.018 43.4564 198.335 42.7472C197.659 42.0379 197.321 41.1397 197.321 40.0526C197.321 39.151 197.573 38.3622 198.076 37.6861C198.58 37.0099 199.276 36.483 200.164 36.1051C201.053 35.7206 202.07 35.5284 203.217 35.5284C204.868 35.5284 206.167 35.8864 207.115 36.6023C208.063 37.3116 208.689 38.2628 208.994 39.456Z" fill="url(#paint0_linear_84_2861)"/>
<path d="M37.6193 80.7671H36.0341C35.9403 80.3111 35.7763 79.9106 35.5419 79.5654C35.3118 79.2202 35.0305 78.9304 34.6982 78.6961C34.37 78.4574 34.0057 78.2785 33.6051 78.1591C33.2045 78.0398 32.7869 77.9802 32.3523 77.9802C31.5597 77.9802 30.8416 78.1804 30.1982 78.581C29.5589 78.9816 29.0497 79.5718 28.6705 80.3516C28.2955 81.1314 28.108 82.0881 28.108 83.2216C28.108 84.3552 28.2955 85.3118 28.6705 86.0917C29.0497 86.8715 29.5589 87.4617 30.1982 87.8623C30.8416 88.2628 31.5597 88.4631 32.3523 88.4631C32.7869 88.4631 33.2045 88.4035 33.6051 88.2841C34.0057 88.1648 34.37 87.988 34.6982 87.7536C35.0305 87.515 35.3118 87.2231 35.5419 86.8779C35.7763 86.5285 35.9403 86.1279 36.0341 85.6762H37.6193C37.5 86.3452 37.2827 86.9439 36.9673 87.4723C36.652 88.0008 36.2599 88.4503 35.7912 88.8211C35.3224 89.1875 34.7962 89.4667 34.2124 89.6584C33.6328 89.8502 33.0128 89.9461 32.3523 89.9461C31.2358 89.9461 30.2429 89.6733 29.3736 89.1279C28.5043 88.5824 27.8203 87.8069 27.3217 86.8012C26.8232 85.7955 26.5739 84.6023 26.5739 83.2216C26.5739 81.841 26.8232 80.6478 27.3217 79.6421C27.8203 78.6364 28.5043 77.8608 29.3736 77.3154C30.2429 76.7699 31.2358 76.4972 32.3523 76.4972C33.0128 76.4972 33.6328 76.5931 34.2124 76.7848C34.7962 76.9766 35.3224 77.2579 35.7912 77.6286C36.2599 77.9951 36.652 78.4425 36.9673 78.9709C37.2827 79.4951 37.5 80.0938 37.6193 80.7671ZM41.4849 76.6762V89.7671H39.9764V76.6762H41.4849ZM48.3643 89.9716C47.4183 89.9716 46.6023 89.7628 45.9162 89.3452C45.2344 88.9233 44.7081 88.3353 44.3374 87.581C43.9709 86.8225 43.7876 85.9404 43.7876 84.9347C43.7876 83.929 43.9709 83.0427 44.3374 82.2756C44.7081 81.5043 45.2237 80.9035 45.8842 80.4731C46.549 80.0384 47.3246 79.8211 48.2109 79.8211C48.7223 79.8211 49.2273 79.9063 49.7259 80.0767C50.2244 80.2472 50.6783 80.5242 51.0874 80.9077C51.4964 81.287 51.8224 81.7898 52.0653 82.4162C52.3082 83.0427 52.4297 83.814 52.4297 84.7302V85.3694H44.8615V84.0654H50.8956C50.8956 83.5114 50.7848 83.0171 50.5632 82.5824C50.3459 82.1478 50.0348 81.8047 49.63 81.5533C49.2294 81.3019 48.7564 81.1762 48.2109 81.1762C47.6101 81.1762 47.0902 81.3253 46.6513 81.6236C46.2166 81.9177 45.8821 82.3012 45.6477 82.7742C45.4134 83.2472 45.2962 83.7543 45.2962 84.2955V85.1648C45.2962 85.9063 45.424 86.5348 45.6797 87.0505C45.9396 87.5618 46.2997 87.9517 46.7599 88.2202C47.2202 88.4844 47.755 88.6165 48.3643 88.6165C48.7607 88.6165 49.1186 88.5611 49.4382 88.4503C49.7621 88.3353 50.0412 88.1648 50.2756 87.939C50.5099 87.7089 50.6911 87.4233 50.8189 87.0824L52.2763 87.4915C52.1229 87.9858 51.8651 88.4205 51.5028 88.7955C51.1406 89.1662 50.6932 89.456 50.1605 89.6648C49.6278 89.8694 49.0291 89.9716 48.3643 89.9716ZM57.6136 89.9972C56.9915 89.9972 56.4268 89.88 55.9197 89.6456C55.4126 89.407 55.0099 89.064 54.7116 88.6165C54.4134 88.1648 54.2642 87.6194 54.2642 86.9802C54.2642 86.4177 54.375 85.9617 54.5966 85.6123C54.8182 85.2586 55.1143 84.9816 55.4851 84.7813C55.8558 84.581 56.2649 84.4319 56.7124 84.3339C57.1641 84.2316 57.6179 84.1506 58.0739 84.091C58.6705 84.0142 59.1541 83.9567 59.5249 83.9184C59.8999 83.8758 60.1726 83.8054 60.343 83.7074C60.5178 83.6094 60.6051 83.439 60.6051 83.1961V83.1449C60.6051 82.5142 60.4325 82.0242 60.0874 81.6748C59.7464 81.3253 59.2287 81.1506 58.5341 81.1506C57.8139 81.1506 57.2493 81.3083 56.8402 81.6236C56.4311 81.939 56.1435 82.2756 55.9773 82.6336L54.5455 82.1222C54.8011 81.5256 55.142 81.0611 55.5682 80.7287C55.9986 80.3921 56.4673 80.1577 56.9744 80.0256C57.4858 79.8892 57.9886 79.8211 58.483 79.8211C58.7983 79.8211 59.1605 79.8594 59.5696 79.9361C59.983 80.0086 60.3814 80.1598 60.7649 80.39C61.1527 80.6201 61.4744 80.9674 61.7301 81.4319C61.9858 81.8964 62.1136 82.5185 62.1136 83.2983V89.7671H60.6051V88.4375H60.5284C60.4261 88.6506 60.2557 88.8786 60.017 89.1215C59.7784 89.3644 59.4609 89.5711 59.0646 89.7415C58.6683 89.912 58.1847 89.9972 57.6136 89.9972ZM57.8438 88.6421C58.4403 88.6421 58.9432 88.5249 59.3523 88.2905C59.7656 88.0562 60.0767 87.7536 60.2855 87.3829C60.4986 87.0121 60.6051 86.6222 60.6051 86.2131V84.8324C60.5412 84.9091 60.4006 84.9794 60.1832 85.0434C59.9702 85.103 59.723 85.1563 59.4418 85.2032C59.1648 85.2458 58.8942 85.2841 58.63 85.3182C58.37 85.3481 58.1591 85.3736 57.9972 85.3949C57.6051 85.4461 57.2386 85.5292 56.8977 85.6442C56.5611 85.755 56.2884 85.9233 56.0795 86.1492C55.875 86.3708 55.7727 86.6733 55.7727 87.0569C55.7727 87.581 55.9666 87.9773 56.3544 88.2458C56.7464 88.51 57.2429 88.6421 57.8438 88.6421ZM64.867 89.7671V79.9489H66.3244V81.4319H66.4267C66.6056 80.9461 66.9295 80.5519 67.3983 80.2493C67.867 79.9468 68.3954 79.7955 68.9835 79.7955C69.0943 79.7955 69.2328 79.7976 69.399 79.8019C69.5652 79.8062 69.6909 79.8125 69.7761 79.8211V81.3552C69.725 81.3424 69.6078 81.3232 69.4245 81.2976C69.2456 81.2678 69.0559 81.2529 68.8556 81.2529C68.3784 81.2529 67.9522 81.353 67.5772 81.5533C67.2065 81.7493 66.9125 82.0221 66.6951 82.3715C66.4821 82.7167 66.3755 83.1108 66.3755 83.554V89.7671H64.867ZM76.6268 89.7671V79.9489H78.0842V81.4319H78.1864C78.3654 80.9461 78.6893 80.5519 79.158 80.2493C79.6268 79.9468 80.1552 79.7955 80.7433 79.7955C80.854 79.7955 80.9925 79.7976 81.1587 79.8019C81.3249 79.8062 81.4506 79.8125 81.5359 79.8211V81.3552C81.4847 81.3424 81.3675 81.3232 81.1843 81.2976C81.0053 81.2678 80.8157 81.2529 80.6154 81.2529C80.1381 81.2529 79.712 81.353 79.337 81.5533C78.9663 81.7493 78.6722 82.0221 78.4549 82.3715C78.2418 82.7167 78.1353 83.1108 78.1353 83.554V89.7671H76.6268ZM87.1417 89.9716C86.1957 89.9716 85.3796 89.7628 84.6935 89.3452C84.0117 88.9233 83.4854 88.3353 83.1147 87.581C82.7482 86.8225 82.565 85.9404 82.565 84.9347C82.565 83.929 82.7482 83.0427 83.1147 82.2756C83.4854 81.5043 84.0011 80.9035 84.6616 80.4731C85.3263 80.0384 86.1019 79.8211 86.9883 79.8211C87.4996 79.8211 88.0046 79.9063 88.5032 80.0767C89.0018 80.2472 89.4556 80.5242 89.8647 80.9077C90.2738 81.287 90.5998 81.7898 90.8427 82.4162C91.0856 83.0427 91.207 83.814 91.207 84.7302V85.3694H83.6388V84.0654H89.6729C89.6729 83.5114 89.5621 83.0171 89.3406 82.5824C89.1232 82.1478 88.8121 81.8047 88.4073 81.5533C88.0067 81.3019 87.5337 81.1762 86.9883 81.1762C86.3874 81.1762 85.8675 81.3253 85.4286 81.6236C84.994 81.9177 84.6594 82.3012 84.4251 82.7742C84.1907 83.2472 84.0735 83.7543 84.0735 84.2955V85.1648C84.0735 85.9063 84.2013 86.5348 84.457 87.0505C84.717 87.5618 85.0771 87.9517 85.5373 88.2202C85.9975 88.4844 86.5323 88.6165 87.1417 88.6165C87.538 88.6165 87.896 88.5611 88.2156 88.4503C88.5394 88.3353 88.8185 88.1648 89.0529 87.939C89.2873 87.7089 89.4684 87.4233 89.5962 87.0824L91.0536 87.4915C90.9002 87.9858 90.6424 88.4205 90.2802 88.7955C89.918 89.1662 89.4705 89.456 88.9379 89.6648C88.4052 89.8694 87.8065 89.9716 87.1417 89.9716ZM93.5018 93.4489V79.9489H94.9592V81.5086H95.1381C95.2489 81.3381 95.4023 81.1208 95.5984 80.8566C95.7987 80.5881 96.0842 80.3495 96.4549 80.1407C96.8299 79.9276 97.337 79.8211 97.9762 79.8211C98.8029 79.8211 99.5316 80.0277 100.162 80.4411C100.793 80.8544 101.285 81.4404 101.639 82.1989C101.993 82.9574 102.169 83.8523 102.169 84.8836C102.169 85.9233 101.993 86.8246 101.639 87.5874C101.285 88.3459 100.795 88.934 100.169 89.3516C99.5423 89.765 98.82 89.9716 98.0018 89.9716C97.3711 89.9716 96.8661 89.8672 96.4869 89.6584C96.1076 89.4454 95.8157 89.2046 95.6112 88.9361C95.4066 88.6634 95.2489 88.4375 95.1381 88.2586H95.0103V93.4489H93.5018ZM94.9847 84.858C94.9847 85.5995 95.0934 86.2536 95.3107 86.8204C95.5281 87.3829 95.8455 87.8239 96.2631 88.1435C96.6808 88.4589 97.1921 88.6165 97.7972 88.6165C98.4279 88.6165 98.9542 88.4503 99.3761 88.1179C99.8022 87.7813 100.122 87.3296 100.335 86.7628C100.552 86.1918 100.661 85.5569 100.661 84.858C100.661 84.1677 100.554 83.5455 100.341 82.9915C100.132 82.4333 99.815 81.9922 99.3888 81.6684C98.967 81.3402 98.4364 81.1762 97.7972 81.1762C97.1836 81.1762 96.668 81.3317 96.2504 81.6428C95.8327 81.9496 95.5174 82.38 95.3043 82.934C95.0913 83.4837 94.9847 84.125 94.9847 84.858ZM108.459 89.9716C107.573 89.9716 106.795 89.7607 106.126 89.3388C105.461 88.9169 104.941 88.3267 104.566 87.5682C104.196 86.8097 104.01 85.9233 104.01 84.9091C104.01 83.8864 104.196 82.9937 104.566 82.2309C104.941 81.4681 105.461 80.8758 106.126 80.4539C106.795 80.032 107.573 79.8211 108.459 79.8211C109.346 79.8211 110.121 80.032 110.786 80.4539C111.455 80.8758 111.975 81.4681 112.346 82.2309C112.721 82.9937 112.908 83.8864 112.908 84.9091C112.908 85.9233 112.721 86.8097 112.346 87.5682C111.975 88.3267 111.455 88.9169 110.786 89.3388C110.121 89.7607 109.346 89.9716 108.459 89.9716ZM108.459 88.6165C109.132 88.6165 109.686 88.4439 110.121 88.0988C110.556 87.7536 110.877 87.2998 111.086 86.7373C111.295 86.1748 111.4 85.5654 111.4 84.9091C111.4 84.2529 111.295 83.6414 111.086 83.0746C110.877 82.5079 110.556 82.0498 110.121 81.7003C109.686 81.3509 109.132 81.1762 108.459 81.1762C107.786 81.1762 107.232 81.3509 106.797 81.7003C106.363 82.0498 106.041 82.5079 105.832 83.0746C105.623 83.6414 105.519 84.2529 105.519 84.9091C105.519 85.5654 105.623 86.1748 105.832 86.7373C106.041 87.2998 106.363 87.7536 106.797 88.0988C107.232 88.4439 107.786 88.6165 108.459 88.6165ZM115.211 89.7671V79.9489H116.668V81.4319H116.77C116.949 80.9461 117.273 80.5519 117.742 80.2493C118.211 79.9468 118.739 79.7955 119.327 79.7955C119.438 79.7955 119.577 79.7976 119.743 79.8019C119.909 79.8062 120.035 79.8125 120.12 79.8211V81.3552C120.069 81.3424 119.952 81.3232 119.768 81.2976C119.589 81.2678 119.4 81.2529 119.199 81.2529C118.722 81.2529 118.296 81.353 117.921 81.5533C117.55 81.7493 117.256 82.0221 117.039 82.3715C116.826 82.7167 116.719 83.1108 116.719 83.554V89.7671H115.211ZM126.793 79.9489V81.2273H121.705V79.9489H126.793ZM123.188 77.5966H124.697V86.9546C124.697 87.3807 124.758 87.7003 124.882 87.9134C125.01 88.1222 125.172 88.2628 125.368 88.3353C125.568 88.4035 125.779 88.4375 126.001 88.4375C126.167 88.4375 126.303 88.429 126.41 88.412C126.516 88.3907 126.601 88.3736 126.665 88.3608L126.972 89.716C126.87 89.7543 126.727 89.7927 126.544 89.831C126.361 89.8736 126.128 89.8949 125.847 89.8949C125.421 89.8949 125.003 89.8033 124.594 89.6201C124.189 89.4368 123.853 89.1577 123.584 88.7827C123.32 88.4077 123.188 87.9347 123.188 87.3637V77.5966ZM135.841 82.1478L134.486 82.5313C134.401 82.3054 134.275 82.086 134.109 81.8729C133.947 81.6556 133.725 81.4766 133.444 81.336C133.163 81.1954 132.803 81.125 132.364 81.125C131.763 81.125 131.262 81.2635 130.862 81.5405C130.465 81.8133 130.267 82.1606 130.267 82.5824C130.267 82.9574 130.404 83.2536 130.676 83.4709C130.949 83.6883 131.375 83.8694 131.955 84.0142L133.412 84.3722C134.29 84.5853 134.944 84.9113 135.374 85.3502C135.805 85.7848 136.02 86.3452 136.02 87.0313C136.02 87.5938 135.858 88.0966 135.534 88.5398C135.215 88.983 134.767 89.3324 134.192 89.5881C133.617 89.8438 132.948 89.9716 132.185 89.9716C131.183 89.9716 130.355 89.7543 129.698 89.3196C129.042 88.885 128.627 88.25 128.452 87.4148L129.884 87.0569C130.02 87.5853 130.278 87.9816 130.657 88.2458C131.041 88.51 131.541 88.6421 132.159 88.6421C132.862 88.6421 133.421 88.4929 133.834 88.1946C134.252 87.8921 134.46 87.5299 134.46 87.108C134.46 86.7671 134.341 86.4816 134.102 86.2515C133.864 86.0171 133.497 85.8424 133.003 85.7273L131.367 85.3438C130.468 85.1307 129.807 84.8005 129.385 84.353C128.968 83.9013 128.759 83.3367 128.759 82.6591C128.759 82.1052 128.914 81.6151 129.225 81.189C129.541 80.7628 129.969 80.4283 130.51 80.1854C131.056 79.9425 131.673 79.8211 132.364 79.8211C133.335 79.8211 134.098 80.0341 134.652 80.4603C135.21 80.8864 135.607 81.4489 135.841 82.1478ZM147.725 79.9489V81.2273H142.433V79.9489H147.725ZM144.018 89.7671V78.5938C144.018 78.0313 144.15 77.5625 144.414 77.1875C144.679 76.8125 145.022 76.5313 145.444 76.3438C145.865 76.1563 146.311 76.0625 146.779 76.0625C147.15 76.0625 147.453 76.0924 147.687 76.152C147.922 76.2117 148.096 76.2671 148.211 76.3182L147.777 77.6222C147.7 77.5966 147.593 77.5647 147.457 77.5263C147.325 77.488 147.15 77.4688 146.933 77.4688C146.434 77.4688 146.074 77.5945 145.853 77.8459C145.635 78.0973 145.527 78.466 145.527 78.9517V89.7671H144.018ZM153.424 89.9716C152.538 89.9716 151.76 89.7607 151.091 89.3388C150.426 88.9169 149.906 88.3267 149.531 87.5682C149.161 86.8097 148.975 85.9233 148.975 84.9091C148.975 83.8864 149.161 82.9937 149.531 82.2309C149.906 81.4681 150.426 80.8758 151.091 80.4539C151.76 80.032 152.538 79.8211 153.424 79.8211C154.31 79.8211 155.086 80.032 155.751 80.4539C156.42 80.8758 156.94 81.4681 157.31 82.2309C157.685 82.9937 157.873 83.8864 157.873 84.9091C157.873 85.9233 157.685 86.8097 157.31 87.5682C156.94 88.3267 156.42 88.9169 155.751 89.3388C155.086 89.7607 154.31 89.9716 153.424 89.9716ZM153.424 88.6165C154.097 88.6165 154.651 88.4439 155.086 88.0988C155.521 87.7536 155.842 87.2998 156.051 86.7373C156.26 86.1748 156.364 85.5654 156.364 84.9091C156.364 84.2529 156.26 83.6414 156.051 83.0746C155.842 82.5079 155.521 82.0498 155.086 81.7003C154.651 81.3509 154.097 81.1762 153.424 81.1762C152.751 81.1762 152.197 81.3509 151.762 81.7003C151.327 82.0498 151.006 82.5079 150.797 83.0746C150.588 83.6414 150.484 84.2529 150.484 84.9091C150.484 85.5654 150.588 86.1748 150.797 86.7373C151.006 87.2998 151.327 87.7536 151.762 88.0988C152.197 88.4439 152.751 88.6165 153.424 88.6165ZM160.176 89.7671V79.9489H161.633V81.4319H161.735C161.914 80.9461 162.238 80.5519 162.707 80.2493C163.176 79.9468 163.704 79.7955 164.292 79.7955C164.403 79.7955 164.541 79.7976 164.708 79.8019C164.874 79.8062 164.999 79.8125 165.085 79.8211V81.3552C165.034 81.3424 164.916 81.3232 164.733 81.2976C164.554 81.2678 164.365 81.2529 164.164 81.2529C163.687 81.2529 163.261 81.353 162.886 81.5533C162.515 81.7493 162.221 82.0221 162.004 82.3715C161.791 82.7167 161.684 83.1108 161.684 83.554V89.7671H160.176ZM179.964 79.9489L176.333 89.7671H174.799L171.168 79.9489H172.805L175.515 87.7728H175.617L178.327 79.9489H179.964ZM185.72 89.9716C184.774 89.9716 183.958 89.7628 183.272 89.3452C182.59 88.9233 182.064 88.3353 181.693 87.581C181.326 86.8225 181.143 85.9404 181.143 84.9347C181.143 83.929 181.326 83.0427 181.693 82.2756C182.064 81.5043 182.579 80.9035 183.24 80.4731C183.904 80.0384 184.68 79.8211 185.566 79.8211C186.078 79.8211 186.583 79.9063 187.081 80.0767C187.58 80.2472 188.034 80.5242 188.443 80.9077C188.852 81.287 189.178 81.7898 189.421 82.4162C189.664 83.0427 189.785 83.814 189.785 84.7302V85.3694H182.217V84.0654H188.251C188.251 83.5114 188.14 83.0171 187.919 82.5824C187.701 82.1478 187.39 81.8047 186.985 81.5533C186.585 81.3019 186.112 81.1762 185.566 81.1762C184.966 81.1762 184.446 81.3253 184.007 81.6236C183.572 81.9177 183.238 82.3012 183.003 82.7742C182.769 83.2472 182.652 83.7543 182.652 84.2955V85.1648C182.652 85.9063 182.779 86.5348 183.035 87.0505C183.295 87.5618 183.655 87.9517 184.115 88.2202C184.576 88.4844 185.11 88.6165 185.72 88.6165C186.116 88.6165 186.474 88.5611 186.794 88.4503C187.118 88.3353 187.397 88.1648 187.631 87.939C187.865 87.7089 188.047 87.4233 188.174 87.0824L189.632 87.4915C189.478 87.9858 189.221 88.4205 188.858 88.7955C188.496 89.1662 188.049 89.456 187.516 89.6648C186.983 89.8694 186.385 89.9716 185.72 89.9716ZM192.08 89.7671V79.9489H193.537V81.4319H193.64C193.819 80.9461 194.142 80.5519 194.611 80.2493C195.08 79.9468 195.608 79.7955 196.196 79.7955C196.307 79.7955 196.446 79.7976 196.612 79.8019C196.778 79.8062 196.904 79.8125 196.989 79.8211V81.3552C196.938 81.3424 196.821 81.3232 196.637 81.2976C196.458 81.2678 196.269 81.2529 196.069 81.2529C195.591 81.2529 195.165 81.353 194.79 81.5533C194.419 81.7493 194.125 82.0221 193.908 82.3715C193.695 82.7167 193.588 83.1108 193.588 83.554V89.7671H192.08ZM198.777 89.7671V79.9489H200.286V89.7671H198.777ZM199.544 78.3125C199.25 78.3125 198.997 78.2124 198.784 78.0121C198.575 77.8118 198.47 77.5711 198.47 77.2898C198.47 77.0086 198.575 76.7678 198.784 76.5675C198.997 76.3672 199.25 76.2671 199.544 76.2671C199.838 76.2671 200.09 76.3672 200.298 76.5675C200.512 76.7678 200.618 77.0086 200.618 77.2898C200.618 77.5711 200.512 77.8118 200.298 78.0121C200.09 78.2124 199.838 78.3125 199.544 78.3125ZM207.421 79.9489V81.2273H202.128V79.9489H207.421ZM203.713 89.7671V78.5938C203.713 78.0313 203.846 77.5625 204.11 77.1875C204.374 76.8125 204.717 76.5313 205.139 76.3438C205.561 76.1563 206.006 76.0625 206.475 76.0625C206.846 76.0625 207.148 76.0924 207.382 76.152C207.617 76.2117 207.792 76.2671 207.907 76.3182L207.472 77.6222C207.395 77.5966 207.289 77.5647 207.152 77.5263C207.02 77.488 206.846 77.4688 206.628 77.4688C206.13 77.4688 205.77 77.5945 205.548 77.8459C205.331 78.0973 205.222 78.466 205.222 78.9517V89.7671H203.713ZM209.535 89.7671V79.9489H211.044V89.7671H209.535ZM210.302 78.3125C210.008 78.3125 209.754 78.2124 209.541 78.0121C209.333 77.8118 209.228 77.5711 209.228 77.2898C209.228 77.0086 209.333 76.7678 209.541 76.5675C209.754 76.3672 210.008 76.2671 210.302 76.2671C210.596 76.2671 210.847 76.3672 211.056 76.5675C211.269 76.7678 211.376 77.0086 211.376 77.2898C211.376 77.5711 211.269 77.8118 211.056 78.0121C210.847 78.2124 210.596 78.3125 210.302 78.3125ZM217.923 89.9716C216.977 89.9716 216.161 89.7628 215.475 89.3452C214.793 88.9233 214.267 88.3353 213.896 87.581C213.529 86.8225 213.346 85.9404 213.346 84.9347C213.346 83.929 213.529 83.0427 213.896 82.2756C214.267 81.5043 214.782 80.9035 215.443 80.4731C216.108 80.0384 216.883 79.8211 217.77 79.8211C218.281 79.8211 218.786 79.9063 219.284 80.0767C219.783 80.2472 220.237 80.5242 220.646 80.9077C221.055 81.287 221.381 81.7898 221.624 82.4162C221.867 83.0427 221.988 83.814 221.988 84.7302V85.3694H214.42V84.0654H220.454C220.454 83.5114 220.343 83.0171 220.122 82.5824C219.904 82.1478 219.593 81.8047 219.189 81.5533C218.788 81.3019 218.315 81.1762 217.77 81.1762C217.169 81.1762 216.649 81.3253 216.21 81.6236C215.775 81.9177 215.441 82.3012 215.206 82.7742C214.972 83.2472 214.855 83.7543 214.855 84.2955V85.1648C214.855 85.9063 214.983 86.5348 215.238 87.0505C215.498 87.5618 215.858 87.9517 216.319 88.2202C216.779 88.4844 217.314 88.6165 217.923 88.6165C218.319 88.6165 218.677 88.5611 218.997 88.4503C219.321 88.3353 219.6 88.1648 219.834 87.939C220.069 87.7089 220.25 87.4233 220.377 87.0824L221.835 87.4915C221.681 87.9858 221.424 88.4205 221.061 88.7955C220.699 89.1662 220.252 89.456 219.719 89.6648C219.186 89.8694 218.588 89.9716 217.923 89.9716ZM227.99 89.9716C227.172 89.9716 226.45 89.765 225.824 89.3516C225.197 88.934 224.707 88.3459 224.353 87.5874C224 86.8246 223.823 85.9233 223.823 84.8836C223.823 83.8523 224 82.9574 224.353 82.1989C224.707 81.4404 225.199 80.8544 225.83 80.4411C226.461 80.0277 227.189 79.8211 228.016 79.8211C228.655 79.8211 229.16 79.9276 229.531 80.1407C229.906 80.3495 230.191 80.5881 230.387 80.8566C230.588 81.1208 230.743 81.3381 230.854 81.5086H230.982V76.6762H232.49V89.7671H231.033V88.2586H230.854C230.743 88.4375 230.586 88.6634 230.381 88.9361C230.176 89.2046 229.885 89.4454 229.505 89.6584C229.126 89.8672 228.621 89.9716 227.99 89.9716ZM228.195 88.6165C228.8 88.6165 229.311 88.4589 229.729 88.1435C230.147 87.8239 230.464 87.3829 230.681 86.8204C230.899 86.2536 231.007 85.5995 231.007 84.858C231.007 84.125 230.901 83.4837 230.688 82.934C230.475 82.38 230.159 81.9496 229.742 81.6428C229.324 81.3317 228.809 81.1762 228.195 81.1762C227.556 81.1762 227.023 81.3402 226.597 81.6684C226.175 81.9922 225.858 82.4333 225.645 82.9915C225.436 83.5455 225.331 84.1677 225.331 84.858C225.331 85.5569 225.438 86.1918 225.651 86.7628C225.868 87.3296 226.188 87.7813 226.61 88.1179C227.036 88.4503 227.564 88.6165 228.195 88.6165ZM31.1506 101.949V103.227H26.0625V101.949H31.1506ZM27.5455 99.5966H29.054V108.955C29.054 109.381 29.1158 109.7 29.2393 109.913C29.3672 110.122 29.5291 110.263 29.7251 110.335C29.9254 110.403 30.1364 110.438 30.358 110.438C30.5241 110.438 30.6605 110.429 30.767 110.412C30.8736 110.391 30.9588 110.374 31.0227 110.361L31.3295 111.716C31.2273 111.754 31.0845 111.793 30.9013 111.831C30.718 111.874 30.4858 111.895 30.2045 111.895C29.7784 111.895 29.3608 111.803 28.9517 111.62C28.5469 111.437 28.2102 111.158 27.9418 110.783C27.6776 110.408 27.5455 109.935 27.5455 109.364V99.5966ZM33.4197 111.767V101.949H34.8771V103.432H34.9794C35.1584 102.946 35.4822 102.552 35.951 102.249C36.4197 101.947 36.9482 101.795 37.5362 101.795C37.647 101.795 37.7855 101.798 37.9517 101.802C38.1179 101.806 38.2436 101.813 38.3288 101.821V103.355C38.2777 103.342 38.1605 103.323 37.9773 103.298C37.7983 103.268 37.6087 103.253 37.4084 103.253C36.9311 103.253 36.505 103.353 36.13 103.553C35.7592 103.749 35.4652 104.022 35.2479 104.371C35.0348 104.717 34.9283 105.111 34.9283 105.554V111.767H33.4197ZM43.0062 111.997C42.3841 111.997 41.8194 111.88 41.3123 111.646C40.8052 111.407 40.4025 111.064 40.1042 110.617C39.8059 110.165 39.6568 109.619 39.6568 108.98C39.6568 108.418 39.7676 107.962 39.9892 107.612C40.2108 107.259 40.5069 106.982 40.8777 106.781C41.2484 106.581 41.6575 106.432 42.1049 106.334C42.5566 106.232 43.0105 106.151 43.4664 106.091C44.063 106.014 44.5467 105.957 44.9174 105.918C45.2924 105.876 45.5652 105.805 45.7356 105.707C45.9103 105.609 45.9977 105.439 45.9977 105.196V105.145C45.9977 104.514 45.8251 104.024 45.4799 103.675C45.139 103.325 44.6213 103.151 43.9267 103.151C43.2065 103.151 42.6419 103.308 42.2328 103.624C41.8237 103.939 41.536 104.276 41.3699 104.634L39.938 104.122C40.1937 103.526 40.5346 103.061 40.9608 102.729C41.3912 102.392 41.8599 102.158 42.367 102.026C42.8784 101.889 43.3812 101.821 43.8755 101.821C44.1909 101.821 44.5531 101.859 44.9622 101.936C45.3755 102.009 45.774 102.16 46.1575 102.39C46.5453 102.62 46.867 102.967 47.1227 103.432C47.3784 103.896 47.5062 104.519 47.5062 105.298V111.767H45.9977V110.438H45.921C45.8187 110.651 45.6483 110.879 45.4096 111.121C45.171 111.364 44.8535 111.571 44.4572 111.742C44.0609 111.912 43.5772 111.997 43.0062 111.997ZM43.2363 110.642C43.8329 110.642 44.3358 110.525 44.7449 110.291C45.1582 110.056 45.4693 109.754 45.6781 109.383C45.8912 109.012 45.9977 108.622 45.9977 108.213V106.832C45.9338 106.909 45.7931 106.979 45.5758 107.043C45.3627 107.103 45.1156 107.156 44.8343 107.203C44.5574 107.246 44.2868 107.284 44.0226 107.318C43.7626 107.348 43.5517 107.374 43.3897 107.395C42.9977 107.446 42.6312 107.529 42.2903 107.644C41.9537 107.755 41.6809 107.923 41.4721 108.149C41.2676 108.371 41.1653 108.673 41.1653 109.057C41.1653 109.581 41.3592 109.977 41.747 110.246C42.139 110.51 42.6355 110.642 43.2363 110.642ZM51.7681 105.861V111.767H50.2596V101.949H51.717V103.483H51.8448C52.0749 102.984 52.4244 102.584 52.8931 102.281C53.3619 101.974 53.967 101.821 54.7085 101.821C55.3732 101.821 55.9549 101.957 56.4535 102.23C56.9521 102.499 57.3398 102.908 57.6168 103.457C57.8938 104.003 58.0323 104.693 58.0323 105.528V111.767H56.5238V105.631C56.5238 104.859 56.3235 104.259 55.9229 103.828C55.5224 103.394 54.9727 103.176 54.2738 103.176C53.7923 103.176 53.3619 103.281 52.9826 103.489C52.6076 103.698 52.3114 104.003 52.0941 104.403C51.8768 104.804 51.7681 105.29 51.7681 105.861ZM67.7434 104.148L66.3883 104.531C66.3031 104.305 66.1774 104.086 66.0112 103.873C65.8493 103.656 65.6277 103.477 65.3464 103.336C65.0652 103.195 64.7051 103.125 64.2662 103.125C63.6653 103.125 63.1646 103.264 62.764 103.541C62.3677 103.813 62.1696 104.161 62.1696 104.582C62.1696 104.957 62.3059 105.254 62.5787 105.471C62.8514 105.688 63.2775 105.869 63.8571 106.014L65.3145 106.372C66.1923 106.585 66.8464 106.911 67.2768 107.35C67.7072 107.785 67.9224 108.345 67.9224 109.031C67.9224 109.594 67.7605 110.097 67.4366 110.54C67.117 110.983 66.6696 111.332 66.0943 111.588C65.519 111.844 64.85 111.972 64.0872 111.972C63.0858 111.972 62.2569 111.754 61.6007 111.32C60.9444 110.885 60.5289 110.25 60.3542 109.415L61.786 109.057C61.9224 109.585 62.1802 109.982 62.5595 110.246C62.943 110.51 63.4437 110.642 64.0616 110.642C64.7647 110.642 65.323 110.493 65.7363 110.195C66.1539 109.892 66.3627 109.53 66.3627 109.108C66.3627 108.767 66.2434 108.482 66.0048 108.251C65.7662 108.017 65.3997 107.842 64.9054 107.727L63.269 107.344C62.3699 107.131 61.7093 106.8 61.2875 106.353C60.8699 105.901 60.661 105.337 60.661 104.659C60.661 104.105 60.8166 103.615 61.1277 103.189C61.443 102.763 61.8713 102.428 62.4125 102.185C62.9579 101.943 63.5758 101.821 64.2662 101.821C65.2377 101.821 66.0005 102.034 66.5545 102.46C67.1127 102.886 67.5091 103.449 67.7434 104.148ZM73.0824 111.997C72.4602 111.997 71.8956 111.88 71.3885 111.646C70.8814 111.407 70.4787 111.064 70.1804 110.617C69.8821 110.165 69.733 109.619 69.733 108.98C69.733 108.418 69.8438 107.962 70.0653 107.612C70.2869 107.259 70.5831 106.982 70.9538 106.781C71.3246 106.581 71.7337 106.432 72.1811 106.334C72.6328 106.232 73.0866 106.151 73.5426 106.091C74.1392 106.014 74.6229 105.957 74.9936 105.918C75.3686 105.876 75.6413 105.805 75.8118 105.707C75.9865 105.609 76.0739 105.439 76.0739 105.196V105.145C76.0739 104.514 75.9013 104.024 75.5561 103.675C75.2152 103.325 74.6974 103.151 74.0028 103.151C73.2827 103.151 72.718 103.308 72.3089 103.624C71.8999 103.939 71.6122 104.276 71.446 104.634L70.0142 104.122C70.2699 103.526 70.6108 103.061 71.0369 102.729C71.4673 102.392 71.9361 102.158 72.4432 102.026C72.9545 101.889 73.4574 101.821 73.9517 101.821C74.267 101.821 74.6293 101.859 75.0384 101.936C75.4517 102.009 75.8501 102.16 76.2337 102.39C76.6214 102.62 76.9432 102.967 77.1989 103.432C77.4545 103.896 77.5824 104.519 77.5824 105.298V111.767H76.0739V110.438H75.9972C75.8949 110.651 75.7244 110.879 75.4858 111.121C75.2472 111.364 74.9297 111.571 74.5334 111.742C74.1371 111.912 73.6534 111.997 73.0824 111.997ZM73.3125 110.642C73.9091 110.642 74.4119 110.525 74.821 110.291C75.2344 110.056 75.5455 109.754 75.7543 109.383C75.9673 109.012 76.0739 108.622 76.0739 108.213V106.832C76.0099 106.909 75.8693 106.979 75.652 107.043C75.4389 107.103 75.1918 107.156 74.9105 107.203C74.6335 107.246 74.3629 107.284 74.0987 107.318C73.8388 107.348 73.6278 107.374 73.4659 107.395C73.0739 107.446 72.7074 107.529 72.3665 107.644C72.0298 107.755 71.7571 107.923 71.5483 108.149C71.3438 108.371 71.2415 108.673 71.2415 109.057C71.2415 109.581 71.4354 109.977 71.8232 110.246C72.2152 110.51 72.7116 110.642 73.3125 110.642ZM84.3244 111.972C83.4039 111.972 82.6113 111.754 81.9466 111.32C81.2818 110.885 80.7704 110.286 80.4125 109.523C80.0545 108.761 79.8755 107.889 79.8755 106.909C79.8755 105.912 80.0588 105.032 80.4252 104.269C80.796 103.502 81.3116 102.903 81.9721 102.473C82.6369 102.038 83.4125 101.821 84.2988 101.821C84.9892 101.821 85.6113 101.949 86.1653 102.205C86.7193 102.46 87.1731 102.818 87.5268 103.278C87.8805 103.739 88.1 104.276 88.1852 104.889H86.6767C86.5616 104.442 86.3059 104.045 85.9096 103.7C85.5176 103.351 84.9892 103.176 84.3244 103.176C83.7363 103.176 83.2207 103.33 82.7775 103.636C82.3386 103.939 81.9956 104.367 81.7484 104.921C81.5055 105.471 81.3841 106.117 81.3841 106.858C81.3841 107.617 81.5034 108.277 81.742 108.84C81.9849 109.402 82.3258 109.839 82.7647 110.15C83.2079 110.461 83.7278 110.617 84.3244 110.617C84.7164 110.617 85.0723 110.548 85.3919 110.412C85.7115 110.276 85.9821 110.08 86.2037 109.824C86.4252 109.568 86.5829 109.261 86.6767 108.903H88.1852C88.1 109.483 87.889 110.005 87.5524 110.47C87.22 110.93 86.7789 111.296 86.2292 111.569C85.6838 111.837 85.0488 111.972 84.3244 111.972ZM94.6603 101.949V103.227H89.5723V101.949H94.6603ZM91.0552 99.5966H92.5637V108.955C92.5637 109.381 92.6255 109.7 92.7491 109.913C92.877 110.122 93.0389 110.263 93.2349 110.335C93.4352 110.403 93.6461 110.438 93.8677 110.438C94.0339 110.438 94.1703 110.429 94.2768 110.412C94.3833 110.391 94.4686 110.374 94.5325 110.361L94.8393 111.716C94.737 111.754 94.5943 111.793 94.411 111.831C94.2278 111.874 93.9956 111.895 93.7143 111.895C93.2882 111.895 92.8706 111.803 92.4615 111.62C92.0566 111.437 91.72 111.158 91.4515 110.783C91.1873 110.408 91.0552 109.935 91.0552 109.364V99.5966ZM96.9295 111.767V101.949H98.438V111.767H96.9295ZM97.6966 100.313C97.4025 100.313 97.149 100.212 96.9359 100.012C96.7271 99.8118 96.6227 99.5711 96.6227 99.2898C96.6227 99.0086 96.7271 98.7678 96.9359 98.5675C97.149 98.3672 97.4025 98.2671 97.6966 98.2671C97.9906 98.2671 98.242 98.3672 98.4508 98.5675C98.6639 98.7678 98.7704 99.0086 98.7704 99.2898C98.7704 99.5711 98.6639 99.8118 98.4508 100.012C98.242 100.212 97.9906 100.313 97.6966 100.313ZM105.19 111.972C104.303 111.972 103.526 111.761 102.857 111.339C102.192 110.917 101.672 110.327 101.297 109.568C100.926 108.81 100.741 107.923 100.741 106.909C100.741 105.886 100.926 104.994 101.297 104.231C101.672 103.468 102.192 102.876 102.857 102.454C103.526 102.032 104.303 101.821 105.19 101.821C106.076 101.821 106.852 102.032 107.516 102.454C108.185 102.876 108.705 103.468 109.076 104.231C109.451 104.994 109.638 105.886 109.638 106.909C109.638 107.923 109.451 108.81 109.076 109.568C108.705 110.327 108.185 110.917 107.516 111.339C106.852 111.761 106.076 111.972 105.19 111.972ZM105.19 110.617C105.863 110.617 106.417 110.444 106.852 110.099C107.286 109.754 107.608 109.3 107.817 108.737C108.026 108.175 108.13 107.565 108.13 106.909C108.13 106.253 108.026 105.641 107.817 105.075C107.608 104.508 107.286 104.05 106.852 103.7C106.417 103.351 105.863 103.176 105.19 103.176C104.516 103.176 103.962 103.351 103.528 103.7C103.093 104.05 102.771 104.508 102.562 105.075C102.354 105.641 102.249 106.253 102.249 106.909C102.249 107.565 102.354 108.175 102.562 108.737C102.771 109.3 103.093 109.754 103.528 110.099C103.962 110.444 104.516 110.617 105.19 110.617ZM113.45 105.861V111.767H111.941V101.949H113.399V103.483H113.526C113.757 102.984 114.106 102.584 114.575 102.281C115.044 101.974 115.649 101.821 116.39 101.821C117.055 101.821 117.637 101.957 118.135 102.23C118.634 102.499 119.021 102.908 119.298 103.457C119.575 104.003 119.714 104.693 119.714 105.528V111.767H118.205V105.631C118.205 104.859 118.005 104.259 117.605 103.828C117.204 103.394 116.654 103.176 115.955 103.176C115.474 103.176 115.044 103.281 114.664 103.489C114.289 103.698 113.993 104.003 113.776 104.403C113.558 104.804 113.45 105.29 113.45 105.861ZM129.425 104.148L128.07 104.531C127.985 104.305 127.859 104.086 127.693 103.873C127.531 103.656 127.309 103.477 127.028 103.336C126.747 103.195 126.387 103.125 125.948 103.125C125.347 103.125 124.846 103.264 124.446 103.541C124.049 103.813 123.851 104.161 123.851 104.582C123.851 104.957 123.988 105.254 124.26 105.471C124.533 105.688 124.959 105.869 125.539 106.014L126.996 106.372C127.874 106.585 128.528 106.911 128.958 107.35C129.389 107.785 129.604 108.345 129.604 109.031C129.604 109.594 129.442 110.097 129.118 110.54C128.799 110.983 128.351 111.332 127.776 111.588C127.201 111.844 126.532 111.972 125.769 111.972C124.767 111.972 123.939 111.754 123.282 111.32C122.626 110.885 122.211 110.25 122.036 109.415L123.468 109.057C123.604 109.585 123.862 109.982 124.241 110.246C124.625 110.51 125.125 110.642 125.743 110.642C126.446 110.642 127.005 110.493 127.418 110.195C127.836 109.892 128.044 109.53 128.044 109.108C128.044 108.767 127.925 108.482 127.686 108.251C127.448 108.017 127.081 107.842 126.587 107.727L124.951 107.344C124.051 107.131 123.391 106.8 122.969 106.353C122.551 105.901 122.343 105.337 122.343 104.659C122.343 104.105 122.498 103.615 122.809 103.189C123.125 102.763 123.553 102.428 124.094 102.185C124.64 101.943 125.257 101.821 125.948 101.821C126.919 101.821 127.682 102.034 128.236 102.46C128.794 102.886 129.191 103.449 129.425 104.148ZM139.827 111.997C139.204 111.997 138.64 111.88 138.133 111.646C137.626 111.407 137.223 111.064 136.925 110.617C136.626 110.165 136.477 109.619 136.477 108.98C136.477 108.418 136.588 107.962 136.809 107.612C137.031 107.259 137.327 106.982 137.698 106.781C138.069 106.581 138.478 106.432 138.925 106.334C139.377 106.232 139.831 106.151 140.287 106.091C140.883 106.014 141.367 105.957 141.738 105.918C142.113 105.876 142.385 105.805 142.556 105.707C142.731 105.609 142.818 105.439 142.818 105.196V105.145C142.818 104.514 142.645 104.024 142.3 103.675C141.959 103.325 141.442 103.151 140.747 103.151C140.027 103.151 139.462 103.308 139.053 103.624C138.644 103.939 138.356 104.276 138.19 104.634L136.758 104.122C137.014 103.526 137.355 103.061 137.781 102.729C138.211 102.392 138.68 102.158 139.187 102.026C139.699 101.889 140.202 101.821 140.696 101.821C141.011 101.821 141.373 101.859 141.782 101.936C142.196 102.009 142.594 102.16 142.978 102.39C143.366 102.62 143.687 102.967 143.943 103.432C144.199 103.896 144.327 104.519 144.327 105.298V111.767H142.818V110.438H142.741C142.639 110.651 142.469 110.879 142.23 111.121C141.991 111.364 141.674 111.571 141.278 111.742C140.881 111.912 140.398 111.997 139.827 111.997ZM140.057 110.642C140.653 110.642 141.156 110.525 141.565 110.291C141.979 110.056 142.29 109.754 142.498 109.383C142.711 109.012 142.818 108.622 142.818 108.213V106.832C142.754 106.909 142.613 106.979 142.396 107.043C142.183 107.103 141.936 107.156 141.655 107.203C141.378 107.246 141.107 107.284 140.843 107.318C140.583 107.348 140.372 107.374 140.21 107.395C139.818 107.446 139.452 107.529 139.111 107.644C138.774 107.755 138.501 107.923 138.292 108.149C138.088 108.371 137.986 108.673 137.986 109.057C137.986 109.581 138.18 109.977 138.567 110.246C138.959 110.51 139.456 110.642 140.057 110.642ZM148.588 105.861V111.767H147.08V101.949H148.537V103.483H148.665C148.895 102.984 149.245 102.584 149.713 102.281C150.182 101.974 150.787 101.821 151.529 101.821C152.194 101.821 152.775 101.957 153.274 102.23C153.772 102.499 154.16 102.908 154.437 103.457C154.714 104.003 154.853 104.693 154.853 105.528V111.767H153.344V105.631C153.344 104.859 153.144 104.259 152.743 103.828C152.343 103.394 151.793 103.176 151.094 103.176C150.613 103.176 150.182 103.281 149.803 103.489C149.428 103.698 149.132 104.003 148.914 104.403C148.697 104.804 148.588 105.29 148.588 105.861ZM161.317 111.972C160.498 111.972 159.776 111.765 159.15 111.352C158.523 110.934 158.033 110.346 157.68 109.587C157.326 108.825 157.149 107.923 157.149 106.884C157.149 105.852 157.326 104.957 157.68 104.199C158.033 103.44 158.525 102.854 159.156 102.441C159.787 102.028 160.515 101.821 161.342 101.821C161.981 101.821 162.486 101.928 162.857 102.141C163.232 102.349 163.518 102.588 163.714 102.857C163.914 103.121 164.069 103.338 164.18 103.509H164.308V98.6762H165.817V111.767H164.359V110.259H164.18C164.069 110.438 163.912 110.663 163.707 110.936C163.503 111.205 163.211 111.445 162.831 111.658C162.452 111.867 161.947 111.972 161.317 111.972ZM161.521 110.617C162.126 110.617 162.638 110.459 163.055 110.144C163.473 109.824 163.79 109.383 164.008 108.82C164.225 108.254 164.334 107.599 164.334 106.858C164.334 106.125 164.227 105.484 164.014 104.934C163.801 104.38 163.486 103.95 163.068 103.643C162.65 103.332 162.135 103.176 161.521 103.176C160.882 103.176 160.349 103.34 159.923 103.668C159.501 103.992 159.184 104.433 158.971 104.992C158.762 105.545 158.657 106.168 158.657 106.858C158.657 107.557 158.764 108.192 158.977 108.763C159.194 109.33 159.514 109.781 159.936 110.118C160.362 110.45 160.89 110.617 161.521 110.617ZM173.851 115.449V101.949H175.309V103.509H175.488C175.599 103.338 175.752 103.121 175.948 102.857C176.148 102.588 176.434 102.349 176.805 102.141C177.18 101.928 177.687 101.821 178.326 101.821C179.153 101.821 179.881 102.028 180.512 102.441C181.143 102.854 181.635 103.44 181.988 104.199C182.342 104.957 182.519 105.852 182.519 106.884C182.519 107.923 182.342 108.825 181.988 109.587C181.635 110.346 181.145 110.934 180.518 111.352C179.892 111.765 179.17 111.972 178.351 111.972C177.721 111.972 177.216 111.867 176.836 111.658C176.457 111.445 176.165 111.205 175.961 110.936C175.756 110.663 175.599 110.438 175.488 110.259H175.36V115.449H173.851ZM175.334 106.858C175.334 107.599 175.443 108.254 175.66 108.82C175.878 109.383 176.195 109.824 176.613 110.144C177.03 110.459 177.542 110.617 178.147 110.617C178.778 110.617 179.304 110.45 179.726 110.118C180.152 109.781 180.471 109.33 180.684 108.763C180.902 108.192 181.01 107.557 181.01 106.858C181.01 106.168 180.904 105.545 180.691 104.992C180.482 104.433 180.165 103.992 179.738 103.668C179.317 103.34 178.786 103.176 178.147 103.176C177.533 103.176 177.018 103.332 176.6 103.643C176.182 103.95 175.867 104.38 175.654 104.934C175.441 105.484 175.334 106.125 175.334 106.858ZM188.937 111.972C187.991 111.972 187.175 111.763 186.488 111.345C185.807 110.923 185.28 110.335 184.91 109.581C184.543 108.822 184.36 107.94 184.36 106.935C184.36 105.929 184.543 105.043 184.91 104.276C185.28 103.504 185.796 102.903 186.456 102.473C187.121 102.038 187.897 101.821 188.783 101.821C189.295 101.821 189.8 101.906 190.298 102.077C190.797 102.247 191.251 102.524 191.66 102.908C192.069 103.287 192.395 103.79 192.638 104.416C192.881 105.043 193.002 105.814 193.002 106.73V107.369H185.434V106.065H191.468C191.468 105.511 191.357 105.017 191.135 104.582C190.918 104.148 190.607 103.805 190.202 103.553C189.802 103.302 189.329 103.176 188.783 103.176C188.182 103.176 187.662 103.325 187.224 103.624C186.789 103.918 186.454 104.301 186.22 104.774C185.986 105.247 185.868 105.754 185.868 106.295V107.165C185.868 107.906 185.996 108.535 186.252 109.05C186.512 109.562 186.872 109.952 187.332 110.22C187.792 110.484 188.327 110.617 188.937 110.617C189.333 110.617 189.691 110.561 190.01 110.45C190.334 110.335 190.613 110.165 190.848 109.939C191.082 109.709 191.263 109.423 191.391 109.082L192.849 109.492C192.695 109.986 192.437 110.42 192.075 110.795C191.713 111.166 191.265 111.456 190.733 111.665C190.2 111.869 189.601 111.972 188.937 111.972ZM195.297 111.767V101.949H196.754V103.432H196.856C197.035 102.946 197.359 102.552 197.828 102.249C198.297 101.947 198.825 101.795 199.413 101.795C199.524 101.795 199.662 101.798 199.829 101.802C199.995 101.806 200.121 101.813 200.206 101.821V103.355C200.155 103.342 200.037 103.323 199.854 103.298C199.675 103.268 199.486 103.253 199.285 103.253C198.808 103.253 198.382 103.353 198.007 103.553C197.636 103.749 197.342 104.022 197.125 104.371C196.912 104.717 196.805 105.111 196.805 105.554V111.767H195.297ZM206.981 101.949V103.227H201.689V101.949H206.981ZM203.274 111.767V100.594C203.274 100.031 203.406 99.5625 203.67 99.1875C203.934 98.8125 204.278 98.5313 204.699 98.3438C205.121 98.1563 205.567 98.0625 206.035 98.0625C206.406 98.0625 206.709 98.0924 206.943 98.152C207.177 98.2117 207.352 98.2671 207.467 98.3182L207.032 99.6222C206.956 99.5966 206.849 99.5647 206.713 99.5263C206.581 99.488 206.406 99.4688 206.189 99.4688C205.69 99.4688 205.33 99.5945 205.108 99.8459C204.891 100.097 204.782 100.466 204.782 100.952V111.767H203.274ZM212.68 111.972C211.794 111.972 211.016 111.761 210.347 111.339C209.682 110.917 209.162 110.327 208.787 109.568C208.416 108.81 208.231 107.923 208.231 106.909C208.231 105.886 208.416 104.994 208.787 104.231C209.162 103.468 209.682 102.876 210.347 102.454C211.016 102.032 211.794 101.821 212.68 101.821C213.566 101.821 214.342 102.032 215.007 102.454C215.676 102.876 216.195 103.468 216.566 104.231C216.941 104.994 217.129 105.886 217.129 106.909C217.129 107.923 216.941 108.81 216.566 109.568C216.195 110.327 215.676 110.917 215.007 111.339C214.342 111.761 213.566 111.972 212.68 111.972ZM212.68 110.617C213.353 110.617 213.907 110.444 214.342 110.099C214.776 109.754 215.098 109.3 215.307 108.737C215.516 108.175 215.62 107.565 215.62 106.909C215.62 106.253 215.516 105.641 215.307 105.075C215.098 104.508 214.776 104.05 214.342 103.7C213.907 103.351 213.353 103.176 212.68 103.176C212.007 103.176 211.453 103.351 211.018 103.7C210.583 104.05 210.262 104.508 210.053 105.075C209.844 105.641 209.74 106.253 209.74 106.909C209.74 107.565 209.844 108.175 210.053 108.737C210.262 109.3 210.583 109.754 211.018 110.099C211.453 110.444 212.007 110.617 212.68 110.617ZM219.431 111.767V101.949H220.889V103.432H220.991C221.17 102.946 221.494 102.552 221.963 102.249C222.431 101.947 222.96 101.795 223.548 101.795C223.659 101.795 223.797 101.798 223.963 101.802C224.13 101.806 224.255 101.813 224.341 101.821V103.355C224.289 103.342 224.172 103.323 223.989 103.298C223.81 103.268 223.62 103.253 223.42 103.253C222.943 103.253 222.517 103.353 222.142 103.553C221.771 103.749 221.477 104.022 221.26 104.371C221.047 104.717 220.94 105.111 220.94 105.554V111.767H219.431ZM226.129 111.767V101.949H227.586V103.483H227.714C227.919 102.959 228.249 102.552 228.705 102.262C229.161 101.968 229.708 101.821 230.347 101.821C230.995 101.821 231.534 101.968 231.965 102.262C232.399 102.552 232.738 102.959 232.981 103.483H233.083C233.335 102.976 233.712 102.573 234.215 102.275C234.718 101.972 235.32 101.821 236.024 101.821C236.901 101.821 237.619 102.096 238.178 102.646C238.736 103.191 239.015 104.041 239.015 105.196V111.767H237.507V105.196C237.507 104.472 237.308 103.954 236.912 103.643C236.516 103.332 236.049 103.176 235.512 103.176C234.822 103.176 234.287 103.385 233.908 103.803C233.529 104.216 233.339 104.74 233.339 105.375V111.767H231.805V105.043C231.805 104.484 231.624 104.035 231.262 103.694C230.899 103.349 230.433 103.176 229.862 103.176C229.47 103.176 229.103 103.281 228.762 103.489C228.426 103.698 228.153 103.988 227.944 104.359C227.74 104.725 227.637 105.149 227.637 105.631V111.767H226.129ZM244.662 111.997C244.04 111.997 243.476 111.88 242.969 111.646C242.461 111.407 242.059 111.064 241.76 110.617C241.462 110.165 241.313 109.619 241.313 108.98C241.313 108.418 241.424 107.962 241.645 107.612C241.867 107.259 242.163 106.982 242.534 106.781C242.905 106.581 243.314 106.432 243.761 106.334C244.213 106.232 244.667 106.151 245.123 106.091C245.719 106.014 246.203 105.957 246.574 105.918C246.949 105.876 247.221 105.805 247.392 105.707C247.567 105.609 247.654 105.439 247.654 105.196V105.145C247.654 104.514 247.481 104.024 247.136 103.675C246.795 103.325 246.278 103.151 245.583 103.151C244.863 103.151 244.298 103.308 243.889 103.624C243.48 103.939 243.192 104.276 243.026 104.634L241.594 104.122C241.85 103.526 242.191 103.061 242.617 102.729C243.047 102.392 243.516 102.158 244.023 102.026C244.535 101.889 245.037 101.821 245.532 101.821C245.847 101.821 246.209 101.859 246.618 101.936C247.032 102.009 247.43 102.16 247.814 102.39C248.202 102.62 248.523 102.967 248.779 103.432C249.035 103.896 249.162 104.519 249.162 105.298V111.767H247.654V110.438H247.577C247.475 110.651 247.305 110.879 247.066 111.121C246.827 111.364 246.51 111.571 246.113 111.742C245.717 111.912 245.233 111.997 244.662 111.997ZM244.893 110.642C245.489 110.642 245.992 110.525 246.401 110.291C246.814 110.056 247.126 109.754 247.334 109.383C247.547 109.012 247.654 108.622 247.654 108.213V106.832C247.59 106.909 247.449 106.979 247.232 107.043C247.019 107.103 246.772 107.156 246.491 107.203C246.214 107.246 245.943 107.284 245.679 107.318C245.419 107.348 245.208 107.374 245.046 107.395C244.654 107.446 244.287 107.529 243.947 107.644C243.61 107.755 243.337 107.923 243.128 108.149C242.924 108.371 242.822 108.673 242.822 109.057C242.822 109.581 243.015 109.977 243.403 110.246C243.795 110.51 244.292 110.642 244.893 110.642ZM253.424 105.861V111.767H251.916V101.949H253.373V103.483H253.501C253.731 102.984 254.081 102.584 254.549 102.281C255.018 101.974 255.623 101.821 256.365 101.821C257.029 101.821 257.611 101.957 258.11 102.23C258.608 102.499 258.996 102.908 259.273 103.457C259.55 104.003 259.689 104.693 259.689 105.528V111.767H258.18V105.631C258.18 104.859 257.98 104.259 257.579 103.828C257.179 103.394 256.629 103.176 255.93 103.176C255.449 103.176 255.018 103.281 254.639 103.489C254.264 103.698 253.968 104.003 253.75 104.403C253.533 104.804 253.424 105.29 253.424 105.861ZM266.434 111.972C265.513 111.972 264.721 111.754 264.056 111.32C263.391 110.885 262.88 110.286 262.522 109.523C262.164 108.761 261.985 107.889 261.985 106.909C261.985 105.912 262.168 105.032 262.535 104.269C262.905 103.502 263.421 102.903 264.081 102.473C264.746 102.038 265.522 101.821 266.408 101.821C267.099 101.821 267.721 101.949 268.275 102.205C268.829 102.46 269.282 102.818 269.636 103.278C269.99 103.739 270.209 104.276 270.295 104.889H268.786C268.671 104.442 268.415 104.045 268.019 103.7C267.627 103.351 267.099 103.176 266.434 103.176C265.846 103.176 265.33 103.33 264.887 103.636C264.448 103.939 264.105 104.367 263.858 104.921C263.615 105.471 263.493 106.117 263.493 106.858C263.493 107.617 263.613 108.277 263.851 108.84C264.094 109.402 264.435 109.839 264.874 110.15C265.317 110.461 265.837 110.617 266.434 110.617C266.826 110.617 267.182 110.548 267.501 110.412C267.821 110.276 268.091 110.08 268.313 109.824C268.535 109.568 268.692 109.261 268.786 108.903H270.295C270.209 109.483 269.998 110.005 269.662 110.47C269.329 110.93 268.888 111.296 268.339 111.569C267.793 111.837 267.158 111.972 266.434 111.972ZM276.616 111.972C275.67 111.972 274.854 111.763 274.168 111.345C273.486 110.923 272.96 110.335 272.589 109.581C272.223 108.822 272.04 107.94 272.04 106.935C272.04 105.929 272.223 105.043 272.589 104.276C272.96 103.504 273.476 102.903 274.136 102.473C274.801 102.038 275.577 101.821 276.463 101.821C276.974 101.821 277.479 101.906 277.978 102.077C278.476 102.247 278.93 102.524 279.339 102.908C279.748 103.287 280.074 103.79 280.317 104.416C280.56 105.043 280.682 105.814 280.682 106.73V107.369H273.113V106.065H279.148C279.148 105.511 279.037 105.017 278.815 104.582C278.598 104.148 278.287 103.805 277.882 103.553C277.481 103.302 277.008 103.176 276.463 103.176C275.862 103.176 275.342 103.325 274.903 103.624C274.469 103.918 274.134 104.301 273.9 104.774C273.665 105.247 273.548 105.754 273.548 106.295V107.165C273.548 107.906 273.676 108.535 273.932 109.05C274.192 109.562 274.552 109.952 275.012 110.22C275.472 110.484 276.007 110.617 276.616 110.617C277.013 110.617 277.371 110.561 277.69 110.45C278.014 110.335 278.293 110.165 278.528 109.939C278.762 109.709 278.943 109.423 279.071 109.082L280.528 109.492C280.375 109.986 280.117 110.42 279.755 110.795C279.393 111.166 278.945 111.456 278.412 111.665C277.88 111.869 277.281 111.972 276.616 111.972ZM284.076 111.869C283.76 111.869 283.49 111.756 283.264 111.531C283.038 111.305 282.925 111.034 282.925 110.719C282.925 110.403 283.038 110.133 283.264 109.907C283.49 109.681 283.76 109.568 284.076 109.568C284.391 109.568 284.662 109.681 284.888 109.907C285.113 110.133 285.226 110.403 285.226 110.719C285.226 110.928 285.173 111.119 285.067 111.294C284.964 111.469 284.826 111.609 284.651 111.716C284.481 111.818 284.289 111.869 284.076 111.869Z" fill="#696969"/>
<g filter="url(#filter0_dd_84_2861)">
<circle cx="139.482" cy="254.182" r="87.7654" fill="#DADFFF" fill-opacity="0.12" shape-rendering="crispEdges"/>
</g>
<g filter="url(#filter1_d_84_2861)">
<g filter="url(#filter2_d_84_2861)">
<path d="M216.314 178.784C200.357 159.385 176.154 147 149.074 147V234.832L216.314 178.784Z" fill="#174686"/>
</g>
</g>
<g filter="url(#filter3_d_84_2861)">
<path d="M140.258 255.874V168.042C92.2296 168.042 53.2695 206.966 53.2695 255.021C53.2695 303.076 92.2296 342 140.258 342C188.318 342 227.247 303.044 227.247 255.021C227.247 234.074 219.821 214.833 207.498 199.826L140.258 255.874Z" fill="#9CB1CF"/>
</g>
<path d="M222.602 283.171C225.636 274.357 227.247 264.878 227.247 255.021C227.247 234.074 219.822 214.833 207.498 199.826L140.258 255.874L222.602 283.171Z" fill="#C9D2E3"/>
<path d="M240.315 217.001C237.507 217.001 234.919 218.417 233.405 220.81L219.586 242.586C219.195 242.464 218.756 242.391 218.316 242.391C215.948 242.391 214.043 244.32 214.043 246.663C214.043 249.031 215.972 250.935 218.316 250.935C220.685 250.935 222.589 249.007 222.589 246.663C222.589 245.54 222.149 244.539 221.466 243.782L235.285 221.982C236.384 220.248 238.264 219.223 240.315 219.223H277.28V216.977H240.315V217.001Z" fill="#174686"/>
<path d="M246.59 204.209C246.59 207.31 244.954 208.848 243.05 208.848C241.218 208.848 239.631 207.383 239.607 204.405C239.607 201.475 241.218 199.815 243.147 199.815C245.247 199.815 246.59 201.402 246.59 204.209ZM241.218 204.356C241.17 206.236 241.878 207.652 243.123 207.652C244.441 207.652 245.027 206.26 245.027 204.307C245.027 202.525 244.514 201.036 243.123 201.036C241.878 201.011 241.218 202.5 241.218 204.356ZM242.927 215.024L251.571 199.815H252.84L244.197 215.024H242.927ZM256.161 210.288C256.161 213.389 254.525 214.927 252.645 214.927C250.814 214.927 249.227 213.462 249.202 210.508C249.202 207.554 250.814 205.894 252.743 205.894C254.842 205.918 256.161 207.481 256.161 210.288ZM250.789 210.435C250.765 212.314 251.497 213.73 252.718 213.73C254.037 213.73 254.623 212.339 254.623 210.386C254.623 208.604 254.11 207.114 252.718 207.114C251.473 207.114 250.789 208.579 250.789 210.435Z" fill="#174686"/>
<path d="M272.202 204.062H262.68C262.118 204.062 261.654 203.599 261.654 203.037C261.654 202.476 262.118 202.012 262.68 202.012H272.202C272.763 202.012 273.227 202.476 273.227 203.037C273.227 203.623 272.763 204.062 272.202 204.062Z" fill="#174686"/>
<path d="M280.259 211.362H262.68C262.118 211.362 261.654 210.898 261.654 210.336C261.654 209.775 262.118 209.311 262.68 209.311H280.259C280.821 209.311 281.284 209.775 281.284 210.336C281.284 210.898 280.821 211.362 280.259 211.362Z" fill="#174686"/>
<defs>
<filter id="filter0_dd_84_2861" x="33.0759" y="147.776" width="212.812" height="212.812" filterUnits="userSpaceOnUse" color-interpolation-filters="sRGB">
<feFlood flood-opacity="0" result="BackgroundImageFix"/>
<feColorMatrix in="SourceAlpha" type="matrix" values="0 0 0 0 0 0 0 0 0 0 0 0 0 0 0 0 0 0 127 0" result="hardAlpha"/>
<feMorphology radius="7.76685" operator="dilate" in="SourceAlpha" result="effect1_dropShadow_84_2861"/>
<feOffset/>
<feGaussianBlur stdDeviation="1.55337"/>
<feComposite in2="hardAlpha" operator="out"/>
<feColorMatrix type="matrix" values="0 0 0 0 0.901961 0 0 0 0 0.917647 0 0 0 0 0.94902 0 0 0 1 0"/>
<feBlend mode="normal" in2="BackgroundImageFix" result="effect1_dropShadow_84_2861"/>
<feColorMatrix in="SourceAlpha" type="matrix" values="0 0 0 0 0 0 0 0 0 0 0 0 0 0 0 0 0 0 127 0" result="hardAlpha"/>
<feMorphology radius="15.5337" operator="dilate" in="SourceAlpha" result="effect2_dropShadow_84_2861"/>
<feOffset/>
<feGaussianBlur stdDeviation="1.55337"/>
<feComposite in2="hardAlpha" operator="out"/>
<feColorMatrix type="matrix" values="0 0 0 0 0.972549 0 0 0 0 0.984314 0 0 0 0 0.976471 0 0 0 0.74902 0"/>
<feBlend mode="normal" in2="effect1_dropShadow_84_2861" result="effect2_dropShadow_84_2861"/>
<feBlend mode="normal" in="SourceGraphic" in2="effect2_dropShadow_84_2861" result="shape"/>
</filter>
<filter id="filter1_d_84_2861" x="145.967" y="144.67" width="73.4537" height="94.0455" filterUnits="userSpaceOnUse" color-interpolation-filters="sRGB">
<feFlood flood-opacity="0" result="BackgroundImageFix"/>
<feColorMatrix in="SourceAlpha" type="matrix" values="0 0 0 0 0 0 0 0 0 0 0 0 0 0 0 0 0 0 127 0" result="hardAlpha"/>
<feOffset dy="0.776685"/>
<feGaussianBlur stdDeviation="1.55337"/>
<feComposite in2="hardAlpha" operator="out"/>
<feColorMatrix type="matrix" values="0 0 0 0 0 0 0 0 0 0 0 0 0 0 0 0 0 0 0.25 0"/>
<feBlend mode="normal" in2="BackgroundImageFix" result="effect1_dropShadow_84_2861"/>
<feBlend mode="normal" in="SourceGraphic" in2="effect1_dropShadow_84_2861" result="shape"/>
</filter>
<filter id="filter2_d_84_2861" x="149.074" y="136.903" width="75.0071" height="97.9289" filterUnits="userSpaceOnUse" color-interpolation-filters="sRGB">
<feFlood flood-opacity="0" result="BackgroundImageFix"/>
<feColorMatrix in="SourceAlpha" type="matrix" values="0 0 0 0 0 0 0 0 0 0 0 0 0 0 0 0 0 0 127 0" result="hardAlpha"/>
<feOffset dx="4.66011" dy="-6.99016"/>
<feGaussianBlur stdDeviation="1.55337"/>
<feComposite in2="hardAlpha" operator="out"/>
<feColorMatrix type="matrix" values="0 0 0 0 0.972549 0 0 0 0 0.984314 0 0 0 0 0.976471 0 0 0 1 0"/>
<feBlend mode="normal" in2="BackgroundImageFix" result="effect1_dropShadow_84_2861"/>
<feBlend mode="normal" in="SourceGraphic" in2="effect1_dropShadow_84_2861" result="shape"/>
</filter>
<filter id="filter3_d_84_2861" x="50.1628" y="165.712" width="180.191" height="180.171" filterUnits="userSpaceOnUse" color-interpolation-filters="sRGB">
<feFlood flood-opacity="0" result="BackgroundImageFix"/>
<feColorMatrix in="SourceAlpha" type="matrix" values="0 0 0 0 0 0 0 0 0 0 0 0 0 0 0 0 0 0 127 0" result="hardAlpha"/>
<feOffset dy="0.776685"/>
<feGaussianBlur stdDeviation="1.55337"/>
<feComposite in2="hardAlpha" operator="out"/>
<feColorMatrix type="matrix" values="0 0 0 0 0 0 0 0 0 0 0 0 0 0 0 0 0 0 0.25 0"/>
<feBlend mode="normal" in2="BackgroundImageFix" result="effect1_dropShadow_84_2861"/>
<feBlend mode="normal" in="SourceGraphic" in2="effect1_dropShadow_84_2861" result="shape"/>
</filter>
<linearGradient id="paint0_linear_84_2861" x1="307.5" y1="41" x2="25.5" y2="41" gradientUnits="userSpaceOnUse">
<stop stop-color="#061A32"/>
<stop offset="1" stop-color="#0D3463"/>
</linearGradient>
</defs>
</svg>
