<svg width="488" height="312" viewBox="0 0 488 312" fill="none" xmlns="http://www.w3.org/2000/svg">
<rect width="487.728" height="311.533" rx="28.1111" fill="url(#paint0_linear_84_2797)"/>
<path d="M25.233 33.2812V30.6364H40.9929V33.2812H34.6392V51H31.5767V33.2812H25.233ZM44.2369 51V35.7273H47.2099V51H44.2369ZM45.7383 33.3707C45.2212 33.3707 44.7771 33.1984 44.4059 32.8537C44.0413 32.5024 43.859 32.0848 43.859 31.6009C43.859 31.1103 44.0413 30.6927 44.4059 30.348C44.7771 29.9967 45.2212 29.821 45.7383 29.821C46.2553 29.821 46.6961 29.9967 47.0607 30.348C47.4319 30.6927 47.6175 31.1103 47.6175 31.6009C47.6175 32.0848 47.4319 32.5024 47.0607 32.8537C46.6961 33.1984 46.2553 33.3707 45.7383 33.3707ZM51.2095 56.7273V35.7273H54.1129V38.2031H54.3615C54.5339 37.8849 54.7824 37.517 55.1072 37.0994C55.4321 36.6818 55.8828 36.3172 56.4595 36.0057C57.0362 35.6875 57.7985 35.5284 58.7464 35.5284C59.9794 35.5284 61.0798 35.84 62.0476 36.4631C63.0154 37.0862 63.7744 37.9844 64.3246 39.1577C64.8814 40.331 65.1598 41.7429 65.1598 43.3935C65.1598 45.044 64.8847 46.4593 64.3345 47.6392C63.7843 48.8125 63.0286 49.7173 62.0675 50.3537C61.1063 50.9834 60.0092 51.2983 58.7763 51.2983C57.8482 51.2983 57.0893 51.1425 56.4993 50.831C55.916 50.5194 55.4586 50.1548 55.1271 49.7372C54.7957 49.3196 54.5405 48.9484 54.3615 48.6236H54.1825V56.7273H51.2095ZM54.1229 43.3636C54.1229 44.4375 54.2786 45.3788 54.5902 46.1875C54.9018 46.9962 55.3525 47.6293 55.9425 48.0866C56.5324 48.5374 57.255 48.7628 58.1101 48.7628C58.9983 48.7628 59.7408 48.5275 60.3374 48.0568C60.9339 47.5795 61.3847 46.9332 61.6896 46.1179C62.0012 45.3026 62.157 44.3845 62.157 43.3636C62.157 42.3561 62.0045 41.4512 61.6996 40.6491C61.4013 39.8471 60.9505 39.214 60.3473 38.75C59.7507 38.286 59.005 38.054 58.1101 38.054C57.2483 38.054 56.5192 38.276 55.9226 38.7202C55.3326 39.1643 54.8852 39.7841 54.5803 40.5795C54.2753 41.375 54.1229 42.303 54.1229 43.3636ZM93.0529 37.2585H89.9506C89.8313 36.5956 89.6093 36.0123 89.2844 35.5085C88.9596 35.0047 88.5619 34.5772 88.0913 34.2259C87.6206 33.8745 87.0936 33.6094 86.5103 33.4304C85.9336 33.2514 85.3204 33.1619 84.6708 33.1619C83.4975 33.1619 82.4469 33.4569 81.5188 34.0469C80.5974 34.6368 79.8683 35.5019 79.3313 36.642C78.801 37.7822 78.5359 39.1742 78.5359 40.8182C78.5359 42.4754 78.801 43.8741 79.3313 45.0142C79.8683 46.1544 80.6007 47.0161 81.5288 47.5994C82.4568 48.1828 83.5008 48.4744 84.6609 48.4744C85.3039 48.4744 85.9137 48.3883 86.4904 48.2159C87.0737 48.0369 87.6007 47.7751 88.0714 47.4304C88.542 47.0857 88.9397 46.6648 89.2646 46.1676C89.596 45.6638 89.8247 45.0871 89.9506 44.4375L93.0529 44.4474C92.8872 45.4484 92.5657 46.3698 92.0884 47.2116C91.6178 48.0469 91.0112 48.7694 90.2688 49.3793C89.533 49.9825 88.6912 50.4498 87.7433 50.7812C86.7953 51.1127 85.7612 51.2784 84.641 51.2784C82.8777 51.2784 81.3067 50.8608 79.9279 50.0256C78.5491 49.1837 77.462 47.9806 76.6665 46.4162C75.8777 44.8518 75.4833 42.9858 75.4833 40.8182C75.4833 38.6439 75.881 36.7779 76.6765 35.2202C77.4719 33.6558 78.5591 32.456 79.9379 31.6207C81.3166 30.7789 82.8844 30.358 84.641 30.358C85.7215 30.358 86.729 30.5137 87.6637 30.8253C88.605 31.1302 89.4502 31.581 90.1992 32.1776C90.9483 32.7675 91.5681 33.4901 92.0586 34.3452C92.5491 35.1937 92.8806 36.1648 93.0529 37.2585ZM102.924 51.3082C101.492 51.3082 100.243 50.9801 99.1754 50.3239C98.1082 49.6676 97.2796 48.7495 96.6896 47.5696C96.0997 46.3897 95.8047 45.0109 95.8047 43.4332C95.8047 41.849 96.0997 40.4635 96.6896 39.277C97.2796 38.0904 98.1082 37.169 99.1754 36.5128C100.243 35.8565 101.492 35.5284 102.924 35.5284C104.356 35.5284 105.605 35.8565 106.673 36.5128C107.74 37.169 108.568 38.0904 109.158 39.277C109.748 40.4635 110.043 41.849 110.043 43.4332C110.043 45.0109 109.748 46.3897 109.158 47.5696C108.568 48.7495 107.74 49.6676 106.673 50.3239C105.605 50.9801 104.356 51.3082 102.924 51.3082ZM102.934 48.8125C103.862 48.8125 104.631 48.5672 105.241 48.0767C105.851 47.5862 106.301 46.9332 106.593 46.1179C106.891 45.3026 107.04 44.4044 107.04 43.4233C107.04 42.4489 106.891 41.554 106.593 40.7386C106.301 39.9167 105.851 39.2571 105.241 38.7599C104.631 38.2628 103.862 38.0142 102.934 38.0142C101.999 38.0142 101.224 38.2628 100.607 38.7599C99.9974 39.2571 99.5433 39.9167 99.245 40.7386C98.9534 41.554 98.8075 42.4489 98.8075 43.4233C98.8075 44.4044 98.9534 45.3026 99.245 46.1179C99.5433 46.9332 99.9974 47.5862 100.607 48.0767C101.224 48.5672 101.999 48.8125 102.934 48.8125ZM116.335 30.6364V51H113.362V30.6364H116.335ZM123.308 30.6364V51H120.335V30.6364H123.308ZM133.89 51.3082C132.385 51.3082 131.089 50.9867 130.002 50.3438C128.921 49.6941 128.086 48.7827 127.496 47.6094C126.913 46.4295 126.621 45.0473 126.621 43.4631C126.621 41.8987 126.913 40.5199 127.496 39.3267C128.086 38.1335 128.908 37.2022 129.962 36.5327C131.023 35.8632 132.262 35.5284 133.681 35.5284C134.542 35.5284 135.378 35.6709 136.186 35.956C136.995 36.241 137.721 36.6884 138.364 37.2983C139.007 37.9081 139.514 38.7003 139.885 39.6747C140.257 40.6425 140.442 41.8191 140.442 43.2045V44.2585H128.301V42.0312H137.529C137.529 41.2491 137.37 40.5563 137.051 39.9531C136.733 39.3433 136.286 38.8627 135.709 38.5114C135.139 38.16 134.47 37.9844 133.701 37.9844C132.865 37.9844 132.136 38.1899 131.513 38.6009C130.897 39.0052 130.419 39.5355 130.081 40.1918C129.75 40.8414 129.584 41.5473 129.584 42.3097V44.0497C129.584 45.0705 129.763 45.9389 130.121 46.6548C130.486 47.3707 130.993 47.9176 131.642 48.2955C132.292 48.6667 133.051 48.8523 133.919 48.8523C134.483 48.8523 134.997 48.7727 135.461 48.6136C135.925 48.4479 136.326 48.2027 136.664 47.8778C137.002 47.553 137.26 47.152 137.439 46.6747L140.253 47.1818C140.028 48.0104 139.623 48.7363 139.04 49.3594C138.463 49.9759 137.738 50.4564 136.863 50.8011C135.994 51.1392 135.003 51.3082 133.89 51.3082ZM150.174 51.3082C148.696 51.3082 147.423 50.9735 146.356 50.304C145.295 49.6278 144.48 48.6965 143.91 47.5099C143.34 46.3234 143.055 44.9645 143.055 43.4332C143.055 41.8821 143.346 40.5133 143.93 39.3267C144.513 38.1335 145.335 37.2022 146.396 36.5327C147.456 35.8632 148.706 35.5284 150.144 35.5284C151.304 35.5284 152.338 35.7438 153.246 36.1747C154.155 36.599 154.887 37.1955 155.444 37.9645C156.007 38.7334 156.342 39.6316 156.448 40.6591H153.555C153.396 39.9432 153.031 39.3267 152.461 38.8097C151.897 38.2926 151.142 38.0341 150.194 38.0341C149.365 38.0341 148.639 38.2528 148.016 38.6903C147.4 39.1212 146.919 39.7377 146.575 40.5398C146.23 41.3352 146.058 42.2765 146.058 43.3636C146.058 44.4773 146.227 45.4384 146.565 46.2472C146.903 47.0559 147.38 47.6823 147.996 48.1264C148.62 48.5705 149.352 48.7926 150.194 48.7926C150.757 48.7926 151.268 48.6899 151.725 48.4844C152.189 48.2723 152.577 47.9706 152.888 47.5795C153.207 47.1884 153.429 46.7178 153.555 46.1676H156.448C156.342 47.1553 156.021 48.0369 155.484 48.8125C154.947 49.5881 154.228 50.1979 153.326 50.642C152.431 51.0862 151.38 51.3082 150.174 51.3082ZM166.757 35.7273V38.1136H158.414V35.7273H166.757ZM160.652 32.0682H163.625V46.5156C163.625 47.0923 163.711 47.5265 163.883 47.8182C164.056 48.1032 164.278 48.2988 164.549 48.4048C164.828 48.5043 165.129 48.554 165.454 48.554C165.693 48.554 165.902 48.5374 166.081 48.5043C166.26 48.4711 166.399 48.4446 166.498 48.4247L167.035 50.8807C166.863 50.947 166.618 51.0133 166.299 51.0795C165.981 51.1525 165.583 51.1922 165.106 51.1989C164.324 51.2121 163.595 51.0729 162.919 50.7812C162.243 50.4896 161.696 50.0388 161.278 49.429C160.86 48.8191 160.652 48.0535 160.652 47.1321V32.0682ZM170.045 51V35.7273H173.018V51H170.045ZM171.547 33.3707C171.03 33.3707 170.586 33.1984 170.214 32.8537C169.85 32.5024 169.668 32.0848 169.668 31.6009C169.668 31.1103 169.85 30.6927 170.214 30.348C170.586 29.9967 171.03 29.821 171.547 29.821C172.064 29.821 172.505 29.9967 172.869 30.348C173.241 30.6927 173.426 31.1103 173.426 31.6009C173.426 32.0848 173.241 32.5024 172.869 32.8537C172.505 33.1984 172.064 33.3707 171.547 33.3707ZM183.451 51.3082C182.02 51.3082 180.77 50.9801 179.703 50.3239C178.636 49.6676 177.807 48.7495 177.217 47.5696C176.627 46.3897 176.332 45.0109 176.332 43.4332C176.332 41.849 176.627 40.4635 177.217 39.277C177.807 38.0904 178.636 37.169 179.703 36.5128C180.77 35.8565 182.02 35.5284 183.451 35.5284C184.883 35.5284 186.133 35.8565 187.2 36.5128C188.267 37.169 189.096 38.0904 189.686 39.277C190.276 40.4635 190.571 41.849 190.571 43.4332C190.571 45.0109 190.276 46.3897 189.686 47.5696C189.096 48.7495 188.267 49.6676 187.2 50.3239C186.133 50.9801 184.883 51.3082 183.451 51.3082ZM183.461 48.8125C184.389 48.8125 185.158 48.5672 185.768 48.0767C186.378 47.5862 186.829 46.9332 187.12 46.1179C187.419 45.3026 187.568 44.4044 187.568 43.4233C187.568 42.4489 187.419 41.554 187.12 40.7386C186.829 39.9167 186.378 39.2571 185.768 38.7599C185.158 38.2628 184.389 38.0142 183.461 38.0142C182.527 38.0142 181.751 38.2628 181.135 38.7599C180.525 39.2571 180.071 39.9167 179.772 40.7386C179.481 41.554 179.335 42.4489 179.335 43.4233C179.335 44.4044 179.481 45.3026 179.772 46.1179C180.071 46.9332 180.525 47.5862 181.135 48.0767C181.751 48.5672 182.527 48.8125 183.461 48.8125ZM196.862 41.9318V51H193.889V35.7273H196.743V38.2131H196.932C197.283 37.4044 197.833 36.7547 198.582 36.2642C199.338 35.7737 200.289 35.5284 201.436 35.5284C202.477 35.5284 203.388 35.7472 204.17 36.1847C204.953 36.6155 205.559 37.2585 205.99 38.1136C206.421 38.9687 206.636 40.026 206.636 41.2855V51H203.663V41.6435C203.663 40.5365 203.375 39.6714 202.798 39.0483C202.222 38.4186 201.429 38.1037 200.422 38.1037C199.732 38.1037 199.119 38.2528 198.582 38.5511C198.052 38.8494 197.631 39.2869 197.32 39.8636C197.015 40.4337 196.862 41.1231 196.862 41.9318ZM223.96 51.2884C222.594 51.2884 221.418 51.0398 220.43 50.5426C219.449 50.0455 218.693 49.3693 218.163 48.5142C217.633 47.6525 217.368 46.678 217.368 45.5909C217.368 44.7623 217.54 44.0265 217.885 43.3835C218.229 42.7339 218.71 42.134 219.326 41.5838C219.943 41.0336 220.655 40.4801 221.464 39.9233L224.745 37.6065C225.302 37.242 225.736 36.8575 226.048 36.4531C226.359 36.0421 226.515 35.535 226.515 34.9318C226.515 34.4545 226.31 33.9972 225.899 33.5597C225.488 33.1222 224.938 32.9034 224.248 32.9034C223.771 32.9034 223.35 33.0194 222.985 33.2514C222.627 33.4834 222.346 33.7817 222.14 34.1463C221.941 34.5043 221.842 34.8821 221.842 35.2798C221.842 35.7438 221.968 36.2112 222.22 36.6818C222.478 37.1525 222.81 37.6397 223.214 38.1435C223.618 38.6406 224.043 39.1577 224.487 39.6946L233.943 51H230.582L222.757 41.8026C222.1 41.027 221.491 40.2978 220.927 39.6151C220.364 38.9257 219.906 38.2296 219.555 37.527C219.21 36.8177 219.038 36.0521 219.038 35.2301C219.038 34.2955 219.25 33.4669 219.674 32.7443C220.105 32.0152 220.705 31.4451 221.474 31.0341C222.243 30.6231 223.145 30.4176 224.179 30.4176C225.226 30.4176 226.124 30.6231 226.873 31.0341C227.629 31.4384 228.209 31.9787 228.613 32.6548C229.024 33.3243 229.23 34.0568 229.23 34.8523C229.23 35.8201 228.988 36.6752 228.504 37.4176C228.027 38.1534 227.367 38.8295 226.525 39.446L222.439 42.4588C221.643 43.0421 221.09 43.6188 220.778 44.1889C220.473 44.7524 220.321 45.1932 220.321 45.5114C220.321 46.0947 220.47 46.6349 220.768 47.1321C221.073 47.6293 221.497 48.027 222.041 48.3253C222.591 48.6236 223.234 48.7727 223.97 48.7727C224.725 48.7727 225.461 48.6103 226.177 48.2855C226.9 47.9541 227.553 47.4801 228.136 46.8636C228.726 46.2472 229.193 45.508 229.538 44.6463C229.883 43.7846 230.055 42.8201 230.055 41.7528H232.74C232.74 43.0653 232.591 44.1757 232.292 45.0838C231.994 45.9853 231.633 46.7211 231.208 47.2912C230.791 47.8546 230.396 48.2955 230.025 48.6136C229.906 48.7197 229.793 48.8258 229.687 48.9318C229.581 49.0379 229.468 49.1439 229.349 49.25C228.66 49.946 227.824 50.4598 226.843 50.7912C225.869 51.1226 224.908 51.2884 223.96 51.2884ZM25.233 67.2812V64.6364H40.9929V67.2812H34.6392V85H31.5767V67.2812H25.233ZM42.6509 85V69.7273H45.5245V72.1534H45.6836C45.962 71.3314 46.4525 70.6851 47.1552 70.2145C47.8645 69.7372 48.6665 69.4986 49.5614 69.4986C49.747 69.4986 49.9658 69.5052 50.2177 69.5185C50.4762 69.5317 50.6784 69.5483 50.8242 69.5682V72.4119C50.7049 72.3788 50.4928 72.3423 50.1879 72.3026C49.8829 72.2562 49.578 72.233 49.2731 72.233C48.5704 72.233 47.944 72.3821 47.3938 72.6804C46.8503 72.9721 46.4194 73.3797 46.1012 73.9034C45.783 74.4205 45.6239 75.0104 45.6239 75.6733V85H42.6509ZM57.7049 85.3381C56.7371 85.3381 55.8621 85.1591 55.0799 84.8011C54.2977 84.4366 53.6779 83.9096 53.2205 83.2202C52.7698 82.5308 52.5444 81.6856 52.5444 80.6847C52.5444 79.8229 52.7101 79.1136 53.0415 78.5568C53.373 78 53.8204 77.5592 54.3839 77.2344C54.9473 76.9096 55.5771 76.6643 56.2731 76.4986C56.9691 76.3329 57.6784 76.2069 58.4009 76.1207C59.3157 76.0147 60.0581 75.9285 60.6282 75.8622C61.1983 75.7893 61.6126 75.6733 61.8711 75.5142C62.1296 75.3551 62.2589 75.0966 62.2589 74.7386V74.669C62.2589 73.8007 62.0136 73.1278 61.5231 72.6506C61.0392 72.1733 60.3166 71.9347 59.3555 71.9347C58.3545 71.9347 57.5657 72.1567 56.989 72.6009C56.4189 73.0384 56.0245 73.5256 55.8058 74.0625L53.0117 73.4261C53.3432 72.4981 53.8271 71.7491 54.4634 71.179C55.1064 70.6023 55.8455 70.1847 56.6808 69.9261C57.516 69.661 58.3943 69.5284 59.3157 69.5284C59.9255 69.5284 60.5719 69.6013 61.2546 69.7472C61.944 69.8864 62.587 70.1449 63.1836 70.5227C63.7868 70.9006 64.2807 71.4408 64.6651 72.1435C65.0496 72.8395 65.2418 73.7443 65.2418 74.858V85H62.3384V82.9119H62.2191C62.0269 83.2964 61.7385 83.6742 61.354 84.0455C60.9696 84.4167 60.4757 84.7249 59.8725 84.9702C59.2693 85.2154 58.5468 85.3381 57.7049 85.3381ZM58.3512 82.9517C59.1732 82.9517 59.8758 82.7893 60.4592 82.4645C61.0491 82.1397 61.4966 81.7154 61.8015 81.1918C62.113 80.6615 62.2688 80.0947 62.2688 79.4915V77.5227C62.1628 77.6288 61.9573 77.7282 61.6523 77.821C61.354 77.9072 61.0127 77.9834 60.6282 78.0497C60.2437 78.1094 59.8692 78.1657 59.5046 78.2188C59.14 78.2652 58.8351 78.3049 58.5898 78.3381C58.0131 78.411 57.4862 78.5336 57.0089 78.706C56.5382 78.8783 56.1604 79.1269 55.8754 79.4517C55.5969 79.7699 55.4577 80.1941 55.4577 80.7244C55.4577 81.4602 55.7295 82.017 56.2731 82.3949C56.8166 82.7661 57.5094 82.9517 58.3512 82.9517ZM75.6349 85.3082C74.1567 85.3082 72.884 84.9735 71.8168 84.304C70.7562 83.6278 69.9408 82.6965 69.3707 81.5099C68.8007 80.3234 68.5156 78.9645 68.5156 77.4332C68.5156 75.8821 68.8073 74.5133 69.3906 73.3267C69.974 72.1335 70.7959 71.2022 71.8565 70.5327C72.9171 69.8632 74.1667 69.5284 75.6051 69.5284C76.7652 69.5284 77.7992 69.7438 78.7074 70.1747C79.6155 70.599 80.348 71.1955 80.9048 71.9645C81.4683 72.7334 81.803 73.6316 81.9091 74.6591H79.0156C78.8565 73.9432 78.492 73.3267 77.9219 72.8097C77.3584 72.2926 76.6027 72.0341 75.6548 72.0341C74.8262 72.0341 74.1004 72.2528 73.4773 72.6903C72.8608 73.1212 72.3802 73.7377 72.0355 74.5398C71.6908 75.3352 71.5185 76.2765 71.5185 77.3636C71.5185 78.4773 71.6875 79.4384 72.0256 80.2472C72.3636 81.0559 72.8409 81.6823 73.4574 82.1264C74.0805 82.5705 74.813 82.7926 75.6548 82.7926C76.2183 82.7926 76.7287 82.6899 77.1861 82.4844C77.6501 82.2723 78.0379 81.9706 78.3494 81.5795C78.6676 81.1884 78.8897 80.7178 79.0156 80.1676H81.9091C81.803 81.1553 81.4815 82.0369 80.9446 82.8125C80.4077 83.5881 79.6884 84.1979 78.7869 84.642C77.892 85.0862 76.8414 85.3082 75.6349 85.3082ZM87.8228 79.8196L87.8029 76.1903H88.32L94.4052 69.7273H97.9648L91.0245 77.0852H90.5572L87.8228 79.8196ZM85.0884 85V64.6364H88.0614V85H85.0884ZM94.7333 85L89.2646 77.7415L91.3129 75.6634L98.3825 85H94.7333ZM100.674 85V69.7273H103.647V85H100.674ZM102.176 67.3707C101.659 67.3707 101.215 67.1984 100.843 66.8537C100.479 66.5024 100.297 66.0848 100.297 65.6009C100.297 65.1103 100.479 64.6927 100.843 64.348C101.215 63.9967 101.659 63.821 102.176 63.821C102.693 63.821 103.134 63.9967 103.498 64.348C103.869 64.6927 104.055 65.1103 104.055 65.6009C104.055 66.0848 103.869 66.5024 103.498 66.8537C103.134 67.1984 102.693 67.3707 102.176 67.3707ZM110.62 75.9318V85H107.647V69.7273H110.501V72.2131H110.69C111.041 71.4044 111.591 70.7547 112.34 70.2642C113.096 69.7737 114.047 69.5284 115.194 69.5284C116.235 69.5284 117.146 69.7472 117.928 70.1847C118.71 70.6155 119.317 71.2585 119.748 72.1136C120.179 72.9687 120.394 74.026 120.394 75.2855V85H117.421V75.6435C117.421 74.5365 117.133 73.6714 116.556 73.0483C115.979 72.4186 115.187 72.1037 114.18 72.1037C113.49 72.1037 112.877 72.2528 112.34 72.5511C111.81 72.8494 111.389 73.2869 111.077 73.8636C110.772 74.4337 110.62 75.1231 110.62 75.9318ZM130.785 91.0455C129.572 91.0455 128.528 90.8864 127.653 90.5682C126.784 90.25 126.075 89.8291 125.525 89.3054C124.975 88.7817 124.564 88.2083 124.292 87.5852L126.847 86.5312C127.026 86.8229 127.265 87.1312 127.563 87.456C127.868 87.7874 128.279 88.0691 128.796 88.3011C129.32 88.5331 129.993 88.6491 130.815 88.6491C131.942 88.6491 132.873 88.3741 133.609 87.8239C134.344 87.2803 134.712 86.4119 134.712 85.2188V82.2159H134.523C134.344 82.5407 134.086 82.902 133.748 83.2997C133.416 83.6974 132.959 84.0421 132.376 84.3338C131.792 84.6255 131.033 84.7713 130.099 84.7713C128.892 84.7713 127.805 84.4896 126.837 83.9261C125.876 83.3561 125.114 82.5175 124.55 81.4105C123.994 80.2969 123.715 78.928 123.715 77.304C123.715 75.6799 123.99 74.2879 124.54 73.1278C125.097 71.9678 125.86 71.0795 126.827 70.4631C127.795 69.84 128.892 69.5284 130.119 69.5284C131.067 69.5284 131.832 69.6875 132.415 70.0057C132.999 70.3172 133.453 70.6818 133.778 71.0994C134.109 71.517 134.364 71.8849 134.543 72.2031H134.762V69.7273H137.675V85.3381C137.675 86.6506 137.371 87.7277 136.761 88.5696C136.151 89.4115 135.326 90.0346 134.285 90.4389C133.251 90.8433 132.084 91.0455 130.785 91.0455ZM130.755 82.3054C131.61 82.3054 132.333 82.1065 132.923 81.7088C133.519 81.3045 133.97 80.7277 134.275 79.9787C134.586 79.223 134.742 78.3182 134.742 77.2642C134.742 76.2367 134.59 75.3319 134.285 74.5497C133.98 73.7675 133.532 73.1577 132.942 72.7202C132.353 72.276 131.623 72.054 130.755 72.054C129.86 72.054 129.114 72.286 128.518 72.75C127.921 73.2074 127.47 73.8305 127.165 74.6193C126.867 75.4081 126.718 76.2898 126.718 77.2642C126.718 78.2652 126.871 79.1435 127.175 79.8991C127.48 80.6548 127.931 81.2448 128.528 81.669C129.131 82.0933 129.873 82.3054 130.755 82.3054Z" fill="white"/>
<path d="M26.1222 123.767H24.4602L29.267 110.676H30.9034L35.7102 123.767H34.0483L30.1364 112.747H30.0341L26.1222 123.767ZM26.7358 118.653H33.4347V120.06H26.7358V118.653ZM41.5334 123.972C40.6129 123.972 39.8203 123.754 39.1555 123.32C38.4908 122.885 37.9794 122.286 37.6214 121.523C37.2635 120.761 37.0845 119.889 37.0845 118.909C37.0845 117.912 37.2678 117.032 37.6342 116.269C38.005 115.502 38.5206 114.903 39.1811 114.473C39.8459 114.038 40.6214 113.821 41.5078 113.821C42.1982 113.821 42.8203 113.949 43.3743 114.205C43.9283 114.46 44.3821 114.818 44.7358 115.278C45.0895 115.739 45.3089 116.276 45.3942 116.889H43.8857C43.7706 116.442 43.5149 116.045 43.1186 115.7C42.7266 115.351 42.1982 115.176 41.5334 115.176C40.9453 115.176 40.4297 115.33 39.9865 115.636C39.5476 115.939 39.2045 116.367 38.9574 116.921C38.7145 117.471 38.593 118.117 38.593 118.858C38.593 119.617 38.7124 120.277 38.951 120.84C39.1939 121.402 39.5348 121.839 39.9737 122.15C40.4169 122.461 40.9368 122.617 41.5334 122.617C41.9254 122.617 42.2812 122.548 42.6009 122.412C42.9205 122.276 43.1911 122.08 43.4126 121.824C43.6342 121.568 43.7919 121.261 43.8857 120.903H45.3942C45.3089 121.483 45.098 122.005 44.7614 122.47C44.429 122.93 43.9879 123.296 43.4382 123.569C42.8928 123.837 42.2578 123.972 41.5334 123.972ZM51.5881 123.972C50.6676 123.972 49.875 123.754 49.2102 123.32C48.5455 122.885 48.0341 122.286 47.6761 121.523C47.3182 120.761 47.1392 119.889 47.1392 118.909C47.1392 117.912 47.3224 117.032 47.6889 116.269C48.0597 115.502 48.5753 114.903 49.2358 114.473C49.9006 114.038 50.6761 113.821 51.5625 113.821C52.2528 113.821 52.875 113.949 53.429 114.205C53.983 114.46 54.4368 114.818 54.7905 115.278C55.1442 115.739 55.3636 116.276 55.4489 116.889H53.9403C53.8253 116.442 53.5696 116.045 53.1733 115.7C52.7813 115.351 52.2528 115.176 51.5881 115.176C51 115.176 50.4844 115.33 50.0412 115.636C49.6023 115.939 49.2592 116.367 49.0121 116.921C48.7692 117.471 48.6477 118.117 48.6477 118.858C48.6477 119.617 48.767 120.277 49.0057 120.84C49.2486 121.402 49.5895 121.839 50.0284 122.15C50.4716 122.461 50.9915 122.617 51.5881 122.617C51.9801 122.617 52.3359 122.548 52.6555 122.412C52.9751 122.276 53.2457 122.08 53.4673 121.824C53.6889 121.568 53.8466 121.261 53.9403 120.903H55.4489C55.3636 121.483 55.1527 122.005 54.8161 122.47C54.4837 122.93 54.0426 123.296 53.4929 123.569C52.9474 123.837 52.3125 123.972 51.5881 123.972ZM61.7706 123.972C60.8246 123.972 60.0085 123.763 59.3224 123.345C58.6406 122.923 58.1143 122.335 57.7436 121.581C57.3771 120.822 57.1939 119.94 57.1939 118.935C57.1939 117.929 57.3771 117.043 57.7436 116.276C58.1143 115.504 58.63 114.903 59.2905 114.473C59.9553 114.038 60.7308 113.821 61.6172 113.821C62.1286 113.821 62.6335 113.906 63.1321 114.077C63.6307 114.247 64.0845 114.524 64.4936 114.908C64.9027 115.287 65.2287 115.79 65.4716 116.416C65.7145 117.043 65.8359 117.814 65.8359 118.73V119.369H58.2678V118.065H64.3018C64.3018 117.511 64.1911 117.017 63.9695 116.582C63.7521 116.148 63.4411 115.805 63.0362 115.553C62.6357 115.302 62.1626 115.176 61.6172 115.176C61.0163 115.176 60.4964 115.325 60.0575 115.624C59.6229 115.918 59.2884 116.301 59.054 116.774C58.8196 117.247 58.7024 117.754 58.7024 118.295V119.165C58.7024 119.906 58.8303 120.535 59.0859 121.05C59.3459 121.562 59.706 121.952 60.1662 122.22C60.6264 122.484 61.1612 122.617 61.7706 122.617C62.1669 122.617 62.5249 122.561 62.8445 122.45C63.1683 122.335 63.4474 122.165 63.6818 121.939C63.9162 121.709 64.0973 121.423 64.2251 121.082L65.6825 121.492C65.5291 121.986 65.2713 122.42 64.9091 122.795C64.5469 123.166 64.0994 123.456 63.5668 123.665C63.0341 123.869 62.4354 123.972 61.7706 123.972ZM68.1307 127.449V113.949H69.5881V115.509H69.767C69.8778 115.338 70.0313 115.121 70.2273 114.857C70.4276 114.588 70.7131 114.349 71.0838 114.141C71.4588 113.928 71.9659 113.821 72.6051 113.821C73.4318 113.821 74.1605 114.028 74.7912 114.441C75.4219 114.854 75.9141 115.44 76.2678 116.199C76.6214 116.957 76.7983 117.852 76.7983 118.884C76.7983 119.923 76.6214 120.825 76.2678 121.587C75.9141 122.346 75.424 122.934 74.7976 123.352C74.1712 123.765 73.4489 123.972 72.6307 123.972C72 123.972 71.495 123.867 71.1158 123.658C70.7365 123.445 70.4446 123.205 70.2401 122.936C70.0355 122.663 69.8778 122.438 69.767 122.259H69.6392V127.449H68.1307ZM69.6136 118.858C69.6136 119.599 69.7223 120.254 69.9396 120.82C70.157 121.383 70.4744 121.824 70.892 122.144C71.3097 122.459 71.821 122.617 72.4261 122.617C73.0568 122.617 73.5831 122.45 74.005 122.118C74.4311 121.781 74.7507 121.33 74.9638 120.763C75.1811 120.192 75.2898 119.557 75.2898 118.858C75.2898 118.168 75.1832 117.545 74.9702 116.992C74.7614 116.433 74.4439 115.992 74.0178 115.668C73.5959 115.34 73.0653 115.176 72.4261 115.176C71.8125 115.176 71.2969 115.332 70.8793 115.643C70.4616 115.95 70.1463 116.38 69.9332 116.934C69.7202 117.484 69.6136 118.125 69.6136 118.858ZM83.3693 113.949V115.227H78.2812V113.949H83.3693ZM79.7642 111.597H81.2727V120.955C81.2727 121.381 81.3345 121.7 81.4581 121.913C81.5859 122.122 81.7479 122.263 81.9439 122.335C82.1442 122.403 82.3551 122.438 82.5767 122.438C82.7429 122.438 82.8793 122.429 82.9858 122.412C83.0923 122.391 83.1776 122.374 83.2415 122.361L83.5483 123.716C83.446 123.754 83.3033 123.793 83.12 123.831C82.9368 123.874 82.7045 123.895 82.4233 123.895C81.9972 123.895 81.5795 123.803 81.1705 123.62C80.7656 123.437 80.429 123.158 80.1605 122.783C79.8963 122.408 79.7642 121.935 79.7642 121.364V111.597ZM93.5902 123.997C92.968 123.997 92.4034 123.88 91.8963 123.646C91.3892 123.407 90.9865 123.064 90.6882 122.617C90.3899 122.165 90.2408 121.619 90.2408 120.98C90.2408 120.418 90.3516 119.962 90.5732 119.612C90.7947 119.259 91.0909 118.982 91.4616 118.781C91.8324 118.581 92.2415 118.432 92.6889 118.334C93.1406 118.232 93.5945 118.151 94.0504 118.091C94.647 118.014 95.1307 117.957 95.5014 117.918C95.8764 117.876 96.1491 117.805 96.3196 117.707C96.4943 117.609 96.5817 117.439 96.5817 117.196V117.145C96.5817 116.514 96.4091 116.024 96.0639 115.675C95.723 115.325 95.2053 115.151 94.5107 115.151C93.7905 115.151 93.2259 115.308 92.8168 115.624C92.4077 115.939 92.12 116.276 91.9538 116.634L90.522 116.122C90.7777 115.526 91.1186 115.061 91.5447 114.729C91.9751 114.392 92.4439 114.158 92.951 114.026C93.4624 113.889 93.9652 113.821 94.4595 113.821C94.7749 113.821 95.1371 113.859 95.5462 113.936C95.9595 114.009 96.358 114.16 96.7415 114.39C97.1293 114.62 97.451 114.967 97.7067 115.432C97.9624 115.896 98.0902 116.519 98.0902 117.298V123.767H96.5817V122.438H96.505C96.4027 122.651 96.2322 122.879 95.9936 123.121C95.755 123.364 95.4375 123.571 95.0412 123.742C94.6449 123.912 94.1612 123.997 93.5902 123.997ZM93.8203 122.642C94.4169 122.642 94.9197 122.525 95.3288 122.291C95.7422 122.056 96.0533 121.754 96.2621 121.383C96.4751 121.012 96.5817 120.622 96.5817 120.213V118.832C96.5178 118.909 96.3771 118.979 96.1598 119.043C95.9467 119.103 95.6996 119.156 95.4183 119.203C95.1413 119.246 94.8707 119.284 94.6065 119.318C94.3466 119.348 94.1357 119.374 93.9737 119.395C93.5817 119.446 93.2152 119.529 92.8743 119.644C92.5376 119.755 92.2649 119.923 92.0561 120.149C91.8516 120.371 91.7493 120.673 91.7493 121.057C91.7493 121.581 91.9432 121.977 92.331 122.246C92.723 122.51 93.2195 122.642 93.8203 122.642ZM102.352 117.861V123.767H100.844V113.949H102.301V115.483H102.429C102.659 114.984 103.008 114.584 103.477 114.281C103.946 113.974 104.551 113.821 105.292 113.821C105.957 113.821 106.539 113.957 107.037 114.23C107.536 114.499 107.924 114.908 108.201 115.457C108.478 116.003 108.616 116.693 108.616 117.528V123.767H107.108V117.631C107.108 116.859 106.907 116.259 106.507 115.828C106.106 115.394 105.557 115.176 104.858 115.176C104.376 115.176 103.946 115.281 103.567 115.489C103.192 115.698 102.895 116.003 102.678 116.403C102.461 116.804 102.352 117.29 102.352 117.861ZM115.08 123.972C114.262 123.972 113.54 123.765 112.913 123.352C112.287 122.934 111.797 122.346 111.443 121.587C111.089 120.825 110.913 119.923 110.913 118.884C110.913 117.852 111.089 116.957 111.443 116.199C111.797 115.44 112.289 114.854 112.92 114.441C113.55 114.028 114.279 113.821 115.106 113.821C115.745 113.821 116.25 113.928 116.621 114.141C116.996 114.349 117.281 114.588 117.477 114.857C117.678 115.121 117.833 115.338 117.944 115.509H118.072V110.676H119.58V123.767H118.123V122.259H117.944C117.833 122.438 117.675 122.663 117.471 122.936C117.266 123.205 116.974 123.445 116.595 123.658C116.216 123.867 115.711 123.972 115.08 123.972ZM115.285 122.617C115.89 122.617 116.401 122.459 116.819 122.144C117.237 121.824 117.554 121.383 117.771 120.82C117.989 120.254 118.097 119.599 118.097 118.858C118.097 118.125 117.991 117.484 117.778 116.934C117.565 116.38 117.249 115.95 116.832 115.643C116.414 115.332 115.898 115.176 115.285 115.176C114.646 115.176 114.113 115.34 113.687 115.668C113.265 115.992 112.947 116.433 112.734 116.992C112.526 117.545 112.421 118.168 112.421 118.858C112.421 119.557 112.528 120.192 112.741 120.763C112.958 121.33 113.278 121.781 113.7 122.118C114.126 122.45 114.654 122.617 115.285 122.617ZM131.885 113.949V115.227H126.797V113.949H131.885ZM128.28 111.597H129.788V120.955C129.788 121.381 129.85 121.7 129.974 121.913C130.102 122.122 130.263 122.263 130.46 122.335C130.66 122.403 130.871 122.438 131.092 122.438C131.259 122.438 131.395 122.429 131.501 122.412C131.608 122.391 131.693 122.374 131.757 122.361L132.064 123.716C131.962 123.754 131.819 123.793 131.636 123.831C131.452 123.874 131.22 123.895 130.939 123.895C130.513 123.895 130.095 123.803 129.686 123.62C129.281 123.437 128.945 123.158 128.676 122.783C128.412 122.408 128.28 121.935 128.28 121.364V111.597ZM134.154 123.767V113.949H135.612V115.432H135.714C135.893 114.946 136.217 114.552 136.685 114.249C137.154 113.947 137.683 113.795 138.271 113.795C138.381 113.795 138.52 113.798 138.686 113.802C138.852 113.806 138.978 113.813 139.063 113.821V115.355C139.012 115.342 138.895 115.323 138.712 115.298C138.533 115.268 138.343 115.253 138.143 115.253C137.665 115.253 137.239 115.353 136.864 115.553C136.494 115.749 136.2 116.022 135.982 116.371C135.769 116.717 135.663 117.111 135.663 117.554V123.767H134.154ZM143.741 123.997C143.118 123.997 142.554 123.88 142.047 123.646C141.54 123.407 141.137 123.064 140.839 122.617C140.54 122.165 140.391 121.619 140.391 120.98C140.391 120.418 140.502 119.962 140.724 119.612C140.945 119.259 141.241 118.982 141.612 118.781C141.983 118.581 142.392 118.432 142.839 118.334C143.291 118.232 143.745 118.151 144.201 118.091C144.797 118.014 145.281 117.957 145.652 117.918C146.027 117.876 146.3 117.805 146.47 117.707C146.645 117.609 146.732 117.439 146.732 117.196V117.145C146.732 116.514 146.559 116.024 146.214 115.675C145.873 115.325 145.356 115.151 144.661 115.151C143.941 115.151 143.376 115.308 142.967 115.624C142.558 115.939 142.27 116.276 142.104 116.634L140.672 116.122C140.928 115.526 141.269 115.061 141.695 114.729C142.126 114.392 142.594 114.158 143.101 114.026C143.613 113.889 144.116 113.821 144.61 113.821C144.925 113.821 145.287 113.859 145.697 113.936C146.11 114.009 146.508 114.16 146.892 114.39C147.28 114.62 147.601 114.967 147.857 115.432C148.113 115.896 148.241 116.519 148.241 117.298V123.767H146.732V122.438H146.655C146.553 122.651 146.383 122.879 146.144 123.121C145.905 123.364 145.588 123.571 145.192 123.742C144.795 123.912 144.312 123.997 143.741 123.997ZM143.971 122.642C144.567 122.642 145.07 122.525 145.479 122.291C145.893 122.056 146.204 121.754 146.412 121.383C146.626 121.012 146.732 120.622 146.732 120.213V118.832C146.668 118.909 146.528 118.979 146.31 119.043C146.097 119.103 145.85 119.156 145.569 119.203C145.292 119.246 145.021 119.284 144.757 119.318C144.497 119.348 144.286 119.374 144.124 119.395C143.732 119.446 143.366 119.529 143.025 119.644C142.688 119.755 142.415 119.923 142.206 120.149C142.002 120.371 141.9 120.673 141.9 121.057C141.9 121.581 142.094 121.977 142.481 122.246C142.873 122.51 143.37 122.642 143.971 122.642ZM154.983 123.972C154.062 123.972 153.27 123.754 152.605 123.32C151.94 122.885 151.429 122.286 151.071 121.523C150.713 120.761 150.534 119.889 150.534 118.909C150.534 117.912 150.717 117.032 151.083 116.269C151.454 115.502 151.97 114.903 152.63 114.473C153.295 114.038 154.071 113.821 154.957 113.821C155.647 113.821 156.27 113.949 156.824 114.205C157.377 114.46 157.831 114.818 158.185 115.278C158.539 115.739 158.758 116.276 158.843 116.889H157.335C157.22 116.442 156.964 116.045 156.568 115.7C156.176 115.351 155.647 115.176 154.983 115.176C154.395 115.176 153.879 115.33 153.436 115.636C152.997 115.939 152.654 116.367 152.407 116.921C152.164 117.471 152.042 118.117 152.042 118.858C152.042 119.617 152.162 120.277 152.4 120.84C152.643 121.402 152.984 121.839 153.423 122.15C153.866 122.461 154.386 122.617 154.983 122.617C155.375 122.617 155.73 122.548 156.05 122.412C156.37 122.276 156.64 122.08 156.862 121.824C157.083 121.568 157.241 121.261 157.335 120.903H158.843C158.758 121.483 158.547 122.005 158.211 122.47C157.878 122.93 157.437 123.296 156.887 123.569C156.342 123.837 155.707 123.972 154.983 123.972ZM162.455 120.188L162.429 118.321H162.736L167.032 113.949H168.898L164.321 118.577H164.194L162.455 120.188ZM161.049 123.767V110.676H162.557V123.767H161.049ZM167.287 123.767L163.452 118.909L164.526 117.861L169.205 123.767H167.287ZM180.172 113.949V115.227H175.084V113.949H180.172ZM176.567 111.597H178.075V120.955C178.075 121.381 178.137 121.7 178.261 121.913C178.389 122.122 178.551 122.263 178.747 122.335C178.947 122.403 179.158 122.438 179.379 122.438C179.546 122.438 179.682 122.429 179.789 122.412C179.895 122.391 179.98 122.374 180.044 122.361L180.351 123.716C180.249 123.754 180.106 123.793 179.923 123.831C179.74 123.874 179.507 123.895 179.226 123.895C178.8 123.895 178.382 123.803 177.973 123.62C177.568 123.437 177.232 123.158 176.963 122.783C176.699 122.408 176.567 121.935 176.567 121.364V111.597ZM182.441 123.767V113.949H183.95V123.767H182.441ZM183.208 112.313C182.914 112.313 182.661 112.212 182.448 112.012C182.239 111.812 182.134 111.571 182.134 111.29C182.134 111.009 182.239 110.768 182.448 110.568C182.661 110.367 182.914 110.267 183.208 110.267C183.502 110.267 183.754 110.367 183.963 110.568C184.176 110.768 184.282 111.009 184.282 111.29C184.282 111.571 184.176 111.812 183.963 112.012C183.754 112.212 183.502 112.313 183.208 112.313ZM186.713 127.449V113.949H188.17V115.509H188.349C188.46 115.338 188.613 115.121 188.809 114.857C189.01 114.588 189.295 114.349 189.666 114.141C190.041 113.928 190.548 113.821 191.187 113.821C192.014 113.821 192.743 114.028 193.373 114.441C194.004 114.854 194.496 115.44 194.85 116.199C195.203 116.957 195.38 117.852 195.38 118.884C195.38 119.923 195.203 120.825 194.85 121.587C194.496 122.346 194.006 122.934 193.38 123.352C192.753 123.765 192.031 123.972 191.213 123.972C190.582 123.972 190.077 123.867 189.698 123.658C189.319 123.445 189.027 123.205 188.822 122.936C188.618 122.663 188.46 122.438 188.349 122.259H188.221V127.449H186.713ZM188.196 118.858C188.196 119.599 188.304 120.254 188.522 120.82C188.739 121.383 189.056 121.824 189.474 122.144C189.892 122.459 190.403 122.617 191.008 122.617C191.639 122.617 192.165 122.45 192.587 122.118C193.013 121.781 193.333 121.33 193.546 120.763C193.763 120.192 193.872 119.557 193.872 118.858C193.872 118.168 193.765 117.545 193.552 116.992C193.343 116.433 193.026 115.992 192.6 115.668C192.178 115.34 191.647 115.176 191.008 115.176C190.395 115.176 189.879 115.332 189.461 115.643C189.044 115.95 188.728 116.38 188.515 116.934C188.302 117.484 188.196 118.125 188.196 118.858ZM204.636 116.148L203.281 116.531C203.196 116.305 203.07 116.086 202.904 115.873C202.742 115.656 202.52 115.477 202.239 115.336C201.958 115.195 201.598 115.125 201.159 115.125C200.558 115.125 200.057 115.264 199.657 115.541C199.26 115.813 199.062 116.161 199.062 116.582C199.062 116.957 199.199 117.254 199.471 117.471C199.744 117.688 200.17 117.869 200.75 118.014L202.207 118.372C203.085 118.585 203.739 118.911 204.169 119.35C204.6 119.785 204.815 120.345 204.815 121.031C204.815 121.594 204.653 122.097 204.329 122.54C204.01 122.983 203.562 123.332 202.987 123.588C202.412 123.844 201.743 123.972 200.98 123.972C199.978 123.972 199.15 123.754 198.493 123.32C197.837 122.885 197.422 122.25 197.247 121.415L198.679 121.057C198.815 121.585 199.073 121.982 199.452 122.246C199.836 122.51 200.336 122.642 200.954 122.642C201.657 122.642 202.216 122.493 202.629 122.195C203.047 121.892 203.255 121.53 203.255 121.108C203.255 120.767 203.136 120.482 202.897 120.251C202.659 120.017 202.292 119.842 201.798 119.727L200.162 119.344C199.262 119.131 198.602 118.8 198.18 118.353C197.762 117.901 197.554 117.337 197.554 116.659C197.554 116.105 197.709 115.615 198.02 115.189C198.336 114.763 198.764 114.428 199.305 114.185C199.85 113.943 200.468 113.821 201.159 113.821C202.13 113.821 202.893 114.034 203.447 114.46C204.005 114.886 204.402 115.449 204.636 116.148ZM214.373 123.767L211.381 113.949H212.966L215.089 121.466H215.191L217.287 113.949H218.898L220.969 121.44H221.072L223.194 113.949H224.779L221.787 123.767H220.305L218.157 116.224H218.003L215.856 123.767H214.373ZM226.773 123.767V113.949H228.282V123.767H226.773ZM227.54 112.313C227.246 112.313 226.993 112.212 226.78 112.012C226.571 111.812 226.466 111.571 226.466 111.29C226.466 111.009 226.571 110.768 226.78 110.568C226.993 110.367 227.246 110.267 227.54 110.267C227.834 110.267 228.086 110.367 228.295 110.568C228.508 110.768 228.614 111.009 228.614 111.29C228.614 111.571 228.508 111.812 228.295 112.012C228.086 112.212 227.834 112.313 227.54 112.313ZM235.315 113.949V115.227H230.227V113.949H235.315ZM231.71 111.597H233.218V120.955C233.218 121.381 233.28 121.7 233.403 121.913C233.531 122.122 233.693 122.263 233.889 122.335C234.089 122.403 234.3 122.438 234.522 122.438C234.688 122.438 234.825 122.429 234.931 122.412C235.038 122.391 235.123 122.374 235.187 122.361L235.494 123.716C235.391 123.754 235.249 123.793 235.065 123.831C234.882 123.874 234.65 123.895 234.369 123.895C233.942 123.895 233.525 123.803 233.116 123.62C232.711 123.437 232.374 123.158 232.106 122.783C231.842 122.408 231.71 121.935 231.71 121.364V111.597ZM239.303 117.861V123.767H237.795V110.676H239.303V115.483H239.431C239.661 114.976 240.006 114.573 240.467 114.275C240.931 113.972 241.549 113.821 242.32 113.821C242.989 113.821 243.575 113.955 244.078 114.224C244.581 114.488 244.971 114.895 245.248 115.445C245.529 115.99 245.67 116.685 245.67 117.528V123.767H244.161V117.631C244.161 116.851 243.959 116.248 243.554 115.822C243.153 115.391 242.597 115.176 241.886 115.176C241.391 115.176 240.948 115.281 240.556 115.489C240.168 115.698 239.862 116.003 239.636 116.403C239.414 116.804 239.303 117.29 239.303 117.861ZM29.0881 145.972C28.2699 145.972 27.5476 145.765 26.9212 145.352C26.2947 144.934 25.8047 144.346 25.451 143.587C25.0973 142.825 24.9205 141.923 24.9205 140.884C24.9205 139.852 25.0973 138.957 25.451 138.199C25.8047 137.44 26.2969 136.854 26.9276 136.441C27.5582 136.028 28.2869 135.821 29.1136 135.821C29.7528 135.821 30.2578 135.928 30.6286 136.141C31.0036 136.349 31.2891 136.588 31.4851 136.857C31.6854 137.121 31.8409 137.338 31.9517 137.509H32.0795V132.676H33.5881V145.767H32.1307V144.259H31.9517C31.8409 144.438 31.6832 144.663 31.4787 144.936C31.2741 145.205 30.9822 145.445 30.603 145.658C30.2237 145.867 29.7188 145.972 29.0881 145.972ZM29.2926 144.617C29.8977 144.617 30.4091 144.459 30.8267 144.144C31.2443 143.824 31.5618 143.383 31.7791 142.82C31.9964 142.254 32.1051 141.599 32.1051 140.858C32.1051 140.125 31.9986 139.484 31.7855 138.934C31.5724 138.38 31.2571 137.95 30.8395 137.643C30.4219 137.332 29.9063 137.176 29.2926 137.176C28.6534 137.176 28.1207 137.34 27.6946 137.668C27.2727 137.992 26.9553 138.433 26.7422 138.992C26.5334 139.545 26.429 140.168 26.429 140.858C26.429 141.557 26.5355 142.192 26.7486 142.763C26.9659 143.33 27.2855 143.781 27.7074 144.118C28.1335 144.45 28.6619 144.617 29.2926 144.617ZM40.6768 145.972C39.7308 145.972 38.9148 145.763 38.2287 145.345C37.5469 144.923 37.0206 144.335 36.6499 143.581C36.2834 142.822 36.1001 141.94 36.1001 140.935C36.1001 139.929 36.2834 139.043 36.6499 138.276C37.0206 137.504 37.5362 136.903 38.1967 136.473C38.8615 136.038 39.6371 135.821 40.5234 135.821C41.0348 135.821 41.5398 135.906 42.0384 136.077C42.5369 136.247 42.9908 136.524 43.3999 136.908C43.8089 137.287 44.1349 137.79 44.3778 138.416C44.6207 139.043 44.7422 139.814 44.7422 140.73V141.369H37.174V140.065H43.2081C43.2081 139.511 43.0973 139.017 42.8757 138.582C42.6584 138.148 42.3473 137.805 41.9425 137.553C41.5419 137.302 41.0689 137.176 40.5234 137.176C39.9226 137.176 39.4027 137.325 38.9638 137.624C38.5291 137.918 38.1946 138.301 37.9602 138.774C37.7259 139.247 37.6087 139.754 37.6087 140.295V141.165C37.6087 141.906 37.7365 142.535 37.9922 143.05C38.2521 143.562 38.6122 143.952 39.0724 144.22C39.5327 144.484 40.0675 144.617 40.6768 144.617C41.0732 144.617 41.4311 144.561 41.7507 144.45C42.0746 144.335 42.3537 144.165 42.5881 143.939C42.8224 143.709 43.0036 143.423 43.1314 143.082L44.5888 143.492C44.4354 143.986 44.1776 144.42 43.8153 144.795C43.4531 145.166 43.0057 145.456 42.473 145.665C41.9403 145.869 41.3416 145.972 40.6768 145.972ZM51.3068 135.949V137.227H46.2188V135.949H51.3068ZM47.7017 133.597H49.2102V142.955C49.2102 143.381 49.272 143.7 49.3956 143.913C49.5234 144.122 49.6854 144.263 49.8814 144.335C50.0817 144.403 50.2926 144.438 50.5142 144.438C50.6804 144.438 50.8168 144.429 50.9233 144.412C51.0298 144.391 51.1151 144.374 51.179 144.361L51.4858 145.716C51.3835 145.754 51.2408 145.793 51.0575 145.831C50.8743 145.874 50.642 145.895 50.3608 145.895C49.9347 145.895 49.517 145.803 49.108 145.62C48.7031 145.437 48.3665 145.158 48.098 144.783C47.8338 144.408 47.7017 143.935 47.7017 143.364V133.597ZM56.4652 145.997C55.843 145.997 55.2784 145.88 54.7713 145.646C54.2642 145.407 53.8615 145.064 53.5632 144.617C53.2649 144.165 53.1158 143.619 53.1158 142.98C53.1158 142.418 53.2266 141.962 53.4482 141.612C53.6697 141.259 53.9659 140.982 54.3366 140.781C54.7074 140.581 55.1165 140.432 55.5639 140.334C56.0156 140.232 56.4695 140.151 56.9254 140.091C57.522 140.014 58.0057 139.957 58.3764 139.918C58.7514 139.876 59.0241 139.805 59.1946 139.707C59.3693 139.609 59.4567 139.439 59.4567 139.196V139.145C59.4567 138.514 59.2841 138.024 58.9389 137.675C58.598 137.325 58.0803 137.151 57.3857 137.151C56.6655 137.151 56.1009 137.308 55.6918 137.624C55.2827 137.939 54.995 138.276 54.8288 138.634L53.397 138.122C53.6527 137.526 53.9936 137.061 54.4197 136.729C54.8501 136.392 55.3189 136.158 55.826 136.026C56.3374 135.889 56.8402 135.821 57.3345 135.821C57.6499 135.821 58.0121 135.859 58.4212 135.936C58.8345 136.009 59.233 136.16 59.6165 136.39C60.0043 136.62 60.326 136.967 60.5817 137.432C60.8374 137.896 60.9652 138.519 60.9652 139.298V145.767H59.4567V144.438H59.38C59.2777 144.651 59.1072 144.879 58.8686 145.121C58.63 145.364 58.3125 145.571 57.9162 145.742C57.5199 145.912 57.0362 145.997 56.4652 145.997ZM56.6953 144.642C57.2919 144.642 57.7947 144.525 58.2038 144.291C58.6172 144.056 58.9283 143.754 59.1371 143.383C59.3501 143.012 59.4567 142.622 59.4567 142.213V140.832C59.3928 140.909 59.2521 140.979 59.0348 141.043C58.8217 141.103 58.5746 141.156 58.2933 141.203C58.0163 141.246 57.7457 141.284 57.4815 141.318C57.2216 141.348 57.0107 141.374 56.8487 141.395C56.4567 141.446 56.0902 141.529 55.7493 141.644C55.4126 141.755 55.1399 141.923 54.9311 142.149C54.7266 142.371 54.6243 142.673 54.6243 143.057C54.6243 143.581 54.8182 143.977 55.206 144.246C55.598 144.51 56.0945 144.642 56.6953 144.642ZM63.7186 145.767V135.949H65.2271V145.767H63.7186ZM64.4856 134.313C64.1916 134.313 63.938 134.212 63.725 134.012C63.5162 133.812 63.4118 133.571 63.4118 133.29C63.4118 133.009 63.5162 132.768 63.725 132.568C63.938 132.367 64.1916 132.267 64.4856 132.267C64.7797 132.267 65.0311 132.367 65.2399 132.568C65.4529 132.768 65.5595 133.009 65.5595 133.29C65.5595 133.571 65.4529 133.812 65.2399 134.012C65.0311 134.212 64.7797 134.313 64.4856 134.313ZM69.4986 132.676V145.767H67.9901V132.676H69.4986ZM76.378 145.972C75.432 145.972 74.6159 145.763 73.9299 145.345C73.248 144.923 72.7218 144.335 72.351 143.581C71.9846 142.822 71.8013 141.94 71.8013 140.935C71.8013 139.929 71.9846 139.043 72.351 138.276C72.7218 137.504 73.2374 136.903 73.8979 136.473C74.5627 136.038 75.3382 135.821 76.2246 135.821C76.736 135.821 77.2409 135.906 77.7395 136.077C78.2381 136.247 78.6919 136.524 79.101 136.908C79.5101 137.287 79.8361 137.79 80.079 138.416C80.3219 139.043 80.4434 139.814 80.4434 140.73V141.369H72.8752V140.065H78.9093C78.9093 139.511 78.7985 139.017 78.5769 138.582C78.3596 138.148 78.0485 137.805 77.6436 137.553C77.2431 137.302 76.7701 137.176 76.2246 137.176C75.6238 137.176 75.1039 137.325 74.665 137.624C74.2303 137.918 73.8958 138.301 73.6614 138.774C73.427 139.247 73.3098 139.754 73.3098 140.295V141.165C73.3098 141.906 73.4377 142.535 73.6934 143.05C73.9533 143.562 74.3134 143.952 74.7736 144.22C75.2338 144.484 75.7686 144.617 76.378 144.617C76.7743 144.617 77.1323 144.561 77.4519 144.45C77.7757 144.335 78.0549 144.165 78.2892 143.939C78.5236 143.709 78.7047 143.423 78.8326 143.082L80.29 143.492C80.1365 143.986 79.8787 144.42 79.5165 144.795C79.1543 145.166 78.7069 145.456 78.1742 145.665C77.6415 145.869 77.0428 145.972 76.378 145.972ZM86.4455 145.972C85.6273 145.972 84.905 145.765 84.2786 145.352C83.6522 144.934 83.1621 144.346 82.8084 143.587C82.4547 142.825 82.2779 141.923 82.2779 140.884C82.2779 139.852 82.4547 138.957 82.8084 138.199C83.1621 137.44 83.6543 136.854 84.285 136.441C84.9157 136.028 85.6444 135.821 86.4711 135.821C87.1103 135.821 87.6152 135.928 87.986 136.141C88.361 136.349 88.6465 136.588 88.8425 136.857C89.0428 137.121 89.1983 137.338 89.3091 137.509H89.437V132.676H90.9455V145.767H89.4881V144.259H89.3091C89.1983 144.438 89.0407 144.663 88.8361 144.936C88.6316 145.205 88.3397 145.445 87.9604 145.658C87.5811 145.867 87.0762 145.972 86.4455 145.972ZM86.65 144.617C87.2551 144.617 87.7665 144.459 88.1841 144.144C88.6017 143.824 88.9192 143.383 89.1365 142.82C89.3539 142.254 89.4625 141.599 89.4625 140.858C89.4625 140.125 89.356 139.484 89.1429 138.934C88.9299 138.38 88.6145 137.95 88.1969 137.643C87.7793 137.332 87.2637 137.176 86.65 137.176C86.0108 137.176 85.4782 137.34 85.052 137.668C84.6301 137.992 84.3127 138.433 84.0996 138.992C83.8908 139.545 83.7864 140.168 83.7864 140.858C83.7864 141.557 83.8929 142.192 84.106 142.763C84.3233 143.33 84.6429 143.781 85.0648 144.118C85.4909 144.45 86.0194 144.617 86.65 144.617ZM101.869 145.997C101.247 145.997 100.683 145.88 100.176 145.646C99.6685 145.407 99.2658 145.064 98.9675 144.617C98.6692 144.165 98.5201 143.619 98.5201 142.98C98.5201 142.418 98.6309 141.962 98.8525 141.612C99.074 141.259 99.3702 140.982 99.7409 140.781C100.112 140.581 100.521 140.432 100.968 140.334C101.42 140.232 101.874 140.151 102.33 140.091C102.926 140.014 103.41 139.957 103.781 139.918C104.156 139.876 104.428 139.805 104.599 139.707C104.774 139.609 104.861 139.439 104.861 139.196V139.145C104.861 138.514 104.688 138.024 104.343 137.675C104.002 137.325 103.485 137.151 102.79 137.151C102.07 137.151 101.505 137.308 101.096 137.624C100.687 137.939 100.399 138.276 100.233 138.634L98.8013 138.122C99.057 137.526 99.3979 137.061 99.824 136.729C100.254 136.392 100.723 136.158 101.23 136.026C101.742 135.889 102.244 135.821 102.739 135.821C103.054 135.821 103.416 135.859 103.825 135.936C104.239 136.009 104.637 136.16 105.021 136.39C105.409 136.62 105.73 136.967 105.986 137.432C106.242 137.896 106.369 138.519 106.369 139.298V145.767H104.861V144.438H104.784C104.682 144.651 104.512 144.879 104.273 145.121C104.034 145.364 103.717 145.571 103.32 145.742C102.924 145.912 102.441 145.997 101.869 145.997ZM102.1 144.642C102.696 144.642 103.199 144.525 103.608 144.291C104.021 144.056 104.333 143.754 104.541 143.383C104.754 143.012 104.861 142.622 104.861 142.213V140.832C104.797 140.909 104.656 140.979 104.439 141.043C104.226 141.103 103.979 141.156 103.698 141.203C103.421 141.246 103.15 141.284 102.886 141.318C102.626 141.348 102.415 141.374 102.253 141.395C101.861 141.446 101.494 141.529 101.154 141.644C100.817 141.755 100.544 141.923 100.335 142.149C100.131 142.371 100.029 142.673 100.029 143.057C100.029 143.581 100.222 143.977 100.61 144.246C101.002 144.51 101.499 144.642 102.1 144.642ZM113.393 135.949V137.227H108.305V135.949H113.393ZM109.788 133.597H111.296V142.955C111.296 143.381 111.358 143.7 111.482 143.913C111.609 144.122 111.771 144.263 111.967 144.335C112.168 144.403 112.379 144.438 112.6 144.438C112.766 144.438 112.903 144.429 113.009 144.412C113.116 144.391 113.201 144.374 113.265 144.361L113.572 145.716C113.469 145.754 113.327 145.793 113.143 145.831C112.96 145.874 112.728 145.895 112.447 145.895C112.021 145.895 111.603 145.803 111.194 145.62C110.789 145.437 110.452 145.158 110.184 144.783C109.92 144.408 109.788 143.935 109.788 143.364V133.597ZM119.932 135.949V137.227H114.844V135.949H119.932ZM116.327 133.597H117.835V142.955C117.835 143.381 117.897 143.7 118.021 143.913C118.148 144.122 118.31 144.263 118.506 144.335C118.707 144.403 118.918 144.438 119.139 144.438C119.305 144.438 119.442 144.429 119.548 144.412C119.655 144.391 119.74 144.374 119.804 144.361L120.111 145.716C120.009 145.754 119.866 145.793 119.683 145.831C119.499 145.874 119.267 145.895 118.986 145.895C118.56 145.895 118.142 145.803 117.733 145.62C117.328 145.437 116.991 145.158 116.723 144.783C116.459 144.408 116.327 143.935 116.327 143.364V133.597ZM122.201 145.767V135.949H123.658V137.432H123.761C123.94 136.946 124.263 136.552 124.732 136.249C125.201 135.947 125.729 135.795 126.317 135.795C126.428 135.795 126.567 135.798 126.733 135.802C126.899 135.806 127.025 135.813 127.11 135.821V137.355C127.059 137.342 126.942 137.323 126.759 137.298C126.58 137.268 126.39 137.253 126.19 137.253C125.712 137.253 125.286 137.353 124.911 137.553C124.54 137.749 124.246 138.022 124.029 138.371C123.816 138.717 123.71 139.111 123.71 139.554V145.767H122.201ZM128.898 145.767V135.949H130.407V145.767H128.898ZM129.665 134.313C129.371 134.313 129.118 134.212 128.905 134.012C128.696 133.812 128.591 133.571 128.591 133.29C128.591 133.009 128.696 132.768 128.905 132.568C129.118 132.367 129.371 132.267 129.665 132.267C129.959 132.267 130.211 132.367 130.42 132.568C130.633 132.768 130.739 133.009 130.739 133.29C130.739 133.571 130.633 133.812 130.42 134.012C130.211 134.212 129.959 134.313 129.665 134.313ZM133.374 145.767V132.676H134.883V137.509H135.011C135.121 137.338 135.275 137.121 135.471 136.857C135.671 136.588 135.957 136.349 136.327 136.141C136.702 135.928 137.21 135.821 137.849 135.821C138.675 135.821 139.404 136.028 140.035 136.441C140.665 136.854 141.158 137.44 141.511 138.199C141.865 138.957 142.042 139.852 142.042 140.884C142.042 141.923 141.865 142.825 141.511 143.587C141.158 144.346 140.668 144.934 140.041 145.352C139.415 145.765 138.692 145.972 137.874 145.972C137.244 145.972 136.739 145.867 136.359 145.658C135.98 145.445 135.688 145.205 135.484 144.936C135.279 144.663 135.121 144.438 135.011 144.259H134.832V145.767H133.374ZM134.857 140.858C134.857 141.599 134.966 142.254 135.183 142.82C135.401 143.383 135.718 143.824 136.136 144.144C136.553 144.459 137.065 144.617 137.67 144.617C138.3 144.617 138.827 144.45 139.249 144.118C139.675 143.781 139.994 143.33 140.207 142.763C140.425 142.192 140.533 141.557 140.533 140.858C140.533 140.168 140.427 139.545 140.214 138.992C140.005 138.433 139.688 137.992 139.261 137.668C138.839 137.34 138.309 137.176 137.67 137.176C137.056 137.176 136.54 137.332 136.123 137.643C135.705 137.95 135.39 138.38 135.177 138.934C134.964 139.484 134.857 140.125 134.857 140.858ZM150.537 141.753V135.949H152.045V145.767H150.537V144.105H150.435C150.205 144.604 149.847 145.028 149.361 145.377C148.875 145.722 148.261 145.895 147.52 145.895C146.906 145.895 146.361 145.761 145.884 145.492C145.406 145.22 145.031 144.81 144.759 144.265C144.486 143.715 144.349 143.023 144.349 142.188V135.949H145.858V142.085C145.858 142.801 146.058 143.372 146.459 143.798C146.864 144.224 147.379 144.438 148.006 144.438C148.381 144.438 148.762 144.342 149.15 144.15C149.542 143.958 149.87 143.664 150.134 143.268C150.403 142.871 150.537 142.367 150.537 141.753ZM159.078 135.949V137.227H153.99V135.949H159.078ZM155.473 133.597H156.982V142.955C156.982 143.381 157.044 143.7 157.167 143.913C157.295 144.122 157.457 144.263 157.653 144.335C157.853 144.403 158.064 144.438 158.286 144.438C158.452 144.438 158.588 144.429 158.695 144.412C158.801 144.391 158.887 144.374 158.95 144.361L159.257 145.716C159.155 145.754 159.012 145.793 158.829 145.831C158.646 145.874 158.414 145.895 158.132 145.895C157.706 145.895 157.289 145.803 156.879 145.62C156.475 145.437 156.138 145.158 155.869 144.783C155.605 144.408 155.473 143.935 155.473 143.364V133.597ZM161.347 145.767V135.949H162.856V145.767H161.347ZM162.115 134.313C161.82 134.313 161.567 134.212 161.354 134.012C161.145 133.812 161.041 133.571 161.041 133.29C161.041 133.009 161.145 132.768 161.354 132.568C161.567 132.367 161.82 132.267 162.115 132.267C162.409 132.267 162.66 132.367 162.869 132.568C163.082 132.768 163.188 133.009 163.188 133.29C163.188 133.571 163.082 133.812 162.869 134.012C162.66 134.212 162.409 134.313 162.115 134.313ZM169.608 145.972C168.721 145.972 167.944 145.761 167.275 145.339C166.61 144.917 166.09 144.327 165.715 143.568C165.344 142.81 165.159 141.923 165.159 140.909C165.159 139.886 165.344 138.994 165.715 138.231C166.09 137.468 166.61 136.876 167.275 136.454C167.944 136.032 168.721 135.821 169.608 135.821C170.494 135.821 171.27 136.032 171.934 136.454C172.603 136.876 173.123 137.468 173.494 138.231C173.869 138.994 174.056 139.886 174.056 140.909C174.056 141.923 173.869 142.81 173.494 143.568C173.123 144.327 172.603 144.917 171.934 145.339C171.27 145.761 170.494 145.972 169.608 145.972ZM169.608 144.617C170.281 144.617 170.835 144.444 171.27 144.099C171.704 143.754 172.026 143.3 172.235 142.737C172.444 142.175 172.548 141.565 172.548 140.909C172.548 140.253 172.444 139.641 172.235 139.075C172.026 138.508 171.704 138.05 171.27 137.7C170.835 137.351 170.281 137.176 169.608 137.176C168.934 137.176 168.38 137.351 167.946 137.7C167.511 138.05 167.189 138.508 166.98 139.075C166.772 139.641 166.667 140.253 166.667 140.909C166.667 141.565 166.772 142.175 166.98 142.737C167.189 143.3 167.511 143.754 167.946 144.099C168.38 144.444 168.934 144.617 169.608 144.617ZM177.868 139.861V145.767H176.359V135.949H177.817V137.483H177.944C178.175 136.984 178.524 136.584 178.993 136.281C179.461 135.974 180.067 135.821 180.808 135.821C181.473 135.821 182.055 135.957 182.553 136.23C183.052 136.499 183.439 136.908 183.716 137.457C183.993 138.003 184.132 138.693 184.132 139.528V145.767H182.623V139.631C182.623 138.859 182.423 138.259 182.023 137.828C181.622 137.394 181.072 137.176 180.373 137.176C179.892 137.176 179.461 137.281 179.082 137.489C178.707 137.698 178.411 138.003 178.194 138.403C177.976 138.804 177.868 139.29 177.868 139.861ZM194.84 145.997C194.218 145.997 193.653 145.88 193.146 145.646C192.639 145.407 192.237 145.064 191.938 144.617C191.64 144.165 191.491 143.619 191.491 142.98C191.491 142.418 191.602 141.962 191.823 141.612C192.045 141.259 192.341 140.982 192.712 140.781C193.082 140.581 193.491 140.432 193.939 140.334C194.391 140.232 194.844 140.151 195.3 140.091C195.897 140.014 196.381 139.957 196.751 139.918C197.126 139.876 197.399 139.805 197.57 139.707C197.744 139.609 197.832 139.439 197.832 139.196V139.145C197.832 138.514 197.659 138.024 197.314 137.675C196.973 137.325 196.455 137.151 195.761 137.151C195.04 137.151 194.476 137.308 194.067 137.624C193.658 137.939 193.37 138.276 193.204 138.634L191.772 138.122C192.028 137.526 192.369 137.061 192.795 136.729C193.225 136.392 193.694 136.158 194.201 136.026C194.712 135.889 195.215 135.821 195.71 135.821C196.025 135.821 196.387 135.859 196.796 135.936C197.21 136.009 197.608 136.16 197.991 136.39C198.379 136.62 198.701 136.967 198.957 137.432C199.212 137.896 199.34 138.519 199.34 139.298V145.767H197.832V144.438H197.755C197.653 144.651 197.482 144.879 197.244 145.121C197.005 145.364 196.688 145.571 196.291 145.742C195.895 145.912 195.411 145.997 194.84 145.997ZM195.07 144.642C195.667 144.642 196.17 144.525 196.579 144.291C196.992 144.056 197.303 143.754 197.512 143.383C197.725 143.012 197.832 142.622 197.832 142.213V140.832C197.768 140.909 197.627 140.979 197.41 141.043C197.197 141.103 196.95 141.156 196.668 141.203C196.391 141.246 196.121 141.284 195.857 141.318C195.597 141.348 195.386 141.374 195.224 141.395C194.832 141.446 194.465 141.529 194.124 141.644C193.788 141.755 193.515 141.923 193.306 142.149C193.102 142.371 192.999 142.673 192.999 143.057C192.999 143.581 193.193 143.977 193.581 144.246C193.973 144.51 194.469 144.642 195.07 144.642ZM203.602 139.861V145.767H202.094V135.949H203.551V137.483H203.679C203.909 136.984 204.258 136.584 204.727 136.281C205.196 135.974 205.801 135.821 206.542 135.821C207.207 135.821 207.789 135.957 208.287 136.23C208.786 136.499 209.174 136.908 209.451 137.457C209.728 138.003 209.866 138.693 209.866 139.528V145.767H208.358V139.631C208.358 138.859 208.157 138.259 207.757 137.828C207.356 137.394 206.807 137.176 206.108 137.176C205.626 137.176 205.196 137.281 204.817 137.489C204.442 137.698 204.145 138.003 203.928 138.403C203.711 138.804 203.602 139.29 203.602 139.861ZM216.33 145.972C215.512 145.972 214.79 145.765 214.163 145.352C213.537 144.934 213.047 144.346 212.693 143.587C212.339 142.825 212.163 141.923 212.163 140.884C212.163 139.852 212.339 138.957 212.693 138.199C213.047 137.44 213.539 136.854 214.17 136.441C214.8 136.028 215.529 135.821 216.356 135.821C216.995 135.821 217.5 135.928 217.871 136.141C218.246 136.349 218.531 136.588 218.727 136.857C218.928 137.121 219.083 137.338 219.194 137.509H219.322V132.676H220.83V145.767H219.373V144.259H219.194C219.083 144.438 218.925 144.663 218.721 144.936C218.516 145.205 218.224 145.445 217.845 145.658C217.466 145.867 216.961 145.972 216.33 145.972ZM216.535 144.617C217.14 144.617 217.651 144.459 218.069 144.144C218.487 143.824 218.804 143.383 219.021 142.82C219.239 142.254 219.347 141.599 219.347 140.858C219.347 140.125 219.241 139.484 219.028 138.934C218.815 138.38 218.499 137.95 218.082 137.643C217.664 137.332 217.148 137.176 216.535 137.176C215.896 137.176 215.363 137.34 214.937 137.668C214.515 137.992 214.197 138.433 213.984 138.992C213.776 139.545 213.671 140.168 213.671 140.858C213.671 141.557 213.778 142.192 213.991 142.763C214.208 143.33 214.528 143.781 214.95 144.118C215.376 144.45 215.904 144.617 216.535 144.617ZM25.3807 171.449V157.949H26.8381V159.509H27.017C27.1278 159.338 27.2813 159.121 27.4773 158.857C27.6776 158.588 27.9631 158.349 28.3338 158.141C28.7088 157.928 29.2159 157.821 29.8551 157.821C30.6818 157.821 31.4105 158.028 32.0412 158.441C32.6719 158.854 33.1641 159.44 33.5178 160.199C33.8714 160.957 34.0483 161.852 34.0483 162.884C34.0483 163.923 33.8714 164.825 33.5178 165.587C33.1641 166.346 32.674 166.934 32.0476 167.352C31.4212 167.765 30.6989 167.972 29.8807 167.972C29.25 167.972 28.745 167.867 28.3658 167.658C27.9865 167.445 27.6946 167.205 27.4901 166.936C27.2855 166.663 27.1278 166.438 27.017 166.259H26.8892V171.449H25.3807ZM26.8636 162.858C26.8636 163.599 26.9723 164.254 27.1896 164.82C27.407 165.383 27.7244 165.824 28.142 166.144C28.5597 166.459 29.071 166.617 29.6761 166.617C30.3068 166.617 30.8331 166.45 31.255 166.118C31.6811 165.781 32.0007 165.33 32.2138 164.763C32.4311 164.192 32.5398 163.557 32.5398 162.858C32.5398 162.168 32.4332 161.545 32.2202 160.992C32.0114 160.433 31.6939 159.992 31.2678 159.668C30.8459 159.34 30.3153 159.176 29.6761 159.176C29.0625 159.176 28.5469 159.332 28.1293 159.643C27.7116 159.95 27.3963 160.38 27.1832 160.934C26.9702 161.484 26.8636 162.125 26.8636 162.858ZM40.4659 167.972C39.5199 167.972 38.7038 167.763 38.0178 167.345C37.3359 166.923 36.8097 166.335 36.4389 165.581C36.0724 164.822 35.8892 163.94 35.8892 162.935C35.8892 161.929 36.0724 161.043 36.4389 160.276C36.8097 159.504 37.3253 158.903 37.9858 158.473C38.6506 158.038 39.4261 157.821 40.3125 157.821C40.8239 157.821 41.3288 157.906 41.8274 158.077C42.326 158.247 42.7798 158.524 43.1889 158.908C43.598 159.287 43.924 159.79 44.1669 160.416C44.4098 161.043 44.5312 161.814 44.5312 162.73V163.369H36.9631V162.065H42.9972C42.9972 161.511 42.8864 161.017 42.6648 160.582C42.4474 160.148 42.1364 159.805 41.7315 159.553C41.331 159.302 40.858 159.176 40.3125 159.176C39.7116 159.176 39.1918 159.325 38.7528 159.624C38.3182 159.918 37.9837 160.301 37.7493 160.774C37.5149 161.247 37.3977 161.754 37.3977 162.295V163.165C37.3977 163.906 37.5256 164.535 37.7812 165.05C38.0412 165.562 38.4013 165.952 38.8615 166.22C39.3217 166.484 39.8565 166.617 40.4659 166.617C40.8622 166.617 41.2202 166.561 41.5398 166.45C41.8636 166.335 42.1428 166.165 42.3771 165.939C42.6115 165.709 42.7926 165.423 42.9205 165.082L44.3778 165.492C44.2244 165.986 43.9666 166.42 43.6044 166.795C43.2422 167.166 42.7947 167.456 42.2621 167.665C41.7294 167.869 41.1307 167.972 40.4659 167.972ZM46.826 167.767V157.949H48.2834V159.432H48.3857C48.5646 158.946 48.8885 158.552 49.3572 158.249C49.826 157.947 50.3544 157.795 50.9425 157.795C51.0533 157.795 51.1918 157.798 51.358 157.802C51.5241 157.806 51.6499 157.813 51.7351 157.821V159.355C51.6839 159.342 51.5668 159.323 51.3835 159.298C51.2045 159.268 51.0149 159.253 50.8146 159.253C50.3374 159.253 49.9112 159.353 49.5362 159.553C49.1655 159.749 48.8714 160.022 48.6541 160.371C48.4411 160.717 48.3345 161.111 48.3345 161.554V167.767H46.826ZM58.5107 157.949V159.227H53.218V157.949H58.5107ZM54.8033 167.767V156.594C54.8033 156.031 54.9354 155.563 55.1996 155.188C55.4638 154.813 55.8068 154.531 56.2287 154.344C56.6506 154.156 57.0959 154.063 57.5646 154.063C57.9354 154.063 58.2379 154.092 58.4723 154.152C58.7067 154.212 58.8814 154.267 58.9964 154.318L58.5618 155.622C58.4851 155.597 58.3786 155.565 58.2422 155.526C58.1101 155.488 57.9354 155.469 57.718 155.469C57.2195 155.469 56.8594 155.595 56.6378 155.846C56.4205 156.097 56.3118 156.466 56.3118 156.952V167.767H54.8033ZM64.2092 167.972C63.3228 167.972 62.5451 167.761 61.8761 167.339C61.2113 166.917 60.6914 166.327 60.3164 165.568C59.9457 164.81 59.7603 163.923 59.7603 162.909C59.7603 161.886 59.9457 160.994 60.3164 160.231C60.6914 159.468 61.2113 158.876 61.8761 158.454C62.5451 158.032 63.3228 157.821 64.2092 157.821C65.0955 157.821 65.8711 158.032 66.5359 158.454C67.2049 158.876 67.7248 159.468 68.0955 160.231C68.4705 160.994 68.658 161.886 68.658 162.909C68.658 163.923 68.4705 164.81 68.0955 165.568C67.7248 166.327 67.2049 166.917 66.5359 167.339C65.8711 167.761 65.0955 167.972 64.2092 167.972ZM64.2092 166.617C64.8825 166.617 65.4364 166.444 65.8711 166.099C66.3058 165.754 66.6275 165.3 66.8363 164.737C67.0451 164.175 67.1495 163.565 67.1495 162.909C67.1495 162.253 67.0451 161.641 66.8363 161.075C66.6275 160.508 66.3058 160.05 65.8711 159.7C65.4364 159.351 64.8825 159.176 64.2092 159.176C63.5359 159.176 62.9819 159.351 62.5472 159.7C62.1126 160.05 61.7908 160.508 61.582 161.075C61.3732 161.641 61.2688 162.253 61.2688 162.909C61.2688 163.565 61.3732 164.175 61.582 164.737C61.7908 165.3 62.1126 165.754 62.5472 166.099C62.9819 166.444 63.5359 166.617 64.2092 166.617ZM70.9608 167.767V157.949H72.4181V159.432H72.5204C72.6994 158.946 73.0233 158.552 73.492 158.249C73.9608 157.947 74.4892 157.795 75.0772 157.795C75.188 157.795 75.3265 157.798 75.4927 157.802C75.6589 157.806 75.7846 157.813 75.8699 157.821V159.355C75.8187 159.342 75.7015 159.323 75.5183 159.298C75.3393 159.268 75.1497 159.253 74.9494 159.253C74.4721 159.253 74.046 159.353 73.671 159.553C73.3002 159.749 73.0062 160.022 72.7889 160.371C72.5758 160.717 72.4693 161.111 72.4693 161.554V167.767H70.9608ZM77.658 167.767V157.949H79.1154V159.483H79.2433C79.4478 158.959 79.7781 158.552 80.234 158.262C80.69 157.968 81.2376 157.821 81.8768 157.821C82.5245 157.821 83.0636 157.968 83.494 158.262C83.9286 158.552 84.2674 158.959 84.5103 159.483H84.6126C84.864 158.976 85.2411 158.573 85.744 158.275C86.2468 157.972 86.8498 157.821 87.5529 157.821C88.4308 157.821 89.1488 158.096 89.707 158.646C90.2653 159.191 90.5444 160.041 90.5444 161.196V167.767H89.0359V161.196C89.0359 160.472 88.8377 159.954 88.4414 159.643C88.0451 159.332 87.5785 159.176 87.0415 159.176C86.3512 159.176 85.8164 159.385 85.4371 159.803C85.0579 160.216 84.8683 160.74 84.8683 161.375V167.767H83.3342V161.043C83.3342 160.484 83.1531 160.035 82.7908 159.694C82.4286 159.349 81.962 159.176 81.391 159.176C80.9989 159.176 80.6325 159.281 80.2915 159.489C79.9549 159.698 79.6822 159.988 79.4734 160.359C79.2688 160.725 79.1665 161.149 79.1665 161.631V167.767H77.658ZM96.1918 167.997C95.5696 167.997 95.005 167.88 94.4979 167.646C93.9908 167.407 93.5881 167.064 93.2898 166.617C92.9915 166.165 92.8423 165.619 92.8423 164.98C92.8423 164.418 92.9531 163.962 93.1747 163.612C93.3963 163.259 93.6925 162.982 94.0632 162.781C94.4339 162.581 94.843 162.432 95.2905 162.334C95.7422 162.232 96.196 162.151 96.652 162.091C97.2486 162.014 97.7322 161.957 98.103 161.918C98.478 161.876 98.7507 161.805 98.9212 161.707C99.0959 161.609 99.1832 161.439 99.1832 161.196V161.145C99.1832 160.514 99.0107 160.024 98.6655 159.675C98.3246 159.325 97.8068 159.151 97.1122 159.151C96.392 159.151 95.8274 159.308 95.4183 159.624C95.0092 159.939 94.7216 160.276 94.5554 160.634L93.1236 160.122C93.3793 159.526 93.7202 159.061 94.1463 158.729C94.5767 158.392 95.0455 158.158 95.5526 158.026C96.0639 157.889 96.5668 157.821 97.0611 157.821C97.3764 157.821 97.7386 157.859 98.1477 157.936C98.5611 158.009 98.9595 158.16 99.343 158.39C99.7308 158.62 100.053 158.967 100.308 159.432C100.564 159.896 100.692 160.519 100.692 161.298V167.767H99.1832V166.438H99.1065C99.0043 166.651 98.8338 166.879 98.5952 167.121C98.3565 167.364 98.0391 167.571 97.6428 167.742C97.2464 167.912 96.7628 167.997 96.1918 167.997ZM96.4219 166.642C97.0185 166.642 97.5213 166.525 97.9304 166.291C98.3438 166.056 98.6548 165.754 98.8636 165.383C99.0767 165.012 99.1832 164.622 99.1832 164.213V162.832C99.1193 162.909 98.9787 162.979 98.7614 163.043C98.5483 163.103 98.3011 163.156 98.0199 163.203C97.7429 163.246 97.4723 163.284 97.2081 163.318C96.9482 163.348 96.7372 163.374 96.5753 163.395C96.1832 163.446 95.8168 163.529 95.4759 163.644C95.1392 163.755 94.8665 163.923 94.6577 164.149C94.4531 164.371 94.3509 164.673 94.3509 165.057C94.3509 165.581 94.5447 165.977 94.9325 166.246C95.3246 166.51 95.821 166.642 96.4219 166.642ZM104.954 161.861V167.767H103.445V157.949H104.903V159.483H105.03C105.26 158.984 105.61 158.584 106.079 158.281C106.547 157.974 107.153 157.821 107.894 157.821C108.559 157.821 109.14 157.957 109.639 158.23C110.138 158.499 110.525 158.908 110.802 159.457C111.079 160.003 111.218 160.693 111.218 161.528V167.767H109.709V161.631C109.709 160.859 109.509 160.259 109.108 159.828C108.708 159.394 108.158 159.176 107.459 159.176C106.978 159.176 106.547 159.281 106.168 159.489C105.793 159.698 105.497 160.003 105.28 160.403C105.062 160.804 104.954 161.29 104.954 161.861ZM117.963 167.972C117.043 167.972 116.25 167.754 115.585 167.32C114.92 166.885 114.409 166.286 114.051 165.523C113.693 164.761 113.514 163.889 113.514 162.909C113.514 161.912 113.697 161.032 114.064 160.269C114.435 159.502 114.95 158.903 115.611 158.473C116.276 158.038 117.051 157.821 117.938 157.821C118.628 157.821 119.25 157.949 119.804 158.205C120.358 158.46 120.812 158.818 121.165 159.278C121.519 159.739 121.739 160.276 121.824 160.889H120.315C120.2 160.442 119.945 160.045 119.548 159.7C119.156 159.351 118.628 159.176 117.963 159.176C117.375 159.176 116.859 159.33 116.416 159.636C115.977 159.939 115.634 160.367 115.387 160.921C115.144 161.471 115.023 162.117 115.023 162.858C115.023 163.617 115.142 164.277 115.381 164.84C115.624 165.402 115.964 165.839 116.403 166.15C116.847 166.461 117.366 166.617 117.963 166.617C118.355 166.617 118.711 166.548 119.031 166.412C119.35 166.276 119.621 166.08 119.842 165.824C120.064 165.568 120.222 165.261 120.315 164.903H121.824C121.739 165.483 121.528 166.005 121.191 166.47C120.859 166.93 120.418 167.296 119.868 167.569C119.322 167.837 118.688 167.972 117.963 167.972ZM128.146 167.972C127.2 167.972 126.384 167.763 125.697 167.345C125.016 166.923 124.489 166.335 124.119 165.581C123.752 164.822 123.569 163.94 123.569 162.935C123.569 161.929 123.752 161.043 124.119 160.276C124.489 159.504 125.005 158.903 125.665 158.473C126.33 158.038 127.106 157.821 127.992 157.821C128.504 157.821 129.009 157.906 129.507 158.077C130.006 158.247 130.46 158.524 130.869 158.908C131.278 159.287 131.604 159.79 131.847 160.416C132.089 161.043 132.211 161.814 132.211 162.73V163.369H124.643V162.065H130.677C130.677 161.511 130.566 161.017 130.344 160.582C130.127 160.148 129.816 159.805 129.411 159.553C129.011 159.302 128.538 159.176 127.992 159.176C127.391 159.176 126.871 159.325 126.433 159.624C125.998 159.918 125.663 160.301 125.429 160.774C125.195 161.247 125.077 161.754 125.077 162.295V163.165C125.077 163.906 125.205 164.535 125.461 165.05C125.721 165.562 126.081 165.952 126.541 166.22C127.001 166.484 127.536 166.617 128.146 166.617C128.542 166.617 128.9 166.561 129.219 166.45C129.543 166.335 129.822 166.165 130.057 165.939C130.291 165.709 130.472 165.423 130.6 165.082L132.058 165.492C131.904 165.986 131.646 166.42 131.284 166.795C130.922 167.166 130.474 167.456 129.942 167.665C129.409 167.869 128.81 167.972 128.146 167.972ZM139.568 167.767V157.949H141.077V167.767H139.568ZM140.335 156.313C140.041 156.313 139.788 156.212 139.575 156.012C139.366 155.812 139.261 155.571 139.261 155.29C139.261 155.009 139.366 154.768 139.575 154.568C139.788 154.367 140.041 154.267 140.335 154.267C140.629 154.267 140.881 154.367 141.089 154.568C141.303 154.768 141.409 155.009 141.409 155.29C141.409 155.571 141.303 155.812 141.089 156.012C140.881 156.212 140.629 156.313 140.335 156.313ZM145.348 161.861V167.767H143.84V157.949H145.297V159.483H145.425C145.655 158.984 146.004 158.584 146.473 158.281C146.942 157.974 147.547 157.821 148.289 157.821C148.953 157.821 149.535 157.957 150.034 158.23C150.532 158.499 150.92 158.908 151.197 159.457C151.474 160.003 151.612 160.693 151.612 161.528V167.767H150.104V161.631C150.104 160.859 149.904 160.259 149.503 159.828C149.102 159.394 148.553 159.176 147.854 159.176C147.372 159.176 146.942 159.281 146.563 159.489C146.188 159.698 145.892 160.003 145.674 160.403C145.457 160.804 145.348 161.29 145.348 161.861ZM161.324 160.148L159.968 160.531C159.883 160.305 159.757 160.086 159.591 159.873C159.429 159.656 159.208 159.477 158.926 159.336C158.645 159.195 158.285 159.125 157.846 159.125C157.245 159.125 156.745 159.264 156.344 159.541C155.948 159.813 155.75 160.161 155.75 160.582C155.75 160.957 155.886 161.254 156.159 161.471C156.431 161.688 156.858 161.869 157.437 162.014L158.895 162.372C159.772 162.585 160.426 162.911 160.857 163.35C161.287 163.785 161.502 164.345 161.502 165.031C161.502 165.594 161.341 166.097 161.017 166.54C160.697 166.983 160.25 167.332 159.674 167.588C159.099 167.844 158.43 167.972 157.667 167.972C156.666 167.972 155.837 167.754 155.181 167.32C154.525 166.885 154.109 166.25 153.934 165.415L155.366 165.057C155.502 165.585 155.76 165.982 156.14 166.246C156.523 166.51 157.024 166.642 157.642 166.642C158.345 166.642 158.903 166.493 159.316 166.195C159.734 165.892 159.943 165.53 159.943 165.108C159.943 164.767 159.824 164.482 159.585 164.251C159.346 164.017 158.98 163.842 158.485 163.727L156.849 163.344C155.95 163.131 155.289 162.8 154.868 162.353C154.45 161.901 154.241 161.337 154.241 160.659C154.241 160.105 154.397 159.615 154.708 159.189C155.023 158.763 155.451 158.428 155.993 158.185C156.538 157.943 157.156 157.821 157.846 157.821C158.818 157.821 159.581 158.034 160.135 158.46C160.693 158.886 161.089 159.449 161.324 160.148ZM163.773 167.767V157.949H165.282V167.767H163.773ZM164.54 156.313C164.246 156.313 163.993 156.212 163.78 156.012C163.571 155.812 163.466 155.571 163.466 155.29C163.466 155.009 163.571 154.768 163.78 154.568C163.993 154.367 164.246 154.267 164.54 154.267C164.834 154.267 165.086 154.367 165.295 154.568C165.508 154.768 165.614 155.009 165.614 155.29C165.614 155.571 165.508 155.812 165.295 156.012C165.086 156.212 164.834 156.313 164.54 156.313ZM172.008 171.653C171.279 171.653 170.653 171.56 170.129 171.372C169.604 171.189 169.168 170.946 168.818 170.644C168.473 170.345 168.198 170.026 167.994 169.685L169.195 168.841C169.332 169.02 169.504 169.224 169.713 169.455C169.922 169.689 170.207 169.891 170.57 170.062C170.936 170.237 171.415 170.324 172.008 170.324C172.8 170.324 173.455 170.132 173.97 169.749C174.486 169.365 174.744 168.764 174.744 167.946V165.952H174.616C174.505 166.131 174.347 166.352 174.143 166.617C173.942 166.876 173.653 167.109 173.273 167.313C172.898 167.514 172.391 167.614 171.752 167.614C170.96 167.614 170.248 167.426 169.617 167.051C168.991 166.676 168.494 166.131 168.128 165.415C167.766 164.699 167.585 163.83 167.585 162.807C167.585 161.801 167.761 160.925 168.115 160.18C168.469 159.43 168.961 158.85 169.592 158.441C170.222 158.028 170.951 157.821 171.778 157.821C172.417 157.821 172.924 157.928 173.299 158.141C173.678 158.349 173.968 158.588 174.168 158.857C174.373 159.121 174.531 159.338 174.641 159.509H174.795V157.949H176.252V168.048C176.252 168.892 176.06 169.578 175.677 170.107C175.298 170.639 174.786 171.029 174.143 171.276C173.504 171.528 172.792 171.653 172.008 171.653ZM171.957 166.259C172.562 166.259 173.073 166.12 173.491 165.843C173.908 165.566 174.226 165.168 174.443 164.648C174.661 164.128 174.769 163.506 174.769 162.781C174.769 162.074 174.663 161.45 174.45 160.908C174.237 160.367 173.921 159.943 173.504 159.636C173.086 159.33 172.57 159.176 171.957 159.176C171.317 159.176 170.785 159.338 170.359 159.662C169.937 159.986 169.619 160.42 169.406 160.966C169.197 161.511 169.093 162.117 169.093 162.781C169.093 163.463 169.2 164.066 169.413 164.59C169.63 165.11 169.95 165.519 170.371 165.818C170.798 166.112 171.326 166.259 171.957 166.259ZM180.522 161.861V167.767H179.013V154.676H180.522V159.483H180.65C180.88 158.976 181.225 158.573 181.685 158.275C182.15 157.972 182.768 157.821 183.539 157.821C184.208 157.821 184.794 157.955 185.297 158.224C185.8 158.488 186.19 158.895 186.467 159.445C186.748 159.99 186.888 160.685 186.888 161.528V167.767H185.38V161.631C185.38 160.851 185.178 160.248 184.773 159.822C184.372 159.391 183.816 159.176 183.104 159.176C182.61 159.176 182.167 159.281 181.775 159.489C181.387 159.698 181.08 160.003 180.854 160.403C180.633 160.804 180.522 161.29 180.522 161.861ZM193.918 157.949V159.227H188.83V157.949H193.918ZM190.313 155.597H191.822V164.955C191.822 165.381 191.883 165.7 192.007 165.913C192.135 166.122 192.297 166.263 192.493 166.335C192.693 166.403 192.904 166.438 193.126 166.438C193.292 166.438 193.428 166.429 193.535 166.412C193.641 166.391 193.726 166.374 193.79 166.361L194.097 167.716C193.995 167.754 193.852 167.793 193.669 167.831C193.486 167.874 193.253 167.895 192.972 167.895C192.546 167.895 192.128 167.803 191.719 167.62C191.314 167.437 190.978 167.158 190.709 166.783C190.445 166.408 190.313 165.935 190.313 165.364V155.597ZM202.966 160.148L201.611 160.531C201.526 160.305 201.4 160.086 201.234 159.873C201.072 159.656 200.85 159.477 200.569 159.336C200.288 159.195 199.928 159.125 199.489 159.125C198.888 159.125 198.387 159.264 197.987 159.541C197.59 159.813 197.392 160.161 197.392 160.582C197.392 160.957 197.529 161.254 197.801 161.471C198.074 161.688 198.5 161.869 199.08 162.014L200.537 162.372C201.415 162.585 202.069 162.911 202.499 163.35C202.93 163.785 203.145 164.345 203.145 165.031C203.145 165.594 202.983 166.097 202.659 166.54C202.34 166.983 201.892 167.332 201.317 167.588C200.742 167.844 200.073 167.972 199.31 167.972C198.308 167.972 197.48 167.754 196.823 167.32C196.167 166.885 195.752 166.25 195.577 165.415L197.009 165.057C197.145 165.585 197.403 165.982 197.782 166.246C198.166 166.51 198.666 166.642 199.284 166.642C199.987 166.642 200.546 166.493 200.959 166.195C201.377 165.892 201.585 165.53 201.585 165.108C201.585 164.767 201.466 164.482 201.227 164.251C200.989 164.017 200.622 163.842 200.128 163.727L198.492 163.344C197.593 163.131 196.932 162.8 196.51 162.353C196.093 161.901 195.884 161.337 195.884 160.659C195.884 160.105 196.039 159.615 196.35 159.189C196.666 158.763 197.094 158.428 197.635 158.185C198.181 157.943 198.798 157.821 199.489 157.821C200.46 157.821 201.223 158.034 201.777 158.46C202.335 158.886 202.732 159.449 202.966 160.148ZM206.515 167.869C206.2 167.869 205.929 167.756 205.703 167.531C205.478 167.305 205.365 167.034 205.365 166.719C205.365 166.403 205.478 166.133 205.703 165.907C205.929 165.681 206.2 165.568 206.515 165.568C206.831 165.568 207.101 165.681 207.327 165.907C207.553 166.133 207.666 166.403 207.666 166.719C207.666 166.928 207.613 167.119 207.506 167.294C207.404 167.469 207.265 167.609 207.091 167.716C206.92 167.818 206.728 167.869 206.515 167.869Z" fill="white"/>
<g opacity="0.34" clip-path="url(#clip0_84_2797)">
<g opacity="0.09">
<path d="M291.217 164.442H258.763C258.646 164.442 258.568 164.527 258.568 164.654V247.158C258.568 247.285 258.646 247.369 258.763 247.369H291.217C291.333 247.369 291.411 247.285 291.411 247.158V164.654C291.411 164.527 291.333 164.442 291.217 164.442Z" fill="black"/>
<path d="M393.71 189.685H361.217C361.1 189.685 361.022 189.769 361.022 189.896V247.158C361.022 247.285 361.1 247.369 361.217 247.369H393.671C393.788 247.369 393.865 247.285 393.865 247.158V189.896C393.904 189.769 393.826 189.685 393.71 189.685Z" fill="black"/>
<path d="M342.444 116.287H309.99C309.873 116.287 309.795 116.371 309.795 116.498V247.157C309.795 247.284 309.873 247.369 309.99 247.369H342.444C342.561 247.369 342.638 247.284 342.638 247.157V116.498C342.638 116.371 342.561 116.287 342.444 116.287Z" fill="black"/>
<path d="M444.937 83.6753H412.483C412.366 83.6753 412.289 83.76 412.289 83.8871V247.158C412.289 247.285 412.366 247.369 412.483 247.369H444.937C445.054 247.369 445.131 247.285 445.131 247.158V83.8871C445.131 83.76 445.054 83.6753 444.937 83.6753Z" fill="black"/>
</g>
<path opacity="0.26" d="M429.546 27.3462C424.61 27.3462 420.645 31.7085 420.645 37.0874C420.645 39.7556 421.617 42.1697 423.21 43.9062L382.866 97.7791C381.467 96.805 379.796 96.2121 378.008 96.2121C375.326 96.2121 372.916 97.4827 371.284 99.558L333.893 71.1391C334.593 69.7415 334.982 68.1744 334.982 66.4803C334.982 61.1015 330.978 56.7815 326.081 56.7815C321.184 56.7815 317.18 61.1438 317.18 66.4803C317.18 68.3862 317.686 70.2074 318.58 71.6897L280.49 105.064C278.857 103.327 276.642 102.226 274.193 102.226C269.257 102.226 265.292 106.589 265.292 111.925C265.292 117.304 269.296 121.624 274.193 121.624C279.09 121.624 283.094 117.304 283.094 111.967C283.094 110.061 282.588 108.24 281.694 106.758L319.784 73.3838C321.417 75.1203 323.632 76.2215 326.081 76.2215C328.763 76.2215 331.173 74.9509 332.805 72.8756L370.195 101.294C369.496 102.692 369.107 104.259 369.107 105.953C369.107 111.332 373.11 115.652 378.008 115.652C382.944 115.652 386.908 111.29 386.908 105.953C386.908 103.285 385.937 100.871 384.343 99.1344L424.687 45.2191C426.086 46.1932 427.758 46.7862 429.546 46.7862C434.482 46.7862 438.446 42.4238 438.446 37.0874C438.446 31.7085 434.443 27.3462 429.546 27.3462Z" fill="black"/>
<path opacity="0.12" d="M356.981 276C414.96 276 461.961 271.98 461.961 267.021C461.961 262.062 414.96 258.042 356.981 258.042C299.001 258.042 252 262.062 252 267.021C252 271.98 299.001 276 356.981 276Z" fill="black"/>
<path d="M289.468 162.283H257.014C256.897 162.283 256.819 162.367 256.819 162.494V244.998C256.819 245.125 256.897 245.21 257.014 245.21H289.468C289.584 245.21 289.662 245.125 289.662 244.998V162.494C289.662 162.367 289.584 162.283 289.468 162.283Z" fill="#B5C8F0"/>
<path d="M391.961 187.524H359.507C359.39 187.524 359.312 187.609 359.312 187.736V244.997C359.312 245.124 359.39 245.209 359.507 245.209H391.961C392.078 245.209 392.155 245.124 392.155 244.997V187.736C392.155 187.609 392.039 187.524 391.961 187.524Z" fill="#EAFCFD"/>
<path d="M340.695 114.127H308.241C308.124 114.127 308.046 114.212 308.046 114.339V244.998C308.046 245.125 308.124 245.21 308.241 245.21H340.695C340.812 245.21 340.889 245.125 340.889 244.998V114.339C340.889 114.212 340.812 114.127 340.695 114.127Z" fill="white"/>
<path d="M443.188 81.5151H410.734C410.617 81.5151 410.54 81.5998 410.54 81.7269V244.997C410.54 245.125 410.617 245.209 410.734 245.209H443.188C443.305 245.209 443.382 245.125 443.382 244.997V81.7269C443.382 81.5998 443.305 81.5151 443.188 81.5151Z" fill="#174686"/>
<g opacity="0.1">
<path d="M256.625 203.746V244.998C256.625 245.125 256.703 245.21 256.819 245.21H289.274C289.39 245.21 289.468 245.125 289.468 244.998V211.285C278.468 208.998 267.508 206.499 256.625 203.746Z" fill="black"/>
<path d="M375.753 227.294C370.195 226.32 364.637 225.346 359.079 224.33V244.955C359.079 245.083 359.157 245.167 359.273 245.167H391.728C391.844 245.167 391.922 245.083 391.922 244.955V230.259C386.558 229.243 381.156 228.268 375.753 227.294Z" fill="black"/>
<path d="M307.852 215.012V244.998C307.852 245.125 307.93 245.209 308.046 245.209H340.501C340.617 245.209 340.695 245.125 340.695 244.998V221.111C329.734 219.162 318.774 217.129 307.852 215.012Z" fill="black"/>
<path d="M410.345 233.647V244.998C410.345 245.125 410.423 245.21 410.54 245.21H442.994C443.11 245.21 443.188 245.125 443.188 244.998V239.746C432.228 237.756 421.306 235.68 410.345 233.647Z" fill="black"/>
</g>
<path d="M272.211 109.681C271.939 109.681 271.628 109.553 271.434 109.299C271.084 108.833 271.162 108.198 271.589 107.817L324.06 61.8641L375.831 101.21L426.825 33.0641C427.175 32.5982 427.758 32.5558 428.185 32.8947C428.613 33.2758 428.652 33.9111 428.341 34.377L376.22 104.048L324.177 64.4476L272.833 109.426C272.639 109.596 272.444 109.681 272.211 109.681Z" fill="#527275"/>
<path d="M324.137 72.8327C329.053 72.8327 333.038 68.4904 333.038 63.1339C333.038 57.7774 329.053 53.4351 324.137 53.4351C319.222 53.4351 315.237 57.7774 315.237 63.1339C315.237 68.4904 319.222 72.8327 324.137 72.8327Z" fill="white"/>
<path d="M376.064 112.306C380.98 112.306 384.965 107.964 384.965 102.608C384.965 97.251 380.98 92.9087 376.064 92.9087C371.149 92.9087 367.164 97.251 367.164 102.608C367.164 107.964 371.149 112.306 376.064 112.306Z" fill="#EAFCFD"/>
<path d="M427.602 43.3976C432.518 43.3976 436.503 39.0553 436.503 33.6988C436.503 28.3423 432.518 24 427.602 24C422.687 24 418.702 28.3423 418.702 33.6988C418.702 39.0553 422.687 43.3976 427.602 43.3976Z" fill="#174686"/>
<path d="M280.881 110.872C282.022 105.662 279.07 100.43 274.288 99.1877C269.507 97.945 264.706 101.161 263.566 106.372C262.425 111.582 265.377 116.813 270.159 118.056C274.94 119.299 279.741 116.082 280.881 110.872Z" fill="#B5C8F0"/>
</g>
<defs>
<linearGradient id="paint0_linear_84_2797" x1="488.047" y1="156.26" x2="-0.520363" y2="156.26" gradientUnits="userSpaceOnUse">
<stop stop-color="#DCE3FE"/>
<stop offset="1" stop-color="#1F60B7"/>
</linearGradient>
<clipPath id="clip0_84_2797">
<rect width="210" height="252" fill="white" transform="translate(252 24)"/>
</clipPath>
</defs>
</svg>
