<svg width="225" height="51" viewBox="0 0 225 51" fill="none" xmlns="http://www.w3.org/2000/svg">
<path d="M224.202 1C224.202 0.447715 223.755 0 223.202 0H214.202C213.65 0 213.202 0.447715 213.202 1C213.202 1.55228 213.65 2 214.202 2H222.202V10C222.202 10.5523 222.65 11 223.202 11C223.755 11 224.202 10.5523 224.202 10V1ZM0.702393 1L6.87838e-05 1.71186C0.466257 2.1718 0.941559 2.63394 1.42584 3.09799L2.1177 2.37596L2.80956 1.65392C2.33222 1.19653 1.8639 0.741173 1.40472 0.288142L0.702393 1ZM5.06987 5.12561L4.39846 5.8667C5.38141 6.75723 6.39569 7.65257 7.44042 8.55073L8.09234 7.79243L8.74425 7.03414C7.7125 6.14714 6.71122 5.26327 5.74128 4.38452L5.06987 5.12561ZM11.1567 10.362L10.5235 11.136C11.5515 11.977 12.6054 12.8189 13.6843 13.66L14.2991 12.8713L14.9139 12.0826C13.8473 11.2512 12.8058 10.4191 11.7899 9.58801L11.1567 10.362ZM17.5155 15.3198L16.9189 16.1223C17.9822 16.9127 19.0672 17.7011 20.1734 18.486L20.7521 17.6704L21.3308 16.8549C20.2367 16.0785 19.1636 15.2989 18.1121 14.5172L17.5155 15.3198ZM24.0556 19.9605L23.4949 20.7886C24.6049 21.5402 25.7342 22.2874 26.8822 23.029L27.4247 22.1889L27.9673 21.3489C26.8316 20.6153 25.7144 19.8761 24.6164 19.1325L24.0556 19.9605ZM30.8078 24.3231L30.2833 25.1746C31.423 25.8766 32.5796 26.5722 33.7525 27.2604L34.2586 26.3979L34.7646 25.5354C33.6041 24.8545 32.4598 24.1663 31.3322 23.4717L30.8078 24.3231ZM37.7488 28.3954L37.2615 29.2686C38.4281 29.9197 39.6097 30.5627 40.8058 31.1967L41.2741 30.3132L41.7424 29.4296C40.5592 28.8024 39.3903 28.1663 38.2361 27.5222L37.7488 28.3954ZM44.8605 32.1643L44.4117 33.0579C45.6043 33.6569 46.8102 34.2465 48.0292 34.8256L48.4583 33.9224L48.8874 33.0191C47.6819 32.4464 46.4891 31.8632 45.3094 31.2707L44.8605 32.1643ZM52.1143 35.6096L51.7054 36.5222C52.9282 37.07 54.1631 37.6068 55.4097 38.1318L55.7978 37.2102L56.1859 36.2886C54.9533 35.7695 53.7323 35.2387 52.5231 34.697L52.1143 35.6096ZM59.5196 38.7275L59.1528 39.6578C60.4027 40.1506 61.6637 40.6312 62.9354 41.0986L63.2804 40.16L63.6253 39.2213C62.3685 38.7594 61.1221 38.2844 59.8864 37.7972L59.5196 38.7275ZM67.0636 41.4999L66.741 42.4464C68.0154 42.8807 69.2998 43.3015 70.5939 43.7078L70.8934 42.7537L71.193 41.7997C69.9145 41.3982 68.6455 40.9825 67.3862 40.5533L67.0636 41.4999ZM74.7329 43.9078L74.4568 44.869C75.751 45.2407 77.0542 45.5976 78.3662 45.9389L78.618 44.9712L78.8698 44.0034C77.5743 43.6663 76.2872 43.3138 75.0089 42.9467L74.7329 43.9078ZM82.5128 45.9318L82.2857 46.9057C83.5964 47.2113 84.9154 47.5009 86.2421 47.774L86.4437 46.7945L86.6453 45.8151C85.3357 45.5455 84.0338 45.2596 82.7398 44.9579L82.5128 45.9318ZM90.3867 47.552L90.2111 48.5364C91.5355 48.7727 92.8672 48.992 94.2059 49.1937L94.3549 48.2048L94.5039 47.216C93.1831 47.017 91.8692 46.8006 90.5623 46.5675L90.3867 47.552ZM98.3358 48.7491L98.2139 49.7416C99.5486 49.9055 100.89 50.0514 102.237 50.1789L102.331 49.1833L102.425 48.1878C101.097 48.0621 99.774 47.9181 98.4576 47.7565L98.3358 48.7491ZM106.339 49.5054L106.273 50.5032C107.614 50.5919 108.96 50.6618 110.313 50.7124L110.35 49.7131L110.387 48.7138C109.054 48.664 107.727 48.595 106.405 48.5076L106.339 49.5054ZM114.371 49.8054L114.363 50.8053C115.706 50.8166 117.054 50.8084 118.407 50.7802L118.386 49.7804L118.365 48.7806C117.032 48.8085 115.703 48.8165 114.38 48.8054L114.371 49.8054ZM122.407 49.637L122.457 50.6357C123.798 50.568 125.143 50.4803 126.492 50.3719L126.412 49.3751L126.332 48.3783C125.002 48.4851 123.677 48.5716 122.357 48.6383L122.407 49.637ZM130.418 48.9927L130.528 49.9866C131.861 49.8391 133.198 49.6711 134.539 49.482L134.399 48.4919L134.259 47.5017C132.939 47.6879 131.622 47.8534 130.308 47.9987L130.418 48.9927ZM138.375 47.8699L138.544 48.8554C139.866 48.6282 141.191 48.3801 142.518 48.1107L142.319 47.1306L142.12 46.1506C140.813 46.4161 139.507 46.6605 138.205 46.8843L138.375 47.8699ZM146.248 46.2717L146.477 47.2453C147.783 46.9391 149.091 46.612 150.402 46.2633L150.145 45.2969L149.888 44.3305C148.596 44.6741 147.307 44.9964 146.02 45.298L146.248 46.2717ZM154.011 44.2068L154.297 45.1652C155.584 44.7816 156.873 44.377 158.164 43.9507L157.851 43.0011L157.537 42.0516C156.265 42.4717 154.994 42.8705 153.726 43.2485L154.011 44.2068ZM161.638 41.6892L161.979 42.6293C163.245 42.1702 164.513 41.6901 165.781 41.1883L165.414 40.2584L165.046 39.3285C163.795 39.8232 162.545 40.2966 161.297 40.7491L161.638 41.6892ZM169.108 38.737L169.502 39.6562C170.743 39.1247 171.985 38.5722 173.228 37.9984L172.809 37.0905L172.39 36.1826C171.164 36.7486 169.939 37.2935 168.714 37.8177L169.108 38.737ZM176.405 35.371L176.848 36.2673C178.053 35.6711 179.258 35.0546 180.464 34.4173L179.997 33.5332L179.529 32.6491C178.339 33.2781 177.15 33.8865 175.961 34.4747L176.405 35.371ZM183.516 31.6136L184.006 32.4853C185.171 31.8304 186.336 31.1558 187.501 30.4612L186.989 29.6023L186.476 28.7434C185.326 29.4294 184.176 30.0954 183.026 30.742L183.516 31.6136ZM190.437 27.487L190.97 28.3328C192.092 27.6254 193.213 26.8992 194.334 26.1539L193.781 25.3211L193.227 24.4883C192.119 25.2249 191.011 25.9424 189.903 26.6411L190.437 27.487ZM197.124 23.0407L197.697 23.86C198.787 23.0974 199.877 22.3164 200.966 21.5167L200.375 20.7106L199.783 19.9045C198.706 20.6952 197.628 21.4674 196.551 22.2213L197.124 23.0407ZM203.581 18.3007L204.191 19.0935C205.262 18.27 206.332 17.4281 207.402 16.5676L206.775 15.7885L206.148 15.0093C205.09 15.8606 204.031 16.6935 202.972 17.508L203.581 18.3007ZM209.841 13.2689L210.484 14.0349C211.511 13.1733 212.537 12.2943 213.562 11.3976L212.904 10.6449L212.245 9.89223C211.23 10.78 210.215 11.6501 209.199 12.5028L209.841 13.2689ZM215.915 7.95794L216.588 8.69743C217.566 7.80665 218.544 6.89954 219.521 5.9759L218.834 5.24931L218.147 4.52273C217.179 5.43775 216.211 6.33625 215.241 7.21844L215.915 7.95794ZM221.747 2.44156L222.448 3.15517C222.935 2.67668 223.423 2.194 223.91 1.70711L223.202 1L222.495 0.292893C222.013 0.775446 221.53 1.25379 221.047 1.72796L221.747 2.44156Z" fill="url(#paint0_linear_2004_2714)"/>
<defs>
<linearGradient id="paint0_linear_2004_2714" x1="223.202" y1="25.4051" x2="0.702395" y2="25.4051" gradientUnits="userSpaceOnUse">
<stop stop-color="#061A32"/>
<stop offset="1" stop-color="#0D3463"/>
</linearGradient>
</defs>
</svg>
