<svg width="225" height="51" viewBox="0 0 225 51" fill="none" xmlns="http://www.w3.org/2000/svg">
<path d="M224.202 49.8102C224.202 50.3625 223.755 50.8102 223.202 50.8102H214.202C213.65 50.8102 213.202 50.3625 213.202 49.8102C213.202 49.2579 213.65 48.8102 214.202 48.8102H222.202V40.8102C222.202 40.2579 222.65 39.8102 223.202 39.8102C223.755 39.8102 224.202 40.2579 224.202 40.8102V49.8102ZM0.702393 49.8102L6.87838e-05 49.0983C0.466257 48.6384 0.941559 48.1762 1.42584 47.7122L2.1177 48.4342L2.80956 49.1563C2.33222 49.6136 1.8639 50.069 1.40472 50.522L0.702393 49.8102ZM5.06987 45.6846L4.39846 44.9435C5.38141 44.053 6.39569 43.1576 7.44042 42.2595L8.09234 43.0177L8.74425 43.776C7.7125 44.663 6.71122 45.5469 5.74128 46.4257L5.06987 45.6846ZM11.1567 40.4482L10.5235 39.6742C11.5515 38.8332 12.6054 37.9913 13.6843 37.1502L14.2991 37.9389L14.9139 38.7275C13.8473 39.559 12.8058 40.3911 11.7899 41.2222L11.1567 40.4482ZM17.5155 35.4904L16.9189 34.6879C17.9822 33.8974 19.0672 33.1091 20.1734 32.3242L20.7521 33.1397L21.3308 33.9553C20.2367 34.7316 19.1636 35.5113 18.1121 36.293L17.5155 35.4904ZM24.0556 30.8496L23.4949 30.0216C24.6049 29.2699 25.7342 28.5227 26.8822 27.7812L27.4247 28.6212L27.9673 29.4612C26.8316 30.1948 25.7144 30.934 24.6164 31.6776L24.0556 30.8496ZM30.8078 26.4871L30.2833 25.6356C31.423 24.9336 32.5796 24.2379 33.7525 23.5498L34.2586 24.4123L34.7646 25.2748C33.6041 25.9557 32.4598 26.6439 31.3322 27.3385L30.8078 26.4871ZM37.7488 22.4148L37.2615 21.5416C38.4281 20.8905 39.6097 20.2475 40.8058 19.6135L41.2741 20.497L41.7424 21.3806C40.5592 22.0078 39.3903 22.6439 38.2361 23.288L37.7488 22.4148ZM44.8605 18.6459L44.4117 17.7523C45.6043 17.1533 46.8102 16.5637 48.0292 15.9846L48.4583 16.8878L48.8874 17.791C47.6819 18.3638 46.4891 18.9469 45.3094 19.5395L44.8605 18.6459ZM52.1143 15.2005L51.7054 14.2879C52.9282 13.7402 54.1631 13.2034 55.4097 12.6784L55.7978 13.6L56.1859 14.5216C54.9533 15.0407 53.7323 15.5715 52.5231 16.1132L52.1143 15.2005ZM59.5196 12.0827L59.1528 11.1524C60.4027 10.6595 61.6637 10.179 62.9354 9.71162L63.2804 10.6502L63.6253 11.5888C62.3685 12.0508 61.1221 12.5258 59.8864 13.013L59.5196 12.0827ZM67.0636 9.31032L66.741 8.36379C68.0154 7.92944 69.2998 7.50869 70.5939 7.10236L70.8934 8.05643L71.193 9.01051C69.9145 9.41193 68.6455 9.82765 67.3862 10.2569L67.0636 9.31032ZM74.7329 6.90234L74.4568 5.9412C75.751 5.56951 77.0542 5.2126 78.3662 4.87124L78.618 5.83902L78.8698 6.8068C77.5743 7.14388 76.2872 7.49636 75.0089 7.86349L74.7329 6.90234ZM82.5128 4.87838L82.2857 3.9045C83.5964 3.59893 84.9154 3.30925 86.2421 3.03618L86.4437 4.01565L86.6453 4.99512C85.3357 5.26464 84.0338 5.5506 82.7398 5.85227L82.5128 4.87838ZM90.3867 3.25822L90.2111 2.27376C91.5355 2.03753 92.8672 1.81821 94.2059 1.6165L94.3549 2.60535L94.5039 3.59418C93.1831 3.79317 91.8692 4.00957 90.5623 4.24268L90.3867 3.25822ZM98.3358 2.06109L98.2139 1.06853C99.5486 0.904713 100.89 0.758739 102.237 0.63131L102.331 1.62687L102.425 2.62243C101.097 2.74809 99.774 2.89205 98.4576 3.05364L98.3358 2.06109ZM106.339 1.30481L106.273 0.306988C107.614 0.218311 108.96 0.148342 110.313 0.0977364L110.35 1.09704L110.387 2.09634C109.054 2.14622 107.727 2.2152 106.405 2.30263L106.339 1.30481ZM114.371 1.00483L114.363 0.00485992C115.706 -0.00641632 117.054 0.00175095 118.407 0.0299873L118.386 1.02977L118.365 2.02955C117.032 2.00172 115.703 1.99368 114.38 2.00479L114.371 1.00483ZM122.407 1.17317L122.457 0.174442C123.798 0.242146 125.143 0.329899 126.492 0.438305L126.412 1.43509L126.332 2.43188C125.002 2.32507 123.677 2.23861 122.357 2.17189L122.407 1.17317ZM130.418 1.8175L130.528 0.823559C131.861 0.971043 133.198 1.13904 134.539 1.32813L134.399 2.31833L134.259 3.30853C132.939 3.12224 131.622 2.95673 130.308 2.81144L130.418 1.8175ZM138.375 2.94032L138.544 1.95478C139.866 2.182 141.191 2.43006 142.518 2.69951L142.319 3.67953L142.12 4.65955C140.813 4.39409 139.507 4.14971 138.205 3.92587L138.375 2.94032ZM146.248 4.53852L146.477 3.5649C147.783 3.87103 149.091 4.1982 150.402 4.54691L150.145 5.5133L149.888 6.47969C148.596 6.13609 147.307 5.81374 146.02 5.51214L146.248 4.53852ZM154.011 6.60336L154.297 5.645C155.584 6.02855 156.873 6.43322 158.164 6.85948L157.851 7.80905L157.537 8.75862C156.265 8.3385 154.994 7.9397 153.726 7.56173L154.011 6.60336ZM161.638 9.12096L161.979 8.18085C163.245 8.63993 164.513 9.12011 165.781 9.62184L165.414 10.5518L165.046 11.4817C163.795 10.987 162.545 10.5136 161.297 10.0611L161.638 9.12096ZM169.108 12.0732L169.502 11.1539C170.743 11.6855 171.985 12.238 173.228 12.8118L172.809 13.7197L172.39 14.6276C171.164 14.0616 169.939 13.5166 168.714 12.9925L169.108 12.0732ZM176.405 15.4392L176.848 14.5429C178.053 15.139 179.258 15.7556 180.464 16.3929L179.997 17.277L179.529 18.1611C178.339 17.5321 177.15 16.9237 175.961 16.3354L176.405 15.4392ZM183.516 19.1965L184.006 18.3249C185.171 18.9798 186.336 19.6544 187.501 20.349L186.989 21.2079L186.476 22.0668C185.326 21.3808 184.176 20.7147 183.026 20.0682L183.516 19.1965ZM190.437 23.3232L190.97 22.4774C192.092 23.1848 193.213 23.911 194.334 24.6563L193.781 25.4891L193.227 26.3219C192.119 25.5853 191.011 24.8678 189.903 24.1691L190.437 23.3232ZM197.124 27.7695L197.697 26.9501C198.787 27.7128 199.877 28.4938 200.966 29.2935L200.375 30.0996L199.783 30.9057C198.706 30.1149 197.628 29.3428 196.551 28.5889L197.124 27.7695ZM203.581 32.5094L204.191 31.7167C205.262 32.5402 206.332 33.3821 207.402 34.2425L206.775 35.0217L206.148 35.8009C205.09 34.9495 204.031 34.1167 202.972 33.3022L203.581 32.5094ZM209.841 37.5413L210.484 36.7753C211.511 37.6369 212.537 38.5159 213.562 39.4125L212.904 40.1652L212.245 40.918C211.23 40.0302 210.215 39.1601 209.199 38.3073L209.841 37.5413ZM215.915 42.8522L216.588 42.1128C217.566 43.0035 218.544 43.9106 219.521 44.8343L218.834 45.5609L218.147 46.2874C217.179 45.3724 216.211 44.4739 215.241 43.5917L215.915 42.8522ZM221.747 48.3686L222.448 47.655C222.935 48.1335 223.423 48.6162 223.91 49.1031L223.202 49.8102L222.495 50.5173C222.013 50.0347 221.53 49.5564 221.047 49.0822L221.747 48.3686Z" fill="url(#paint0_linear_2004_2713)"/>
<defs>
<linearGradient id="paint0_linear_2004_2713" x1="223.202" y1="25.4051" x2="0.702395" y2="25.4051" gradientUnits="userSpaceOnUse">
<stop stop-color="#061A32"/>
<stop offset="1" stop-color="#0D3463"/>
</linearGradient>
</defs>
</svg>
