<svg width="76" height="50" viewBox="0 0 76 50" fill="none" xmlns="http://www.w3.org/2000/svg">
<path d="M56.8212 9.32213L40.8478 0.169096C39.7812 -0.442262 38.5758 0.719753 39.1438 1.80806L40.8998 5.15969C27.7405 6.3694 1.39567 9.96384 0.0298729 22.0523C-0.104539 23.3964 0.220651 24.7925 0.884041 25.9502C3.32514 30.1343 9.30431 31.8904 13.7659 32.7619C14.0694 32.8139 14.1865 32.3933 13.9134 32.2763C12.695 31.7646 11.5026 31.2053 10.3579 30.5809C7.79543 29.1804 2.97393 25.9849 3.96685 22.6203C4.99445 19.1169 10.9173 17.4736 14.1908 16.7625C22.9276 15.0195 31.9723 15.1452 40.8825 15.6829L39.1568 18.9608C38.5845 20.0534 39.7899 21.2154 40.8608 20.6041L56.8255 11.4597C57.6493 10.9828 57.6493 9.79474 56.8212 9.32213Z" fill="#1BC8ED"/>
<path d="M18.3793 40.6703L34.3526 49.8233C35.4193 50.4347 36.6246 49.2727 36.0566 48.1844L34.3006 44.8328C47.46 43.6274 73.8048 40.0329 75.1706 27.9445C75.305 26.6004 74.9798 25.2042 74.3164 24.0466C71.8797 19.8624 65.8961 18.1108 61.4345 17.2349C61.131 17.1829 61.0139 17.6035 61.2871 17.7205C62.5055 18.2322 63.6979 18.7915 64.8425 19.4158C67.405 20.8163 72.2265 24.0119 71.2336 27.3765C70.206 30.8799 64.2832 32.5232 61.0096 33.2343C52.2728 34.9773 43.2282 34.8516 34.318 34.3139L36.0436 31.036C36.616 29.9434 35.4106 28.7813 34.3396 29.3927L18.3793 38.5327C17.5555 39.0097 17.5555 40.1977 18.3793 40.6703Z" fill="#174686"/>
</svg>
