<svg width="54" height="62" viewBox="0 0 54 62" fill="none" xmlns="http://www.w3.org/2000/svg">
<path d="M48.8522 19.9527V23.4311C48.8522 30.2 47.697 36.1211 45.4218 41.0284C43.6016 44.9482 41.0638 48.2299 37.8785 50.7863C32.5229 55.0862 27.2636 55.8335 26.9267 55.8772C26.5854 55.8335 21.3304 55.0818 15.9749 50.7863C12.7895 48.2299 10.2517 44.9482 8.43154 41.0284C6.15629 36.1255 5.00117 30.2043 5.00117 23.4311V15.242L26.9267 5.5497L40.8188 11.6893L44.8048 7.90067L26.9267 0L0 11.8991L0 22.9023C0 30.6632 1.34327 37.4932 3.99481 43.2046C6.16942 47.8891 9.21475 51.8219 13.0389 54.8939C19.5934 60.1552 26.2266 61.0467 26.5066 61.0816L26.9267 61.1341L27.3467 61.0816C27.6267 61.0467 34.2556 60.1552 40.8144 54.8939C44.643 51.8219 47.6883 47.8891 49.8629 43.2046C52.5144 37.4932 53.8577 30.6632 53.8577 22.9023V12.1875L48.8522 19.9527Z" fill="#174686"/>
<path d="M52.2044 8.34413L30.0863 42.6867C28.7299 44.7886 25.6934 44.8891 24.2013 42.8834L10.1079 23.9226C9.4866 23.0836 10.4186 21.9824 11.3505 22.4544L26.4372 30.1497L50.6948 7.09872C51.5393 6.2903 52.8344 7.36091 52.2044 8.34413Z" fill="#1BC8ED"/>
<path d="M53.8578 12.1875V22.9067C53.8578 30.6676 52.5145 37.4976 49.863 43.209C47.6884 47.8935 44.6431 51.8263 40.8145 54.8983C34.2557 60.1553 27.6268 61.0467 27.3468 61.086L26.9268 61.1385V55.8816C27.2637 55.8379 32.523 55.0862 37.8786 50.7907C41.0639 48.2343 43.6017 44.9526 45.4219 41.0328C47.6971 36.1299 48.8523 30.2087 48.8523 23.4355V19.9571L53.8578 12.1875Z" fill="#174686"/>
<path d="M44.8049 7.90067L40.8189 11.6893L26.9268 5.5497V0L44.8049 7.90067Z" fill="#174686"/>
</svg>
