<svg width="75" height="75" viewBox="0 0 75 75" fill="none" xmlns="http://www.w3.org/2000/svg">
<g clip-path="url(#clip0_84_2661)">
<mask id="mask0_84_2661" style="mask-type:luminance" maskUnits="userSpaceOnUse" x="0" y="0" width="75" height="75">
<path d="M75 0L0 0L0 75H75V0Z" fill="white"/>
</mask>
<g mask="url(#mask0_84_2661)">
<path d="M6.25 28.125V20.3125C6.25 12.5312 12.5312 6.25 20.3125 6.25H28.125" stroke="#1BC8ED" stroke-width="2.5" stroke-linecap="round" stroke-linejoin="round"/>
<path d="M46.875 6.25H54.6875C62.4688 6.25 68.75 12.5312 68.75 20.3125V28.125" stroke="#1BC8ED" stroke-width="2.5" stroke-linecap="round" stroke-linejoin="round"/>
<path d="M68.75 50V54.6875C68.75 62.4688 62.4688 68.75 54.6875 68.75H50" stroke="#1BC8ED" stroke-width="2.5" stroke-linecap="round" stroke-linejoin="round"/>
<path d="M28.125 68.75H20.3125C12.5312 68.75 6.25 62.4688 6.25 54.6875V46.875" stroke="#1BC8ED" stroke-width="2.5" stroke-linecap="round" stroke-linejoin="round"/>
<path d="M32.8125 21.875V28.125C32.8125 31.25 31.25 32.8125 28.125 32.8125H21.875C18.75 32.8125 17.1875 31.25 17.1875 28.125V21.875C17.1875 18.75 18.75 17.1875 21.875 17.1875H28.125C31.25 17.1875 32.8125 18.75 32.8125 21.875Z" stroke="#174686" stroke-width="3.5" stroke-linecap="round" stroke-linejoin="round"/>
<path d="M42.1875 28.125V21.875C42.1875 18.75 43.75 17.1875 46.875 17.1875H53.125C56.25 17.1875 57.8125 18.75 57.8125 21.875V28.125C57.8125 31.25 56.25 32.8125 53.125 32.8125" stroke="#174686" stroke-width="3.5" stroke-linecap="round" stroke-linejoin="round"/>
<path d="M21.875 42.1875H28.125C31.25 42.1875 32.8125 43.75 32.8125 46.875V53.125C32.8125 56.25 31.25 57.8125 28.125 57.8125H21.875C18.75 57.8125 17.1875 56.25 17.1875 53.125" stroke="#174686" stroke-width="3.5" stroke-linecap="round" stroke-linejoin="round"/>
<path d="M57.8125 46.875V53.125C57.8125 56.25 56.25 57.8125 53.125 57.8125H46.875C43.75 57.8125 42.1875 56.25 42.1875 53.125V46.875C42.1875 43.75 43.75 42.1875 46.875 42.1875H53.125C56.25 42.1875 57.8125 43.75 57.8125 46.875Z" stroke="#174686" stroke-width="3.5" stroke-linecap="round" stroke-linejoin="round"/>
</g>
</g>
<defs>
<clipPath id="clip0_84_2661">
<rect width="75" height="75" fill="white"/>
</clipPath>
</defs>
</svg>
