<svg width="69" height="83" viewBox="0 0 69 83" fill="none" xmlns="http://www.w3.org/2000/svg">
<path d="M66.5987 63.3267L62.1574 59.0632L56.6537 64.7978L61.0949 69.0613C62.1358 70.0622 63.5461 70.4123 64.7379 70.0882C65.2648 69.9449 65.7479 69.6692 66.1405 69.2619L67.0009 68.3646C67.6206 67.716 67.9195 66.8348 67.8442 65.8835C67.7689 64.9323 67.3274 64.026 66.5987 63.3267Z" fill="#174686"/>
<path d="M46.0271 43.5858L45.9672 43.6958C45.4354 44.7106 44.9759 45.776 44.6029 46.8726C44.0965 48.3683 43.7446 49.9157 43.5648 51.4788C43.5412 51.6647 43.5291 51.8787 43.5154 52.1439L43.5117 52.1878L53.7453 62.0098L59.2455 56.2761L46.0271 43.5858Z" fill="#174686"/>
<path d="M43.4331 41.0974L37.933 46.831L43.6937 52.3591L43.704 52.1534C43.7188 51.8918 43.7318 51.6814 43.7527 51.5001C43.9329 49.9526 44.2795 48.4145 44.7816 46.9316C45.1503 45.8479 45.6035 44.7881 46.1337 43.7815L46.1671 43.7178L43.4331 41.0974Z" fill="#174686"/>
<path d="M40.9469 37.2945L40.8851 37.3972C40.1282 38.6606 39.2254 39.8466 38.1978 40.9182C36.9627 42.2024 35.5668 43.3117 34.0443 44.2135L33.9369 44.2778L37.4267 47.6254L44.271 40.4921L40.9469 37.2945Z" fill="#1BC8ED"/>
<path d="M41.7104 18.658C40.7033 16.6334 39.3605 14.8093 37.7166 13.2271C33.9315 9.59689 28.9552 7.65647 23.7121 7.76319C18.4655 7.87091 13.5776 10.0157 9.94293 13.7982C6.31285 17.5833 4.37153 22.5561 4.4793 27.8028C4.58707 33.0496 6.73184 37.9375 10.518 41.5714C13.676 44.6033 17.6401 46.4521 21.9798 46.9267C24.0672 47.1551 26.1651 47.049 28.2197 46.6113C28.5817 46.5362 28.9398 46.4467 29.2959 46.3498C30.9892 45.8894 32.603 45.2086 34.112 44.3144C35.6454 43.4096 37.0475 42.2946 38.288 41.0012C39.3218 39.924 40.2346 38.7314 40.9931 37.4598C43.2318 33.7096 44.1558 29.2437 43.5996 24.8877C43.3155 22.7093 42.6796 20.615 41.7104 18.658ZM7.35995 27.6907C7.4085 28.1419 7.47116 28.7024 7.2556 29.0147C7.10748 29.2306 6.88414 29.342 6.62259 29.3273C6.30885 29.3073 6.00416 29.1052 5.86038 28.8204C5.70901 28.5221 5.68185 28.1783 5.66425 27.8552C5.57611 26.01 5.8126 24.1818 6.37568 22.4208C6.52928 21.9381 6.73247 21.3794 7.07167 20.9048C7.14804 20.7981 7.24159 20.683 7.3701 20.6246C7.39092 20.615 7.41272 20.6091 7.43452 20.6032C7.5617 20.5686 7.68024 20.6027 7.76145 20.643C7.94138 20.7307 8.09218 20.9121 8.1419 21.1093C8.22819 21.441 8.1239 21.7894 8.02391 22.1248L8.01266 22.1552C7.52398 23.8022 7.29055 25.5125 7.31768 27.2339C7.32584 27.3644 7.34554 27.5229 7.35995 27.6907ZM35.2474 38.0857C32.3917 41.0593 28.5495 42.7441 24.4324 42.8295C20.3116 42.9159 16.4034 41.3875 13.4308 38.5354C13.1457 38.2617 12.8694 37.9778 12.6094 37.6817C7.26352 31.713 7.42784 22.5016 12.9835 16.7138C14.9689 14.6441 17.4318 13.2251 20.0661 12.5088C23.8379 11.4831 27.9652 11.8944 31.5583 13.8715C32.7336 14.5197 33.8262 15.323 34.8037 16.263C40.941 22.157 41.1402 31.9447 35.2474 38.0857ZM43.4888 30.4787C43.9367 27.6487 43.7592 24.7428 42.9689 21.9802C43.7635 24.7299 43.9473 27.6302 43.4888 30.4787ZM42.824 21.5045C42.8414 21.5544 42.8599 21.6079 42.8737 21.6588C42.8589 21.6042 42.8414 21.5544 42.824 21.5045Z" fill="#174686"/>
<path d="M31.5867 13.8441C31.5857 13.8405 31.5811 13.8378 31.5765 13.8352C25.4562 10.4576 17.7952 11.6316 12.9478 16.6804C10.2263 19.5161 8.69775 23.2371 8.63772 27.1636C8.57904 31.0664 9.97693 34.815 12.5723 37.7151C12.5769 37.7177 12.5816 37.7204 12.5862 37.723C13.5611 37.8208 14.5565 37.8077 15.5533 37.6849C16.418 37.5786 17.2732 37.4085 18.1198 37.1782C20.409 36.5557 22.6087 35.4893 24.5775 34.0329C27.2158 32.0823 29.3832 29.491 30.8389 26.5352C32.199 23.7732 32.8287 20.7649 32.6571 17.8379C32.5782 16.4857 32.2307 15.1792 31.5867 13.8441ZM19.1215 22.3498C19.459 24.6815 18.7428 27.2138 17.2017 29.1236C16.5068 29.9837 15.6351 30.6813 14.8148 31.037C13.7292 31.5078 12.757 31.4054 11.9239 30.7383C11.1353 30.1059 10.6586 29.0414 10.5067 27.5646C10.2742 25.3176 10.7518 22.9985 11.8541 21.0247C12.6339 19.6302 13.6792 18.7098 14.7692 18.4134C15.0708 18.3314 15.378 18.2986 15.6789 18.3143C16.5742 18.3636 17.4791 18.8785 18.0987 19.6934C18.6207 20.3787 18.9651 21.2724 19.1215 22.3498Z" fill="#AED2ED"/>
<path d="M59.1793 56.2081L59.1126 56.1638L59.0478 56.2126L53.6111 61.8783L56.7207 64.861L56.7897 64.9281L62.2898 59.1944L59.1793 56.2081Z" fill="#1BC8ED"/>
<path d="M31.6103 13.7731L31.3534 13.6322L31.4804 13.8982C32.1168 15.2197 32.4603 16.5117 32.5389 17.8483C32.7092 20.7562 32.0855 23.7433 30.7323 26.4878C27.7552 32.5306 21.9321 36.7755 15.5403 37.5653C14.5543 37.6851 13.5635 37.7009 12.6006 37.6037L12.3598 37.5795L12.5215 37.7579C12.7852 38.0531 13.0634 38.3442 13.3522 38.6169C16.3508 41.4932 20.2848 43.0302 24.4376 42.9468C25.7342 42.922 27.0065 42.736 28.2274 42.404C30.9127 41.6738 33.3604 40.2277 35.3369 38.1683C41.2726 31.9845 41.0718 22.1191 34.8844 16.1842C33.8966 15.2353 32.7984 14.4256 31.6103 13.7731Z" fill="#94C6EA"/>
<path d="M18.1868 19.6185C17.5447 18.7784 16.6085 18.2486 15.6811 18.1964C14.2343 18.1138 12.7602 19.1507 11.7443 20.9684C10.6315 22.9608 10.1463 25.3093 10.3847 27.5781C10.5408 29.0849 11.0337 30.1801 11.8464 30.8294C12.6395 31.4644 13.5057 31.5645 14.3415 31.3372C15.4534 31.0348 16.5142 30.1571 17.2874 29.1976C18.849 27.2627 19.5754 24.6964 19.2327 22.3311C19.0786 21.2335 18.7256 20.3227 18.1868 19.6185Z" fill="#C9DFF0"/>
<path d="M8.16754 21.1009C8.07632 20.7511 7.69112 20.4539 7.36075 20.6022C7.23223 20.6606 7.13505 20.7768 7.05339 20.8926C6.7284 21.3478 6.52556 21.8791 6.35475 22.4134C5.79696 24.165 5.55186 26.019 5.64166 27.856C5.65859 28.1909 5.68938 28.5338 5.84076 28.8321C6.11019 29.3637 6.89936 29.5823 7.27528 29.0274C7.57317 28.5873 7.35254 27.7186 7.34431 27.2291C7.31915 25.515 7.5516 23.8011 8.03763 22.1586C8.14291 21.8139 8.25877 21.4507 8.16754 21.1009Z" fill="#758CC5"/>
<path d="M6.89541 29.4168C6.8082 29.4405 6.71341 29.4507 6.6183 29.4453C6.26064 29.4216 5.9236 29.2011 5.75706 28.8756C5.59612 28.5565 5.566 28.2017 5.54809 27.8632C5.45962 26.0024 5.70042 24.1613 6.26417 22.3885C6.42305 21.8965 6.62791 21.3296 6.97504 20.8411C7.05935 20.7206 7.1681 20.5895 7.32107 20.5206C7.47403 20.4517 7.64774 20.4591 7.81017 20.5398C8.02147 20.6424 8.19668 20.8562 8.25431 21.0825C8.34949 21.4468 8.24089 21.8081 8.13759 22.16L8.12634 22.1904C7.64196 23.8246 7.4092 25.523 7.43799 27.2361C7.44054 27.3603 7.45562 27.5162 7.47366 27.683C7.52581 28.1761 7.58848 28.7366 7.35175 29.0859C7.23735 29.2536 7.08073 29.3664 6.89541 29.4168ZM7.45207 20.6723C7.4339 20.6773 7.41573 20.6822 7.40219 20.6898C7.29085 20.7396 7.20623 20.8445 7.1325 20.9465C6.79859 21.412 6.59804 21.966 6.4461 22.4405C5.88832 24.1922 5.64985 26.0131 5.73601 27.8511C5.75262 28.1705 5.77682 28.5034 5.92424 28.7872C6.05747 29.0476 6.34268 29.2354 6.62901 29.2551C6.86315 29.2695 7.06667 29.1712 7.19694 28.9758C7.39465 28.684 7.33593 28.138 7.29035 27.6977C7.27132 27.5273 7.25526 27.3677 7.25337 27.2317C7.2279 25.502 7.46299 23.7835 7.95068 22.1328L7.96095 22.0988C8.05928 21.7716 8.15926 21.4361 8.07792 21.1226C8.03412 20.9472 7.89917 20.781 7.7331 20.7013C7.66212 20.6698 7.56108 20.6427 7.45207 20.6723Z" fill="#758CC5"/>
</svg>
