<svg width="26" height="26" viewBox="0 0 26 26" fill="none" xmlns="http://www.w3.org/2000/svg">
<path d="M20.9343 10.2661L20.2416 11.2081C19.7453 11.888 19.6794 12.7907 20.0717 13.5354L20.6127 14.5746C20.6684 14.685 20.5398 14.7961 20.4386 14.7249L19.4966 14.0322C18.8168 13.5359 17.9141 13.47 17.1694 13.8623L16.1302 14.4033C16.0198 14.459 15.9086 14.3304 15.9798 14.2292L16.6725 13.2872C17.1688 12.6074 17.2347 11.7047 16.8424 10.96L16.3015 9.9208C16.2457 9.81038 16.3744 9.69924 16.4755 9.77043L17.4175 10.4631C18.0974 10.9594 19.0001 11.0253 19.7448 10.633L20.784 10.0921C20.8944 10.0363 21.0055 10.165 20.9343 10.2661Z" stroke="#174686" stroke-width="1.5" stroke-miterlimit="10"/>
<path d="M17.0547 17.2783L15.8511 20.1682C13.3752 26.1131 10.0541 25.8635 8.4744 19.6296L8.00177 17.7517C7.88061 17.275 7.40338 16.7226 6.94925 16.5334L5.1534 15.7855C-0.784953 13.3171 -0.541923 9.98845 5.69198 8.40879L14.9675 6.05155C17.5605 5.39717 19.3268 6.06495 19.9012 7.61703" stroke="#174686" stroke-width="1.5" stroke-linecap="round" stroke-linejoin="round"/>
<path opacity="0.4" d="M7.69168 16.9493L11.778 13.4191" stroke="#174686" stroke-width="1.5" stroke-linecap="round" stroke-linejoin="round"/>
</svg>
