<svg width="66" height="66" viewBox="0 0 66 66" fill="none" xmlns="http://www.w3.org/2000/svg">
<path fill-rule="evenodd" clip-rule="evenodd" d="M19.6849 4.0215C19.1542 3.87206 18.5989 3.83036 18.0518 3.89887C17.5046 3.96738 16.9768 4.14471 16.4992 4.42041C16.0217 4.69611 15.6042 5.06459 15.2713 5.50416C14.9384 5.94372 14.6969 6.44547 14.5609 6.97984L13.6312 10.6416C13.4484 11.3627 13.0743 12.0211 12.5484 12.5472C12.0226 13.0734 11.3644 13.4478 10.6434 13.6309L6.98221 14.5615C6.44792 14.6975 5.94626 14.9391 5.50677 15.272C5.06729 15.6049 4.69888 16.0224 4.42324 16.4999C4.1476 16.9773 3.97031 17.5052 3.90181 18.0522C3.83331 18.5993 3.87499 19.1545 4.02439 19.6852L5.04609 23.3224C5.24787 24.038 5.2528 24.7948 5.06036 25.513C4.86792 26.2312 4.48524 26.8842 3.95267 27.4031L1.2472 30.0385C0.852462 30.4234 0.538749 30.8834 0.324542 31.3915C0.110336 31.8995 -3.29378e-05 32.4452 -6.10287e-05 32.9966C-9.04862e-05 33.5479 0.110223 34.0936 0.324377 34.6017C0.538531 35.1097 0.852196 35.5698 1.24689 35.9547L3.95433 38.5948C4.48716 39.1139 4.86995 39.7672 5.06231 40.4858C5.25466 41.2044 5.24944 41.9616 5.0472 42.6775L4.0215 46.3136C3.87206 46.8443 3.83037 47.3996 3.89888 47.9467C3.96739 48.4939 4.14471 49.0217 4.42041 49.4992C4.69611 49.9768 5.0646 50.3943 5.50416 50.7272C5.94373 51.0601 6.44548 51.3016 6.97984 51.4376L10.6437 52.3709C11.3639 52.5537 12.0216 52.9274 12.5473 53.4526C13.073 53.9778 13.4474 54.635 13.6309 55.3551L14.5615 59.0163C14.6975 59.5506 14.9391 60.0522 15.272 60.4917C15.6049 60.9312 16.0224 61.2996 16.4999 61.5753C16.9773 61.8509 17.5052 62.0282 18.0522 62.0967C18.5993 62.1652 19.1545 62.1235 19.6852 61.9741L23.3224 60.9524C24.038 60.7506 24.7948 60.7457 25.513 60.9381C26.2312 61.1306 26.8842 61.5133 27.4031 62.0458L30.0385 64.7513C30.4232 65.1466 30.8832 65.4608 31.3913 65.6755C31.8993 65.8902 32.4453 66.001 32.9968 66.0014C33.5484 66.0018 34.0945 65.8917 34.6028 65.6776C35.1112 65.4636 35.5716 65.15 35.9568 64.7552L38.5968 62.0477C39.1154 61.5146 39.7682 61.1314 40.4864 60.9384C41.2046 60.7454 41.9616 60.7499 42.6775 60.9513L46.3136 61.977C46.8443 62.1264 47.3996 62.1681 47.9467 62.0996C48.4939 62.0311 49.0217 61.8538 49.4993 61.5781C49.9768 61.3024 50.3943 60.9339 50.7272 60.4943C51.0601 60.0548 51.3016 59.553 51.4376 59.0186L52.3709 55.3548C52.5544 54.635 52.9287 53.9779 53.4542 53.4528C53.9798 52.9277 54.6372 52.5541 55.3572 52.3711L59.0184 51.4406C59.5529 51.3043 60.0547 51.0625 60.4942 50.7293C60.9337 50.396 61.3021 49.9782 61.5776 49.5003C61.8531 49.0224 62.0301 48.4943 62.0982 47.9469C62.1663 47.3995 62.1241 46.8441 61.9741 46.3133L60.9524 42.6761C60.7506 41.9605 60.7457 41.2036 60.9381 40.4854C61.1306 39.7672 61.5133 39.1143 62.0458 38.5954L64.7513 35.96C65.1466 35.5753 65.4608 35.1153 65.6755 34.6072C65.8903 34.0992 66.001 33.5532 66.0014 33.0017C66.0018 32.4501 65.8917 31.904 65.6776 31.3957C65.4636 30.8873 65.15 30.4269 64.7552 30.0417L62.0498 27.4052C61.5167 26.8867 61.1335 26.2339 60.9405 25.5157C60.7475 24.7974 60.752 24.0405 60.9534 23.3246L61.977 19.6849C62.1264 19.1542 62.1681 18.5989 62.0996 18.0518C62.0311 17.5046 61.8538 16.9768 61.5781 16.4992C61.3024 16.0217 60.9339 15.6042 60.4943 15.2713C60.0548 14.9384 59.553 14.6969 59.0186 14.5609L55.3569 13.6312C54.6362 13.4477 53.9784 13.073 53.4529 12.5468C52.9274 12.0206 52.5537 11.3622 52.3711 10.6413L51.4406 6.98014C51.3044 6.44564 51.0625 5.94383 50.7293 5.50429C50.396 5.06475 49.9782 4.69638 49.5003 4.42091C49.0224 4.14543 48.4943 3.96842 47.9469 3.90032C47.3995 3.83222 46.8441 3.87441 46.3133 4.02439L42.6761 5.04609C41.9605 5.24787 41.2037 5.25279 40.4855 5.06035C39.7673 4.86791 39.1143 4.48523 38.5954 3.95267L35.96 1.24719C35.5751 0.852458 35.115 0.538746 34.607 0.32454C34.099 0.110332 33.5533 -3.5918e-05 33.0019 -6.59163e-05C32.4506 -9.44201e-05 31.9048 0.11022 31.3968 0.324374C30.8888 0.538528 30.4287 0.852194 30.0438 1.24689L27.4073 3.95226C26.8881 4.48608 26.2342 4.86964 25.5149 5.06238C24.7956 5.25512 24.0376 5.24987 23.321 5.04719L19.6849 4.0215ZM42.9672 19.0859C43.1942 18.2956 43.0979 17.4475 42.6996 16.7282C42.3013 16.0088 41.6336 15.4772 40.8433 15.2502C40.053 15.0232 39.2049 15.1194 38.4855 15.5177C37.7662 15.916 37.2345 16.5838 37.0075 17.3741L30.4622 40.1987L23.0331 38.2141C22.2383 38.0024 21.3919 38.115 20.6802 38.5273C19.9685 38.9395 19.4496 39.6176 19.2379 40.4124C19.0261 41.2072 19.1388 42.0535 19.551 42.7653C19.9633 43.477 20.6414 43.9958 21.4362 44.2076L31.8054 46.9709C32.589 47.1805 33.4236 47.0745 34.1299 46.6756C34.8362 46.2767 35.358 45.6168 35.5831 44.8375L42.9672 19.0859Z" fill="#19FA42"/>
</svg>
